<svg xmlns="http://www.w3.org/2000/svg" class="svglite" viewBox="0 0 810 476"><rect width="100%" height="100%" fill="#fff"/><defs><clipPath id="figure-01-04svg-a"><rect x="0" y="0" width="810" height="476" fill="none" stroke="#000" stroke-linecap="round" stroke-linejoin="round" stroke-miterlimit="10"/></clipPath></defs><g clip-path="url(#figure-01-04svg-a)"><rect x="0" y="0" width="810" height="476" stroke-width="1.07" stroke="#fff" fill="#fff" stroke-linecap="round" stroke-linejoin="round" stroke-miterlimit="10"/><rect x="83.71" y="28.35" width="456.99" height="287.98" fill="#fff"/><polyline points="83.71 316.33 540.71 316.33" stroke-width="1.07" stroke="#c6c4c4" stroke-linecap="butt" fill="none" stroke-linejoin="round" stroke-miterlimit="10"/><polyline points="83.71 268.33 540.71 268.33" stroke-width="1.07" stroke="#c6c4c4" stroke-linecap="butt" fill="none" stroke-linejoin="round" stroke-miterlimit="10"/><polyline points="83.71 220.33 540.71 220.33" stroke-width="1.07" stroke="#c6c4c4" stroke-linecap="butt" fill="none" stroke-linejoin="round" stroke-miterlimit="10"/><polyline points="83.71 172.34 540.71 172.34" stroke-width="1.07" stroke="#c6c4c4" stroke-linecap="butt" fill="none" stroke-linejoin="round" stroke-miterlimit="10"/><polyline points="83.71 124.34 540.71 124.34" stroke-width="1.07" stroke="#c6c4c4" stroke-linecap="butt" fill="none" stroke-linejoin="round" stroke-miterlimit="10"/><polyline points="83.71 76.34 540.71 76.34" stroke-width="1.07" stroke="#c6c4c4" stroke-linecap="butt" fill="none" stroke-linejoin="round" stroke-miterlimit="10"/><polyline points="83.71 28.35 540.71 28.35" stroke-width="1.07" stroke="#c6c4c4" stroke-linecap="butt" fill="none" stroke-linejoin="round" stroke-miterlimit="10"/><text x="566.1" y="28.75" textLength="14.98" lengthAdjust="spacingAndGlyphs" font-size="14" font-weight="700" font-family="Asap">12</text><text x="584.44" y="28.75" textLength="30.04" lengthAdjust="spacingAndGlyphs" font-size="14" font-weight="700" font-family="Asap">MPH</text><text x="566.1" y="45.48" textLength="33.85" lengthAdjust="spacingAndGlyphs" font-size="14" font-family="Asap">News</text><text x="603.31" y="45.48" textLength="12.51" lengthAdjust="spacingAndGlyphs" font-size="14" font-family="Asap">of</text><text x="619.19" y="45.48" textLength="53.34" lengthAdjust="spacingAndGlyphs" font-size="14" font-family="Asap">Lincoln&apos;s</text><text x="675.89" y="45.48" textLength="81.78" lengthAdjust="spacingAndGlyphs" font-size="14" font-family="Asap">assassination</text><text x="566.1" y="62.22" textLength="41.82" lengthAdjust="spacingAndGlyphs" font-size="14" font-family="Asap">travels</text><text x="611.28" y="62.22" textLength="39.07" lengthAdjust="spacingAndGlyphs" font-size="14" font-family="Asap">across</text><text x="653.72" y="62.22" textLength="20.25" lengthAdjust="spacingAndGlyphs" font-size="14" font-family="Asap">the</text><text x="677.33" y="62.22" textLength="16.96" lengthAdjust="spacingAndGlyphs" font-size="14" font-family="Asap">US</text><text x="697.66" y="62.22" textLength="38.38" lengthAdjust="spacingAndGlyphs" font-size="14" font-family="Asap">(1865)</text><text x="566.1" y="103.87" textLength="7.49" lengthAdjust="spacingAndGlyphs" font-size="14" font-weight="700" font-family="Asap">7</text><text x="576.95" y="103.87" textLength="30.04" lengthAdjust="spacingAndGlyphs" font-size="14" font-weight="700" font-family="Asap">MPH</text><text x="566.1" y="120.61" textLength="33.85" lengthAdjust="spacingAndGlyphs" font-size="14" font-family="Asap">News</text><text x="603.31" y="120.61" textLength="12.51" lengthAdjust="spacingAndGlyphs" font-size="14" font-family="Asap">of</text><text x="619.19" y="120.61" textLength="53.34" lengthAdjust="spacingAndGlyphs" font-size="14" font-family="Asap">Lincoln&apos;s</text><text x="675.89" y="120.61" textLength="50.3" lengthAdjust="spacingAndGlyphs" font-size="14" font-family="Asap">election</text><text x="729.55" y="120.61" textLength="48.33" lengthAdjust="spacingAndGlyphs" font-size="14" font-family="Asap">reaches</text><text x="566.1" y="137.34" textLength="28.58" lengthAdjust="spacingAndGlyphs" font-size="14" font-family="Asap">west</text><text x="598.04" y="137.34" textLength="32.95" lengthAdjust="spacingAndGlyphs" font-size="14" font-family="Asap">coast</text><text x="634.35" y="137.34" textLength="12.51" lengthAdjust="spacingAndGlyphs" font-size="14" font-family="Asap">of</text><text x="650.23" y="137.34" textLength="16.96" lengthAdjust="spacingAndGlyphs" font-size="14" font-family="Asap">US</text><text x="670.55" y="137.34" textLength="29.51" lengthAdjust="spacingAndGlyphs" font-size="14" font-family="Asap">from</text><text x="703.43" y="137.34" textLength="73.38" lengthAdjust="spacingAndGlyphs" font-size="14" font-family="Asap">Washington</text><text x="566.1" y="154.08" textLength="18.4" lengthAdjust="spacingAndGlyphs" font-size="14" font-family="Asap">DC</text><text x="587.86" y="154.08" textLength="11.51" lengthAdjust="spacingAndGlyphs" font-size="14" font-family="Asap">in</text><text x="602.72" y="154.08" textLength="25.75" lengthAdjust="spacingAndGlyphs" font-size="14" font-family="Asap">east</text><text x="631.83" y="154.08" textLength="38.38" lengthAdjust="spacingAndGlyphs" font-size="14" font-family="Asap">(1860)</text><text x="566.1" y="196.73" textLength="17.75" lengthAdjust="spacingAndGlyphs" font-size="14" font-weight="700" font-family="Asap">3.7</text><text x="587.21" y="196.73" textLength="30.04" lengthAdjust="spacingAndGlyphs" font-size="14" font-weight="700" font-family="Asap">MPH</text><text x="566.1" y="213.47" textLength="33.85" lengthAdjust="spacingAndGlyphs" font-size="14" font-family="Asap">News</text><text x="603.31" y="213.47" textLength="12.51" lengthAdjust="spacingAndGlyphs" font-size="14" font-family="Asap">of</text><text x="619.19" y="213.47" textLength="20.25" lengthAdjust="spacingAndGlyphs" font-size="14" font-family="Asap">the</text><text x="642.8" y="213.47" textLength="38.81" lengthAdjust="spacingAndGlyphs" font-size="14" font-family="Asap">Indian</text><text x="684.97" y="213.47" textLength="42.7" lengthAdjust="spacingAndGlyphs" font-size="14" font-family="Asap">mutiny</text><text x="731.03" y="213.47" textLength="48.33" lengthAdjust="spacingAndGlyphs" font-size="14" font-family="Asap">reaches</text><text x="566.1" y="230.21" textLength="46.21" lengthAdjust="spacingAndGlyphs" font-size="14" font-family="Asap">London</text><text x="615.67" y="230.21" textLength="29.51" lengthAdjust="spacingAndGlyphs" font-size="14" font-family="Asap">from</text><text x="648.54" y="230.21" textLength="33.06" lengthAdjust="spacingAndGlyphs" font-size="14" font-family="Asap">Delhi</text><text x="684.96" y="230.21" textLength="38.38" lengthAdjust="spacingAndGlyphs" font-size="14" font-family="Asap">(1857)</text><text x="566.1" y="271.86" textLength="17.75" lengthAdjust="spacingAndGlyphs" font-size="14" font-weight="700" font-family="Asap">2.7</text><text x="587.21" y="271.86" textLength="30.04" lengthAdjust="spacingAndGlyphs" font-size="14" font-weight="700" font-family="Asap">MPH</text><text x="566.1" y="288.59" textLength="33.85" lengthAdjust="spacingAndGlyphs" font-size="14" font-family="Asap">News</text><text x="603.31" y="288.59" textLength="12.51" lengthAdjust="spacingAndGlyphs" font-size="14" font-family="Asap">of</text><text x="619.19" y="288.59" textLength="36.88" lengthAdjust="spacingAndGlyphs" font-size="14" font-family="Asap">battle</text><text x="659.43" y="288.59" textLength="12.51" lengthAdjust="spacingAndGlyphs" font-size="14" font-family="Asap">of</text><text x="675.31" y="288.59" textLength="59.97" lengthAdjust="spacingAndGlyphs" font-size="14" font-family="Asap">Trafalgar,</text><text x="738.64" y="288.59" textLength="17.06" lengthAdjust="spacingAndGlyphs" font-size="14" font-family="Asap">off</text><text x="566.1" y="305.33" textLength="32.95" lengthAdjust="spacingAndGlyphs" font-size="14" font-family="Asap">coast</text><text x="602.41" y="305.33" textLength="12.51" lengthAdjust="spacingAndGlyphs" font-size="14" font-family="Asap">of</text><text x="618.29" y="305.33" textLength="36.93" lengthAdjust="spacingAndGlyphs" font-size="14" font-family="Asap">Spain,</text><text x="658.58" y="305.33" textLength="48.33" lengthAdjust="spacingAndGlyphs" font-size="14" font-family="Asap">reaches</text><text x="710.28" y="305.33" textLength="46.21" lengthAdjust="spacingAndGlyphs" font-size="14" font-family="Asap">London</text><text x="566.1" y="322.07" textLength="38.38" lengthAdjust="spacingAndGlyphs" font-size="14" font-family="Asap">(1805)</text><text x="83.71" y="425.32" textLength="7.49" lengthAdjust="spacingAndGlyphs" font-size="14" font-weight="700" font-family="Asap">1</text><text x="94.56" y="425.32" textLength="30.04" lengthAdjust="spacingAndGlyphs" font-size="14" font-weight="700" font-family="Asap">MPH</text><text x="83.71" y="442.06" textLength="53.99" lengthAdjust="spacingAndGlyphs" font-size="14" font-family="Asap">Between</text><text x="141.06" y="442.06" textLength="34.83" lengthAdjust="spacingAndGlyphs" font-size="14" font-family="Asap">Egypt</text><text x="179.26" y="442.06" textLength="23.34" lengthAdjust="spacingAndGlyphs" font-size="14" font-family="Asap">and</text><text x="205.96" y="442.06" textLength="27.27" lengthAdjust="spacingAndGlyphs" font-size="14" font-family="Asap">Italy</text><text x="83.71" y="458.79" textLength="52.86" lengthAdjust="spacingAndGlyphs" font-size="14" font-family="Asap">(50–222)</text><text x="337.6" y="425.32" textLength="7.49" lengthAdjust="spacingAndGlyphs" font-size="14" font-weight="700" font-family="Asap">1</text><text x="348.45" y="425.32" textLength="30.04" lengthAdjust="spacingAndGlyphs" font-size="14" font-weight="700" font-family="Asap">MPH</text><text x="337.6" y="442.06" textLength="53.99" lengthAdjust="spacingAndGlyphs" font-size="14" font-family="Asap">Between</text><text x="394.95" y="442.06" textLength="42.03" lengthAdjust="spacingAndGlyphs" font-size="14" font-family="Asap">Venice</text><text x="440.34" y="442.06" textLength="23.34" lengthAdjust="spacingAndGlyphs" font-size="14" font-family="Asap">and</text><text x="467.04" y="442.06" textLength="65.79" lengthAdjust="spacingAndGlyphs" font-size="14" font-family="Asap">Damascus,</text><text x="536.19" y="442.06" textLength="69.66" lengthAdjust="spacingAndGlyphs" font-size="14" font-family="Asap">Alexandria,</text><text x="337.6" y="458.79" textLength="39.99" lengthAdjust="spacingAndGlyphs" font-size="14" font-family="Asap">Lisbon</text><text x="380.95" y="458.79" textLength="23.34" lengthAdjust="spacingAndGlyphs" font-size="14" font-family="Asap">and</text><text x="407.66" y="458.79" textLength="52.28" lengthAdjust="spacingAndGlyphs" font-size="14" font-family="Asap">Palermo</text><text x="463.3" y="458.79" textLength="38.38" lengthAdjust="spacingAndGlyphs" font-size="14" font-family="Asap">(1500)</text><polyline points="83.71 292.33 84.22 292.33 84.73 292.33 85.24 292.33 85.75 292.33 86.25 292.33 86.76 292.33 87.27 292.33 87.78 292.33 88.28 292.33 88.79 292.33 89.3 292.33 89.81 292.33 90.32 292.33 90.82 292.33 91.33 292.33 91.84 292.33 92.35 292.33 92.85 292.33 93.36 292.33 93.87 292.33 94.38 292.33 94.89 292.33 95.39 292.33 95.9 292.33 96.41 292.33 96.92 292.33 97.42 292.33 97.93 292.33 98.44 292.33 98.95 292.33 99.46 292.33 99.96 292.33 100.47 292.33 100.98 292.33 101.49 292.33 101.99 292.33 102.5 292.33 103.01 292.33 103.52 292.33 104.03 292.33 104.53 292.33 105.04 292.33 105.55 292.33 106.06 292.33 106.56 292.33 107.07 292.33 107.58 292.33 108.09 292.33 108.6 292.33 109.1 292.33 109.61 292.33 110.12 292.33 110.63 292.33 111.13 292.33 111.64 292.33 112.15 292.33 112.66 292.33 113.17 292.33 113.67 292.33 114.18 292.33 114.69 292.33 115.2 292.33 115.7 292.33 116.21 292.33 116.72 292.33 117.23 292.33 117.74 292.33 118.24 292.33 118.75 292.33 119.26 292.33 119.77 292.33 120.27 292.33 120.78 292.33 121.29 292.33 121.8 292.33 122.31 292.33 122.81 292.33 123.32 292.33 123.83 292.33 124.34 292.33 124.84 292.33 125.35 292.33 125.86 292.33 126.37 292.33 126.88 292.33 127.38 292.33 127.89 292.33 128.4 292.33 128.91 292.33 129.41 292.33 129.92 292.33 130.43 292.33 130.94 292.33 131.44 292.33 131.95 292.33 132.46 292.33 132.97 292.33 133.48 292.33 133.98 292.33 134.49 292.33 135 292.33 135.51 292.33 136.01 292.33 136.52 292.33 137.03 292.33 137.54 292.33 138.05 292.33 138.55 292.33 139.06 292.33 139.57 292.33 140.08 292.33 140.58 292.33 141.09 292.33 141.6 292.33 142.11 292.33 142.62 292.33 143.12 292.33 143.63 292.33 144.14 292.33 144.65 292.33 145.15 292.33 145.66 292.33 146.17 292.33 146.68 292.33 147.19 292.33 147.69 292.33 148.2 292.33 148.71 292.33 149.22 292.33 149.72 292.33 150.23 292.33 150.74 292.33 151.25 292.33 151.76 292.33 152.26 292.33 152.77 292.33 153.28 292.33 153.79 292.33 154.29 292.33 154.8 292.33 155.31 292.33 155.82 292.33 156.33 292.33 156.83 292.33 157.34 292.33 157.85 292.33 158.36 292.33 158.86 292.33 159.37 292.33 159.88 292.33 160.39 292.33 160.9 292.33 161.4 292.33 161.91 292.33 162.42 292.33 162.93 292.33 163.43 292.33 163.94 292.33 164.45 292.33 164.96 292.33 165.47 292.33 165.97 292.33 166.48 292.33 166.99 292.33 167.5 292.33 168 292.33 168.51 292.33 169.02 292.33 169.53 292.33 170.04 292.33 170.54 292.33 171.05 292.33 171.56 292.33 172.07 292.33 172.57 292.33 173.08 292.33 173.59 292.33 174.1 292.33 174.61 292.33 175.11 292.33 175.62 292.33 176.13 292.33 176.64 292.33 177.14 292.33 177.65 292.33 178.16 292.33 178.67 292.33 179.18 292.33 179.68 292.33 180.19 292.33 180.7 292.33 181.21 292.33 181.71 292.33 182.22 292.33 182.73 292.33 183.24 292.33 183.75 292.33 184.25 292.33 184.76 292.33 185.27 292.33 185.78 292.33 186.28 292.33 186.79 292.33 187.3 292.33 187.81 292.33 188.32 292.33 188.82 292.33 189.33 292.33 189.84 292.33 190.35 292.33 190.85 292.33 191.36 292.33 191.87 292.33 192.38 292.33 192.89 292.33 193.39 292.33 193.9 292.33 194.41 292.33 194.92 292.33 195.42 292.33 195.93 292.33 196.44 292.33 196.95 292.33 197.46 292.33 197.96 292.33 198.47 292.33 198.98 292.33 199.49 292.33 199.99 292.33 200.5 292.33 201.01 292.33 201.52 292.33 202.03 292.33 202.53 292.33 203.04 292.33 203.55 292.33 204.06 292.33 204.56 292.33 205.07 292.33 205.58 292.33 206.09 292.33 206.6 292.33 207.1 292.33 207.61 292.33 208.12 292.33 208.63 292.33 209.13 292.33 209.64 292.33 210.15 292.33 210.66 292.33 211.17 292.33 211.67 292.33 212.18 292.33 212.69 292.33 213.2 292.33 213.7 292.33 214.21 292.33 214.72 292.33 215.23 292.33 215.73 292.33 216.24 292.33 216.75 292.33 217.26 292.33 217.77 292.33 218.27 292.33 218.78 292.33 219.29 292.33 219.8 292.33 220.3 292.33 220.81 292.33 221.32 292.33 221.83 292.33 222.34 292.33 222.84 292.33 223.35 292.33 223.86 292.33 224.37 292.33 224.87 292.33 225.38 292.33 225.89 292.33 226.4 292.33 226.91 292.33 227.41 292.33 227.92 292.33 228.43 292.33 228.94 292.33 229.44 292.33 229.95 292.33 230.46 292.33 230.97 292.33 231.48 292.33 231.98 292.33 232.49 292.33 233 292.33 233.51 292.33 234.01 292.33 234.52 292.33 235.03 292.33 235.54 292.33 236.05 292.33 236.55 292.33 237.06 292.33 237.57 292.33 238.08 292.33 238.58 292.33 239.09 292.33 239.6 292.33 240.11 292.33 240.62 292.33 241.12 292.33 241.63 292.33 242.14 292.33 242.65 292.33 243.15 292.33 243.66 292.33 244.17 292.33 244.68 292.33 245.19 292.33 245.69 292.33 246.2 292.33 246.71 292.33 247.22 292.33 247.72 292.33 248.23 292.33 248.74 292.33 249.25 292.33 249.76 292.33 250.26 292.33 250.77 292.33 251.28 292.33 251.79 292.33 252.29 292.33 252.8 292.33 253.31 292.33 253.82 292.33 254.33 292.33 254.83 292.33 255.34 292.33 255.85 292.33 256.36 292.33 256.86 292.33 257.37 292.33 257.88 292.33 258.39 292.33 258.9 292.33 259.4 292.33 259.91 292.33 260.42 292.33 260.93 292.33 261.43 292.33 261.94 292.33 262.45 292.33 262.96 292.33 263.47 292.33 263.97 292.33 264.48 292.33 264.99 292.33 265.5 292.33 266 292.33 266.51 292.33 267.02 292.33 267.53 292.33 268.04 292.33 268.54 292.33 269.05 292.33 269.56 292.33 270.07 292.33 270.57 292.33 271.08 292.33 271.59 292.33 272.1 292.33 272.61 292.33 273.11 292.33 273.62 292.33 274.13 292.33 274.64 292.33 275.14 292.33 275.65 292.33 276.16 292.33 276.67 292.33 277.18 292.33 277.68 292.33 278.19 292.33 278.7 292.33 279.21 292.33 279.71 292.33 280.22 292.33 280.73 292.33 281.24 292.33 281.75 292.33 282.25 292.33 282.76 292.33 283.27 292.33 283.78 292.33 284.28 292.33 284.79 292.33 285.3 292.33 285.81 292.33 286.32 292.33 286.82 292.33 287.33 292.33 287.84 292.33 288.35 292.33 288.85 292.33 289.36 292.33 289.87 292.33 290.38 292.33 290.89 292.33 291.39 292.33 291.9 292.33 292.41 292.33 292.92 292.33 293.42 292.33 293.93 292.33 294.44 292.33 294.95 292.33 295.46 292.33 295.96 292.33 296.47 292.33 296.98 292.33 297.49 292.33 297.99 292.33 298.5 292.33 299.01 292.33 299.52 292.33 300.03 292.33 300.53 292.33 301.04 292.33 301.55 292.33 302.06 292.33 302.56 292.33 303.07 292.33 303.58 292.33 304.09 292.33 304.59 292.33 305.1 292.33 305.61 292.33 306.12 292.33 306.63 292.33 307.13 292.33 307.64 292.33 308.15 292.33 308.66 292.33 309.16 292.33 309.67 292.33 310.18 292.33 310.69 292.33 311.2 292.33 311.7 292.33 312.21 292.33 312.72 292.33 313.23 292.33 313.73 292.33 314.24 292.33 314.75 292.33 315.26 292.33 315.77 292.33 316.27 292.33 316.78 292.33 317.29 292.33 317.8 292.33 318.3 292.33 318.81 292.33 319.32 292.33 319.83 292.33 320.34 292.33 320.84 292.33 321.35 292.33 321.86 292.33 322.37 292.33 322.87 292.33 323.38 292.33 323.89 292.33 324.4 292.33 324.91 292.33 325.41 292.33 325.92 292.33 326.43 292.33 326.94 292.33 327.44 292.33 327.95 292.33 328.46 292.33 328.97 292.33 329.48 292.33 329.98 292.33 330.49 292.33 331 292.33 331.51 292.33 332.01 292.33 332.52 292.33 333.03 292.33 333.54 292.33 334.05 292.33 334.55 292.33 335.06 292.33 335.57 292.33 336.08 292.33 336.58 292.33 337.09 292.33 337.6 292.33 338.11 292.33 338.62 292.33 339.12 292.33 339.63 292.33 340.14 292.33 340.65 292.33 341.15 292.33 341.66 292.33 342.17 292.33 342.68 292.33 343.19 292.33 343.69 292.33 344.2 292.33 344.71 292.33 345.22 292.33 345.72 292.33 346.23 292.33 346.74 292.33 347.25 292.33 347.76 292.33 348.26 292.33 348.77 292.33 349.28 292.33 349.79 292.33 350.29 292.33 350.8 292.33 351.31 292.33 351.82 292.33 352.33 292.33 352.83 292.33 353.34 292.33 353.85 292.33 354.36 292.33 354.86 292.33 355.37 292.33 355.88 292.33 356.39 292.33 356.9 292.33 357.4 292.33 357.91 292.33 358.42 292.33 358.93 292.33 359.43 292.33 359.94 292.33 360.45 292.33 360.96 292.33 361.47 292.33 361.97 292.33 362.48 292.33 362.99 292.33 363.5 292.33 364 292.33 364.51 292.33 365.02 292.33 365.53 292.33 366.04 292.33 366.54 292.33 367.05 292.33 367.56 292.33 368.07 292.33 368.57 292.33 369.08 292.33 369.59 292.33 370.1 292.33 370.61 292.33 371.11 292.33 371.62 292.33 372.13 292.33 372.64 292.33 373.14 292.33 373.65 292.33 374.16 292.33 374.67 292.33 375.18 292.33 375.68 292.33 376.19 292.33 376.7 292.33 377.21 292.33 377.71 292.33 378.22 292.33 378.73 292.33 379.24 292.33 379.75 292.33 380.25 292.33 380.76 292.33 381.27 292.33 381.78 292.33 382.28 292.33 382.79 292.33 383.3 292.33 383.81 292.33 384.32 292.33 384.82 292.33 385.33 292.33 385.84 292.33 386.35 292.33 386.85 292.33 387.36 292.33 387.87 292.33 388.38 292.33 388.89 292.33 389.39 292.33 389.9 292.33 390.41 292.33 390.92 292.33 391.42 292.33 391.93 292.33 392.44 292.33 392.95 292.33 393.45 292.33 393.96 292.33 394.47 292.33 394.98 292.33 395.49 292.33 395.99 292.33 396.5 292.33 397.01 292.33 397.52 292.33 398.02 292.33 398.53 292.33 399.04 292.33 399.55 292.33 400.06 292.33 400.56 292.33 401.07 292.33 401.58 292.33 402.09 292.33 402.59 292.33 403.1 292.33 403.61 292.33 404.12 292.33 404.63 292.33 405.13 292.33 405.64 292.33 406.15 292.33 406.66 292.33 407.16 292.33 407.67 292.33 408.18 292.33 408.69 292.33 409.2 292.33 409.7 292.33 410.21 292.33 410.72 292.33 411.23 292.33 411.73 292.33 412.24 292.33 412.75 292.33 413.26 292.33 413.77 292.33 414.27 292.33 414.78 292.33 415.29 292.33 415.8 292.33 416.3 292.33 416.81 292.33 417.32 292.33 417.83 292.33 418.34 292.33 418.84 292.33 419.35 292.33 419.86 292.33 420.37 292.33 420.87 292.33 421.38 292.33 421.89 292.33 422.4 292.33 422.91 292.33 423.41 292.33 423.92 292.33 424.43 292.33 424.94 292.33 425.44 292.33 425.95 292.33 426.46 292.33 426.97 292.33 427.48 292.33 427.98 292.33 428.49 292.33 429 292.33 429.51 292.33 430.01 292.33 430.52 292.33 431.03 292.33 431.54 292.33 432.05 292.33 432.55 292.33 433.06 292.33 433.57 292.33 434.08 292.33 434.58 292.33 435.09 292.33 435.6 292.33 436.11 292.33 436.62 292.33 437.12 292.33 437.63 292.33 438.14 292.33 438.65 292.33 439.15 292.33 439.66 292.33 440.17 292.33 440.68 292.33 441.19 292.33 441.69 292.33 442.2 292.33 442.71 292.33 443.22 292.33 443.72 292.33 444.23 292.33 444.74 292.33 445.25 292.33 445.76 292.33 446.26 292.33 446.77 292.33 447.28 292.33 447.79 292.33 448.29 292.33 448.8 292.33 449.31 292.33 449.82 292.33 450.33 292.33 450.83 292.33 451.34 292.33 451.85 292.33 452.36 292.33 452.86 292.33 453.37 292.33 453.88 292.33 454.39 292.33 454.9 292.33 455.4 292.33 455.91 292.33 456.42 292.33 456.93 292.33 457.43 292.33 457.94 292.33 458.45 292.33 458.96 292.33 459.47 292.33 459.97 292.33 460.48 292.33 460.99 292.33 461.5 292.33 462 292.33 462.51 292.33 463.02 292.33 463.53 292.33 464.04 292.33 464.54 292.33 465.05 292.33 465.56 292.33 466.07 292.33 466.57 292.33 467.08 292.33 467.59 292.33 468.1 292.33 468.61 292.33 469.11 292.33 469.62 292.33 470.13 292.33 470.64 292.33 471.14 292.33 471.65 292.33 472.16 292.33 472.67 292.33 473.18 292.33 473.68 292.33 474.19 292.33 474.7 292.33 475.21 292.33 475.71 292.33 476.22 292.33 476.73 292.33 477.24 292.33 477.75 292.33 478.25 292.33 478.76 292.33 479.27 292.33 479.78 292.33 480.28 292.33 480.79 292.33 481.3 292.33 481.81 292.33 482.31 292.33 482.82 292.33 483.33 292.33 483.84 292.33 484.35 292.33 484.85 292.33 485.36 292.33 485.87 292.33 486.38 292.33 486.88 292.33 487.39 292.33 487.9 292.33 488.41 292.33 488.92 282.73 489.42 282.73 489.93 282.73 490.44 282.73 490.95 282.73 491.45 282.73 491.96 282.73 492.47 251.53 492.98 251.53 493.49 251.53 493.99 251.53 494.5 251.53 495.01 251.53 495.52 251.53 496.02 251.53 496.53 251.53 497.04 251.53 497.55 251.53 498.06 251.53 498.56 251.53 499.07 251.53 499.58 251.53 500.09 251.53 500.59 251.53 501.1 251.53 501.61 251.53 502.12 251.53 502.63 251.53 503.13 251.53 503.64 251.53 504.15 251.53 504.66 251.53 505.16 251.53 505.67 251.53 506.18 251.53 506.69 251.53 507.2 251.53 507.7 251.53 508.21 251.53 508.72 251.53 509.23 251.53 509.73 251.53 510.24 251.53 510.75 251.53 511.26 251.53 511.77 251.53 512.27 251.53 512.78 251.53 513.29 251.53 513.8 251.53 514.3 249.13 514.81 249.13 515.32 249.13 515.83 249.13 516.34 249.13 516.84 249.13 517.35 220.33 517.86 220.33 518.37 220.33 518.87 220.33 519.38 220.33 519.89 220.33 520.4 220.33 520.91 220.33 521.41 220.33 521.92 220.33 522.43 220.33 522.94 28.35" stroke-width="1.2" stroke="#f49323" stroke-linecap="butt" fill="none" stroke-linejoin="round" stroke-miterlimit="10"/><circle cx="337.6" cy="292.33" r="2.2" stroke-width="1.2" fill="#000" stroke="#000" stroke-linecap="round" stroke-linejoin="round" stroke-miterlimit="10"/><circle cx="492.47" cy="251.53" r="2.2" stroke-width="1.2" fill="#000" stroke="#000" stroke-linecap="round" stroke-linejoin="round" stroke-miterlimit="10"/><circle cx="517.35" cy="227.53" r="2.2" stroke-width="1.2" fill="#000" stroke="#000" stroke-linecap="round" stroke-linejoin="round" stroke-miterlimit="10"/><circle cx="522.43" cy="148.34" r="2.2" stroke-width="1.2" fill="#000" stroke="#000" stroke-linecap="round" stroke-linejoin="round" stroke-miterlimit="10"/><circle cx="522.94" cy="28.35" r="2.2" stroke-width="1.2" fill="#000" stroke="#000" stroke-linecap="round" stroke-linejoin="round" stroke-miterlimit="10"/><polyline points="83.71 316.33 83.71 28.35" stroke-width="1.07" stroke="#464646" stroke-linecap="butt" fill="none" stroke-linejoin="round" stroke-miterlimit="10"/><text x="57.03" y="320.74" textLength="9.63" lengthAdjust="spacingAndGlyphs" font-size="18" font-family="Asap">0</text><text x="57.03" y="272.74" textLength="9.63" lengthAdjust="spacingAndGlyphs" font-size="18" font-family="Asap">2</text><text x="57.03" y="224.74" textLength="9.63" lengthAdjust="spacingAndGlyphs" font-size="18" font-family="Asap">4</text><text x="57.03" y="176.75" textLength="9.63" lengthAdjust="spacingAndGlyphs" font-size="18" font-family="Asap">6</text><text x="57.03" y="128.75" textLength="9.63" lengthAdjust="spacingAndGlyphs" font-size="18" font-family="Asap">8</text><text x="47.4" y="80.75" textLength="19.27" lengthAdjust="spacingAndGlyphs" font-size="18" font-family="Asap">10</text><text x="47.4" y="32.76" textLength="19.27" lengthAdjust="spacingAndGlyphs" font-size="18" font-family="Asap">12</text><polyline points="76.63 316.33 83.71 316.33" stroke-width="1.07" stroke="#464646" stroke-linecap="butt" fill="none" stroke-linejoin="round" stroke-miterlimit="10"/><polyline points="76.63 268.33 83.71 268.33" stroke-width="1.07" stroke="#464646" stroke-linecap="butt" fill="none" stroke-linejoin="round" stroke-miterlimit="10"/><polyline points="76.63 220.33 83.71 220.33" stroke-width="1.07" stroke="#464646" stroke-linecap="butt" fill="none" stroke-linejoin="round" stroke-miterlimit="10"/><polyline points="76.63 172.34 83.71 172.34" stroke-width="1.07" stroke="#464646" stroke-linecap="butt" fill="none" stroke-linejoin="round" stroke-miterlimit="10"/><polyline points="76.63 124.34 83.71 124.34" stroke-width="1.07" stroke="#464646" stroke-linecap="butt" fill="none" stroke-linejoin="round" stroke-miterlimit="10"/><polyline points="76.63 76.34 83.71 76.34" stroke-width="1.07" stroke="#464646" stroke-linecap="butt" fill="none" stroke-linejoin="round" stroke-miterlimit="10"/><polyline points="76.63 28.35 83.71 28.35" stroke-width="1.07" stroke="#464646" stroke-linecap="butt" fill="none" stroke-linejoin="round" stroke-miterlimit="10"/><polyline points="83.71 316.33 540.71 316.33" stroke-width="1.07" stroke="#464646" stroke-linecap="butt" fill="none" stroke-linejoin="round" stroke-miterlimit="10"/><polyline points="83.71 323.41 83.71 316.33" stroke-width="1.07" stroke="#464646" stroke-linecap="butt" fill="none" stroke-linejoin="round" stroke-miterlimit="10"/><polyline points="134.49 323.41 134.49 316.33" stroke-width="1.07" stroke="#464646" stroke-linecap="butt" fill="none" stroke-linejoin="round" stroke-miterlimit="10"/><polyline points="185.27 323.41 185.27 316.33" stroke-width="1.07" stroke="#464646" stroke-linecap="butt" fill="none" stroke-linejoin="round" stroke-miterlimit="10"/><polyline points="236.05 323.41 236.05 316.33" stroke-width="1.07" stroke="#464646" stroke-linecap="butt" fill="none" stroke-linejoin="round" stroke-miterlimit="10"/><polyline points="286.82 323.41 286.82 316.33" stroke-width="1.07" stroke="#464646" stroke-linecap="butt" fill="none" stroke-linejoin="round" stroke-miterlimit="10"/><polyline points="337.6 323.41 337.6 316.33" stroke-width="1.07" stroke="#464646" stroke-linecap="butt" fill="none" stroke-linejoin="round" stroke-miterlimit="10"/><polyline points="388.38 323.41 388.38 316.33" stroke-width="1.07" stroke="#464646" stroke-linecap="butt" fill="none" stroke-linejoin="round" stroke-miterlimit="10"/><polyline points="439.15 323.41 439.15 316.33" stroke-width="1.07" stroke="#464646" stroke-linecap="butt" fill="none" stroke-linejoin="round" stroke-miterlimit="10"/><polyline points="489.93 323.41 489.93 316.33" stroke-width="1.07" stroke="#464646" stroke-linecap="butt" fill="none" stroke-linejoin="round" stroke-miterlimit="10"/><polyline points="540.71 323.41 540.71 316.33" stroke-width="1.07" stroke="#464646" stroke-linecap="butt" fill="none" stroke-linejoin="round" stroke-miterlimit="10"/><text transform="rotate(-90 230.015 141.895)" textLength="38.53" lengthAdjust="spacingAndGlyphs" font-size="18" font-family="Asap">1000</text><text transform="rotate(-90 255.405 116.505)" textLength="38.53" lengthAdjust="spacingAndGlyphs" font-size="18" font-family="Asap">1100</text><text transform="rotate(-90 280.795 91.115)" textLength="38.53" lengthAdjust="spacingAndGlyphs" font-size="18" font-family="Asap">1200</text><text transform="rotate(-90 306.185 65.725)" textLength="38.53" lengthAdjust="spacingAndGlyphs" font-size="18" font-family="Asap">1300</text><text transform="rotate(-90 331.57 40.34)" textLength="38.53" lengthAdjust="spacingAndGlyphs" font-size="18" font-family="Asap">1400</text><text transform="rotate(-90 356.96 14.95)" textLength="38.53" lengthAdjust="spacingAndGlyphs" font-size="18" font-family="Asap">1500</text><text transform="rotate(-90 382.35 -10.44)" textLength="38.53" lengthAdjust="spacingAndGlyphs" font-size="18" font-family="Asap">1600</text><text transform="rotate(-90 407.735 -35.825)" textLength="38.53" lengthAdjust="spacingAndGlyphs" font-size="18" font-family="Asap">1700</text><text transform="rotate(-90 433.125 -61.215)" textLength="38.53" lengthAdjust="spacingAndGlyphs" font-size="18" font-family="Asap">1800</text><text transform="rotate(-90 458.515 -86.605)" textLength="38.53" lengthAdjust="spacingAndGlyphs" font-size="18" font-family="Asap">1900</text><text x="292.12" y="400.89" textLength="40.18" lengthAdjust="spacingAndGlyphs" font-size="20" font-weight="500" font-family="Asap Medium">Year</text><text transform="rotate(-90 177.13 148.92)" textLength="33.06" lengthAdjust="spacingAndGlyphs" font-size="20" font-weight="500" font-family="Asap Medium">The</text><text transform="rotate(-90 158.2 129.99)" textLength="52.57" lengthAdjust="spacingAndGlyphs" font-size="20" font-weight="500" font-family="Asap Medium">speed</text><text transform="rotate(-90 129.51 101.3)" textLength="17.88" lengthAdjust="spacingAndGlyphs" font-size="20" font-weight="500" font-family="Asap Medium">of</text><text transform="rotate(-90 118.17 89.96)" textLength="45.12" lengthAdjust="spacingAndGlyphs" font-size="20" font-weight="500" font-family="Asap Medium">news</text><text transform="rotate(-90 93.21 65)" textLength="53.26" lengthAdjust="spacingAndGlyphs" font-size="20" font-weight="500" font-family="Asap Medium">(miles</text><text transform="rotate(-90 64.18 35.97)" textLength="29.56" lengthAdjust="spacingAndGlyphs" font-size="20" font-weight="500" font-family="Asap Medium">per</text><text transform="rotate(-90 46.995 18.785)" textLength="47.16" lengthAdjust="spacingAndGlyphs" font-size="20" font-weight="500" font-family="Asap Medium">hour)</text></g></svg>