<svg xmlns="http://www.w3.org/2000/svg" viewBox="0 0 566.9 566.9" style="enable-background:new 0 0 566.9 566.9" xml:space="preserve"><path d="M283.636 487.867c-1.363 0-3.409-.543-4.772-1.086L51.818 401.003c-4.09-1.63-6.136-4.344-6.136-7.601V126.837c0-2.715 2.045-5.43 4.773-7.058 3.409-1.629 6.818-1.629 10.227-.543l222.273 84.15 222.954-84.15c3.41-1.086 7.5-1.086 10.227.543 3.41 1.629 4.773 4.343 4.773 7.058v266.565c0 3.257-2.727 6.515-6.136 7.6l-226.364 86.322c-1.364.543-3.409.543-4.773.543zM67.5 387.973l216.136 81.978 216.137-81.978V140.409l-211.364 80.35c-2.727 1.086-6.136 1.086-9.545 0L67.5 140.409v247.564z"/><path d="m283.636 179.498-188.181-71.12c-5.455-2.172-7.5-7.058-4.773-11.401 2.727-4.343 8.863-5.972 14.318-4.343l179.318 67.863 179.318-67.863c5.455-2.172 11.591 0 14.319 4.343 2.727 4.343 0 9.23-4.773 11.4l-189.546 71.121zm-10.909 33.117h21.818v266.566h-21.818z"/></svg>