<svg version="1.1" xmlns="http://www.w3.org/2000/svg" x="0" y="0" viewBox="0 0 3333.56 2584.56" xml:space="preserve" enable-background="new 0 0 3333.56 2584.56"><title>is a map</title><path d="m205.48 230.46.51-3.96.03-.11.49-.91.19-.34.1-.07 2.86-.59 1.27-.24.35-.01.48-.03.3-.11.87-.78 1.92-2.16.9-1.04.39-.54-.62-3.89-1-.06-3.24-.42-.23-.07-1.59.35-.11.28-.06.41-.19.25-.07.04-.12.07-.4.03-.48-.06-.36-.05-.44-.06-.29-.09-.27-.12-3.2-1.39.04-.16.12-.35.28-.44 2.1-2.7-1.82-1.51-5.06.01h-.45l-.61.03-.94.05-.42.02-.44.03-1.59.12h-1.96l-.68-.05-.33-.07-.48-.11-.23-.13-5.25-.02.03.18.04.21.1.23 1.4 2.44 2.03 3.58.78 1.41-.01.09-1.08 3.28-1.16 2.06-1.22.7-.11 1.98-.02.43 1.18 1.28.28.3.3.2.22.15.86.53.42.23.13-.01.15-.01.02.04.64 1.06.49 1.25.15.06 1.09 2.12.03.13-1.71 2.5 4.92.65h.1l2.33-.03.12-.03.61-.13 2.21-1.35.49-1.57.12-.44.12-.42.09-.14.06-.08.93.91 2.6-2.84z" transform="matrix(16 0 0 16 -1000.968 -3264.468)" fill="cmyk(0.05,0.2,1.0,0.05)" stroke="#000" stroke-width=".25" stroke-linejoin="round" stroke-miterlimit="64"/><path d="m190.77 235.96 1.71-2.5-.03-.13-1.09-2.12-.15-.06-.25.3-.1.07-.2.14-.22.14-.29.15-.28.1-.11-.1-.09-.19-.35-1.28-.02-.14-.01-.17v-.25l.01-.17.08-.04.21.03.27.09-.07-.24-.16-.33-.12-.16-.98-.89-.14-.07-.78-.18-1.06-.04-5.4.07-.74 1.02-.61.95-.05-.01-.09-.02-.72-.2-.31-.15-.96-1.04.05.07.09.14.05.08.08.23.4 1.43-.41.58-.86 1.22-.69 1.27-.04.54.06 1.29 2.22 5.11 1.88 1.95 1.05.71.65-.36.38-.25.53-.21.1-.01.08-.01h.25l.02.01.46.68.25.4.08.26.26.9.93-.7.5-2.37-.09-.2-.12-.25-.05-.1-.05-.96.58-1.14.44-.58 1.42-1.63.05-.03.62-.23.97-.33.15-.04h.01l.37-.06.29-.04.14.05zM243.85 326.13l-.12-.2-1.28-2.2-.42-.73-.29-.54-.01-.94-1.48.41-.28.11-2.81 1.62-5.29 3.42-.84.69-.32.35-.21.27-.41.58.3.09.08.12.01.02.37 1.71-.14.39-.16.25-.15.18-.23.54-.06.18.14 1.36.02.17.01.09.16.45 1.72 2.37.06.05 1.64.37.1-.04.55-.32.63-.59 2.09-.19.98.64.51.24.27.06 1.96-.71.45-.54.65-1.13 1.03.95.84.58.38.15.54.06h.24l.44-.09 1.58-1.26.37-.75.15-.33.45-1.01.08-.88.01-.21-.39-.12-.35-.01-.53-.18-.72-.52-.26-.27-.33-.62-.03-.29.02-.29.04-.49.06-.12.11-.14.25-.27.04-.09.03-.1.03-.15.01-.07-.01-.18-.5-.63-.11-.08-.72-.49-.18.01-.18.02-.59-.73zM238.57 321.49l1.21-.42.46-.2.2-.09.18-.09-.15-.11-.68-.3-.41-.03-1.98-.15-.18.11.03.18.09.17.62.73.14.13.19.07h.28zM159.29 363.85l.34-2.89-.11-.22-1-2-.63-.41-.33-.21-1.75-.73-.26-.09-.63-.22-.22-.05-.35.02-2.83.26-.07.01-.13.05-.06.06-.09.1-.17.23-.07.15-.35 3.33.29 4.23 1.18-.2 1.35-.32 5.68-1.14.21.04zM171.88 241.95l.51-3.89-.16-.02h-.01l-.02-.01-.09-.03-.07-.04-.01-.01-.03-.03-.01-.01-.35-.34-.19-.36-.14-.72-.01-.24-.01-.13-.74-.65-.66-.18-1.62.39-2.34.97-1.54 2.01-.55 1.22-.02.13-.01.1.5.77 3.38 2.32.3.03 1.02-.31 2.87-.97zM111.82 273.49l.48.13 1.03.58.19.14 1.32 1.03.2.2.16.19 1.94 2.52.29.58.1.22.01.09.01.1v.4l-.55 1.36.17.01 1.01.05 1.97.36.14.04.72.29.39.17.18.1.11.08.14.13.08.1.02.07-.1.1-.05.05-.04.07-.06.13-.02.07-.05.22.02.1.87 1 .52.41.24.13.04-.04.03-.05.1-.25.02-.25.04-1.3-.06-.28-.04-.13-.03-.05-.04-.06-.42-.45-.7-.38-.15-1.99.37-.71-.24-.09-.07-.03-.84-1.38-.04-.15-.03-.12-.01-.09v-.48l.13-1.07.02-2.05-.09-.15-.4-.16-1.02-.48-.99-.82-.02-.02-.04-.1-.04-.25-.01-.29v-.1l.05-.17.02-.06.12-.26.36-.52.94-1.18-1.18-1.74-1.11-.72-.1-.07-.01-.33v-.35l.2-1.32-.2-2-.09-.04-.17-.08-.1-.04-.27-.11-.06-.02-.25-.08-.14.02-.09.01-2.64.32-1.43-.04.04.13.01.14.06 2.5.01.61-.01.91-.04 1.56-.01.25-.04.74-.32 3.13-.03.21-.04.2-.39.95zM74.25 310.76l.06-.06.41-.31.4-.1.45-.07.25-.03.24-.02h.33l.87.11.37.09 1.32.46.12.05 4.15-1.37.2-.17.16-.12.73-.43.15-.07.7-.16.15-.01.17.04 1.96.49 1 1.12.19.32.19.05.05-.05.29-.37.07-.11.09-.81-.04-.15-.12-.27-.07-.13-.25-.34-.46-.03-1.66-.15-1.69-2.07-.96-3.38-.66-3.61-1.4-1.61-.71.76-3.22 2.61-.18.13-1.35-.25-.14 1.51-.02 3.97.09 2-1.61 1.44-.61.95-.01.15zM218.37 289.6l2.51 2.16.32-.25.72-.62.36-.31.35-.5.21-.43.04-.05.25-.34.35-.29.66-.42.41-.25.71-.35.18-.09.15-.07.05-.02.28-.13h.01l.12-.05.01-.01.03-.01.13-.05.16-.06.09-.02.55-.05 1.21-.07h.1l1.2.24-.11-.5.04-.75 3.83-1.62 3.28-.23 2.51.11.35-.87.5-1.24.67-1.68-.94-.32-2.61.42-2.29-.21-.14-.07.03-.29.06-.29.06-.19.05-.15-.02-.29-.2-.26-.2-.21-.97-.91-.07-.05-.43-.33-2.17 1.49-.29.26-.67.61-.97 1.27-.21.57-.28.82v.01l-.13.46-.07.28-.04.15-.09.26-.56 1.2-.33.11-1.11.23-.13.03-.18.04-1.07.19-.31.04h-.04l-.03-.01-.11-.03-.6-.4-.02-.02-2.54-2.49-.14-.26-.53-.68-.23-.1-.04-.02-.92-.31.83 2.05-.11 4.24-1.47 1.98z" transform="matrix(16 0 0 16 -1000.968 -3264.468)" fill="cmyk(0.05,0.2,1.0,0.05)" stroke="#000" stroke-width=".25" stroke-linejoin="round" stroke-miterlimit="64"/><path d="m218.37 289.6 1.5-2 .11-4.24-.83-2.05-1.78-1.51-1.5-1.27-.17-.15-3.01-2.7-.72-.86-.52-.9-2.48-3.85.32.95.85 2.44.7 2 2.42 6.07.16.33.51.74.23.32.12.16.24.06.74.76.04.15.09.87.14 2.08V287.3l-.31 2.52-.04.12-.01.03-.21.32 3.41-.69zM208.1 242.65l1.66-2.31.12-.1.12-.15.65-1.8.1-.46.28-1.74-1.95-3.69-1.31-1.44.23-1.11 1.44-1.43-1.62-.34-.21-.34.02-.36v-.58l-1.2-.28-.13-.02-.3-.01-.51 3.96.05 2.38 1 1.45.01.21.01.3-.07.39-.02.08-.34 1.51-.06 3.6.74 1.11 1.29 1.17zM177.68 228.57l.96 1.04.31.15.72.2.09.02.05.01.61-.95.74-1.02 5.4-.07 1.06.04.78.18.14.07.98.89.12.16.16.33.07.24-.27-.09-.21-.03-.08.04-.01.17v.25l.01.17.02.14.35 1.28.09.19.11.1.28-.1.29-.15.22-.14.2-.14.1-.07.25-.3-.49-1.25-.64-1.06-.02-.04-.15.01-.13.01-.42-.23-.86-.53-.22-.15-.3-.2-.28-.3-1.18-1.28.02-.43.11-1.98 1.22-.7 1.16-2.06 1.08-3.28.01-.09-.78-1.41-2.03-3.58-1.4-2.44-.1-.23-.04-.21-.03-.18-1.23.39-.36.1-.24.04-.31.03-.48-.07-2.65-.43-4.25-1.04-.85.86-.15.17-.91 3.52-.21 1.58.24.29.43.45.36.55.01.02.23.67-.02.3-.02.4-.28 2.94.23.1.09.04.09.06.04.23v.43l-.21 1.5.14 2.27.4 1.89 1.84 1.71zM151.64 243.09l-.74-.44-.57-.74-.56-1.74.01-.99.08-.72h-2.82l-4.15 1.5-.14.03-2.07-.26-.21-.03-.05-.01-.2-.08-.14-.17-.32-.74-.03-.13.06-.09-1.01.61.88.96.09.17.05.08.9 1.25.4.36 4.02.86.14.01.12.01 5.64.3.5.03.12-.03zM237.27 229.16l.34-4.12-2.3-1.01-4.52-1.06-.45-.07-1.09-.04-.41-.02 1.44 2.36.55.77 1.6 1.03 3.72 2.26.48-.04.57-.05.07-.01zM155.81 357.4l1.75.73.33.21.63.41 1 2 .11.22-.34 2.89.17-.58.7-.49 1.93-.49.54-.1.05-.01.04.01.67.21.03.02.32.28.01.02v.04l.98 1.07.11.05.14-.1 1.53-1.66 1.31-2.26.39-.73.04-.08.02-.09-.01-.11-.03-.06-.7-1.2-.16-.17-.04-.04-.03-.01-.59-.15-.06.02-.09.04-.11.07-.17.11-.31.19-.11.09-.38.32-.39.36-.08.07-.08.08-.04.19-.11.08-.07.02-2.16.25-.59.02h-.27l-.13-.06-.82-.39-.13-.1-.05-.03-.22-.23-.28-.21-.62-.26-2.26-.45-.05-.01h-1.32zM252.19 258.18l-.03-.18-1.04-2.25-.16-.33-1.19-1.84-2.45-3.38h-.01l-.14-.05-1.75-.8-1.85-1.12-.74-.5-.52-.4-.38 2.01-.2 1.26.07.06 3.96 2.25 1.12 3.15.1.18.22.14 3.06 1.85.16.09.22-.02 1.55-.12z" transform="matrix(16 0 0 16 -1000.968 -3264.468)" fill="cmyk(0.05,0.2,1.0,0.05)" stroke="#000" stroke-width=".25" stroke-linejoin="round" stroke-miterlimit="64"/><path d="m174.16 234.89 2.21-.77.04-.54.69-1.27.86-1.22.41-.58-.4-1.43-.08-.23-.05-.08-.09-.14-.05-.07-1.86-1.72-2.87 2.16-.04.04-.01.01-.08.12-.06.1-.01.01-.05.44v.29l.07 1.66.06.26.19.62.18.61.33.67.28.47.33.59zM193.46 248.4l-.13-2.32-.38.08-.37.07-1.07-1.68-.11-1.1.01-.04.01-.04.02-.14.13-.43 1.45-1.83.55.01 1.04-2.13 1.08-2.25-4.92-.65h-.09l-.29.04-.37.06h-.01l-.15.04-.97.33-.62.23-.05.03-1.42 1.63-.44.58-.58 1.14.05.96.05.1.12.25.09.2-.5 2.37-.93.7-.02 1.2 1.89.2h.25l.28-.07.9-.67.03-.02h.01l.12-.25.24-.42.08.01 2.32.41.23.2.12.2.37.71.08.22.02.13.01.06.04 1.8 1.83.08zM250.05 232.43l-.67-.13-.16-.05-.08-.03-2.53-1.47-.32-.21-.17-.25-.42-.92.07-.26.01-.03.04-.23.05-.58v-.2l-.04-.12-.02-.03-.01-.01-.11-.21-2.1.43-.55.24-1.31.08-.47.04-.34.08-.26.08-.82.71.1.98-2.72.07-.55-.04.1.93.08.57.11.22 1.52 2.72 4.51 1.11.24-.01.32-.03 2.39-.65 4.11-2.8zM76.56 300.73l1.35.25.18-.13 3.22-2.61.71-.76 1.04-2.23-1.84-1.23-4.91.08-1.86-.51.01 1-.03.17-.22.31-.11.07-.59-.01-.74 1.38-.01.12v.05l-.03.75.33.9.45 2.36 3.05.04zM162.27 239.25l2.11-.58 1.54-2.01-1.82-6.56-.15-.06-.99.1-1.25 1.3-.68 1.16-.01.1-.12 1.37v.04l1.37 5.14zM169 242.93l-.05 1.76.05.64.36 1.2 1.06.27.15.02.75.07.09-.21.04-.08.01-.03.01-.05.04-.14.01-.02.05-.19.09-.22.03-.07.14-.29.17-.32.34-.48.01-.01.02-.03.01-.01.1-.13.02-.02.13-.16.04-.04.04-.04.1-.08-.93-2.29-2.88.95zM243.34 314.18l-.97-.8-4.33-2.6-3.33-1.84-2.56-.14-.01.11-.01.07v.04l.02.14.06.15.09.15.75 1.17.14.21 2.04 2.73.78.22.38.1.42.09 1.03.2.34.03.28.01h3.77l1.11-.04z" transform="matrix(16 0 0 16 -1000.968 -3264.468)" fill="cmyk(0.05,0.2,1.0,0.05)" stroke="#000" stroke-width=".25" stroke-linejoin="round" stroke-miterlimit="64"/><path d="m184.65 244.62-.26-.9-.08-.26-.25-.4-.46-.68-.02-.01h-.25l-.08.01-.1.01-.53.21-.38.25-.65.36-1.05-.71-1.88-1.95-2.22-5.11-.06-1.29-2.21.77-1.77 3.17-.51 3.89.93 2.29 2.2 1.39.98.68 1.25 1.17 1.41 1.38.85.91.01.02.07.09.02.06.01.02.02.07-.03.01-.14.05-.17.06-.31.13-.28.27-.16.37-.04.18-.07.37-.05.35.08.12.01.01.34-.07 3.99-1.04.16-.15.39-.45.72-.59.2-.19.22-.27.07-.11.05-.07.15-.39.09-.44.02-.38-.22-2.01-.01-1.2zM220.19 301.09l.01.06v.01l.01.06-.45.04.07.05h.14l.14.07.08.09.12.26.01.09.01.18.22.11.08.1.04.1.16.28.07.18.06.3.04.08.06.08.05.08.09.12.08.28.07.24.07.11.02.11.03.08.06.1.01.09v.05l-.01.11.09.1.05.08.06.14.04.15.09.3.04.08.1.24.08.19.04.16.07.21.05.18.06.15.04.2.06.15.09.21.07.24.06.24.01.03.06.18.03.19.04.15.05.19.23.99.01.05.04.29h.03l-.08.32.01.04.02.06.01.05v.05l-.01.05v.06l-.01.11v.08l-.01.08-.07.17-.05.12-.03.07-.22.43-.14.24-.07.09-.04.03-.11.12-.16-.08h-.12v.04h.07l.09.01.08.03.06.09.01.05.05.13-.02.01-.13.12-.08.07-.05-.06-.06-.06.08-.08-.01-.01-.24-.24-.18.17.02.01.16-.16.09.09-.15.17.01.01.16-.16.06.06-.15.17.02.02.14-.18.04.03-.14.14.02.01.05-.05.09.12-.11.1-.07-.07h-.02l.09.08-.06.05-.01.02-.12-.09.06-.1-.07-.06-.08.08-.09-.06-.05-.05.04-.06.1.09.02-.02-.11-.09-.15-.14-.04.02.16.14-.04.05-.04-.03-.02-.02-.15-.12-.03.05.24.2-.02.03.22.16.02-.02.11.09-.16.28-.15.25-.03.03-.06.05-.18.16-.05-.02-.08-.07.04-.03-.17-.18-.04.03-.01.02.24.27-.02.02-.11-.11-.03.01.12.12-.18.2-.05-.25h-.01l.04.27-.08-.01-.05-.43h-.02l.02.12-.11.01v.01l.11-.01.02.18-.15.02.01.02.15-.02.02.11-.22-.01-.01-.31h-.02v.31h-.1l-.02-.13-.01-.17h-.02l.03.29-.17-.01h-.07l.01-.01-.01-.04.18-.21-.01-.01-.18.19-.02-.02-.01-.01-.01-.01-.02-.04-.01-.05-.03-.05.17-.1-.01-.04-.1-.02-.04-.07.31-.18-.03-.06-.05.02-.2.12-.04-.03.05-.12.06.01.06-.14.08-.38.01-.1-.03-.05h-.04l.03-.12h.03l.02-.08-.03-.02.07-.15.1-.18.1-.19.2-.33.06-.02.01-.05v-.02l-.02-.03-.05-.02-.11.16-.12.23-.2.31-.09.15-.01.06-.09.16-.1.19-.01.05-.05.24-.06.19-.2.12-.08.05-.04.03-.48.29.02-.05.04-.03.04-.03.04-.03.01-.05-.03-.08-.01-.06-.03-.07-.03-.03h-.07l-.43.24-.27.16-.05.01-.05.06v.07l-.07.12-.07.11-.04.07-.06.08-.05.06-.12.01-.07.02-.09.01-.06.05-.04.01-.06-.1-.14.01-.02.15-.08.02-.14-.04-.12.01h-.08l-.08-.05-.04-.02-.04.04-.01.08v.1l-.04.05-.05.06-.04.07-.07.09h-.07l-.25.02.05.1-.22.08h-.01l-.15.07-.07.04-.04.02-.11.03-.08.03-.11.05-.12-.04-.04-.06.01-.03-.07.01-.05.01-.05.01-.05-.01-.05-.01-.04-.01-.03.04-.06.04-.19-.01-.07.04-.05.02-.07.03-.02-.03-.06.03-.02.06-.07.04-.08.06-.1.04-.08.17-.06.05-.05.01-.06-.01-.06.02-.06.03-.03.05-.04.09-.04.03-.03.02h-.04l-.05.05-.03.06-.08.07-.05.06-.03.01-.04.01-.04.06h-.07l-.06.04-.02.04-.03.05-.02.07-.06.08-.04.04-.04.03-.05.02.02.03-.03.04-.05.03-.05.04-.04.03-.05.04-.03.01-.04.02 4.39 3 5.85 2.16 2.05 1.16.93-2.08.7-1.95 1.27-3.01.22-.48-.06.03-.1.05-.41.1-.33.05-.19.03h-.02l.07-1.17.01-.1.01-.08v-.03l.28-1.4.29-1.23.09-.33.04-.16.03-.14.06-.62v-.16l-.04-.41-.03-.29-.13-.28-.4-.8-.31-4.98-.81-1.59-.11-.17-.09-.12-.12-.11-.79-.19-.4-.09-.3-.07-1.37-1.99-.07-.13-.05-.1-.67-1.94.17 1.55-.03.25-.78 1.88-.08.18-.16.24-.15.15-.65.09h-.01l-.34.01h-.16l-.04-.02zM202.86 233.33l.44.33.02.03.01.01.16.24.01.39v.11l-.05 1.43.55 5.12.35 1.6 1.37 1.54.33.13.49.6.09.06.1.07.33-.61.04-1.07 1-.68-1.31-1.16-.74-1.11.06-3.6.34-1.51.02-.08.07-.39-.01-.3-.01-.21-1-1.45-.05-2.38-2.61 2.89zM193.14 260.43l1.24-1.42-.12-.04-.26-.09-1.71-1.83v-.17l.02-.01.07-.04.04-.02.19-.12.78-.49.24-.14-.2-3.52-.69-1.09-4.04 3.39.33.37.2.26.08.12.14.21.01.01.18.34.03.06.04.07.76 1.68-1.27 1.43.06 1.19.1.55 3.78-.7zM241.78 224.61l-1.2-1.88.05-.37.02-.17.01-.09.03-.28-.85-1.55-.11-.08-4.1-2.56-.21.01-.19.02-.74.09-.48.06-1.33.18-2.92.64-.45.13.1.73-.05.14-.16.02-2.38.01-.4-.09-.47-.19-.57-.13-.52-.04.01.03.03.1.1.21.21.31.18.22 1.42 1.46.38.35 1.08.88.2.06.37.04.41.02 1.09.04.45.07 4.52 1.06 2.3 1.01 4.17-.46zM236.79 231.28l-.1-.93.58-1.2-.06.01-.57.05-.48.04-3.72-2.26-1.6-1.03-.55-.77-1.16.14-.04 1.38.8 2.35 3.6 2.71 1.02-.37.63-.54.94-.46.12-.03.04-.01.08-.02h.01l.04.07.42.87z" transform="matrix(16 0 0 16 -1000.968 -3264.468)" fill="cmyk(0.05,0.2,1.0,0.05)" stroke="#000" stroke-width=".25" stroke-linejoin="round" stroke-miterlimit="64"/><path d="m236.69 230.35.55.04 2.72-.07-.1-.98.82-.71.26-.08.34-.08.47-.04 1.31-.08-1.27-3.75-4.17.42-.34 4.12-.59 1.21zM172.96 229.01l2.87-2.16-.4-1.89-.14-2.27.21-1.5v-.43l-.04-.23-.09-.06-.09-.04-.23-.1-2.17 3.15.13.03.06.02.06.85-.72.37-.56.25-.49 1.39.05.24.02.07 1.53 2.31zM208.96 270.05l2.55-3.84-2.09-1-2.86.78-.45.33-.26.15-.47.09-1.26.25-.24.04-.92.07-1.42.1-.43-.06-.49-.35-.81-.34-2.82-1.67-5.06-.24-.83.01-1.11 2.79.3-.07.38.32.34.43 1.07 3.49.05.33.02.16-.08.12-.07.06-.14.09-.15.08-.17.06-1.12.25-2.44 1.26-1.16 1.04-.23.95.15-.09.16-.02.09.08 1.43 1.57.02.02.13.16.47.59.07.11.88 1.53 1.31.4-.01-.05-.01-.06v-.03l-.03-.26.04-.32.16-1.01.08-.2.1-.1.95-.04 4.41-2.42 2.98-2.57.7-.5.3-.13.87-.38 1.65-.46 1.09-.29 1.12-.3.61-.16 2.28-.65.37-.1zM73.49 300.7l-.45-2.36-.64.16-.16.02-.75-.13-.15-.2-1.11-2.04v-.01l-.03-.12-.01-.39.04-.14.13-.14.01-.01.11-.11.15-.03.15-.03.18-.21.04-.13.01-.08-.01-.1-.06-.16-1.36-2.35-.34-.44-1.01-1.34-.61-.03-1.08.36-.06.03-.2.12-.7.45-.16.16-.05.06.06.17.07.18.61.97.22.1.18.05.11.01.1.01.33.13.01.09-.01.12-.01.17-.75 2.51-.12.35-.15.38-.22.31-.49.62-.12 7.27-.05.21-.07.26-.08.2-.1.03-.08.01-.09-.01h-.14l-.28.13-.59.28-.79.51-.08.08-.24.42.06.17 1.27 1.35.08.07.09.08 3.25 2.34 1.02.72.15-.04.12-.05 1.73-.93-.15-.74-.1-3.3.03-.36.05-.61.05-.36.51-3.15.07-.28.06-.06.27.28.77-.18 1.17-.81.19-.26.2-.25zM168.26 235.69l1.62-.39.66.18.74.65.01.13.01.24.14.72.19.36.35.34.01.01.03.03.01.01.07.04.09.03.02.01h.01l.16.02 1.77-3.17-.35-.57-.28-.47-.33-.67-.18-.61-.19-.62-.06-.26-.07-1.66v-.29l.05-.44.01-.01.06-.1.08-.12.01-.01.04-.04-1.51-2.32-1.55.79-1.25-1.33-.6-.33-.36.46-.97.57-.22 1.81.82 1.46.03.03.4.44.26.29.28.32.14.38.51 3.69-.41.26-.06.04-.19.1z" transform="matrix(16 0 0 16 -1000.968 -3264.468)" fill="cmyk(0.05,0.2,1.0,0.05)" stroke="#000" stroke-width=".25" stroke-linejoin="round" stroke-miterlimit="64"/><path d="m172.87 223.47-5.34-.42.14 3.24.36-.46.6.33 1.25 1.33 1.55-.79-.02-.07-.05-.24.49-1.39.56-.25.72-.37-.06-.85-.07-.03-.13-.03zM129.74 239.29l-.04-.99-.03-.15-.06-.28-.5-1.66-.17-.43-.17-.32-.27-.28-.13-.26-.32-1.37-.06-.35v-.09l-.01-.31.01-.29.02-.21.02-.2.04-.17.09-.07.29.07 1.22.6.27.15.27.19.2.16.05.03.26.12.37.06.13.02.43.05 3.27.32.21.01.15.01 1.88.1h.1l1.88.11 2.54.33-.05.07-.21.3-.14.2-.03.04-.11.16-.54.91-.07.12.52.09 1.18.17.06.02.02.01.2.08.29-.02 1.3-.14.41-.06.39-.06.37-.07 5.48.15 2.3.14 3.59 1.3-1.16-1.29 1.55-3.32.22-.21-2.25-5.61-.87-.39-.63-.1-1.12-.06-.18-.07-.05-.02-1.53-.9-6.34-.02.45.78-.02.28-.04.23v.03l-1.55 1.8-.1.09-.19-.03-.07-.2.01-.18.05-1 .08-1.59v-.22l-.12-.13-.26.01-2.17.96-1.61 1.23-1 .9-.82.33-.98-.12-.3-.04-.21-.1-.93-.66-.72-.61-.2-.19-.12-.18 2.34-2.05 1.28-.39.34.05.3-.04.2-.21.06-.18-.04-.26-.52-2.08-.29-.64-.99-4.02-2.95-.01-4.18.07-1.05 1.63-2.24 3.93-1.68.81-.4.08-1.87.11-.38-.01-1.23-.12-2-.09-.5-.02-1.73.02-1.37.09-1.57.16-.47.05-.39.13-.45.2-.26.18.07.09.14.19.19.17.24.23.26.32.04.2-.07.07-2.4 1.43-.6.25-1.23.15-.56.06-.58-.5-.55-.48-.48.37-.38.3-.48.42-.06.19.12 1.16.04.27.18.54.14.34.69 1.49 1.01 2.25.47 1.07.11.27.02.08.03.09.72 5.41 1.03 2.96-.02.01-.78.3 2.12 7.06.69.12.19.03 1.1.2 1.84.34.69.13 1.18.64 1.71-.01 1.26-.76.17-.24.19-.26.22-.13.15-.06.2-.07.18-.06.13-.05.29-.1.24-.04 3.28-.05.34.02.32.03.34.03.3.06-.57-1.6-.01-.05-.01-.03-.03-.13.02-.19.03-.21.08-.25.08-.21v-.01l.24-.66.11-.23.47-.97.78-1.24 1.91-2.18.78-3.67zM237.34 320.56l-.09-.17-.03-.18.18-.11 1.98.15.41.03.68.3.15.11 1.11.82 1.57-.48.99.15.2.02 1.03-.22.43-.12.14-.07.83-1.19-.17-.2-.21-.21-.06-.2.19-.62.83-.55.69-2.22-.18.14-.21.1-.24.02-.4-.08-.14-.03-3.33-.82-.47-.15-.02-.23.17-.38-1.11.02h-3.77l-.28-.01-.34-.03-1.03-.2-.42-.09-.38-.1-.78-.22-2.04-2.73-.14-.21-.75-1.17-.09-.15-.06-.15-.02-.14v-.04l.01-.07.01-.11.14-.5-.11-1.11-4.68 1.02.4.8.13.28.03.29.04.41v.16l-.06.62-.03.14-.04.16-.09.33-.29 1.23-.28 1.4v.03l-.01.08-.01.1-.07 1.17h.02l.19-.03.33-.05.41-.1.1-.05.06-.03 1.37.55 2.81 1.59 2.16 2.2.12.43.14.17.26.21.37.2.37.11.38.1.29.06.2-.04.48-.12.03-.02zM168.26 235.69l.2-.11.06-.04.41-.26-.51-3.69-.14-.38-.28-.32-.26-.29-.4-.44-.03-.03-.82-1.46.22-1.81-2.03 1.38-.57 1.87 1.82 6.56 2.33-.98zM88.85 308.32l-.03-.15-.01-.2.08-.15.05-.08.98-.67.72.19.08.06.1.05.08-.02.22-.13.36-.44.15-.21.04-.06-.02-1.47-.04-.28-.18-.59-.59-.85-.75-2.24-1.01-3.87-.05-.13-.07-.18-.04-.06-.12-.14-.12-.08-.27-.13-1.67-.61-.85-.28-2.19-.34-.66.02-1.04 2.23 1.4 1.61.66 3.61.96 3.38 1.69 2.07 1.66.15.48-.01zM69.24 291.69l.34.44 1.36 2.35.06.16.02.11-.02.09-.04.13-.18.21-.15.03-.15.03-.11.11-.01.01-.13.14-.04.14.01.39.03.12v.01l1.11 2.04.15.2.75.13.16-.02.64-.16-.33-.9.03-.75v-.05l.01-.12.74-1.38.59.01.11-.07.22-.31.03-.17-.01-1-1.89-.46-.73-.34-.25-.14-.05-.04-.04-.06-.1-.16-.21-.67-.03-.12.04-.07.06-.07.06-.06.11-.12.02-.22-.01-.08-.04-.13-.06-.03-1.14-.05-.29.01-.29.07-.11.04-.08.08-.16.7z" transform="matrix(16 0 0 16 -1000.968 -3264.468)" fill="cmyk(0.05,0.2,1.0,0.05)" stroke="#000" stroke-width=".25" stroke-linejoin="round" stroke-miterlimit="64"/><path d="m232.15 308.8 2.56.14 3.33 1.84 4.33 2.6.97.8-.17.38.02.23.47.15 3.33.82.14.03.4.08.24-.02.21-.1.18-.14 2.48-1.59.09-1.24-.6-.19-.11-.04-1.81-1.4-.6-.49-.34-.37-.03-.23.04-.69.03-.17.04-.2.66-1.45-1.4-.17-.7-.15-.14-.49-.17-.9.04-.45.09-.39-.1-.29-.71-1.47-.2.01-.23.01-.23.01-2.89 1.49-4.78 2.48-1.42.74-1.65-.26-1.23.59-.14.49zM242.3 247.32l.52.4 2.09-1.41 1.23-1.5.61-1.3.4-1.4-.24-1.21-.33-.26-.2-.09-2.11.29-2.69 2.84-.15 2.64.87 1zM140.11 254.54l.04-.02.33-.2 2.06-1.14.17-.08 2.7-.86 6.52-3.59.11-.12.48-1.51-.46-1.38V245.43l.06-.27.03-.05.02-.04.31-.55-.85-1.43-.11.04-.5-.03-5.64-.3-.12-.01-.14-.01-4.02-.86-.4-.36-.9-1.25-.05-.08-.09-.17-1.79 1.56-.87.44-.33.11-.33.07-.25.03-4.35.28-.85-.03.08.65.04.15.97 1.4 2.31.46 1.34.1 2.04-.9 2.08.83.01.03.01.04 1.07 4.21v.12l-.02.21-.05.3-.05.19-.07.26-.07.22-.14.19L140 254l.11.54zM209.44 228.43l-1.44 1.43-.23 1.11 1.31 1.44 1.95 3.69-.28 1.74-.1.46-.65 1.8-.12.15-.12.1-.01.1.39.07.25-.02.76-.8 1.68-3.11.01-.03.01-.02.29-1.03.07-.24.02-.08.04-2.19-.08-1.02-1.1-1.82-.2-.22-1.88-1.65-.57.14z" transform="matrix(16 0 0 16 -1000.968 -3264.468)" fill="cmyk(0.05,0.2,1.0,0.05)" stroke="#000" stroke-width=".25" stroke-linejoin="round" stroke-miterlimit="64"/><path d="m209.44 228.43.57-.15 1.88 1.65.2.22 1.1 1.82.08 1.02-.04 2.19-.02.08-.07.24-.29 1.03-.01.02-.01.03-1.68 3.11-.76.8-.25.02-.39-.07 4.21 2.48 1.37.52.09.03.06.02 1.64.18.13-.51.27-.01.45.09.73.47.02.01.2.13-.15-3.45 1.79-1.53.33-1.47.14-1.28.08-1.07.3-1.02 1.31-1.58-.04-.98-.41-2.25-.51.11-.7.49-.41.24-.41-4.99-.02-.52.04-.61.47-.02-.51-1.04-1.15-2.24-2.57-1.16-.25.03-.09.07-.39.54-.9 1.04-1.92 2.16-.87.78-.3.11-.48.03-.35.01-1.27.24-2.86.59-.1.07-.19.34-.49.91-.03.11.3.01.13.02 1.2.28v.58l-.02.36.21.34 1.61.33zM200.62 266.61l.49.35.43.06 1.42-.1.92-.07.24-.04 1.26-.25.47-.09.26-.15-1.18-.79-1.18.2-.13-.01-.59-.48-2.13-2.07-.84-.84-2.21-.84-.33-.07-.62-.24-.03-.01-.12-.05-.33-.21-.07-.05-1.53-1.37-.45-.48-1.24 1.42.8.49.89.55 3.2 2.32 1.81 1.34.33.41.46 1.07zM200.39 346.03l.22-1.58.01-.07.02-.2-.33-1.04-.08-.26-.2-.39-3.66-2.7-1.65.05h-2.01l-.29-.14-.19-.1-.18-.11-.07-.04-1.11-.98-.06-.16.08-.15.05-.18-.04-.38-.1-.28-.19-.22-.77-.87-.34-.32-.8-.66-1.7-.37-.18-.04-.22.69.31 1.33.04.14.12.24.12.17.15.14.1.1.04.3-.04.14-.25.6-3.97 8.69-.09.06-.26.1-.12.04-.14.01-.11.12-.46.59-.03.09.71 5.62.04.26.03.11.07.1.2.21.11-.03 5.54-3.33.68-.45.66-.52.07-.05.59-.25.24-.1 3.36-1.4 3.59-1.49 2.49-1.04zM157.98 240.58l1.11.01 2.04-1.3.82-.04.32.01-1.36-5.15-3.62-1.34-.22.21-1.55 3.32 1.16 1.29 1.3 2.99zM203.68 329.68l.03.09.12.19.78.87 4.86 3.72.36.16.44.1h.11v-.2l-.13-1.94-1.65-3.5-.76-1.23-3.35-1-.15.01-.07.04-.59 2.69zM116.99 281.01l.55-1.36v-.4l-.01-.1-.01-.09-.1-.22-.29-.58-1.94-2.52-.16-.19-.2-.2-1.32-1.03-.19-.14-1.03-.58-.48-.13-.39 2.73-.32 3.98 1.57.55 1.12.24 1.95.39.06.01.14-.04 1.05-.32z" transform="matrix(16 0 0 16 -1000.968 -3264.468)" fill="cmyk(0.05,0.2,1.0,0.05)" stroke="#000" stroke-width=".25" stroke-linejoin="round" stroke-miterlimit="64"/><path d="m151.64 243.09.85 1.43 4.81-.5.09-.18.09-.25.06-.19.23-.81.05-.25.15-1.15.02-.45v-.14l-1.31-3-3.59-1.3-3.22 2.17-.08.72-.01.99.56 1.74.57.74.73.43z" transform="matrix(16 0 0 16 -1000.968 -3264.468)" fill="cmyk(0.05,0.2,1.0,0.05)" stroke="#000" stroke-width=".25" stroke-linejoin="round" stroke-miterlimit="64"/><path d="M148.06 279.95v-.04l-.06-.03.02-.04h-.01l-.02.04v.02l.01.01-.01.02-.02.02-.01.04v.07l-.02.02v.01l.04-.03v-.01h.01l.02-.03.01-.01.02-.01.01-.02.02.01-.02.03-.03.08v.05l.03-.01v-.02h.04l.01-.03.01-.02.01-.02.01-.02.02-.01.02-.05.02-.03v-.01l.01-.01.01-.02.01-.03h-.01l-.02.04h-.07l-.01.03-.05.01zM167.68 243.2l-3.38-2.32-.5-.77.01-.1.02-.13.55-1.22-2.11.58-.32-.01-.82.04-2.04 1.3-1.11-.01v.14l-.02.45-.15 1.15-.05.25-.23.81-.06.19-.09.25-.09.18-4.81.5-.31.55-.02.04-.03.05-.06.27V245.6l.46 1.38-.48 1.51-.11.12-6.52 3.59-2.7.86-.17.08-2.06 1.14-.33.2-.04.02-.08.04-.4.21-.26.08-.2-.06-.28-.13-.34-.18-.5-.3h-.2l-.72.18-.84.38.11.35-.04.14-1.08 3.28 1.55 1.58.3-.12.46-.19.52-.07 1.68.07 1.57 1.94.11.23.06.2-.03.19-.01.03-.05.16-.44.93-.06.11-.03.06-.35 3.74.02.08.39 2.86.06.68-.04.52h-.01l.42.27.04.03.09.06.2.17.02.02.01.01 2.54 3.03.02.04.04.08v.02l.21 1.17-.01.06-.01.06-.09.48-.08.27-.03.09-.01.02-.01.02-.01.03-.01.02-.01.02-.43.34-.04.03-.03.02-.59.28-.78-.25-.2-.09-.11-.05-.73.09-.16.09-.09.05-.06.04-.03.12-.07.57-.01.06v.09l.03.1.01.03.01.04.02.08.05.08.02.02.03.02h.02l.03-.01.52-.32 2.93-1.35.65.56.72.49 1.82 1.2.37.05 2.25-1.33.55-.4.02-.01.01-.02.06-.16.06.13h.13l.2-.04 1.54-.9.09-.11.04-.05.04-.08.01-.03v-.29l-.01-.18-.04-.19.89-4.02.36-.92 2.19-3.25.03-.04.05-.06.54-.47.26-.2.15-.11.25-.18.11-.06.02-.01.15-.07.27-.11.24-.08.69-.13.05-.01.04-.01.16-.01H159.71l.15.01h.18l.12.01.05.01h.02l.04.01.69.07.55.06h.02l.18.03.01.01 2.12 1.67.04.03.05.04.03.02h.03l.03-.01.01-.03.52-2.23.08-.57.41-.04.57.04h.03l1.47.17.1.02 1.6.31.12.03.25.06.1.03v.04l.01.02.01.01.06.05.04.02.03.02.01.01.33.18.16.08.46.23-.02-.08-.76-.67-2.68-.55-.87-.31-.56-.09-.21-.11.98-1.72.4-.38.08-.07.4-.34.56-.29.04-.01h.04l1 .01.89.51-.01.65-.03.06-.1.16-.11.12-.24.24-.09.09.42.02.56-.44-.07-.09-.05-.1-.02-.04-.03-.48v-.09l-.01-.36v-.19l.17-.05.05-.01.04.02.15.06 3.15 1.54 1.34.72.03.02 1.87 1.26 1.68.89 2.56 2.07.44.46.36.63.05.15.87-.58-1.54-1.01-.31-.4-.09-.13.06-.06.13-.02h.03l.04-.01.88.07 1.5-.36.94-2.73 2.94-1.46 1.48-2 .6-.27-.1-.55-.06-1.19 1.27-1.43-.76-1.68-.04-.07-.03-.06-.18-.34-.01-.01-.14-.21-.08-.12-.2-.26-.33-.37-1.09-1.43-1.24-.84-2.65-1.98-.37-.28-.02-.02-.39.45-.16.15-3.99 1.04-.34.07-.01-.01-.08-.12.05-.35.07-.37.04-.18.16-.37.28-.27.31-.13.17-.06.14-.05.03-.01-.02-.07-.01-.02-.02-.06-.07-.09-.01-.02-.85-.91-1.41-1.38-1.25-1.17-.98-.68-2.2-1.39-.1.08-.04.04-.04.04-.13.16-.02.02-.1.13-.01.01-.02.03-.01.01-.34.48-.17.32-.14.29-.03.07-.09.22-.05.19-.01.02-.04.14-.01.05-.01.03-.04.08-.09.21-.75-.07-.15-.02-1.06-.27-.36-1.2-.05-.64.05-1.76-1.02.31-.24-.03z" transform="matrix(16 0 0 16 -1000.968 -3264.468)" fill="cmyk(0.0,0.9,0.9,0.1)" stroke="#000" stroke-width=".25" stroke-linejoin="round" stroke-miterlimit="64"/><path d="m223.62 248.12-2.81.47.1.7.03.09.05.15.15.32.14.15.01.01.22.13.15.07 1.68.83.62.3.71.32-1.05-3.54z" transform="matrix(16 0 0 16 -1000.968 -3264.468)" fill="cmyk(0.05,0.2,1.0,0.05)" stroke="#000" stroke-width=".25" stroke-linejoin="round" stroke-miterlimit="64"/><path d="m215.53 215.68.62 3.89.09-.07.25-.03 2.57 1.16 1.15 2.24.51 1.04.14.86.41 1.4.94 2.34 2.73 2.32.46.22 1.45 2.96 1.07.2.23.13.32.12.21.07.24.01H229.26l.59-.01h.03l.12.01.22.02.11.05v.15l-.02.1-.03.22.02.55.13-.01.18-.08.24-.11.3-.09.1.03.09.03.04.33V236.14l.02 1.87-.02.22.34-.13.27-.16.06-.04.26.9.02.21.15.07.43-.04.33-.04.25-.03.06.53v.02l-.01.2-.01.07-.02.17-.04 3.4.08.23.16.41.07.14.01.02.03.05.01.01-.15.89-.01.03-.05.23-.06.22-.03.05-.07.15-.16.3-.34.46-.61.52-.09.07-.03.03-.18.15-.33.26-.23.16-.1.06-.02.01-.09.06-.29.3-.23.23-.53.57-.18.2-.18.21-.4.48-.15.21-.13.19-.16.25-.04.14-.01.12-.01.1.01.18-.06.17-.21.43-.13.21-.13.18-.06.08-.01.01-.05.07-.21.02-.21-.01-.34-.09-.28-.11-.24-.07-.26-.06-.35-.02-.27.04-.3.07-.25.08-.15.04-.09.03-.15.01h-.18l-.17-.02-.29-.1-.12-.07-1.36.62-.22.11-.26.18-.12.23-1.12 2.48.21.25 1.57-.91.03-.01.21-.05 1.78-.05.75.42 1.66 1.27 1.46.94.27.13.03.01.94.39.04-.01.14-.04.14-.05.13-.05.09-.04-.06-.06-.21-.23-.2-.26-.13-.26-.12-.3-.08-.32-.27-1.58.07-.18 1.27-2.37.12-.12.06-.06.02-.01.14-.08.12-.04.72-.08h.02l.37-.06.25-.05.07-.02.3-.1.53-.2.24-.11.5-.23.15-.08.51-.32.28-.18 2.69-1.94 1.5-1.25.52-.36 1.17-.63.15-2.64-.19-.51-.86-.94-1.58-1.22h-.22l-1.22-1.43-.1-2.4.1-.15.3.03.06.01.33.06 4.54.94.97 1.02.56 1.75 2.11-.29-.54-.27-.07-.3-.89-3.84-.01-.16 1.08-.76-2.39.65-.32.03-.2.04-4.51-1.11-1.52-2.72-.11-.22-.08-.57-.42-.89-.04-.07h-.01l-.08.02-.04.01-.12.03-.94.46-.63.54-1.02.37-3.6-2.71-.8-2.35.04-1.38 1.16-.14-1.44-2.36-.37-.04-.2-.06-1.08-.88-.38-.35-1.42-1.46-.18-.22-.21-.31-.1-.21-.03-.1-.01-.03.52.04.57.13.47.19.4.09 2.38-.01.16-.02.05-.14-.1-.73-2.45-1.41-.38-.21-.45-.14-1.42-.42-.6-.14-.48-.05h-1.66l-6.34-.65z" transform="matrix(16 0 0 16 -1000.968 -3264.468)" fill="cmyk(0.05,0.2,1.0,0.05)" stroke="#000" stroke-width=".25" stroke-linejoin="round" stroke-miterlimit="64"/><path d="m227.23 255.26.03-.09-.26-.09-.15-.05-.19.67.38.05.19-.49z" transform="matrix(16 0 0 16 -1000.968 -3264.468)" fill="cmyk(0.05,0.2,1.0,0.05)" stroke="#000" stroke-width=".25" stroke-linejoin="round" stroke-miterlimit="64"/><path d="m229.39 257.59-.03-.01-.27-.13-1.46-.94-1.66-1.27-.75-.42-1.78.05-.21.05-.03.01-1.57.91-.69.99-.32.44-4.01 4.08-.17.15-1.97 1.38-2.39 2.64-.26.31-.32.39-2.55 3.84.01.02 2.48 3.85.36-.16.33-.21.3-.23.28-.26 1.64-1.66.09-.19.2-1.11-.04-.38-.08-.73-.77-1.3-.08-.16.04-.01.2-.07.76-.17.85-.08.97.02.79.02.95.02.46-.02.39-.08.33-.07 3.25-.82 1.57-1.96-.03-.24.36-1.85 5.05 1.29 3.33.93.27.05 1.72.24h.47l-.05-1.52-.03-.24-.04-.25-.09-.38-.68-1.05-.14-.18-2.7-2.58-.81-.74-.09.04-.13.05-.14.05-.14.04-.04.01-.93-.4zM226.96 252.23l-.3-.1-.09.26-.09.22.28.11.2-.49z" transform="matrix(16 0 0 16 -1000.968 -3264.468)" fill="cmyk(0.05,0.2,1.0,0.05)" stroke="#000" stroke-width=".25" stroke-linejoin="round" stroke-miterlimit="64"/><path d="m235.81 266.6 3.66 1.08.18-.5.1-.24.07-.16.83-.42.18-.06 1.4.02.17.02-.12.43.41.02.44-.01.63-.09.37-1.25 1.58-3.9.07-.13.58-.2 1.91-.28.31-.01 3.11-.04 2.84.38-2.35-3.08-1.57.13-.22.02-.16-.09-3.06-1.85-.22-.14-.1-.18-1.12-3.15-3.96-2.25-.07-.06.2-1.26.38-2.01-.86-1.01-1.17.63-.52.36-1.5 1.25-2.69 1.94-.28.18-.51.32-.15.08-.5.23-.24.11-.53.2-.3.1-.07.02-.25.05-.37.06h-.02l1.02.19 2.14.46.14.04.67.71 1.07 1.28.63.76.01.01.34.45.08.1.04.63-.62 3.52-.63 2.1-.42 1.11-.58 1.67-.39 1.67-.01.04zM214.62 338.32l.08-1.49-.25-.56-.19-.21-1.22-1.29-.33-.12-.65-.08-1.67.24h-.11l-.44-.1-.36-.16-4.86-3.72-.78-.87-.12-.19-.03-.09-1.5 1.88.42.36 1.22 1.08.21.31.11.22.08.23-.35.12-.08.03 1.92 5.67.05.14.05.08.86.77.17.13.23.15.87-.08 2.82-.51 1.02-.21.07-.02.06-.02.36-.16.01-.06.01-.14-.02-.07-.03-.06.03-.1.04-.08.44-.38.14-.08 1.56-.59.16.03zM225.19 322.7l.89.86.91 1.26.18.34-.04.28-.06.26-.06.25.66 1.74.17.21.18.15.16.09 1.91.84.41-.58.21-.27.32-.35.84-.69 5.29-3.42 2.81-1.62.28-.11 1.48-.41v-.01l-1.11-.82-.18.09-.2.09-.46.2-1.21.42h-.28l-.19-.07-.14-.13-.62-.73-.07.1-.48.12-.2.04-.29-.06-.38-.1-.37-.11-.37-.2-.26-.21-.14-.17-.12-.43-2.16-2.2-2.81-1.59-1.37-.55-.22.48-1.27 3.01-.7 1.95-.94 2.05zM232.95 277.61l.43.33.07.05.97.91.2.21.2.26.02.29-.05.15-.06.19-.06.29-.03.29.14.07 2.29.21 2.61-.42.94.32.49-1.08 2.88 1.09.26.09.56.19 2.21.58-.43-4.49-1.09-.72-.49-.26-.46-.11-.41.36-.21.2-.21.2-.11.01-.29-.21-.52-.42-.62-2.35.43-2.39.58-1.84.05-.23v-.02l.06-.31-3.84-1.37-3.66-1.08-.02 1.54.02 6.13-.02.11-.03.1-.02.06v.01l-.13.38-.01.04-.13.29-.12.21-.06.02-.13.05h-.01l-.09.04-.12-.01-.26-.01-.71-.14-.07-.05-.94 2.24zM206.56 265.99l.03-.17-.05-.61-.11-.34-.09-.14-1.58-1.98-.05-.06-.12-.14-.18-.11-.16-.09-.16-.07-.61-.27-.85-.42-.21-.13-.6-.4-.23-.19-.07-.12-.08-.17-.24-.69-.49-2.45-1.94-1.45-4.86-6.78-.46-.8-1.84-.09 1.13 3.11.69 1.09.2 3.52-.24.14-.78.49-.19.12-.04.02-.07.04-.02.01V257.03l1.71 1.83.26.09.12.04.45.48 1.53 1.37.07.05.33.21.12.05.03.01.62.24.33.07 2.21.84.84.84 2.13 2.07.59.48.13.01 1.18-.2 1.18.79.44-.31zM199.8 248.04h.12l.52-.07.52-.09v-.17l-.04-.23-.22-.77-.04-.14-.11-.12-.17-.17-.03-.04-.98 1.07-.04.12.12.32.16.29h.19zM206.05 244.29l-.33-.13-1.37-1.54-.35-1.6-.55-5.12.05-1.43v-.11l-.01-.39-.16-.24-.01-.01-.02-.03-.44-.33-.93-.91-.06.08-.09.14-.12.42-.12.44-.49 1.57-2.21 1.35-.61.13-.12.03-2.33.03h-.1l-1.08 2.25-1.04 2.13-.55-.01-1.45 1.83-.13.43-.02.14-.01.04-.01.04.11 1.1 1.07 1.68.37-.07.38-.08 2.73-2.02 1.01.13 2.03 1.05 4.23-.35 1.09.3 1.27.68.37-1.62zM232.9 299.1l-.11-.5-.1-.27-.51-.31-.7-.06h-.16l.02-2.75-.85-3.67-.33-1.08.24-1.16.1-.09-.06-.31-.26-.93-.09-.25-.07-.07-.02-.02-.45-.11h-.01l-1.2-.24h-.1l-1.21.07-.55.05-.09.02-.16.06-.13.05-.03.01-.01.01-.12.05h-.01l-.28.13-.05.02-.15.07-.18.09-.71.35-.41.25-.66.42-.35.29-.25.34-.04.05-.21.43-.35.5-.36.31-.72.62-.32.25 1.53 4.99.67 1.94.05.1.07.13 1.37 1.99.3.07.4.09.79.19.12.11.09.12.11.17.81 1.59.46-.45.41-.38 2.58-2.31.03-.02.49-.28.13-.07.24-.13 1.36-.47zM186.59 275.74l.23-.95 1.16-1.04 2.44-1.26 1.12-.25.17-.06.15-.08.14-.09.07-.06.08-.12-.02-.16-.05-.33-1.07-3.49-.34-.43-.38-.32-.3.07-.79.82-2.51.46-1.81.12-2.18.92-.87.58 3.66 3.2 1.1 2.47zM120.23 268.68l.01-.05.09-.08.11-.09.18-.13 1.17-.77.46-.3.28-.14.08-.03.11-.04.35-.1.33-.06 2.05-.19.51-.05.04.01v.03l1.17-.1h.49l.24.03 1.39.61.5.26.06.03.04.03.49.36.11.19.23.39.11.2.03.08.02.07.03.11.04.18-.5.59v.15l1.41.37 3.39.78 1.32.05 1.67-.05 1.9.1.07.02.24.11.17.08.35.19.02.01h.01l.04-.52-.06-.68-.39-2.86-.02-.08.35-3.74.03-.06.06-.11.44-.93.05-.16.01-.03.03-.19-.06-.2-.11-.23-1.57-1.94-1.68-.07-.52.07-.46.19-.3.12-1.55-1.58 1.08-3.28.04-.14-.11-.35-.19-.11-.03-.01-.04-.01-.16-.04-.14-.03-.08-.02-.37-.05h-.32l-.49.09-.48.16-.52.15-.07.02-.14.03-.07.01-.29-.09-4.92-3.07-2.06-.9-.3-.06-.34-.03-.32-.03-.34-.02-3.28.05-.24.04-.29.1-.13.05-.18.06-.2.07-.15.06-.22.13-.19.26-.17.24-1.26.76-1.71.01-1.18-.64-.69-.13-1.84-.34-1.1-.2-.19-.03-.69-.12.28 1.15.18.79.48 2.19.05.26.17 1.1.03.24.47 4.4V262.11l1.43.04 2.64-.32.09-.01.14-.02.25.08.06.02.27.11.1.04.17.08.09.04.2 2-.2 1.32v.35l.01.33.1.07 1.11.72 1.19 1.72zM100.35 294.7l.43.34.97-.17.47-.02.74 1.56.04.07.11.16.49.49.24.14.08.04.19.07.63.21.15.01.03-.02.05-.05-.06-.19-.23-.4-.08-.14-.1-.11-.18-.16-.07-.08-.07-.09-.09-.18-.1-.24-.06-.15-.16-1.33.54-.39.31-.17 1.01-.43.37.24.37.24.11.06.06.02.06.02h.11l.08-.04.04-.02.09-.1.09-.11-.01-.06-.07-.14-.17-.22-.54-.64-.02-.02-.06-.04-.05-.02-.3-.05-.1.02-.06.01-.02-.02-.02-.07-.01-.07v-.23l.04-.26.03-.08.04-.11.13-.2.31-.37.07-.08.1-.11.4-.29.66-.42.32-.13.06-.02.42-.07.12-.01H108.49l1 .23.13-.17.11-.23.03-.71-.27-.31-.37-.34-.08-.04.01.15v.02l-.35.1-.16.04h-.18l-2.16-.26-.09-.01-.1-.03-.12-.04-.12-.05-.26-.18-.1-.08-.04-.06-.11-.22-.01-.03-.02-.08-.08-.2-.26-.46-.21.04-1.59.59-.01 1.43-.07 1.59-.2.57-.08.22-.55 1.17-.4.77-.47.91-.2.35-.02.03-.04.06-.03.01-.13-.01-.45-.16-.88-.33-.27-.07-.07-.01-.03.01-.05.03-.14.1-.24.28-.25.31-.03.05-.08.16-.03.09-.02.06-.31.99.06.08.35.36.2.2.07.06.04.03.03.02.74.2.13.02.13.02.09.01.07-.01-.1-1.01-.13-.04h-.03l-.28-.21-.09-.16-.03-.07-.03-.06-.04-.2.02-.19.04-.14.02-.07.07-.12.08-.11.05-.06.06-.05.1-.09.27-.08.06-.02.12.02.24.01zM138.78 239.1l1.01-.61 1.3-.19.47-1.67.7-.38-1.18-.17-.52-.09.07-.12.54-.91.11-.16.03-.04.14-.2.21-.3.05-.07-2.54-.33-1.88-.11h-.1l-1.88-.1-.15-.01-.21-.01-3.27-.32-.43-.05-.13-.02-.37-.06-.26-.12-.05-.03-.2-.16-.27-.19-.27-.15-1.22-.6-.29-.07-.09.07-.04.17-.02.2-.02.21-.01.29.01.31v.09l.06.35.32 1.37.13.26.27.28.17.32.17.43.5 1.66.06.28.03.15.04.99 9.01-.19z" transform="matrix(16 0 0 16 -1000.968 -3264.468)" fill="cmyk(0.05,0.2,1.0,0.05)" stroke="#000" stroke-width=".25" stroke-linejoin="round" stroke-miterlimit="64"/><path d="m140.11 254.54-.1-.53.44-3.02.14-.19.07-.22.07-.26.05-.19.05-.3.02-.21v-.12l-1.07-4.21-.01-.04-.01-.03-2.08-.83-2.04.9-1.34-.1-2.31-.46-.97-1.4-.04-.15-.08-.65-1.89.38-1.91 2.18-.78 1.24-.47.97-.11.23-.24.66v.01l-.08.21-.08.25-.03.21-.02.19.03.13.01.03.01.05.57 1.6 2.06.9 4.92 3.07.29.09.07-.01.14-.03.07-.02.52-.15.48-.16.49-.09h.32l.37.05.08.02.14.03.16.04.04.01.03.01.19.11.84-.38.72-.18h.2l.5.3.34.18.28.13.2.06.26-.08.4-.21.09-.02zM221.85 216.37h1.66l.48.05.6.14 1.42.42.45.14.38.21 2.45 1.41.45-.13 2.92-.64 1.33-.18.48-.06.74-.09.19-.02.21-.01 4.1 2.56.11.08.85 1.55-.03.28-.01.09-.02.17-.05.37 1.25-.5.28-.1.26-.07.18-.04.15-.03.03-.01.15-.02.08-.01 3.14.24 1.1.35.24-1.13.58-2.99.45-2.96-.02-.38-.14-2.95-.01-.19-.46-.67-.5-.52-.03-.03-.1-.05-.14-.14-.28-.29-.09-.17-.25-.56-.02-.11.01-.16.03-.17.07-.38-.55-1.73-1.54-1.87-5.5-1-3.33 1.58.38 3.13.07.21.38 1.91-.07.31-.23.27-3.16 2.96-.23.02-.64-.62-.31-.14-1.1-.44-2.54-.82-.2-.06-1.25-.25-1.05-.07-2.19.61-1.05 2.25-.07.16-.09.21-.35.79-.05.29zM235.83 266.53l.39-1.67.58-1.67.42-1.11.63-2.1.62-3.52-.04-.63-.08-.1-.34-.45-.01-.01-.63-.76-1.07-1.28-.67-.71-.14-.04-2.14-.46-1.02-.19-.72.08-.12.04-.14.08-.02.01-.06.06-.12.12-1.27 2.37-.07.18.27 1.58.08.32.12.3.13.26.2.26.21.23.06.06.81.74 2.7 2.58.14.18.68 1.05.09.38.04.25.03.24.05 1.52.41 1.81zM182.71 269.47l2.18-.92 1.81-.12 2.51-.46.79-.82 1.11-2.79-2.32-3-1.48 2-2.94 1.46-.94 2.73-1.5.36-.88-.07-.04.01h-.03l-.13.02-.06.06.09.13.31.4 1.52 1.01z" transform="matrix(16 0 0 16 -1000.968 -3264.468)" fill="cmyk(0.05,0.2,1.0,0.05)" stroke="#000" stroke-width=".25" stroke-linejoin="round" stroke-miterlimit="64"/><path d="m233.9 275.38.07.05.71.14.26.01.12.01.09-.04h.01l.13-.05.06-.02.12-.21.13-.29.01-.04.13-.38v-.01l.02-.06.03-.1.02-.11-.02-6.13.02-1.54.03-.07-.43-1.79h-.47l-1.72-.24-.27-.05-3.33-.93-5.05-1.29-.36 1.85.03.24-1.57 1.96-3.25.82-.33.07-.39.08-.46.02-.95-.02-.79-.02-.97-.02-.85.08-.76.17-.2.07-.04.01.08.16.77 1.3 2.36.04 3.98.01.7-.15 6.93 2.5.61.58.37.37.15.22 1.61 1.25 2.66 1.55zM244.28 240.83l-.56-1.75-.97-1.02-4.54-.94-.33-.06-.06-.01-.3-.03-.1.15.1 2.4 1.22 1.43h.22l1.58 1.22.86.94.19.51 2.69-2.84zM200.62 266.61l-.44-1.07-.33-.41-1.81-1.34-3.2-2.32-.89-.55-.8-.49-3.76.67-.6.27 2.32 3 .83-.01 5.06.24 2.82 1.67.8.34zM220.72 223.93l-.47.02-.04.61.02.52.41 4.99.41-.24.7-.49.51-.11.41 2.25.04.98-1.31 1.58-.3 1.02-.08 1.07-.14 1.28-.33 1.47-1.79 1.53.19.03 1.08-.07.81-.99 1.06-1.41 2.83-.9.26.09 1.16-.1 1.05-.41.7-2.39-1.07-.2-1.45-2.96-.46-.22-2.73-2.32-.94-2.34-.41-1.4-.12-.89zM207.06 340.85l-.23-.15-.17-.13-.86-.77-.05-.08-.05-.14-1.92-5.67.08-.03.35-.12-.08-.23-.11-.22-.21-.31-1.22-1.08-.42-.36-3.07 1.57.99 1 .39.61.22.41 1.48 3.21.18.47.86 2.82.77 2.9 3.07-3.7zM209.42 265.21l-.39-1.04-.78-2.17-.62-2.58-.7-3.04-.72-3.46v-.17l.51-.84-.7-3.25-.35-2.35-.02-.28.03-.18-1.27-.68-1.09-.3-4.23.35-2.03-1.05-1.01-.13-2.73 2.02.13 2.32.46.8 4.86 6.78 1.94 1.45.49 2.45.24.69.08.17.07.12.23.19.6.4.21.13.85.42.61.27.16.07.16.09.18.11.12.14.05.06 1.58 1.98.09.14.11.34.05.61-.03.17 2.86-.75zM157.28 232.77l3.62 1.34v-.04l.12-1.37.01-.1.68-1.16 1.25-1.3.99-.1.15.06.57-1.87-2.79-2.92-.66-.47-1.51-.95-.03.06-.02.06-.01.08-.07.5-.05.56-.01.14-.01.17-.65.64-.87.44-.21.08-1.17.13-.12-.1-.02-.06-1.45.57 2.26 5.61zM232.29 308.3l1.23-.59 1.65.26 1.42-.74 4.78-2.48 2.89-1.49-.04-.31-.34-.95-.74-1.87-3.69-2.42-.64-.35-.15-.04-.11-.01-1.24 1.15-.4.11-.04.01h-.01l-.18.05-1.44.34-.29.05-.21.04-.42.07-1.41-.02.09 1.79.37 3.07-.39 3.32-.81-.09.12 1.1z" transform="matrix(16 0 0 16 -1000.968 -3264.468)" fill="cmyk(0.05,0.2,1.0,0.05)" stroke="#000" stroke-width=".25" stroke-linejoin="round" stroke-miterlimit="64"/><path d="m232.17 307.18.81.09.39-3.32-.37-3.07-.09-1.79h-.01l-1.37.49-.24.13-.13.07-.49.28-.03.02-2.58 2.31-.41.38-.46.45.31 4.98 4.67-1.02zM224.52 251.98l.12.07.29.1.17.02h.18l.15-.01.09-.03.15-.04.25-.08.3-.07.27-.04.35.02.26.06.24.07.28.11.34.09.21.01.21-.02.05-.07.01-.01.06-.08.13-.18.13-.21.21-.43.06-.17-.03-.19.01-.1.01-.12.04-.14.16-.25.13-.19.15-.21.4-.48.18-.21.18-.2.53-.57.23-.23.29-.3.09-.06.02-.01.1-.06.23-.16.33-.26.18-.15.03-.03.09-.07.61-.52.34-.46.16-.3.07-.15.03-.05.06-.22.05-.23.01-.03.15-.89-.01-.01-.03-.05-.01-.02-.07-.14-.16-.41-.08-.23.04-3.4.02-.17.01-.07.01-.2v-.02l-.06-.53-.25.03-.33.04-.43.04-.15-.07-.02-.21-.26-.9-.06.04-.27.16-.34.13.02-.22-.02-1.87V235.76l-.04-.33-.09-.03-.1-.03-.3.09-.24.11-.18.08-.13.01-.02-.55.03-.22.02-.1v-.15l-.11-.05-.22-.02-.12-.01h-.03l-.59.01H228.95l-.24-.01-.21-.07-.32-.12-.23-.13-.7 2.39.03.73-1.1 2.99-.73.89-.22.22-.29.21-.41.26-.6.39-.28.21-.86 1.07-.51 1.31-.26 1.12.56.52.08.07.56.53.12.11.1.09.29.27v.31l-.09.18 1.06 3.54-.18.33z" transform="matrix(16 0 0 16 -1000.968 -3264.468)" fill="cmyk(0.05,0.2,1.0,0.05)" stroke="#000" stroke-width=".25" stroke-linejoin="round" stroke-miterlimit="64"/><path d="m220.81 248.59 2.81-.47.09-.18v-.31l-.29-.27-.1-.09-.12-.11-.56-.53-.08-.07-.56-.52.26-1.12.51-1.31.86-1.07.28-.21.6-.39.41-.26.29-.21.22-.22.73-.89 1.1-2.99-.03-.73-1.05.41-1.16.1-.26-.09-2.83.9-1.06 1.41-.81.99-1.08.07-.19-.03.15 3.45 1.87 4.74zM73.49 300.7l-.19.26-.19.26-1.17.81-.77.18-.27-.28-.06.06-.07.28-.51 3.15-.05.36-.05.61-.03.36.1 3.3.15.74 1.09-.13.4-.05.09.02.87.42.85-.03.58-.25.02-.16.61-.95 1.61-1.44-.09-2 .02-3.97.14-1.51-3.08-.04z" transform="matrix(16 0 0 16 -1000.968 -3264.468)" fill="cmyk(0.05,0.2,1.0,0.05)" stroke="#000" stroke-width=".25" stroke-linejoin="round" stroke-miterlimit="64"/><path d="m221.64 255.85-.21-.25 1.12-2.48.12-.23.26-.18.22-.11 1.36-.62.16-.32-.71-.32-.62-.3-1.68-.83-.15-.07-.21-.14-.01-.01-.14-.15-.15-.32-.05-.15-.03-.09-.1-.7-1.88-4.74-.2-.13-.02-.01-.73-.47-.45-.09-.27.01-.13.51-1.64-.18-.06-.02-.09-.03-1.37-.52-4.21-2.48.01-.1-1.66 2.31-1 .68-.04 1.07-.33.61-.1-.07-.09-.06-.49-.6-.37 1.59-.03.18.02.28.35 2.35.7 3.25-.51.84v.17l.72 3.46.7 3.04.62 2.58.78 2.17.39 1.04 2.09 1 .32-.39.26-.31 2.39-2.64 1.97-1.38.17-.15 4.01-4.08.32-.44.67-.98zM204.01 344.54l-.77-2.9-.86-2.82-.18-.47-1.48-3.21-.22-.41-.39-.61-.99-1-.32.25-1.28.75-.49.27-.36.15-.11.04-1.67.37-.15.03-1.36.03-.14-.02-.4-.28-1.58-1.1-1.27-.89-.13-.01-.49.27-.1.07-.37 1.34-.09.37-.1.47.8.66.34.32.77.87.19.22.1.28.04.38-.05.18-.08.15.06.16 1.11.98.07.04.18.11.19.1.29.14h2.01l1.65-.05 3.66 2.7.2.39.08.26.33 1.04-.02.2-.01.07-.22 1.58 3.61-1.47zM246.57 277.14l3.53-1.79.19-.33.09-.22.07-.24.02-.15.02-.14.01-.08v-.04l.01-.2.02-.32v-.05l.01-.14.01-.12.03-.66.08-1.52v-.01l-.08-.16-.09-.14-.24-.37-.36-.39-.18-.16-.5-.35-1.95-1.27-.56-.4-1.36-.97-.98-.7-.22-.8-.37 1.25-.63.09-.44.01-.41-.02.12-.43-.17-.02-1.4-.02-.18.06-.83.42-.07.16-.1.24-.18.5 3.84 1.37-.06.31v.02l-.05.23-.58 1.84-.43 2.39.62 2.35.52.42.29.21.11-.01.21-.2.21-.2.41-.36.46.11.49.26 1.05.74zM219.15 281.3l.92.31.04.02.23.1.53.68.14.26 2.54 2.49.02.02.6.4.11.03.03.01h.04l.31-.04 1.07-.19.18-.04.13-.03 1.11-.23.33-.11.56-1.2.09-.26.04-.15.07-.28.13-.46v-.01l.28-.82.21-.57.97-1.27.67-.61.29-.26 2.17-1.49.94-2.22-2.67-1.57-1.61-1.25-.15-.22-.37-.37-.61-.58-6.93-2.5-.7.15-3.98-.01-2.36-.04.08.73.04.38-.2 1.11-.09.19-1.64 1.66-.28.26-.3.23-.33.21-.36.16.52.9.72.86 3.01 2.7.17.15 1.5 1.27 1.79 1.5zM218.38 300.97l.16-.08.01-.02v-.02l-.05-.18-.01-.01h-.02l-.07.04-.01.02.01.01.03.02-.23.13-.01.01v.02l.02.02.11.05.06-.01zM213.26 290.58l-1.98-.74.03-.17.11-.19.15-.28.13-.15-1.12-.77-1.14-.02.61.36-.06 1.66-1.23 3.25 2.6-1.21.05-.02 2.67.05.1.03.01.01.07.05 2.22 2.26.24.29.03.03.03.04.46.66.15.22.03.05 2.78 5.11h.18l.34-.01h.01l.65-.09.15-.15.16-.24.08-.18.78-1.88.03-.25-.17-1.55-1.53-4.99-2.51-2.16-3.41.69-1.08.38-.62-.09z" transform="matrix(16 0 0 16 -1000.968 -3264.468)" fill="cmyk(0.05,0.2,1.0,0.05)" stroke="#000" stroke-width=".25" stroke-linejoin="round" stroke-miterlimit="64"/><path d="m195.17 284.15.96 1.06 3.91 4.28.79 1.04.27.3.02.02.67.38.08.04.09.05.09.05.05.02.06.02.08.02.09.02 1.19.21V291.72l.01.01.04.04.03.03.58.51.05.04.3.23.33.23.03.02.8.39.54.1 1.93.16.6.04 1.23-3.25.06-1.66-.61-.36-.02-.67.08-3.05.05-.47.4-1.44.05-.13.38-.66.13-.16.17-.06.1-.12.04-.3-.07-1.82-.11-.91-1.09-5.7-.56-2.71-.01-.02-.35.1-2.28.65-.61.16-1.12.3-1.09.29-1.65.46-.87.38-.3.13-.7.5-2.98 2.57-4.41 2.42-.95.04-.1.1-.08.2-.16 1.01-.04.32.03.26v.03l.01.06.01.05 3.83 4.09z" transform="matrix(16 0 0 16 -1000.968 -3264.468)" fill="cmyk(0.05,0.2,1.0,0.05)" stroke="#000" stroke-width=".25" stroke-linejoin="round" stroke-miterlimit="64"/><path d="m209.43 288.25 1.14.02 1.12.77-.13.15-.15.28-.11.19-.03.17 1.98.74.62.08 1.08-.38.21-.32.01-.03.04-.12.31-2.52V286.98l-.14-2.08-.09-.87-.04-.15-.74-.76-.24-.06-.12-.16-.23-.32-.51-.74-.16-.33-2.42-6.07-.7-2-.85-2.44-.32-.95.56 2.71 1.09 5.7.11.91.07 1.82-.04.3-.1.12-.17.06-.13.16-.38.66-.05.13-.4 1.44-.05.47-.08 3.05.04.67zM249.39 232.3l-.12-.58-.33-2.53-.11-2.03-.38-3.12-.13-1.08-.7-.55-.29-.01-.12.14-1.1-.35-3.14-.24-.08.01-.15.02-.03.01-.15.03-.18.04-.26.07-.28.1-1.25.5 1.2 1.88 1.27 3.75.55-.24 2.1-.43.11.21.01.01.02.03.04.12v.2l-.05.58-.04.23-.01.03-.07.26.42.92.17.25.32.21 2.53 1.47.08.03.15.06zM228.19 328.13l-.16-.09-.18-.15-.17-.21-.66-1.74.06-.25.06-.26.04-.28-.18-.34-.91-1.26-.89-.86-2.05-1.16-5.85-2.16-4.39-3-.04-.04-.1.03-.05.02-.2.14-.13.13-.21.21-.08.12-.02.04-.26.46-.03.06-.01.03-.02.03-.08.17-.3.86-.08.62-.02.43-.03.28-.01.05-.01.05-1.09 1.89-.04.05-.2.2-.1.09-2.93 1.95-.08.05-.21.05-.86-.09-.27-.03-1.08.23-1.17.98-.03.09.15.36.21.36.27.46.22.2.29.11.07-.04.15-.01 3.35 1 .76 1.23 1.65 3.5.13 1.94v.2l1.67-.24.65.08.33.12 1.22 1.29.19.21.25.56-.08 1.49.47-.36.05-.02.17-.07.1-.04 1.31-.14.5.17.17.07.59.29 1.75-.68-.5-.27-.18-.2-.52-.79-.4-.7-.03-.28-.01-.33.61-1.65.3-.55.11-.05 1.11-.27 1.1-.16 1.3-2.37-.02-.16v-.04l.07-.3.2-.57.09-.22.07-.17.14-.1 1.31-.03 1.94.25 1.74-.47zM130.89 242.53l.85.03 4.35-.28.25-.03.33-.07.33-.11.87-.44 1.79-1.56-.88-.96-9.04.2-.74 3.62 1.89-.4zM153.08 236.29l-2.3-.14-5.48-.15-.37.07-.39.06-.41.06-1.3.14-.29.02-.2-.08-.02-.01-.06-.02-.7.38-.47 1.67-1.3.19-.06.09.03.13.32.74.14.17.2.08.05.01.21.03 2.07.26.14-.03 4.15-1.5h2.82l3.22-2.17zM245.96 235.2l-1.08.76.01.16.89 3.84.07.3.54.27.2.09.05-.04.22-.15.47-.28 1.59-.61.18-.07.16-.06 2.05-.63.15.01.93.1.13.46-.04.33-.25.43 1.06-.67.05-.03.05-.02.15.06.91.47 2.24.35.61-.23 4.01-.52 3.49 1.24-.13.52v.58l1.46.5 3.56.21 1.17-.56-1.31-3.44-.29.09-.08.12-.11.16-.15.12-.12.06-.32.14-.48.14-.24.06-.39.03-.12.01-.08-.13-.11-.11-.23-.1-.41-.06-3.64-.25-1.89.2-1.41.49-1.06.17-.64-1.89.35-.7.03-.23-.06-.28-.68-1.87-.25-.32-.3-.32-.31-.14-.28-.1-.4-.08h-.07l-5.6-1.42-.14.02-4.11 2.82zM188.71 254.81l4.04-3.39-1.13-3.11-.04-1.8-.01-.06-.02-.13-.08-.22-.37-.71-.12-.2-.23-.2-2.32-.41-.08-.01-.24.42-.12.25h-.01l-.03.02-.9.67-.28.07h-.25l-1.89-.2.22 2.01-.02.38-.09.44-.15.39-.05.07-.07.11-.22.27-.2.19-.72.59.02.02.37.28 2.65 1.98 1.24.84 1.1 1.44z" transform="matrix(16 0 0 16 -1000.968 -3264.468)" fill="cmyk(0.05,0.2,1.0,0.05)" stroke="#000" stroke-width=".25" stroke-linejoin="round" stroke-miterlimit="64"/><text transform="translate(1511 835.707)" font-family="SourceSansPro-Regular" font-size="72px">Naples</text></svg>