<svg version="1.1" viewBox="0 0 3333.564 2584.564" xmlns="http://www.w3.org/2000/svg"><path d="M2286.713 422.97l8.173-63.288.43-1.7 7.831-14.514 3.109-5.386 1.635-1.131 45.737-9.424 20.381-3.9 5.609-.23 7.64-.49 4.724-1.806 13.995-12.531 30.733-34.6 14.357-16.565 6.264-8.637-9.872-62.285-15.952-.948-51.763-6.759-3.73-1.1-25.361 5.641-1.81 4.5-1.024 6.627-2.971 4.041-1.067.635-1.87 1.115-6.338.476-7.746-.917-5.763-.722-7.115-.973-4.701-1.379-4.367-1.841-51.142-22.28.562-2.623 1.899-5.532 4.502-7.089 33.547-43.123-29.166-24.185-80.96.128-7.26.064-9.77.53-14.996.838-6.721.382-7.117.406-25.49 1.86-7.033.008-2.597.003-12.187-.002-9.586.013-10.94-.818-5.329-1.124-7.71-1.778-3.69-2.139-84.059-.243.456 2.801.667 3.351 1.661 3.677 22.46 39.078 32.552 57.331 12.55 22.63-.18 1.487-17.265 52.488-18.52 32.994-19.545 11.217-1.821 31.604-.399 6.93 18.909 20.505 4.485 4.792 4.858 3.269 3.55 2.344 13.746 8.401 6.788 3.7 2.064-.16 2.442-.145.394.575 10.268 16.982 7.84 19.997 2.325.891 17.413 33.9.495 2.033-27.439 39.984 78.663 10.32 1.619.064 37.235-.502 1.966-.413 9.754-2.05 35.384-21.58 7.795-25.12 1.885-6.96 1.986-6.785 1.377-2.182.896-1.34 14.861 14.511 41.9-45.837z" stroke-width="1.008" stroke-miterlimit="4" stroke-dasharray="none" stroke="#000" stroke-opacity="1" stroke-linejoin="round" fill="cmyk(0.05,0.2,1.0,0.05)" fill-opacity="1"/><path d="M2051.392 510.839l27.438-39.984-.494-2.034-17.413-33.899-2.325-.891-4.024 4.805-1.64 1.179-3.272 2.19-3.505 2.296-4.578 2.472-4.437 1.661-1.704-1.53-1.424-2.985-5.614-20.514-.352-2.219-.167-2.643.016-4.008.218-2.763 1.352-.594 3.34.518 4.36 1.45-1.138-3.909-2.605-5.232-1.947-2.558-15.632-14.293-2.279-1.13-12.494-2.915-17.03-.632-86.392 1.148-11.868 16.28-9.832 15.148-.761-.096-1.47-.259-11.486-3.163-4.899-2.422-15.366-16.685.835 1.187 1.374 2.184.828 1.331 1.29 3.629 6.423 22.875-6.611 9.33-13.694 19.493-10.973 20.259-.613 8.57.912 20.683 35.57 81.812 30.064 31.247 16.833 11.372 10.472-5.77 6.101-3.964 8.411-3.357 1.522-.204 1.34-.144 1.325.01 1.228.031.876.048.557.032.223.014.39.16 7.375 10.816 4.012 6.48 1.31 4.23 4.098 14.471 14.936-11.262 8.03-37.975-1.442-3.157-1.855-3.966-.736-1.573-.81-15.352 9.282-18.318 7.003-9.293 22.762-26.091.771-.482 9.941-3.65 15.464-5.265 2.393-.57.224-.047 5.914-.915 4.635-.71 1.31.01.127.002z" stroke-width="1.008" stroke-miterlimit="4" stroke-dasharray="none" stroke="#000" stroke-opacity="1" stroke-linejoin="round" fill="cmyk(0.05,0.2,1.0,0.05)" fill-opacity="1"/><path d="M1547.595 2557.166l5.402-46.175-1.708-3.531-15.948-32.042-10.012-6.493-5.315-3.337-27.984-11.648-4.147-1.454-10.079-3.477-3.465-.762-5.677.266-45.336 4.206-1.157.22-2.157.79-.95.934-1.475 1.603-2.71 3.752-1.175 2.321-5.575 53.317 4.648 67.74 18.858-3.268 21.546-5.133 90.8-18.216 3.616.386zM1749.116 606.774l8.09-62.2-2.493-.28-.233-.031-.251-.096-1.516-.538-1.062-.654-.197-.128-.533-.501-.128-.112-5.667-5.509-3.115-5.732-2.229-11.51-.168-3.793-.112-2.108-11.851-10.405-10.488-2.81-25.952 6.197-37.432 15.598-24.696 32.093-8.798 19.517-.266 2.027-.203 1.56 8.016 12.305 54.065 37.079 4.863.546 16.286-4.919 46.069-15.61zM788.2 1111.391l7.74 2.042 16.506 9.24 3.063 2.23 21.07 16.51 3.122 3.2 2.542 3.119 31.02 40.252 4.585 9.206 1.579 3.496.128 1.41.144 1.625-.008 3.792-.016 2.512-8.74 21.691 2.788.128 16.142.848 31.525 5.834 2.304.561 11.458 4.565 6.203 2.67 2.922 1.551 1.748 1.358 2.205 2.033 1.256 1.612.328 1.127-1.584 1.574-.758.72-.707 1.181-.948 2.11-.28 1.178-.73 3.451.265 1.578 13.937 15.987 8.35 6.485 3.903 2.02.71-.694.548-.824 1.528-4 .387-4.017.59-20.765-.926-4.496-.674-2.053-.433-.878-.603-.93-6.658-7.182-11.222-6.022-2.35-31.874 5.956-11.303-3.904-1.459-1.176-.505-13.422-22.14-.708-2.43-.492-1.931-.168-1.46-.048-7.745 2.046-17.154.34-32.85-1.423-2.339-6.415-2.585-16.262-7.654-15.907-13.13-.347-.349-.642-1.589-.594-4.064-.198-4.627.064-1.648.878-2.695.368-.907 1.87-4.23 5.745-8.322 14.968-18.955-18.923-27.792-17.792-11.54-1.607-1.157-.096-5.272.08-5.55 3.159-21.147-3.143-32.066-1.462-.688-2.76-1.296-1.65-.698-4.264-1.795-.937-.32-4.004-1.32-2.187.355-1.377.224-42.29 5.168-22.936-.65.702 2.053.096 2.255.887 39.993.144 9.781-.186 14.481-.691 24.944-.232 3.959-.694 11.908-5.194 50.082-.482 3.44-.616 3.157-6.04 16.405zM187.045 1707.636l.985-.935 6.501-4.948 6.458-1.672 7.232-1.136 3.988-.423 3.839-.312 5.344-.064 13.881 1.691 5.996 1.38 21.198 7.33 1.958.839 66.341-21.947 3.152-2.794 2.578-1.86 11.718-6.922 2.397-1.192 11.242-2.602 2.406-.128 2.653.658 31.312 7.787 16.019 17.89 2.976 5.059 3.008.85.755-.838 4.691-5.956 1.156-1.727 1.437-12.923-.604-2.33-1.93-4.312-1.084-2.067-4.006-5.37-7.292-.44-26.616-2.353-27.046-33.198-15.352-54.012-10.624-57.777-22.385-25.733-11.35 12.162-51.463 41.694-2.82 2.112-21.638-3.946-2.254 24.199-.27 63.467 1.502 31.946-25.827 22.996-9.802 15.248-.36 2.613zM2492.915 1369.062l40.123 34.484 5.186-4.046 11.563-9.975 5.755-4.976 5.635-8.003 3.384-6.84.64-.877 4.007-5.473 5.61-4.719 10.569-6.728 6.488-4.011 11.3-5.52 2.945-1.386 2.414-1.121.744-.346 4.477-2.06.163-.065 1.967-.805.224-.096.459-.176 2.142-.819 2.501-.93 1.445-.343 8.865-.77 19.287-1.176 1.592.032 19.262 3.864-1.732-7.965.704-12.032 61.296-25.881 52.505-3.605 40.188 1.705 5.566-13.983 7.925-19.889 10.721-26.915-15.052-5.13-41.741 6.694-36.583-3.43-2.27-1.111.55-4.578.941-4.601 1.023-3.076.78-2.342-.312-4.704-3.203-4.093-3.205-3.366-15.518-14.557-1.094-.842-6.85-5.237-34.747 23.767-4.656 4.126-10.75 9.78-15.575 20.354-3.4 9.11-4.42 13.06-.033.096-2.057 7.309-1.103 4.496-.593 2.429-1.38 4.213-8.907 19.243-5.34 1.717-17.73 3.641-2.072.424-2.89.568-17.102 3.005-4.9.586-.702.064-.46-.112-1.703-.408-9.605-6.464-.272-.244-40.702-39.774-2.197-4.147-8.554-10.922-3.721-1.597-.634-.27-14.718-5.005 13.251 32.805-1.755 67.89-23.963 32.07z" stroke-width="1.008" stroke-miterlimit="4" stroke-dasharray="none" stroke="#000" stroke-opacity="1" stroke-linejoin="round" fill="cmyk(0.05,0.2,1.0,0.05)" fill-opacity="1"/><path d="M2492.915 1369.062l23.963-32.071 1.755-67.89-13.25-32.805-28.484-24.124-24.058-20.344-2.713-2.343-48.084-43.144-11.521-13.81-8.246-14.353-39.744-61.565 5.097 15.18 13.584 38.987 11.132 31.971 38.689 97.163 2.586 5.234 8.182 11.886 3.694 5.11 1.9 2.51 3.819.987 11.793 12.113.692 2.454 1.486 13.96 2.286 33.279.002.41-.048 4.396-5.03 40.335-.642 1.892-.165.474-3.283 5.085 54.608-10.978zM2328.709 617.988l26.585-36.997 1.877-1.554 1.934-2.38 10.32-28.725 1.644-7.44 4.409-27.787-31.176-59.114-21.038-22.971 3.654-17.766 23.109-22.812-26-5.433-3.424-5.503.301-5.705-.014-9.277-19.125-4.472-2.133-.278-4.745-.096-8.173 63.288.84 38.148 15.958 23.164.08 3.288.112 4.816-1.15 6.232-.251 1.313-5.442 24.128-.923 57.67 11.765 17.76 21.001 18.498zM1841.971 392.63l15.366 16.684 4.9 2.423 11.485 3.163 1.47.259.762.096 9.832-15.149 11.867-16.28 86.392-1.147 17.03.632 12.495 2.915 2.278 1.13 15.632 14.292 1.947 2.559 2.605 5.232 1.138 3.908-4.36-1.45-3.34-.518-1.352.594-.217 2.763-.016 4.008.166 2.644.352 2.219 5.615 20.513 1.424 2.986 1.703 1.53 4.437-1.661 4.578-2.472 3.505-2.296 3.272-2.19 1.64-1.18 4.024-4.805-7.84-19.996-10.269-16.983-.393-.574-2.442.144-2.064.16-6.789-3.7-13.745-8.401-3.55-2.344-4.858-3.269-4.485-4.792-18.909-20.504.399-6.93 1.82-31.604 19.546-11.218 18.52-32.993 17.265-52.488.18-1.487-12.55-22.63-32.553-57.332-22.459-39.078-1.66-3.677-.668-3.35-.456-2.802-19.608 6.168-5.738 1.653-3.816.66-4.937.52-7.602-1.092-42.443-6.89-68.078-16.702-13.632 13.784-2.349 2.683-14.592 56.287-3.327 25.353 3.856 4.607 6.887 7.18 5.739 8.865.186.286 3.666 10.706-.268 4.796-.365 6.47-4.506 47.018 3.685 1.602 1.507.718 1.461.959.563 3.658.007 6.908-3.386 24.069 2.178 36.315 6.432 30.317 29.812 27.558zM1425.237 625.017l-11.804-7.104-9.092-11.872-8.963-27.876.096-15.814 1.296-11.517-45.19.048-66.463 24.004-2.221.472-33.138-4.23-3.321-.43-.843-.111-3.155-1.324-2.199-2.69-5.09-11.846-.555-2.062.954-1.416-16.094 9.82 14.113 15.425 1.384 2.787.83 1.256 14.452 20.058 6.48 5.794 64.254 13.734 2.258.206 1.886.128 90.266 4.838 8.026.405 1.83-.688zM2795.306 402.066l5.403-65.955-36.79-16.152-72.346-16.947-7.26-1.184-17.366-.663-6.629-.25 23.085 37.76 8.773 12.366 25.67 16.502 59.576 36.117 7.72-.688 9.175-.818.989-.08zM1492.03 2453.94l27.984 11.648 5.315 3.337 10.012 6.493 15.948 32.042 1.708 3.53-5.402 46.176 2.789-9.23 11.133-7.787 30.848-7.91 8.708-1.627.786-.144.608.128 10.65 3.345.494.294 5.102 4.461.183.277.032.679 15.718 17.194 1.767.742 2.198-1.536 24.547-26.59 20.924-36.132 6.191-11.656.698-1.31.344-1.405-.128-1.794-.526-.974-11.22-19.13-2.523-2.736-.664-.717-.542-.16-9.397-2.33-.95.378-1.501.64-1.825 1.05-2.776 1.685-5.004 3.033-1.713 1.418-6.087 5.147-6.302 5.815-1.238 1.155-1.301 1.347-.651 3.112-1.754 1.31-1.05.284-34.52 4.016-9.374.33-3.211-.047-1.18-.032-2.1-.882-13.168-6.308-2.157-1.53-.733-.528-3.504-3.64-4.45-3.3-9.976-4.214-36.195-7.222-.747-.096-20.82-.112zM3034.066 866.351l-.498-2.93-16.582-35.939-2.538-5.211-19.117-29.386-39.174-54.145-.22-.064-2.308-.743-28.06-12.88-29.623-17.928-11.863-8.075-8.254-6.422-6.022 32.222-3.23 20.228 1.068.961 63.309 35.992 17.872 50.461 1.608 2.856 3.485 2.3 48.913 29.602 2.519 1.418 3.523-.258 25.192-2.052z" stroke-width="1.008" stroke-miterlimit="4" stroke-dasharray="none" stroke="#000" stroke-opacity="1" stroke-linejoin="round" fill="cmyk(0.05,0.2,1.0,0.05)" fill-opacity="1"/><path d="M1785.55 493.813l35.28-12.326.613-8.57 10.973-20.259 13.694-19.493 6.612-9.33-6.425-22.875-1.29-3.628-.826-1.331-1.375-2.184-.835-1.187-29.813-27.559-45.84 34.634-.715.68-.202.206-1.235 1.978-.902 1.55-.096.176-.807 7.03-.004 4.66 1.075 26.562.904 4.21 3.034 9.99 2.926 9.694 5.214 10.774 4.517 7.464 5.53 9.135zM2094.395 709.983l-2.107-37.077-6.03 1.247-5.86 1.05-17.105-26.92-1.703-17.552.08-.647.08-.598.296-2.277 2.075-6.926 23.228-29.223 8.84.144 16.606-34.02 17.26-36.031-78.663-10.32-.128-.002-1.309-.01-4.635.71-5.914.915-.224.048-2.393.57-15.464 5.263-9.941 3.651-.771.482-22.762 26.091-7.003 9.293-9.282 18.318.81 15.352.736 1.573 1.854 3.966 1.444 3.157-8.031 37.975-14.936 11.262-.283 19.216 30.201 3.139 4.032-.032 4.451-1.074 14.461-10.743.426-.332.08-.064 1.957-3.942 3.801-6.774 1.221.174 37.197 6.542 3.702 3.159 1.942 3.266 5.959 11.311 1.232 3.456.337 2.021.144.885.644 28.857 29.438 1.456zM2999.875 454.442l-10.65-2.125-2.61-.806-1.258-.515-40.531-23.533-5.09-3.32-2.678-3.963-6.648-14.748 1.096-4.13.144-.526.608-3.704.872-9.243.032-1.013.048-2.193-.683-1.928-.263-.498-.096-.178-1.813-3.424-33.647 6.884-8.876 3.782-20.979 1.27-7.538.607-5.457 1.246-4.1 1.213-13.145 11.336 1.675 15.66-43.457 1.2-8.757-.582 1.531 14.879 1.21 9.06 1.756 3.493 24.35 43.55 72.12 17.706 3.91-.21 5.118-.494 38.283-10.453 65.527-44.3zM224.056 1547.167l21.638 3.945 2.82-2.111 51.462-41.695 11.35-12.161 16.59-35.71-29.507-19.636-78.552 1.259-29.747-8.08.187 16.008-.502 2.725-3.503 4.972-1.815 1.082-9.5-.218-11.868 22.138-.19 1.995-.065.72-.473 12.077 5.29 14.452 7.223 37.798 49.162.44zM1595.274 563.554l33.81-9.286 24.697-32.093-29.176-104.946-2.426-.99-15.866 1.533-20.017 20.739-10.802 18.544-.128 1.537-1.867 21.954-.013.16-.048.53 21.834 82.323zM1703.048 622.383l-.782 28.149.732 10.165 5.746 19.163 16.994 4.36 2.371.264 11.942 1.109 1.442-3.296.584-1.335.198-.45.234-.823.618-2.17.096-.37.878-3.097 1.496-3.533.446-1.06 2.187-4.626 2.762-5.146 5.44-7.617.168-.224.36-.48.112-.16 1.57-2.1.273-.364 2.15-2.623.609-.688.589-.665 1.678-1.276-14.84-36.716-46.069 15.61zM2892.478 1762.449l-15.573-12.826-69.337-41.555-53.27-29.493-40.89-2.291-.128 1.704-.08 1.18-.048.618.349 2.203.972 2.333 1.368 2.453 12.045 18.731 2.292 3.309 32.644 43.682 12.443 3.468 6.03 1.567 6.753 1.441 16.484 3.222 5.45.539 4.528.112 60.253-.01 17.726-.393z" stroke-width="1.008" stroke-miterlimit="4" stroke-dasharray="none" stroke="#000" stroke-opacity="1" stroke-linejoin="round" fill="cmyk(0.05,0.2,1.0,0.05)" fill-opacity="1"/><path d="M1953.45 649.458l-4.1-14.472-1.309-4.229-4.012-6.48-7.375-10.815-.39-.16-.223-.015-.557-.032-.876-.048-1.228-.032-1.324-.01-1.341.145-1.522.205-8.41 3.356-6.102 3.964-10.472 5.77-16.833-11.372-30.064-31.246-35.57-81.813-.912-20.684-35.28 12.327-28.344 50.76-8.09 62.2 14.84 36.717 35.165 22.276 15.69 10.905 19.955 18.65 22.544 22.145 13.594 14.497.214.279 1.104 1.492.38.94.162.398.248 1.174-.476.164-2.27.78-2.647 1.023-4.94 2.099-4.405 4.365-2.546 5.92-.675 2.907-1.162 5.883-.794 5.651 1.263 1.988.144.216 5.373-1.072 63.774-16.597 2.54-2.477 6.318-7.198 11.524-9.392 3.165-2.972 3.589-4.321 1.043-1.723.722-1.19 2.321-6.258 1.492-7.106.382-6.088-3.574-32.174.283-19.216zM2522.088 1552.97l.184 1.002.016.128.182.904-7.229.577 1.103.788 2.24.007 2.288 1.055 1.284 1.371 1.991 4.226.112 1.478.112 2.955 3.448 1.754 1.286 1.568.698 1.572 2.482 4.421 1.195 2.949 1.011 4.822.696 1.279 1.015 1.286.8 1.237 1.507 1.841 1.352 4.5 1.102 3.77 1.149 1.781.315 1.829.435 1.31.892 1.604.168 1.394.032.723-.176 1.797 1.45 1.6.758 1.315 1.027 2.267.576 2.355 1.39 4.765.685 1.325 1.52 3.864 1.222 3.072.69 2.555 1.18 3.334.734 2.837.948 2.408.661 3.133.895 2.327 1.372 3.327 1.101 3.763 1.037 3.855.144.534 1.016 2.851.403 3.093.69 2.46.736 3.108 3.694 15.887.163.808.572 4.702.504-.064-1.306 5.048.174.616.29 1.018.192.828.005.752-.08.778.006 1.02-.166 1.734-.002 1.321-.08 1.341-1.104 2.768-.818 1.881-.5 1.103-3.54 6.83-2.166 3.82-1.194 1.402-.61.46-1.726 1.859-2.481-1.293-1.93.048-.008.7 1.075.031 1.383.144 1.224.421.985 1.418.192.828.842 2.14-.267.189-2.045 1.97-1.242 1.041-.792-.968-.985-1.025 1.304-1.285-.236-.184-3.779-3.845-2.833 2.743.33.195 2.591-2.595 1.403 1.441-2.406 2.678.222.208 2.54-2.496.913.965-2.323 2.786.321.342 2.175-2.81.699.476-2.226 2.161.31.192.874-.8 1.517 1.946-1.827 1.618-1.144-1.11-.378.063 1.37 1.316-1.02.81-.24.295-1.903-1.438 1.03-1.587-1.075-.919-1.24 1.26-1.403-1.005-.778-.741.691-.887 1.647 1.39.267-.297-1.77-1.512-2.459-2.22-.635.275 2.557 2.17-.68.74-.663-.49-.388-.355-2.479-1.894-.558.869 3.763 3.139-.294.54 3.552 2.514.324-.39 1.762 1.45-2.53 4.403-2.384 3.982-.552.466-1.014.857-2.898 2.523-.864-.323-1.225-1.126.592-.451-2.692-2.879-.71.512-.178.33 3.83 4.363-.366.397-1.756-1.754-.46.194 1.946 1.875-2.957 3.155-.753-3.947-.19.032.64 4.283-1.36-.128-.88-6.882-.364.003.295 1.845-1.757.112-.032.232 1.757-.214.342 2.836-2.42.287.08.285 2.378-.314.255 1.817-3.477-.22-.08-4.986-.31.002.032 4.944-1.541-.007-.27-2.075-.202-2.7-.395.049.406 4.696-2.778-.128-1.147-.064.096-.232-.216-.571 2.923-3.31-.217-.145-2.835 3.101-.256-.35-.21-.144-.18-.238-.39-.624-.212-.775-.421-.862 2.694-1.627-.213-.715-1.547-.26-.571-1.1 4.917-2.893-.423-.983-.859.333-3.17 1.93-.625-.504.819-1.975.982.173 1.026-2.304 1.3-6.064.08-1.672-.45-.743-.565-.064.435-1.883.416-.064.29-1.224-.418-.265 1.144-2.455 1.648-2.845 1.646-2.993 3.178-5.27.949-.305.233-.806.064-.39-.33-.474-.863-.352-1.77 2.516-1.998 3.623-3.181 5.001-1.382 2.395-.202.896-1.442 2.636-1.616 3.081-.144.778-.838 3.793-.963 3.02-3.256 1.96-1.215.753-.71.421-7.73 4.583.263-.867.561-.45.592-.512.652-.42.232-.838-.453-1.22-.215-.984-.512-1.04-.419-.536-.416-.032-.712.064-6.872 3.89-4.323 2.564-.86.128-.853.904.003 1.04-1.15 1.858-1.058 1.707-.647 1.077-.885 1.2-.825.96-1.891.184-1.108.31-1.396.128-.976.723-.658.175-.955-1.538-2.199.096-.342 2.478-1.306.365-2.318-.696-1.878.197-1.252.016-1.257-.875-.586-.387-.56.69-.08 1.252-.016 1.611-.678.84-.826 1.02-.705 1.198-1.092 1.38-1.188.031-3.951.383.782 1.547-3.507 1.235-.19.048-2.354 1.085-1.187.699-.685.366-1.827.418-1.277.512-1.78.728-1.964-.704-.661-1.01.112-.428-1.133.08-.837.144-.8.144-.761-.112-.762-.144-.693-.144-.555.665-.974.688-2.008.722-1.165.635-.813.389-1.06.416-.356-.544-.893.552-.376.902-1.083.608-1.277.975-1.595.681-1.275 2.666-.909.837-.878.096-.914-.18-1.003.36-.976.524-.458.74-.57 1.378-.72.463-.526.281-.625.064-.815.868-.525.932-1.292 1.055-.861.888-.527.208-.705.112-.647.987-1.17.032-.887.707-.373.629-.438.722-.33 1.065-.962 1.237-.675.715-.622.522-.856.304.243.45-.426.625-.867.477-.843.648-.688.537-.766.58-.421.216-.589.326 70.273 48.03 93.575 34.63 32.801 18.606 14.879-33.288 11.136-31.181 20.34-48.232 3.52-7.604-.918.45-1.53.725-6.64 1.537-5.342.799-2.963.413-.38.048 1.123-18.768.144-1.538.128-1.326.048-.45 4.547-22.441 4.7-19.68 1.517-5.337.58-2.606.496-2.229 1.006-9.96.032-2.606-.563-6.63-.557-4.697-2.098-4.432-6.44-12.88-4.907-79.603-12.934-25.364-1.802-2.65-1.361-1.922-1.98-1.694-12.598-3.064-6.368-1.462-4.827-1.125-21.874-31.784-1.148-2.127-.848-1.568-10.745-31.016 2.795 24.858-.456 3.934-12.494 30.036-1.238 2.916-2.626 3.821-2.395 2.435-10.454 1.411-.194.016-5.488.112-2.541.015-.293.001zM2244.813 468.807l7.003 5.293.278.424.144.216 2.563 3.918.202 6.319.006.213.048 1.606-.862 22.896 8.823 81.926 5.624 25.661 21.902 24.667 5.293 2.147 7.888 9.637 1.377 1.004 1.581 1.08 5.298-9.811.66-17.108 16.068-10.907-21.002-18.5-11.765-17.76.924-57.668 5.441-24.128.252-1.314 1.15-6.231-.112-4.817-.08-3.287-15.959-23.164-.84-38.149-41.9 45.837zM2089.333 902.362l19.785-22.725-1.912-.678-4.113-1.485-27.402-29.269.048-1.76.006-.256.016-.709.367-.233 1.083-.69.622-.397 3.117-1.984 12.41-7.84 3.89-2.243-3.258-56.334-11.043-17.466-64.565 54.17 5.315 5.958 3.165 4.18 1.32 1.94 2.277 3.376.112.176 2.864 5.362.48.9.63 1.18 12.172 26.881-20.254 22.886 1.008 19.071 1.61 8.747 60.24-10.758zM2867.459 329.32l-19.21-30.158.84-5.84.338-2.78.17-1.437.414-4.54-13.526-24.868-1.797-1.346-65.615-40.882-3.288.16-3.092.31-11.893 1.422-7.687 1.01-21.219 2.809-46.77 10.277-7.217 2.092 1.587 11.754-.86 2.24-2.51.301-38.017.162-6.445-1.519-7.47-3.078-9.152-2.123-8.368-.647.128.466.417 1.573 1.567 3.286 3.416 4.9 2.923 3.518 22.771 23.293 6.034 5.574 17.245 14.033 3.198.95 5.953.69 6.63.25 17.365.662 7.26 1.184 72.345 16.948 36.79 16.151 66.751-6.79zM2787.601 436.09l-1.53-14.878 9.235-19.146-.99.08-9.174.818-7.72.688-59.576-36.117-25.67-16.502-8.773-12.365-18.554 2.185-.648 22.034 12.877 37.55 57.644 43.352 16.363-5.926 10.104-8.694 14.988-7.296 1.967-.53.601-.162 1.255-.315.128-.016.681 1.058 6.794 14.174z" stroke-width="1.008" stroke-miterlimit="4" stroke-dasharray="none" stroke="#000" stroke-opacity="1" stroke-linejoin="round" fill="cmyk(0.05,0.2,1.0,0.05)" fill-opacity="1"/><path d="M2786.07 421.212l8.757.58 43.457-1.198-1.675-15.66 13.146-11.337 4.1-1.213 5.457-1.246 7.537-.606 20.98-1.27-20.37-59.941-66.75 6.79-5.403 65.955-9.236 19.146zM1766.318 399.705l45.84-34.634-6.432-30.317-2.177-36.315 3.385-24.069-.006-6.908-.563-3.658-1.461-.959-1.507-.718-3.685-1.602-34.754 50.452 2.117.54.986.252 1.038 13.662-11.469 5.85-8.913 4.05-7.839 22.29.802 3.901.398 1.11 24.24 37.073zM2342.347 1056.276l40.845-61.436-33.43-15.948-45.825 12.488-7.201 5.205-4.138 2.4-7.566 1.511-20.106 3.994-3.857.607-14.71 1.166-22.68 1.616-6.855-.93-7.813-5.654-12.971-5.414-45.176-26.749-80.994-3.827-13.229.162-17.753 44.65 4.865-1.102 6.024 5.176 5.455 6.814 17.193 55.864.85 5.252.312 2.568-1.245 1.945-1.18.888-2.207 1.514-2.466 1.31-2.726 1.002-17.92 4.006-39.107 20.16-18.575 16.676-3.673 15.214 2.35-1.408 2.5-.245 1.431 1.22 22.96 25.1.35.384 2.159 2.5 7.59 9.377 1.154 1.785 14.134 24.506 20.962 6.361-.234-.88-.128-.977-.064-.533-.52-4.234.639-5.177 2.585-16.164 1.28-3.14 1.672-1.672 15.195-.624 70.55-38.7 47.625-41.19 11.267-8.07 4.851-2.091 13.925-6.023 26.397-7.302 17.435-4.629 17.974-4.77 9.783-2.605 36.475-10.342 5.568-1.585zM174.894 1546.727l-7.224-37.798-10.281 2.637-2.599.265-12.032-2.147-2.349-3.127-17.718-32.635-.051-.238-.413-1.937-.226-6.173.648-2.234 2.15-2.265.135-.144 1.76-1.714 2.442-.42 2.469-.417 2.8-3.37.65-2.09.218-1.29-.257-1.754-.952-2.59-21.74-37.618-5.441-7.06-16.088-21.367-9.696-.42-17.233 5.778-.962.407-3.222 1.856-11.125 7.185-2.603 2.634-.837.931.93 2.75 1.068 2.84 9.835 15.453 3.493 1.546 2.882.78 1.803.143 1.665.128 5.264 2.098.148 1.47-.103 1.917-.219 2.747-11.934 40.135-1.983 5.615-2.478 6.079-3.495 4.906-7.816 9.873-1.844 116.251-.77 3.386-1.056 4.14-1.27 3.222-1.548.468-1.21.164-1.433-.112-2.26-.032-4.538 2.106-9.451 4.532-12.708 8.232-1.339 1.327-3.808 6.721.903 2.732 20.364 21.591 1.226 1.18 1.365 1.235 51.933 37.483 16.284 11.586 2.35-.618 1.871-.838 27.75-14.925-2.321-11.845-1.54-52.771.412-5.75.862-9.687.82-5.704 8.23-50.388 1.1-4.553.903-.987 4.25 4.488 12.39-2.81 18.784-12.958 2.982-4.085 3.034-4.153zM1691.213 506.577l25.952-6.197 10.488 2.81 11.85 10.404.113 2.109.168 3.792 2.228 11.51 3.116 5.733 5.667 5.509.128.112.533.5.197.129 1.062.654 1.515.538.251.096.234.032 2.493.278 28.344-50.76-5.53-9.134-4.517-7.464-5.214-10.775-2.926-9.694-3.034-9.99-.904-4.21-1.075-26.561.005-4.661.806-7.03.096-.175.902-1.55 1.236-1.978.201-.207.715-.68-24.24-37.072-24.804 12.605-20-21.304-9.618-5.243-5.835 7.401-15.493 9.114-3.576 28.986 13.192 23.357.445.49 6.37 6.997 4.161 4.575 4.527 5.152 2.253 6.15 8.134 59.09-6.557 4.194-.896.572-3.168 1.809z" stroke-width="1.008" stroke-miterlimit="4" stroke-dasharray="none" stroke="#000" stroke-opacity="1" stroke-linejoin="round" fill="cmyk(0.05,0.2,1.0,0.05)" fill-opacity="1"/><path d="M1764.958 310.977l-85.363-6.733 2.226 51.848 5.835-7.402 9.618 5.243 20 21.304 24.804-12.604-.398-1.11-.802-3.902 7.839-22.29 8.913-4.05 11.469-5.85-1.038-13.662-.986-.252-2.117-.54zM1074.8 564.249l-.599-15.809-.459-2.419-.926-4.523-7.987-26.507-2.732-6.923-2.662-5.06-4.296-4.454-2.122-4.134-5.059-21.94-.976-5.588-.032-.683-.032-.757-.2-4.95.144-4.679.253-3.438.306-3.243.699-2.666 1.437-1.171 4.603 1.115 19.533 9.55 4.376 2.479 4.334 3.056 3.263 2.608.88.438 4.123 1.981 5.957.89 2.035.304 6.826.828 52.353 5.09 3.37.198 2.48.144 30.136 1.68 1.59.064 30.034 1.797 40.613 5.203-.75 1.092-3.342 4.763-2.228 3.179-.416.592-1.757 2.506-8.605 14.587-1.045 1.894 8.274 1.36 18.926 2.762.909.39.273.112 3.141 1.295 4.584-.283 20.858-2.316 6.616-1.032 6.272-.98 5.98-1.168 87.653 2.459 36.86 2.241 57.454 20.735-18.507-20.648 24.854-53.053 3.452-3.368-36-89.785-13.88-6.266-10.028-1.589-17.899-.997-2.874-1.105-.811-.322-24.41-14.474-101.502-.358 7.133 12.452-.354 4.471-.616 3.61-.064.408-24.82 28.842-1.626 1.425-3.005-.467-1.047-3.13.168-2.84.813-16.064 1.207-25.387-.016-2.368-.01-1.064-1.942-2.064-4.12.08-34.668 15.365-25.777 19.635-16.056 14.416-13.051 5.244-15.636-1.96-4.793-.645-3.301-1.547-14.853-10.632-11.508-9.712-3.225-3.112-1.911-2.914 37.487-32.818 20.488-6.28 5.428.852 4.876-.63 3.207-3.362.99-2.912-.624-4.144-8.256-33.264-4.65-10.295-15.912-64.274-47.27-.225-66.936 1.07-16.811 26.067-35.919 62.827-26.948 12.943-6.325 1.224-29.917 1.71-6.093-.163-19.654-1.893-31.936-1.446-7.935-.341-27.707.347-21.89 1.437-25.17 2.502-7.585.842-6.166 2.155-7.269 3.131-4.173 2.948 1.084 1.488 2.206 3.001 3.026 2.687 3.91 3.73 4.213 5.122.57 3.125-1.103 1.192-38.382 22.927-9.532 3.99-19.603 2.323-8.982 1.029-9.22-7.947-8.867-7.722-7.601 5.952-6.039 4.799-7.61 6.76-.937 2.964 2 18.522.58 4.357 2.902 8.573 2.235 5.395 10.998 23.798L714.375 477l7.538 17.077 1.79 4.355.348 1.252.406 1.497 11.594 86.59 16.467 47.399-.245.096-12.536 4.726 33.886 113.021 10.984 1.963 3.005.549 17.552 3.201 29.39 5.373 10.983 2.013 18.9 10.227 27.431-.096 20.208-12.11 2.656-3.88 3.05-4.098 3.446-2.022 2.323-.952 3.175-1.144 2.88-1.016 2.077-.723 4.617-1.544 3.907-.714 52.445-.782 5.467.368 5.172.422 5.366.531 4.744.978-9.107-25.677-.18-.856-.097-.457-.435-2.11.352-3.097.403-3.285 1.358-3.979 1.224-3.432.032-.096 3.768-10.497 1.75-3.69 7.511-15.466 12.442-19.857 30.587-34.933 11.789-57.883zM2796.44 1864.474l-1.46-2.653-.494-2.857 2.925-1.796 31.648 2.396 6.507.486 10.907 4.776 2.418 1.771 17.768 13.181 25.158-7.685 15.851 2.338 3.183.373 16.401-3.47 6.828-1.956 2.162-1.166 13.246-19.08-2.714-3.218-3.386-3.427-.977-3.13 3.032-9.926 13.206-8.77 11.024-35.574-2.853 2.298-3.41 1.641-3.804.312-6.462-1.305-2.17-.477-53.331-13.088-7.477-2.385-.398-3.631 2.71-6.003-17.726.393-60.253.01-4.528-.112-5.45-.54-16.484-3.22-6.754-1.442-6.029-1.567-12.443-3.468-32.645-43.682-2.291-3.309-12.045-18.731-1.368-2.453-.973-2.333-.349-2.203.048-.617.08-1.181.128-1.704 2.22-8.023-1.834-17.77-74.93 16.295 6.44 12.88 2.098 4.432.557 4.696.563 6.63-.032 2.607-1.006 9.96-.496 2.229-.58 2.606-1.516 5.338-4.701 19.678-4.547 22.442-.048.45-.128 1.326-.144 1.537-1.124 18.768.381-.048 2.963-.412 5.343-.799 6.638-1.537 1.531-.725.919-.45 21.915 8.87 45.027 25.474 34.623 35.28 1.867 6.952 2.227 2.703 4.162 3.403 5.987 3.205 5.885 1.75 6.123 1.667 4.58.99 3.271-.636 7.646-1.931 1.146-1.642zM1691.213 506.577l3.168-1.808.896-.573 6.556-4.194-8.134-59.09-2.253-6.15-4.526-5.152-4.162-4.574-6.37-6.999-.444-.49-13.193-23.356 3.576-28.986-32.548 22.072-9.175 29.952 29.176 104.946 37.432-15.598zM420.641 1668.657l-.476-2.42-.237-3.273 1.336-2.322.846-1.233 15.747-10.791 11.523 3.093 1.359.899 1.537.813 1.348-.355 3.547-2.077 5.808-7.047 2.374-3.371.567-.976-.394-23.515-.688-4.557-2.896-9.368-9.515-13.586-11.989-35.87-16.099-61.998-.773-2.143-1.091-2.95-.634-1.02-1.974-2.254-1.86-1.257-4.27-2.073-26.716-9.783-13.581-4.546-34.962-5.509-10.561.267-16.59 35.71 22.385 25.732 10.624 57.777 15.352 54.012 27.046 33.198 26.616 2.354 7.291.438zM106.883 1402.608l5.442 7.06 21.739 37.617.952 2.591.257 1.753-.219 1.292-.65 2.09-2.8 3.37-2.468.417-2.442.419-1.76 1.714-.136.144-2.149 2.265-.648 2.234.226 6.173.413 1.937.051.238 17.718 32.635 2.35 3.127 12.031 2.147 2.599-.265 10.281-2.637-5.29-14.451.474-12.078.064-.72.19-1.995 11.87-22.137 9.499.217 1.815-1.081 3.503-4.973.502-2.725-.187-16.008-30.262-7.302-11.637-5.375-3.971-2.227-.823-.676-.697-.938-1.616-2.516-3.359-10.683-.459-1.982.696-1.163.923-1.178.923-1.022 1.816-1.938.31-3.472-.215-1.336-.586-2.052-.986-.424-18.281-.765-4.58.112-4.713 1.09-1.822.598-1.288 1.33-2.6 11.555z" stroke-width="1.008" stroke-miterlimit="4" stroke-dasharray="none" stroke="#000" stroke-opacity="1" stroke-linejoin="round" fill="cmyk(0.05,0.2,1.0,0.05)" fill-opacity="1"/><path d="M2713.408 1676.284l40.89 2.29 53.27 29.494 69.337 41.555 15.573 12.826-2.71 6.003.398 3.631 7.477 2.385 53.331 13.088 2.17.477 6.462 1.305 3.804-.312 3.41-1.641 2.853-2.298 39.737-25.472 1.45-19.784-9.649-2.984-1.833-.578-28.962-22.333-9.576-7.883-5.373-5.873-.544-3.73.668-11.117.49-2.65.585-3.15 10.537-23.213-22.46-2.739-11.24-2.36-2.255-7.824-2.773-14.427.695-7.178 1.364-6.29-1.612-4.618-11.295-23.593-3.182.08-3.688.08-3.635.08-46.28 23.877-76.413 39.658-22.772 11.914-26.327-4.204-19.703 9.479-2.219 8.022zM2875.829 692.621l8.254 6.423 33.451-22.573 19.687-24.078 9.761-20.872 6.41-22.463-3.764-19.32-5.273-4.097-3.165-1.517-33.712 4.657-43.016 45.465-2.342 42.166 13.709 16.21zM1240.737 808.146l.62-.372 5.336-3.164 32.907-18.246 2.789-1.237 43.235-13.838 104.318-57.368 1.744-1.975 7.7-24.081-7.301-22.03-.016-1.049-.015-.601-.016-.868-.016-.868 1.023-4.359.419-.774.34-.63 5.023-8.831-13.574-22.838-1.83.688-8.026-.405-90.266-4.838-1.886-.128-2.258-.207-64.254-13.734-6.48-5.794-14.451-20.057-.83-1.256-1.385-2.788-28.602 24.978-13.995 7.097-5.25 1.792-5.254 1.164-3.955.467-69.642 4.43-13.667-.44 1.35 10.418.608 2.403 15.444 22.381 36.984 7.318 21.374 1.669 32.614-14.43 33.322 13.296.206.518.239.595 17.17 67.319.015 1.982-.308 3.435-.775 4.738-.79 3.093-1.069 4.213-1.13 3.555-2.19 2.963-7.069 48.254 1.53 8.447zM2350.027 390.442l-23.109 22.811-3.654 17.767 21.038 22.971 31.176 59.114-4.41 27.787-1.643 7.44-10.32 28.725-1.934 2.38-1.877 1.554-.224 1.638 6.234 1.077 4.052-.389 12.178-12.75 26.96-49.77.144-.465.08-.282 4.636-16.499 1.073-3.82.341-1.21.622-34.973-1.29-16.37-17.543-29.04-3.253-3.56-30.154-26.467-9.123 2.331z" stroke-width="1.008" stroke-miterlimit="4" stroke-dasharray="none" stroke="#000" stroke-opacity="1" stroke-linejoin="round" fill="cmyk(0.05,0.2,1.0,0.05)" fill-opacity="1"/><path d="M2350.027 390.442l9.123-2.331 30.154 26.467 3.253 3.56 17.544 29.04 1.29 16.37-.623 34.973-.341 1.21-1.074 3.82-4.635 16.499-.08.282-.144.465-26.96 49.77-12.178 12.75-4.052.389-6.234-1.077 67.406 39.682 21.856 8.293 1.386.504 1 .275 26.244 2.814 2.025-8.149 4.382-.227 7.21 1.371 11.702 7.543.323.21 3.203 2.06-2.463-55.245 28.697-24.432 5.328-23.526 2.198-20.416 1.244-17.07 4.819-16.268 20.896-25.21-.573-15.655-6.603-35.962-8.156 1.82-11.22 7.822-6.597 3.828-6.578-79.89-.342-8.354.565-9.772 7.544-.278-8.178-16.72-18.403-35.862-41.074-18.604-4.068.464-1.512 1.093-6.265 8.637-14.356 16.565-30.733 34.6-13.995 12.531-4.725 1.806-7.64.49-5.608.23-20.381 3.9-45.738 9.424-1.635 1.13-3.109 5.387-7.83 14.513-.43 1.701 4.745.096 2.133.278 19.125 4.472.014 9.277-.3 5.706 3.423 5.502 26 5.434zM2209.011 1001.295l7.813 5.653 6.856.931 22.68-1.616 14.709-1.167 3.857-.606 20.106-3.994 7.566-1.512 4.138-2.4-18.816-12.664-18.851 3.155-2.077-.225-9.42-7.757-34.16-33.078-13.467-13.392-35.284-13.387-5.226-1.119-9.953-3.787-.464-.184-1.983-.787-5.202-3.413-1.05-.806-24.475-21.856-7.19-7.646-19.786 22.725 12.852 7.832 14.179 8.743 51.251 37.117 28.975 21.423 5.355 6.62 7.067 17.197zM2205.286 2272.04l3.578-25.358.096-1.13.264-3.172-5.264-16.677-1.325-4.115-3.124-6.255-58.631-43.187-26.328.757-32.1.008-4.678-2.292-2.995-1.585-2.837-1.72-1.08-.67-17.767-15.607-.932-2.568 1.28-2.386.844-2.944-.618-6.003-1.674-4.473-3.006-3.59-12.277-13.894-5.422-5.187-12.736-10.537-27.183-5.89-2.942-.59-3.525 11.093 4.917 21.236.648 2.263 1.851 3.808 1.995 2.73 2.38 2.297 1.547 1.592.667 4.774-.709 2.18-3.925 9.662-63.507 139.016-1.48.925-4.123 1.632-1.968.654-2.307.144-1.811 1.847-7.338 9.503-.424 1.399 11.3 89.864.596 4.09.427 1.81 1.042 1.548 3.232 3.382 1.774-.496 88.677-53.241 10.926-7.136 10.522-8.373 1.197-.723 9.49-4.032 3.883-1.623 53.697-22.379 57.448-23.854 39.759-16.533zM1526.693 584.849l17.734.17 32.678-20.865 13.09-.686 5.079.08-21.834-82.323-57.912-21.372-3.451 3.368-24.855 53.053 18.507 20.648 20.964 47.92zM2257.841 2010.336l.527 1.519 1.854 3.086 12.51 13.938 77.727 59.507 5.84 2.536 7.04 1.549 1.827-.048.016-3.21-2.028-31.02-26.445-56.036-12.133-19.672-53.563-15.944-2.362.213-1.173.707-9.644 42.883zM870.93 1231.716l8.74-21.692.016-2.511.008-3.792-.144-1.626-.128-1.41-1.579-3.496-4.584-9.205-31.02-40.252-2.543-3.119-3.122-3.2-21.07-16.51-3.063-2.23-16.505-9.24-7.741-2.042-6.226 43.673-5.046 63.628 25.093 8.79 17.971 3.806 31.149 6.247.982.144 2.263-.626 16.544-5.336z" stroke-width="1.008" stroke-miterlimit="4" stroke-dasharray="none" stroke="#000" stroke-opacity="1" stroke-linejoin="round" fill="cmyk(0.05,0.2,1.0,0.05)" fill-opacity="1"/><path d="M1425.237 625.017l13.574 22.838 77.013-8.005 1.517-2.953 1.414-4.021.89-3.063 3.657-12.945.786-4.06 2.397-18.43.275-7.206-.016-.816-.048-1.508-20.963-47.92-57.454-20.734-51.503 34.64-1.296 11.517-.096 15.814 8.963 27.875 9.093 11.872 11.803 7.104z" stroke-width="1.008" stroke-miterlimit="4" stroke-dasharray="none" stroke="#000" stroke-opacity="1" stroke-linejoin="round" fill="cmyk(0.05,0.2,1.0,0.05)" fill-opacity="1"/><path d="M2771.913 1001.135l58.484 17.237 2.819-8.033 1.669-3.879 1.147-2.632 13.288-6.69 2.89-.928 22.449.319 2.752.37-1.848 6.934 6.565.393 7.048-.227 10.128-1.454 5.875-20.066 25.235-62.352 1.15-2.125 9.257-3.151 30.59-4.541 5.016-.112 49.731-.629 45.448 6.048-37.54-49.264-25.192 2.053-3.524.257-2.518-1.417-48.914-29.602-3.484-2.3-1.608-2.856-17.872-50.461-63.31-35.992-1.066-.962 3.228-20.227 6.023-32.223-13.71-16.21-18.695 10.114-8.326 5.725-24.003 19.946-43.022 30.985-4.543 2.884-8.168 5.102-2.356 1.227-8 3.72-3.907 1.805-8.526 3.131-4.773 1.583-1.133.252-3.933.876-5.97 1.003-.302.048 16.296 3.06 34.23 7.41 2.183.597 10.776 11.312 17.158 20.411 10.113 12.212.112.16 5.431 7.235 1.213 1.616.68 10.113-9.89 56.3-10.156 33.555-6.765 17.684-9.22 26.732-6.273 26.774-.438 1.158zM2432.982 2148.618l1.245-23.785-3.954-9.015-3.05-3.406-19.572-20.66-5.352-1.855-10.463-1.324-26.67 3.842-1.827.048-7.04-1.548-5.84-2.536-77.727-59.508-12.51-13.937-1.854-3.087-.527-1.518-23.934 30.158 6.789 5.749 19.513 17.22 3.403 4.97 1.757 3.514 1.227 3.7-5.649 1.935-1.337.458 30.7 90.713.79 2.2.822 1.354 13.753 12.277 2.7 2.075 3.673 2.426 13.885-1.233 45.131-8.142 16.243-3.433 1.181-.273.987-.349 5.738-2.493.2-.945.22-2.232-.294-1.146-.408-.992.517-1.558.672-1.248 7.108-6.015 2.217-1.352 25.026-9.517 2.512.461zM2602.105 1898.693l14.282 13.749 14.606 20.12 2.823 5.491-.603 4.407-1.032 4.21-.893 3.977 10.556 27.837 2.716 3.36 2.852 2.401 2.583 1.383 30.521 13.454 6.498-9.272 3.293-4.309 5.073-5.646 13.514-11.03 84.63-54.662 44.976-25.886 4.517-1.813 23.647-6.563-.005-.128-17.768-13.181-2.84 1.438-3.167 1.514-7.352 3.131-19.416 6.76-4.527-.064-3.045-1.136-2.221-2.122-9.883-11.64-1.146 1.642-7.646 1.931-3.27.637-4.581-.99-6.124-1.668-5.885-1.75-5.987-3.205-4.162-3.403-2.227-2.703-1.867-6.952-34.622-35.28-45.027-25.475-21.916-8.869-3.52 7.604-20.34 48.232-11.137 31.18-14.878 33.288z" fill="cmyk(0.05,0.2,1.0,0.05)" fill-opacity="1" stroke="#000" stroke-width="1.008" stroke-linejoin="round" stroke-miterlimit="4" stroke-opacity="1" stroke-dasharray="none"/><path d="M2726.3 1177.24l6.85 5.238 1.095.841 15.518 14.557 3.205 3.367 3.203 4.092.312 4.704-.781 2.343-1.022 3.075-.941 4.602-.55 4.577 2.27 1.11 36.582 3.431 41.741-6.695 15.053 5.132 7.797-17.242 46.01 17.519 4.205 1.427 8.938 3.035 35.354 9.213-6.938-71.867-17.394-11.55-7.836-4.122-7.39-1.704-6.631 5.76-3.312 3.195-3.314 3.217-1.688.183-4.648-3.291-8.284-6.784-9.938-37.61 6.95-38.225 9.216-29.482.837-3.735.064-.267 1.039-4.956-61.47-21.956-58.484-17.237-.398 24.612.376 98.107-.372 1.787-.476 1.66-.284.926-.032.096-2.013 6.078-.233.687-2.055 4.7-1.86 3.408-.952.383-2.117.85-.112.047-1.432.576-1.967-.096-4.214-.217-11.333-2.312-1.085-.744-15.051 35.565zM2303.937 991.38l.515-2.77-.836-9.81-1.824-5.402-1.413-2.261-25.264-31.687-.781-.907-1.9-2.207-2.86-1.818-2.568-1.44-2.616-1.128-9.683-4.296-13.565-6.71-3.344-2.114-9.603-6.367-3.647-3.003-1.121-1.93-1.27-2.711-3.844-11.034-7.9-39.206-30.972-23.218-77.755-108.555-7.291-12.823-29.439-1.456 18.002 49.767 11.043 17.466 3.258 56.334-3.89 2.243-12.41 7.84-3.116 1.984-.623.397-1.083.69-.366.233-.016.709-.007.256-.048 1.76 27.402 29.269 4.113 1.485 1.912.678 7.19 7.647 24.475 21.855 1.05.807 5.203 3.412 1.982.788.464.184 9.954 3.787 5.225 1.118 35.285 13.387 13.467 13.392 34.16 33.079 9.42 7.756 2.076.226 18.851-3.155 18.816 12.664 7.202-5.205z" fill="cmyk(0.05,0.2,1.0,0.05)" fill-opacity="1" stroke="#000" stroke-width="1.008" stroke-linejoin="round" stroke-miterlimit="4" stroke-opacity="1" stroke-dasharray="none"/><path d="M2725.39 1521.074l-1.744-7.936-1.627-4.377-8.179-4.93-11.173-.907-2.598.048.29-43.94-13.585-58.753-5.353-17.268 3.849-18.596 1.679-1.368-.941-5.01-4.229-14.807-1.37-3.926-1.166-1.044-.288-.256-7.15-1.838-.144.006-19.263-3.864-1.592-.032-19.286 1.176-8.866.77-1.444.344-2.501.93-2.143.819-.459.176-.224.096-1.966.804-.164.064-4.476 2.061-.744.346-2.415 1.121-2.945 1.386-11.3 5.52-6.488 4.011-10.568 6.728-5.61 4.719-4.007 5.473-.64.877-3.384 6.84-5.635 8.003-5.756 4.976-11.563 9.975-5.185 4.046 24.433 79.86 10.744 31.017.848 1.568 1.15 2.126 21.873 31.784 4.827 1.125 6.368 1.463 12.598 3.064 1.98 1.694 1.361 1.921 1.802 2.65 12.934 25.365 7.408-7.202 6.614-6.08 41.293-36.932.43-.384 7.88-4.453 2.111-1.125 3.802-2.029 21.896-7.903zM1984.488 1147.404l3.673-15.214 18.575-16.677 39.107-20.159 17.92-4.006 2.726-1.002 2.466-1.31 2.206-1.514 1.181-.888 1.245-1.946-.312-2.568-.85-5.251-17.193-55.864-5.455-6.814-6.024-5.176-4.865 1.102-12.563 13.045-40.183 7.298-28.897 1.928-34.83 14.709-13.964 9.292 58.528 51.133 17.509 39.882zM922.694 1034.478l.234-.856 1.361-1.274 1.77-1.467 2.922-2.029 18.692-12.365 7.392-4.763 4.508-2.226 1.3-.504 1.74-.646 5.558-1.61 5.288-.97 32.862-3.082 8.192-.73.58.203-.064.527 18.744-1.536 7.868.001 3.828.538 22.297 9.784 7.957 4.138.922.513.657.424 7.763 5.818 1.826 3.03 3.693 6.251 1.736 3.173.462 1.236.34 1.084.42 1.743.695 2.899-8.009 9.421-.003 2.44 22.487 5.909 54.273 12.513 21.155.835 26.672-.77 30.425 1.578 1.044.328 3.9 1.705 2.77 1.227 5.659 3.062.284.162.096.048.599-8.37-.976-10.902-6.229-45.73-.349-1.252 5.6-59.888.527-1.005.947-1.806 7.002-14.924.796-2.609.08-.509.468-3.083-.903-3.17-1.82-3.657-25.116-31.074-26.805-1.05-8.345 1.102-7.405 3.065-4.757 1.966-24.789-25.35 17.266-52.437.56-2.286-1.794-5.541-3-1.8-.509-.128-.685-.186-2.617-.704-2.279-.492-1.326-.287-5.86-.856-5.164-.014-7.906 1.443-7.656 2.497-8.38 2.357-1.157.247-2.232.468-1.088.23-4.654-1.48-78.732-49.063-32.894-14.389-4.744-.978-5.366-.53-5.172-.423-5.467-.368-52.445.782-3.907.714-4.617 1.544-2.077.723-2.88 1.016-3.175 1.144-2.323.952-3.446 2.022-3.05 4.098-2.656 3.88-20.208 12.11-27.43.096-18.901-10.227-10.984-2.013-29.389-5.372-17.552-3.202-3.005-.549-10.984-1.963 4.546 18.332 2.842 12.7 7.723 35.085.869 4.085 2.75 17.622.526 3.847 7.573 70.344.032 3.092.016 10.8 22.936.65 42.29-5.168 1.377-.224 2.188-.355 4.003 1.32.937.32 4.264 1.795 1.65.698 2.76 1.296 1.462.688 3.143 32.067-3.159 21.146-.08 5.55.096 5.272 1.607 1.157 17.792 11.54 18.923 27.793zM604.65 1450.746l6.844 5.418 15.536-2.677 7.576-.3 11.869 24.969.637 1.145 1.768 2.613 7.865 7.813 3.9 2.295 1.352.61 3.064 1.118 10.08 3.376 2.377.096.531-.284.837-.798-1.035-3.096-3.714-6.445-1.305-2.19-1.595-1.826-2.852-2.57-1.195-1.236-1.131-1.403-1.477-2.88-1.617-3.802-.98-2.457-2.601-21.272 8.595-6.253 4.958-2.723 16.138-6.864 5.918 3.884 5.983 3.818 1.685.904.89.352.986.251 1.314.016.426-.064 1.24-.574.587-.368 1.493-1.58 1.404-1.705-.193-1.026-1.066-2.163-2.739-3.443-8.691-10.26-.307-.33-1.034-.615-.803-.385-4.823-.858-1.57.25-.951.174-.399-.358-.275-1.117-.112-1.119.01-2.008.08-1.614.675-4.09.445-1.355.638-1.685 2.098-3.152 4.891-5.947 1.166-1.297 1.623-1.796 6.382-4.582 10.627-6.736 5.132-2.098.913-.373 6.653-1.06 1.869-.144 2.627.064.822.064 15.994 3.608 2.142-2.785 1.693-3.676.402-11.33-4.258-5.024-5.968-5.398-1.353-.612.096 2.37-.032.395-5.63 1.544-2.489.653-1.411.016-1.38-.048-34.527-4.221-1.514-.232-1.574-.43-1.952-.642-1.975-.743-4.235-2.803-1.645-1.35-.713-.96-1.767-3.537-.096-.556-.355-1.282-1.349-3.18-4.13-7.298-3.338.652-25.496 9.395-.096 22.858-1.101 25.413-3.245 9.123-1.274 3.537-8.784 18.67-6.372 12.31-7.54 14.496-3.15 5.52-.298.514-.603 1.029-.53.096-2.041-.213-7.174-2.517-14.14-5.27-4.345-1.103-1.183-.144-.493.08-.814.437-2.314 1.54-3.788 4.489-3.98 4.918-.484.764-1.218 2.548-.475 1.421-.319.959-4.905 15.76 1.025 1.262 5.532 5.728 3.174 3.169 1.09.94.69.473.537.273 11.818 3.123 2.104.372 2.137.337 1.445.144 1.149-.08-1.597-16.212-2.01-.669-.525-.064-4.47-3.373-1.373-2.486-.537-1.048-.437-.884-.562-3.253.26-3.064.6-2.18.38-1.058 1.116-1.997 1.321-1.807.752-.972.883-.835 1.656-1.499 4.285-1.334.883-.274 1.973.307 4.18.973zM1219.457 561.068l16.095-9.821 20.83-2.99 7.496-26.664 11.251-6.122-18.926-2.762-8.273-1.36 1.044-1.894 8.605-14.587 1.757-2.506.416-.592 2.229-3.18 3.34-4.762.751-1.092-40.613-5.203-30.033-1.797-1.59-.064-30.137-1.68-2.48-.144-3.37-.198-52.353-5.09-6.826-.828-2.035-.304-5.956-.89-4.124-1.98-.88-.439-3.262-2.608-4.335-3.056-4.376-2.478-19.532-9.55-4.604-1.116-1.437 1.171-.699 2.666-.305 3.243-.253 3.438-.144 4.678.2 4.951.032.757.032.683.976 5.589 5.059 21.939 2.121 4.134 4.297 4.455 2.662 5.059 2.731 6.923 7.987 26.507.927 4.523.459 2.42.598 15.808 144.658-3.181z" fill="cmyk(0.05,0.2,1.0,0.05)" fill-opacity="1" stroke="#000" stroke-width="1.008" stroke-linejoin="round" stroke-miterlimit="4" stroke-opacity="1" stroke-dasharray="none"/><path d="M1240.737 808.146l-1.53-8.446 7.07-48.255 2.19-2.963 1.13-3.555 1.069-4.213.79-3.093.774-4.737.31-3.435-.017-1.983-17.17-67.318-.238-.595-.206-.519-33.322-13.296-32.614 14.43-21.375-1.668-36.984-7.319-15.443-22.38-.608-2.404-1.35-10.417-30.195 6.152-30.587 34.932-12.442 19.858-7.512 15.466-1.749 3.69-3.768 10.497-.032.096-1.224 3.432-1.358 3.98-.403 3.284-.352 3.096.435 2.11.096.458.18.856 9.108 25.677 32.894 14.388 78.731 49.063 4.655 1.48 1.088-.229 2.232-.469 1.157-.246 8.38-2.357 7.656-2.498 7.906-1.443 5.163.015 5.86.856 1.327.286 2.279.493 2.617.704.685.186.509.128 3 1.8 13.453-6.116 11.566-2.868.466-.004 2.773-.016 8.016 4.845 5.433 2.808 4.515 2.079 3.197 1.035 4.184-1.347 6.39-3.343 1.207-.654zM2548.705 197.444l26.51-.032 7.747.826 9.537 2.315 22.782 6.772 7.234 2.188 6.149 3.39 39.243 22.632 7.218-2.093 46.769-10.276 21.22-2.81 7.686-1.01 11.893-1.42 3.092-.31 3.288-.16 65.615 40.88 1.797 1.346 13.526 24.87-.414 4.538-.17 1.437-.338 2.78-.84 5.841 20.03-7.974 4.486-1.67 4.16-1.089 2.85-.59 2.354-.407.543-.08 2.466-.278 1.253-.144 50.273 3.815 17.63 5.574 3.879-18.155 9.3-47.855 7.22-47.286-.27-6.006-2.26-47.266-.16-2.983-7.408-10.69-8.008-8.374-.428-.45-1.53-.798-2.285-2.272-4.473-4.705-1.466-2.75-4.013-9.025-.395-1.837.18-2.5.423-2.727 1.085-6.137-8.866-27.617-24.596-29.855-88.037-15.94-53.272 25.248 6.056 50.064 1.2 3.362 6.072 30.602-1.186 4.899-3.75 4.302-50.55 47.371-3.626.253-10.215-9.85-4.9-2.289-17.65-7.059-40.718-13.055-3.247-1.001-20.054-3.946-16.845-1.158-35.072 9.82-16.752 36.07-1.126 2.497-1.506 3.418-5.532 12.566-.808 4.237zM2772.352 999.977l6.272-26.775 9.22-26.731 6.765-17.685 10.156-33.555 9.89-56.3-.68-10.113-1.212-1.616-5.432-7.235-.112-.16-10.112-12.211-17.158-20.411-10.776-11.312-2.183-.597-34.23-7.41-16.296-3.06-11.589 1.32-1.93.65-2.262 1.306-.336.197-.937.936-1.996 1.994-20.358 37.961-1.194 2.896 4.296 25.317 1.285 5.058 1.909 4.878 2.053 4.14 3.163 4.087 3.354 3.714.907.985 13.022 11.83L2749 913.33l2.285 2.874 10.904 16.776 1.385 6.078.602 3.95.406 3.915.852 24.4 6.92 28.645zM1922.416 1047.097l34.829-14.71 28.897-1.927 40.183-7.298 12.563-13.045 17.753-44.65-37.121-48.031-23.73 31.966-47.048 23.363-15.08 43.69-23.923 5.723-14.12-1.11-.674.08-.524.064-2.082.26-1.003.977 1.414 2.115 4.974 6.438 24.691 16.095z" fill="cmyk(0.05,0.2,1.0,0.05)" fill-opacity="1" stroke="#000" stroke-width="1.008" stroke-linejoin="round" stroke-miterlimit="4" stroke-opacity="1" stroke-dasharray="none"/><path d="M2741.352 1141.676l1.085.744 11.332 2.312 4.215.217 1.966.096 1.432-.576.112-.048 2.117-.85.952-.382 1.861-3.408 2.055-4.7.233-.687 2.013-6.078.032-.096.283-.925.477-1.66.371-1.788-.376-98.107.399-24.612.438-1.158-6.92-28.645-7.577-.048-27.442-3.766-4.394-.81-53.235-14.814-80.834-20.672-5.716 29.662.408 3.768-25.06 31.322-52.004 13.185-5.253 1.095-6.17 1.28-7.38.384-15.21-.325-12.648-.355-15.48-.365-13.523 1.256-12.098 2.699-3.277 1.051-.673.224 1.323 2.546 12.293 20.814 37.697.642 63.607.144 11.137-2.344 110.845 39.944 9.752 9.286 5.874 5.9 2.334 3.578 25.832 19.964 42.792 25.097zM2907.478 588.781l-8.882-27.98-15.499-16.397-72.672-15.061-5.321-.893-.992-.112-4.81-.523-1.584 2.46 1.65 38.338 19.547 22.908 3.527-.016 25.267 19.528 13.714 14.979 3.04 8.235 43.015-45.464zM2209.011 1001.295l-7.067-17.198-5.355-6.62-28.975-21.422-51.25-37.117-14.18-8.744-12.851-7.832-60.24 10.759-9.573 4.315 37.121 48.03 13.23-.161 80.993 3.827 45.176 26.748 12.971 5.415zM2530.566 318.397l-7.544.279-.565 9.771.343 8.353 6.578 79.891 6.596-3.828 11.22-7.82 8.156-1.822 6.603 35.962.573 15.656-20.896 25.21-4.819 16.267-1.243 17.07-2.198 20.416-5.328 23.526-28.698 24.432 3.096.482 17.242-1.069 13.001-15.898 16.978-22.579 45.246-14.425 4.216 1.473 18.597-1.606 16.78-6.575 11.236-38.2-17.082-3.228-23.236-47.378-7.367-3.555-43.684-37.19-14.972-37.388-6.515-22.435-2.313-13.792zM2312.048 2189.086l-3.674-2.426-2.699-2.075-13.754-12.277-.82-1.356-.79-2.198-30.702-90.714 1.338-.457 5.65-1.936-1.228-3.7-1.757-3.513-3.403-4.97-19.514-17.22-6.788-5.75-49.095 25.146 15.898 15.933 6.318 9.81 3.559 6.499 23.643 51.361 2.835 7.447 13.78 45.149 12.287 46.361 48.916-59.115zM2349.761 978.892l-6.188-16.64-12.552-34.669-9.869-41.263-11.183-48.566-11.526-55.302-.064-2.661 8.216-13.402-11.266-51.927-5.564-37.615-.37-4.491.519-2.87-20.327-10.842-17.406-4.798-67.658 5.604-32.456-16.856-16.098-2.045-43.68 32.357 2.106 37.077 7.291 12.823 77.756 108.555 30.97 23.217 7.901 39.207 3.844 11.033 1.27 2.712 1.122 1.93 3.646 3.003 9.603 6.366 3.344 2.115 13.565 6.71 9.683 4.295 2.616 1.128 2.569 1.44 2.86 1.82 1.9 2.206.78.907 25.264 31.686 1.413 2.261 1.824 5.404.837 9.809-.515 2.77 45.824-12.489zM1515.528 459.86l57.912 21.371.048-.53.012-.16 1.868-21.953.128-1.538 10.801-18.544 20.018-20.739 15.865-1.533 2.426.99 9.175-29.951-44.649-46.648-10.608-7.546-24.12-15.24-.523.912-.282.973-.179 1.317-1.045 7.932-.841 9.033-.16 2.212-.184 2.67-10.36 10.2-13.86 7.092-3.28 1.277-18.74 2.065-1.853-1.632-.398-1.014-23.176 9.194 36 89.785zM2715.627 1668.261l19.702-9.478 26.328 4.203 22.772-11.913 76.412-39.658 46.28-23.877-.652-4.92-5.47-15.25-11.86-29.956-59.095-38.757-10.249-5.651-2.322-.702-1.681-.112-19.81 18.377-6.38 1.817-.62.173-.193.048-2.919.816-23.107 5.395-4.618.842-3.328.563-6.692 1.098-22.616-.301 1.492 28.648 5.93 49.08-6.214 53.105-12.923-1.372 1.833 17.77z" fill="cmyk(0.05,0.2,1.0,0.05)" fill-opacity="1" stroke="#000" stroke-width="1.008" stroke-linejoin="round" stroke-miterlimit="4" stroke-opacity="1" stroke-dasharray="none"/><path d="M2713.794 1650.49l12.923 1.373 6.214-53.105-5.93-49.08-1.493-28.648-.112.048-21.896 7.903-3.801 2.03-2.11 1.124-7.88 4.453-.431.384-41.293 36.932-6.614 6.08-7.408 7.202 4.907 79.603 74.93-16.296zM2591.278 767.18l1.989 1.187 4.695 1.528 2.76.366 2.841-.064 2.42-.21 1.519-.422 2.381-.66 3.953-1.272 4.826-1.146 4.246-.602 5.557.301 4.11.936 3.775 1.131 4.453 1.73 5.37 1.426 3.284.208 3.331-.346.88-1.168.128-.168 1.005-1.339 2.013-2.867 2.06-3.397 3.391-6.838.944-2.79-.112-2.809.096-1.565.128-1.875.57-2.283 2.49-4.02 2.104-3.057 2.351-3.402 6.378-7.616 2.927-3.438 2.93-3.268 8.407-9.082 3.648-3.754 4.709-4.846 1.45-.971.295-.202 1.527-1.037 3.749-2.613 5.29-4.132 2.937-2.436.5-.414 1.373-1.146 9.765-8.318 5.515-7.283 2.535-4.815 1.163-2.385.414-.848.896-3.542.832-3.664.112-.503 2.43-14.216-.08-.144-.417-.798-.187-.35-1.078-2.218-2.6-6.565-1.272-3.656.715-54.394.256-2.665.112-1.152.205-3.15.016-.242-1.008-8.445-4.009.446-5.315.679-6.902.65-2.43-1.047-.354-3.38-4.088-14.436-.963.592-4.285 2.626-5.402 2.121.314-3.481-.36-29.876-.048-4.328-.032-2.248-.562-5.25-1.492-.41-1.556-.412-4.728 1.44-3.808 1.764-2.944 1.312-2.121.112-.341-8.741.414-3.573.327-1.645.032-2.389-1.698-.856-3.48-.268-1.88-.144-.536-.032-9.474.096-.72.011-4.84.064-3.915-.222-3.438-1.135-5.181-1.97-3.739-2.094-11.237 38.2.408 11.74-17.56 47.827-11.605 14.267-3.464 3.453-4.663 3.353-6.503 4.108-9.624 6.23-4.429 3.368-13.813 17.198-8.137 20.888-4.144 17.95 8.958 8.366 1.218 1.134 9.03 8.422 1.954 1.823 1.545 1.443 4.688 4.374-.064 4.972-1.387 2.955 16.95 56.69-2.58 5.055z" fill="cmyk(0.05,0.2,1.0,0.05)" fill-opacity="1" stroke="#000" stroke-width="1.008" stroke-linejoin="round" stroke-miterlimit="4" stroke-opacity="1" stroke-dasharray="none"/><path d="M2531.933 712.898l44.975-7.464 1.388-2.955.064-4.971-4.688-4.375-1.546-1.443-1.954-1.822-9.03-8.423-1.217-1.134-8.959-8.365 4.145-17.95 8.137-20.888 13.813-17.199 4.429-3.368 9.624-6.23 6.502-4.107 4.664-3.354 3.464-3.453 11.605-14.267 17.56-47.827-.408-11.74-16.78 6.575-18.596 1.607-4.216-1.474-45.247 14.426-16.977 22.579-13.002 15.897-17.242 1.07-3.096-.482 2.464 55.244 30.125 75.893zM174.894 1546.727l-3.033 4.153-2.983 4.085-18.784 12.959-12.39 2.81-4.25-4.489-.904.987-1.099 4.553-8.23 50.388-.82 5.705-.862 9.686-.413 5.75 1.541 52.772 2.322 11.844 17.505-2.088 6.397-.73 1.405.273 13.954 6.698 13.582-.52 9.213-3.928.36-2.612 9.801-15.248 25.828-22.997-1.503-31.946.27-63.467 2.255-24.198-49.161-.44z" fill="cmyk(0.05,0.2,1.0,0.05)" fill-opacity="1" stroke="#000" stroke-width="1.008" stroke-linejoin="round" stroke-miterlimit="4" stroke-opacity="1" stroke-dasharray="none"/><path d="M2545.198 829.07l-3.32-3.984 17.967-39.642 1.963-3.743 4.088-2.833 3.563-1.757 21.82-9.931 2.58-5.056-11.434-5.042-9.928-4.875-26.89-13.331-2.32-1.184-3.498-2.122-.234-.144-2.291-2.342-2.341-5.171-.872-2.41-.506-1.395-1.613-11.213-30.125-75.893-3.203-2.06-.323-.21-11.702-7.542-7.21-1.371-4.382.227-2.025 8.149-26.244-2.815-1-.275-1.386-.504-21.856-8.293-67.406-39.681.224-1.639-26.586 36.997-16.067 10.907-.66 17.107-5.298 9.812-1.581-1.08-1.378-1.004-7.888-9.637-5.923 25.394-.518 2.869.37 4.491 5.564 37.615 11.266 51.927-8.216 13.402.064 2.66 11.526 55.303 11.183 48.566 9.868 41.263 12.552 34.669 6.189 16.64 33.43 15.948 5.076-6.183 4.102-4.986 38.254-42.176 31.533-22.013 2.642-2.323 64.107-65.255 5.175-7.041 11.118-15.794zM2263.133 2248.2l-12.287-46.361-13.78-45.149-2.836-7.446-23.643-51.362-3.558-6.5-6.319-9.809-15.897-15.932-5.164 4.076-20.52 11.997-7.761 4.304-5.807 2.371-1.681.645-26.76 5.938-2.405.408-21.746.45-2.168-.374-6.435-4.55-25.201-17.56-20.264-14.165-2.072-.176-7.86 4.375-1.534 1.065-5.858 21.5-1.493 5.97-1.53 7.54 12.735 10.538 5.423 5.187 12.276 13.893 3.007 3.59 1.673 4.474.618 6.002-.843 2.944-1.28 2.386.93 2.568 17.769 15.606 1.08.67 2.837 1.721 2.995 1.586 4.678 2.291 32.1-.008 26.327-.757 58.63 43.188 3.126 6.254 1.324 4.115 5.264 16.677-.264 3.173-.096 1.13-3.577 25.356 57.846-23.838zM2944.201 1169.698l56.54-28.62 3.105-5.332 1.432-3.531 1.09-3.867.27-2.453.242-2.2.112-1.2.064-.687.174-3.196.287-5.137.048-.872.112-2.194.096-1.887.526-10.61 1.205-24.293-.048-.112-1.267-2.496-1.365-2.212-3.834-5.849-5.824-6.243-2.811-2.547-7.987-5.534-31.132-20.251-9.01-6.394-21.775-15.45-15.759-11.174-3.5-12.872-5.876 20.065-10.128 1.455-7.048.227-6.564-.394 1.848-6.934-2.752-.37-22.45-.318-2.89.928-13.288 6.69-1.147 2.632-1.668 3.878-2.82 8.033 61.47 21.956-1.038 4.956-.064.268-.837 3.734-9.216 29.482-6.95 38.226 9.938 37.609 8.284 6.784 4.648 3.291 1.688-.182 3.314-3.218 3.312-3.196 6.632-5.76 7.389 1.705 7.836 4.123 17.394 11.549zM2505.382 1236.296l14.719 5.005.633.27 3.722 1.598 8.553 10.922 2.197 4.147 40.702 39.774.272.243 9.605 6.464 1.703.408.46.112.701-.064 4.901-.586 17.103-3.004 2.89-.568 2.071-.424 17.73-3.642 5.34-1.717 8.908-19.243 1.379-4.213.594-2.428 1.102-4.497 2.058-7.308.032-.096 4.42-13.061 3.4-9.11 15.575-20.354 10.75-9.78 4.656-4.126 34.747-23.766 15.052-35.565-42.792-25.098-25.832-19.963-2.335-3.578-5.873-5.9-9.752-9.287-110.845-39.943-11.138 2.343-63.606-.144-37.698-.641 1.328 11.629.668 6.056-3.17 17.699-1.478 3.022-26.228 26.503-4.462 4.19-4.851 3.707-5.287 3.365-5.724 2.543 8.246 14.353 11.521 13.81 48.084 43.144 2.713 2.342 24.058 20.344 28.483 24.125z" fill="cmyk(0.05,0.2,1.0,0.05)" fill-opacity="1" stroke="#000" stroke-width="1.008" stroke-linejoin="round" stroke-miterlimit="4" stroke-opacity="1" stroke-dasharray="none"/><path d="M2121.7 1281.916l15.439 16.938 62.578 68.508 12.563 16.71 4.28 4.744.253.25 10.678 6.154 1.25.699 1.385.757 1.491.744.735.352.985.265 1.277.308 1.426.304 19.099 3.353-.032.429.048.246.064.18.128.222.563.669.517.533 9.294 8.142.764.62 4.822 3.708 5.27 3.657.538.31 12.851 6.295 8.603 1.565 30.813 2.571 9.527.688 19.723-51.958 1.027-26.626-9.73-5.798-.307-10.67 1.223-48.738.771-7.536 6.415-23.007.758-2.077 6.006-10.496 2.106-2.524 2.746-1.037 1.53-1.935.598-4.793-1.061-29.098-1.824-14.485-17.403-91.126-8.964-43.32-.185-.338-5.568 1.586-36.475 10.342-9.783 2.605-17.974 4.77-17.435 4.629-26.397 7.302-13.925 6.022-4.851 2.092-11.268 8.07-47.625 41.19-70.549 38.7-15.195.624-1.672 1.671-1.28 3.141-2.586 16.164-.638 5.177.52 4.234.064.533.128.977.234.88 61.622 64.931z" fill="cmyk(0.05,0.2,1.0,0.05)" fill-opacity="1" stroke="#000" stroke-width="1.008" stroke-linejoin="round" stroke-miterlimit="4" stroke-opacity="1" stroke-dasharray="none"/><path d="M2349.939 1347.455l18.282.314 17.97 12.325-2.108 2.478-2.458 4.483-1.69 3.083-.417 2.8 31.615 11.874 9.85 1.241 17.324-6.014 3.283-5.085.165-.473.642-1.893 5.03-40.334.048-4.397-.001-.41-2.287-33.278-1.486-13.96-.691-2.455-11.794-12.113-3.82-.987-1.898-2.51-3.695-5.11-8.182-11.886-2.586-5.233-38.69-97.164-11.13-31.97-13.585-38.988-5.097-15.18 8.963 43.32 17.403 91.127 1.824 14.485 1.061 29.098-.598 4.793-1.53 1.935-2.746 1.036-2.105 2.525-6.007 10.496-.758 2.077-6.415 23.006-.77 7.536-1.223 48.738.307 10.67zM2989.225 452.317l-1.926-9.308-5.22-40.428-1.753-32.475-6.137-49.906-2.159-17.212-11.166-8.735-4.643-.176-1.927 2.244-17.63-5.575-50.274-3.814-1.253.144-2.466.278-.542.08-2.355.406-2.85.59-4.16 1.089-4.486 1.67-20.029 7.975 19.21 30.158 20.37 59.94 8.875-3.782 33.647-6.883 1.813 3.424.096.178.263.497.683 1.929-.048 2.193-.032 1.013-.872 9.243-.608 3.704-.144.525-1.096 4.131 6.648 14.748 2.678 3.963 5.09 3.32 40.53 23.533 1.258.515 2.611.806zM2649.995 1985.628l-2.582-1.382-2.853-2.402-2.715-3.36-10.557-27.837.893-3.977 1.032-4.21.603-4.406-2.822-5.492-14.607-20.12-14.282-13.748-32.801-18.605-93.575-34.63-70.273-48.03-.6-.662-1.56.52-.74.359-3.231 2.179-2.067 2.019-3.407 3.337-1.202 1.858-.372.581-4.24 7.32-.522.91-.235.444-.243.491-1.282 2.771-4.824 13.805-1.334 9.965-.309 6.84-.483 4.51-.189.834-.186.761-17.371 30.249-.566.76-3.232 3.259-1.618 1.493-46.918 31.208-1.306.837-3.37.763-13.825-1.467-4.337-.51-17.354 3.706-18.765 15.6-.425 1.496 2.348 5.725 3.413 5.79 4.332 7.322 3.487 3.162 4.564 1.79 1.172-.707 2.362-.213 53.563 15.944 12.133 19.672 26.445 56.037 2.029 31.02-.016 3.209 26.67-3.842 10.462 1.323 5.352 1.856 19.573 20.66 3.05 3.406 3.953 9.014-1.244 23.786 7.465-5.794.725-.389 2.685-1.09 1.582-.577 20.963-2.313 8.004 2.65 2.657 1.108 9.504 4.627 27.99-10.846-8.012-4.27-2.96-3.156-8.347-12.574-6.424-11.175-.413-4.445-.224-5.206 9.803-26.366 4.808-8.733 1.776-.83 17.687-4.255 17.6-2.496 20.854-37.915-.285-2.595-.064-.64 1.08-4.788 3.122-9.15 1.374-3.538 1.19-2.774 2.204-1.602 20.983-.469 31.068 3.935 28.624-7.325z" fill="cmyk(0.05,0.2,1.0,0.05)" fill-opacity="1" stroke="#000" stroke-width="1.008" stroke-linejoin="round" stroke-miterlimit="4" stroke-opacity="1" stroke-dasharray="none"/><path d="M2934.349 498.743l-17.25 12.229.16 2.595 14.177 61.48 1.181 4.832 8.576 4.245 3.165 1.517.801-.608 3.464-2.436 7.556-4.444 25.388-9.823 2.943-1.043 2.603-.92 32.816-10.07 2.467.08 14.843 1.58 2.113 7.43-.652 5.272-4.076 6.888 16.91-10.773.774-.426.724-.397 2.468.956 14.63 7.486 35.882 5.665 9.695-3.65 64.096-8.353 55.851 19.82-2.143 8.337-.064 9.319 23.376 8.036 57.03 3.386 18.714-8.95-20.939-55.076-4.635 1.51-1.346 1.991-1.779 2.517-2.36 1.995-1.93.987-5.118 2.18-7.67 2.254-3.909 1.027-6.285.558-1.933.163-1.313-2.041-1.787-1.685-3.732-1.667-6.576-.885-58.256-4.014-30.283 3.26-22.491 7.823-16.901 2.774-10.235-30.222 5.562-11.258.467-3.69-1.034-4.438-10.814-29.921-3.936-5.06-4.808-5.14-4.943-2.25-4.547-1.597-6.34-1.326-1.089-.048-89.558-22.682-2.173.392-65.526 44.3zM2018.393 812.463l64.565-54.17-18.001-49.766-.644-28.857-.144-.885-.337-2.02-1.232-3.457-5.958-11.312-1.943-3.265-3.702-3.159-37.197-6.542-1.22-.175-3.802 6.775-1.957 3.942-.08.064-.426.331-14.46 10.744-4.452 1.074-4.032.032-30.201-3.14 3.574 32.175-.382 6.088-1.491 7.106-2.322 6.259-.722 1.189-1.043 1.723-3.589 4.321-3.165 2.972-11.524 9.392.321.244 5.874 4.48 42.386 31.613 19.903 13.404 17.407 22.824z" fill="cmyk(0.05,0.2,1.0,0.05)" fill-opacity="1" stroke="#000" stroke-width="1.008" stroke-linejoin="round" stroke-miterlimit="4" stroke-opacity="1" stroke-dasharray="none"/><g stroke-width=".063" stroke-miterlimit="4" stroke-dasharray="none" stroke="#000" stroke-opacity="1" stroke-linejoin="round" fill="cmyk(0.05,0.2,1.0,0.05)" fill-opacity="1"><path d="M2900.605 1953.588l-1.948-3.12-20.534-35.242-6.71-11.61-4.615-8.625-.128-15.09-23.646 6.563-4.517 1.813-44.976 25.887-84.63 54.662-13.514 11.029-5.074 5.647-3.293 4.308-6.497 9.272 4.87 1.48 1.328 1.99.175.278 5.928 27.377-2.181 6.239-2.483 3.972-2.434 2.818-3.71 8.583-.99 2.906 2.282 21.786.388 2.658.214 1.462 2.59 7.168 27.492 37.989.964.833 26.167 5.978 1.673-.57 8.783-5.048 10.003-9.414 33.427-3.075 15.69 10.294 8.107 3.92 4.382.955 31.316-11.294 7.22-8.622 10.352-18.133 16.439 15.224 13.42 9.308 6.082 2.44 8.611.984 3.9-.016 6.97-1.486 25.358-20.192 5.86-12.064 2.477-5.323 7.14-16.186 1.329-14.019.18-3.297-6.311-1.853-5.679-.17-8.485-2.908-11.499-8.245-4.21-4.376-5.342-9.88-.408-4.688.267-4.595.59-7.79 1-1.988 1.723-2.184 4.07-4.33.667-1.502.424-1.544.48-2.36.226-1.121-.202-2.959-8.046-10.005-1.736-1.246-11.45-7.88-2.934.224-2.935.296-9.441-12.291zM2816.116 1879.44l19.417-6.76 7.352-3.13 3.166-1.514 2.84-1.439-2.418-1.77-10.907-4.776-6.507-.487-31.648-2.395-2.925 1.795.495 2.858 1.459 2.652 9.883 11.64 2.22 2.122 3.046 1.136 4.527.064z" stroke-width="1.008"/></g><g stroke-width=".063" stroke-miterlimit="4" stroke-dasharray="none" stroke="#000" stroke-opacity="1" stroke-linejoin="round" fill="cmyk(0.0,0.9,0.9,0.1)" fill-opacity="1"><path d="M1367.92 1214.671l-.064-.66-.933-.471.354-.664-.144-.032-.354.605-.032.24.096.238-.235.363-.267.363-.175.572-.048.57-.032.422-.297.302.064.21.654-.456.032-.181.21-.032.296-.423.144-.182.268-.128.24-.328.317.19-.29.52-.524 1.316.01.713.064.21.448-.16.064-.301.598-.005.144-.453.112-.39.096-.242.178-.33.326-.215.262-.752.266-.453-.064-.096.24-.096.176-.392.144-.512-.144.032-.294.662-.51.032-.658-.048-.234.544-.48-.112zM1681.899 626.756l-54.066-37.079-8.016-12.305.204-1.56.265-2.027 8.799-19.517-33.811 9.286-5.08-.08-13.089.687-32.678 20.864-17.734-.17.048 1.508.016.816-.275 7.206-2.398 18.43-.785 4.06-3.658 12.945-.89 3.063-1.414 4.02-1.517 2.954-77.012 8.005-5.023 8.83-.34.63-.42.775-1.022 4.358.016.87.016.866.014.602.016 1.05 7.3 22.028-7.698 24.082-1.744 1.975-104.319 57.367-43.235 13.839-2.789 1.237-32.907 18.246-5.336 3.163-.62.373-1.206.655-6.39 3.342-4.184 1.347-3.197-1.035-4.515-2.078-5.434-2.808-8.016-4.845-2.772.016-.466.003-11.566 2.869-13.453 6.115 1.793 5.54-.56 2.287-17.265 52.437 24.789 25.35 4.756-1.966 7.405-3.066 8.346-1.102 26.805 1.051 25.115 31.074 1.82 3.657.903 3.17-.467 3.083-.08.509-.797 2.61-7.002 14.923-.947 1.806-.526 1.005-5.6 59.888.349 1.25 6.228 45.732.976 10.902-.598 8.37-.096-.048 6.771 4.386.7.476 1.372.999 3.243 2.677.383.377.23.226 40.663 48.411.361.578.573 1.269.064.24 3.41 18.709-.112.98-.16 1.004-1.365 7.654-1.23 4.251-.418 1.384-.112.376-.096.328-.211.476-.128.273-.144.31-6.96 5.386-.578.432-.512.274-9.406 4.469-12.533-4.076-3.189-1.505-1.726-.815-11.632 1.476-2.573 1.372-1.373.738-.906.638-.508 1.97-1.152 9.062-.096 1.032-.032.266.003.414.006.696.47 1.598.127.402.186.606.4 1.256.784 1.207.246.28.463.389.382.048.406-.194 8.304-5.162 46.87-21.668 10.375 8.949 11.482 7.902 29.17 19.269 5.921.859 36.042-21.213 8.85-6.382.268-.226.19-.35.957-2.483 1.024 2.07 2.116-.016 3.167-.706 24.706-14.323 1.36-1.803.654-.878.712-1.215.096-.525-.048-4.689-.096-2.904-.595-3.103 14.28-64.316 5.775-14.655 35.027-52.062.521-.643.775-.885 8.638-7.464 4.21-3.179 2.408-1.763 3.934-2.832 1.738-.933.288-.16 2.326-1.14 4.269-1.726 3.816-1.293 10.99-2.099.87-.112.704-.08 2.512-.194.667-.048 1.103-.032 2.465.08.77.032 1.211.064.725.032 1.977.207.775.08.379.032.691.08 11.061 1.163 8.731.955.347.048 2.933.42.198.188 33.861 26.73.642.456.833.564.516.35.417.015.487-.08.233-.445 8.256-35.73 1.296-9.148 6.54-.622 9.082.596.46.048 23.585 2.764 1.655.328 25.528 5.02 1.97.457 3.935.937 1.54.47-.049.69.232.256.202.2 1.01.74.606.396.547.312.202.112 5.272 2.83 2.537 1.276 7.284 3.659-.298-1.335-12.135-10.689-42.947-8.82-13.976-5.036-8.93-1.438-3.428-1.756-.032-.064 15.61-27.481 6.324-6.14 1.301-1.177 6.333-5.464 9.038-4.576.576-.112.695-.006 16.004.17 14.24 8.177-.144 10.355-.505.936-1.602 2.512-1.811 1.894-3.835 3.835-1.39 1.362 6.718.4 8.961-7.018-1.085-1.443-.761-1.555-.303-.658-.465-7.734-.048-1.5-.178-5.807-.006-2.995 2.683-.861.866-.23.718.284 2.325 1.008 50.37 24.564 21.472 11.558.524.336 29.849 20.176 26.81 14.306 40.951 33.062 7.085 7.425 5.686 10.141.842 2.427 13.965-9.292-24.692-16.095-4.974-6.438-1.414-2.115 1.003-.978 2.082-.259.525-.064.673-.08 14.12 1.11 23.923-5.723 15.08-43.69 47.048-23.363 23.73-31.966 9.573-4.315-1.61-8.747-1.008-19.071 20.255-22.886-12.173-26.882-.63-1.179-.48-.9-2.864-5.363-.112-.176-2.277-3.375-1.32-1.941-3.165-4.18-5.315-5.958-17.407-22.824-19.904-13.403-42.385-31.613-5.874-4.48-.321-.245-6.319 7.199-2.539 2.476-63.774 16.597-5.373 1.072-.144-.216-1.263-1.987.794-5.651 1.162-5.883.675-2.908 2.546-5.92 4.406-4.364 4.939-2.1 2.646-1.022 2.27-.78.477-.164-.248-1.174-.161-.399-.38-.939-1.105-1.493-.214-.278-13.594-14.498-22.544-22.144-19.955-18.65-15.69-10.905-35.165-22.276-1.678 1.275-.589.665-.608.688-2.15 2.623-.274.365-1.57 2.099-.111.16-.36.48-.168.224-5.44 7.618-2.762 5.145-2.187 4.626-.446 1.06-1.496 3.533-.879 3.098-.096.37-.617 2.169-.234.822-.198.452-.584 1.334-1.442 3.296-11.942-1.109-2.372-.264-16.993-4.36-5.746-19.163-.733-10.165.783-28.149-16.287 4.919-4.862-.546z" stroke-width="1.008"/></g><g fill="cmyk(0.05,0.2,1.0,0.05)" fill-opacity="1" stroke="#000" stroke-width=".063" stroke-linejoin="round" stroke-miterlimit="4" stroke-opacity="1" stroke-dasharray="none"><path d="M2576.908 705.434l-44.975 7.464 1.612 11.213.506 1.395.872 2.41 2.341 5.17 2.291 2.343.234.144 3.497 2.122 2.322 1.184 26.89 13.331 9.928 4.875 11.433 5.042-16.95-56.69z" stroke-width="1.008"/><path d="M2447.459 186.484l9.872 62.285 1.512-1.093 4.069-.464 41.074 18.603 18.403 35.862 8.177 16.72 2.314 13.793 6.515 22.435 14.971 37.387 43.685 37.19 7.366 3.555 23.237 47.378 17.082 3.229 3.739 2.094 5.181 1.97 3.439 1.134 3.915.223 4.84-.064.72-.012 9.473-.096.536.032 1.88.144 3.48.269 1.698.856-.032 2.389-.326 1.645-.415 3.572.34 8.741 2.123-.112 2.944-1.312 3.807-1.763 4.729-1.44 1.555.411 1.493.41.561 5.251.032 2.248.048 4.328.36 29.875-.313 3.482 5.401-2.122 4.285-2.626.963-.592 4.088 14.436.354 3.38 2.43 1.047 6.903-.65 5.315-.678 4.008-.447 1.008 8.445-.016.242-.205 3.15-.112 1.152-.256 2.666-.715 54.393 1.272 3.656 2.6 6.565 1.078 2.218.187.35.416.799.08.144-2.428 14.216-.112.502-.832 3.664-.896 3.542-.415.848-1.163 2.386-2.534 4.814-5.516 7.284-9.764 8.318-1.373 1.146-.501.414-2.936 2.435-5.291 4.133-3.75 2.613-1.525 1.037-.296.201-1.45.971-4.709 4.847-3.648 3.753-8.406 9.082-2.931 3.269-2.927 3.438-6.378 7.616-2.351 3.402-2.104 3.056-2.49 4.02-.57 2.284-.128 1.875-.096 1.565.112 2.808-.944 2.79-3.39 6.838-2.06 3.397-2.014 2.868-1.004 1.339-.128.168-.88 1.168-3.332.345-3.284-.208-5.37-1.425-4.453-1.73-3.774-1.131-4.11-.936-5.558-.301-4.246.602-4.826 1.145-3.953 1.272-2.38.661-1.52.422-2.42.21-2.841.064-2.76-.366-4.695-1.528-1.989-1.188-21.819 9.931-3.563 1.757-4.088 2.834-1.963 3.743-17.967 39.641 3.32 3.984 25.11-14.538.485-.112 3.387-.732 28.425-.85 11.968 6.643 26.483 20.243 23.41 15.002 4.295 2.083.45.197 15.035 6.306.587-.16 2.211-.575 2.28-.853 2.12-.876 1.383-.607-.907-.985-3.354-3.714-3.163-4.088-2.053-4.139-1.909-4.878-1.284-5.058-4.296-25.317 1.193-2.896 20.359-37.961 1.995-1.994.937-.936.336-.197 2.263-1.305 1.93-.652 11.588-1.32.3-.048 5.972-1.003 3.933-.875 1.133-.253 4.773-1.582 8.526-3.131 3.907-1.805 8-3.72 2.355-1.227 8.168-5.103 4.544-2.883 43.021-30.986 24.003-19.945 8.327-5.725 18.696-10.114 2.342-42.166-3.04-8.235-13.713-14.98-25.268-19.527-3.526.016-19.547-22.908-1.65-38.337 1.584-2.461 4.81.523.991.112 5.322.893 72.672 15.06 15.499 16.398 8.882 27.98 33.712-4.657-8.576-4.245-1.18-4.832-14.178-61.48-.16-2.595 17.25-12.23-38.284 10.454-5.118.494-3.91.21-72.12-17.707-24.35-43.55-1.756-3.492-1.21-9.06-6.793-14.175-.682-1.058-.128.016-1.254.315-.602.162-1.967.53-14.988 7.296-10.104 8.694-16.363 5.926-57.644-43.352-12.876-37.55.648-22.034 18.553-2.185-23.085-37.76-5.953-.69-3.199-.95-17.244-14.034-6.034-5.574-22.771-23.293-2.923-3.517-3.416-4.9-1.567-3.287-.417-1.573-.128-.465 8.368.646 9.152 2.123 7.47 3.079 6.445 1.518 38.016-.162 2.51-.3.861-2.24-1.587-11.754-39.243-22.632-6.15-3.39-7.233-2.188-22.782-6.773-9.538-2.315-7.747-.825-26.509.032-101.246-10.96z" stroke-width="1.008"/></g><g fill="cmyk(0.05,0.2,1.0,0.05)" fill-opacity="1" stroke="#000" stroke-width=".063" stroke-linejoin="round" stroke-miterlimit="4" stroke-opacity="1" stroke-dasharray="none"><path d="M2634.771 819.673l.517-1.368-4.239-1.375-2.344-.776-2.98 10.706 6.041.737 3.005-7.924z" stroke-width="1.008"/><path d="M2669.211 857.012l-.45-.197-4.295-2.083-23.41-15.002-26.483-20.243-11.968-6.643-28.424.85-3.387.732-.485.112-25.11 14.538-11.119 15.793-5.174 7.042-64.107 65.255-2.642 2.322-31.533 22.014-38.254 42.175-4.103 4.986-5.075 6.184-40.845 61.435.186.338 39.744 61.565 5.725-2.543 5.286-3.364 4.851-3.707 4.463-4.19 26.227-26.503 1.478-3.023 3.17-17.699-.667-6.056-1.328-11.629-12.293-20.814-1.323-2.546.673-.224 3.277-1.051 12.098-2.699 13.523-1.256 15.48.365 12.648.355 15.21.325 7.38-.384 6.17-1.28 5.253-1.095 52.004-13.185 25.06-31.322-.408-3.768 5.717-29.662 80.833 20.672 53.235 14.814 4.394.81 27.442 3.766 7.577.048-.851-24.4-.407-3.915-.601-3.95-1.386-6.079-10.904-16.776-2.285-2.873-43.148-41.255-13.023-11.83-1.382.606-2.12.877-2.28.853-2.212.574-.587.16-15.035-6.305zM2630.376 771.26l-4.834-1.679-1.427 4.21-1.432 3.506 4.455 1.753 3.238-7.79z" stroke-width="1.008"/></g><g fill="cmyk(0.05,0.2,1.0,0.05)" fill-opacity="1" stroke="#000" stroke-width=".063" stroke-linejoin="round" stroke-miterlimit="4" stroke-opacity="1" stroke-dasharray="none"><path d="M2195.843 704.168l1.98-.064 8.298-1.057 8.304-1.37.032-2.752-.699-3.619-3.563-12.368-.696-2.218-1.797-1.97-2.662-2.726-.552-.564-15.626 17.196-.662 1.844 1.869 5.163 2.496 4.622 3.283-.112zM2295.836 644.093l-5.292-2.147-21.903-24.667-5.624-25.66-8.822-81.927.862-22.896-.048-1.606-.006-.213-.202-6.319-2.563-3.918-.144-.216-.278-.424-7.004-5.293-14.86-14.512-.896 1.34-1.378 2.183-1.986 6.784-1.885 6.96-7.795 25.12-35.384 21.581-9.753 2.05-1.967.412-37.235.503-1.62-.064-17.258 36.032-16.607 34.019-8.84-.144-23.227 29.223-2.075 6.926-.296 2.277-.08.598-.08.646 1.702 17.552 17.106 26.92 5.86-1.05 6.03-1.246 43.68-32.357 16.099 2.045 32.456 16.856 67.657-5.605 17.407 4.799 20.326 10.843 5.923-25.394z" stroke-width="1.008"/></g><g fill="cmyk(0.05,0.2,1.0,0.05)" fill-opacity="1" stroke="#000" stroke-width=".063" stroke-linejoin="round" stroke-miterlimit="4" stroke-opacity="1" stroke-dasharray="none"><path d="M2493.094 1551.034l2.615-1.334.096-.285-.064-.293-.84-2.95-.207-.182-.304-.048-1.1.68-.218.25.08.175.478.392-3.667 2.066-.187.228.048.245.395.387 1.765.764 1.11-.096zM2411.133 1384.812l-31.615-11.874.418-2.8 1.69-3.083 2.457-4.483 2.107-2.479-17.97-12.324-18.281-.314 9.73 5.798-1.028 26.626-19.723 51.958 41.552-19.324.797-.24 42.641.75 1.655.514.218.08 1.153.723 35.503 36.128 3.916 4.713.424.535.492.683 7.388 10.561 2.413 3.453.51.772 44.508 81.779.292-.002 2.541-.014 5.488-.112.194-.016 10.454-1.411 2.396-2.435 2.625-3.821 1.238-2.917 12.495-30.035.456-3.934-2.795-24.858-24.434-79.861-40.123-34.485-54.608 10.978-17.325 6.014-9.85-1.242z" stroke-width="1.008"/></g><g fill="cmyk(0.05,0.2,1.0,0.05)" fill-opacity="1" stroke="#000" stroke-width=".063" stroke-linejoin="round" stroke-miterlimit="4" stroke-opacity="1" stroke-dasharray="none"><path d="M1093.206 615.98l13.667.44 69.642-4.43 3.955-.468 5.255-1.163 5.25-1.792 13.994-7.098 28.602-24.977-14.114-15.425-144.657 3.181-11.789 57.884 30.195-6.152zM1448.275 516.194l-36.86-2.241-87.652-2.46-5.98 1.168-6.273.981-6.616 1.032-20.857 2.315-4.584.283-3.141-1.294-.274-.112-.909-.39-11.25 6.121-7.497 26.664-20.83 2.99-.954 1.416.554 2.063 5.09 11.846 2.2 2.69 3.154 1.323.843.112 3.322.429 33.138 4.23 2.22-.472 66.464-24.003 45.19-.048 51.502-34.64z" stroke-width="1.008"/></g></svg>