<?xml version="1.0" encoding="utf-8"?>
<!-- Generator: Adobe Illustrator 24.2.1, SVG Export Plug-In . SVG Version: 6.00 Build 0)  -->
<svg version="1.1" id="Layer_1" xmlns="http://www.w3.org/2000/svg" xmlns:xlink="http://www.w3.org/1999/xlink" x="0px" y="0px"
	 viewBox="0 0 566.9 566.9" style="enable-background:new 0 0 566.9 566.9;" xml:space="preserve">
<g id="layer1" transform="translate(-207.04724,-386.1811)">
	<g id="g6001">
		<g id="Expanded" transform="matrix(6.8181818,0,0,5.429031,215.22906,390.32159)">
			<g id="g4374">
				<g id="g4376">
					<path id="path4378" d="M40.4,89.1c-0.2,0-0.5-0.1-0.7-0.2L6.4,73.1c-0.6-0.3-0.9-0.8-0.9-1.4V22.6c0-0.5,0.3-1,0.7-1.3
						c0.5-0.3,1-0.3,1.5-0.1l32.6,15.5L73,21.2c0.5-0.2,1.1-0.2,1.5,0.1c0.5,0.3,0.7,0.8,0.7,1.3v49.1c0,0.6-0.4,1.2-0.9,1.4
						L41.1,89C40.9,89.1,40.6,89.1,40.4,89.1z M8.7,70.7l31.7,15.1l31.7-15.1V25.1l-31,14.8c-0.4,0.2-0.9,0.2-1.4,0l-31-14.8V70.7z"
						/>
				</g>
				<g id="g4380">
					<path id="path4382" d="M40.4,32.3L12.8,19.2c-0.8-0.4-1.1-1.3-0.7-2.1c0.4-0.8,1.3-1.1,2.1-0.8l26.3,12.5l26.3-12.5
						c0.8-0.4,1.7,0,2.1,0.8c0.4,0.8,0,1.7-0.7,2.1L40.4,32.3z"/>
				</g>
				<g id="g4384">
					<rect id="rect4386" x="38.8" y="38.4" width="3.2" height="49.1"/>
				</g>
			</g>
		</g>
	</g>
</g>
</svg>
