<svg width="16" height="16" viewBox="0 0 16 16" fill="none" xmlns="http://www.w3.org/2000/svg">
<path d="M8 16C6.90667 16 5.87333 15.79 4.9 15.37C3.92667 14.95 3.07667 14.3767 2.35 13.65C1.62333 12.9233 1.05 12.0733 0.63 11.1C0.21 10.1267 0 9.09333 0 8C0 6.89333 0.21 5.85667 0.63 4.89C1.05 3.92333 1.62333 3.07667 2.35 2.35C3.07667 1.62333 3.92667 1.05 4.9 0.63C5.87333 0.21 6.90667 0 8 0C8.22667 0 8.41667 0.0766667 8.57 0.23C8.72333 0.383333 8.8 0.573333 8.8 0.8C8.8 1.02667 8.72333 1.21667 8.57 1.37C8.41667 1.52333 8.22667 1.6 8 1.6C6.22667 1.6 4.71667 2.22333 3.47 3.47C2.22333 4.71667 1.6 6.22667 1.6 8C1.6 9.77333 2.22333 11.2833 3.47 12.53C4.71667 13.7767 6.22667 14.4 8 14.4C9.77333 14.4 11.2833 13.7767 12.53 12.53C13.7767 11.2833 14.4 9.77333 14.4 8C14.4 7.77333 14.4767 7.58333 14.63 7.43C14.7833 7.27667 14.9733 7.2 15.2 7.2C15.4267 7.2 15.6167 7.27667 15.77 7.43C15.9233 7.58333 16 7.77333 16 8C16 9.09333 15.79 10.1267 15.37 11.1C14.95 12.0733 14.3767 12.9233 13.65 13.65C12.9233 14.3767 12.0767 14.95 11.11 15.37C10.1433 15.79 9.10667 16 8 16Z" fill="#1F1F1F"/>
</svg>
