<svg version="1.1" xmlns="http://www.w3.org/2000/svg" x="0" y="0" viewBox="0 0 311.81 154.02" xml:space="preserve"><g fill="none" stroke="#6d6e71" stroke-width=".5" stroke-miterlimit="10"><path d="M44.1 117.39l24.35-28.33"/><line x1="68.45" y1="89.06" x2="309.82" y2="89.06"/></g><g fill="none" stroke-width=".5" stroke-miterlimit="10"><path d="M44.1 117.42h242.36M41.97 95.82h2.13M41.97 117.4h2.13" stroke="#6d6e71"/><path d="M44.1 95.82l24.35-28.35h241.37" stroke="#bcbec0"/><path d="M41.97 74.14h2.13" stroke="#6d6e71"/><path d="M44.1 74.14l24.35-28.35h241.37" stroke="#bcbec0"/><path d="M41.97 52.46h2.13" stroke="#6d6e71"/><path d="M44.1 52.46l24.35-28.35h241.37" stroke="#bcbec0"/><path d="M41.97 30.78h2.13M44.1 30.78v86.72" stroke="#6d6e71"/><line x1="285.47" y1="117.5" x2="309.82" y2="89.48" stroke="#6d6e71" stroke-linecap="round"/><path d="M309.82 89.29v-.19.19z" stroke="#6d6e71" stroke-linecap="round"/><path d="M68.45 2.43v86.63h241.37s.21-86.63 0-86.63" stroke="#6d6e71"/><path d="M68.45 2.43L44.1 30.78M309.82 2.43H68.45" stroke="#bcbec0"/></g><rect x="15.02" y="114.8" width="25.94" height="5.39" fill="none"/><text transform="translate(37.214 120.064)" fill="#231f20" font-family="Asap-Regular" font-size="7">0</text><rect x="14.2" y="93.03" width="26.76" height="5.57" fill="none"/><text transform="translate(20.848 98.297)" fill="#231f20" font-family="Asap-Regular" font-size="7">20,000</text><rect x="15.02" y="71.33" width="25.94" height="5.6" fill="none"/><text transform="translate(20.848 76.598)" fill="#231f20" font-family="Asap-Regular" font-size="7">40,000</text><rect x="15.02" y="49.75" width="25.94" height="5.42" fill="none"/><text transform="translate(20.848 55.01)" fill="#231f20" font-family="Asap-Regular" font-size="7">60,000</text><rect x="15.02" y="28.04" width="25.94" height="5.44" fill="none"/><text transform="translate(20.848 33.306)" fill="#231f20" font-family="Asap-Regular" font-size="7">80,000</text><g><rect x="102.08" y="146.25" width="125.98" height="7.77" fill="none"/><text transform="translate(156.514 152.274)" fill="#231f20" font-family="Asap-Medium" font-size="8">2014</text><rect x="43.86" y="146.25" width="66.5" height="7.77" fill="none"/><text transform="translate(43.862 152.274)" fill="#231f20" font-family="Asap-Medium" font-size="8">Poorer countries</text><rect x="2.28" y="9.1" width="7.77" height="108.4" fill="none"/><text transform="rotate(-90 60.392 52.093)" fill="#231f20" font-family="Asap-Medium" font-size="8">Annual income (2005 $ PPP)</text><rect x="219.7" y="146.25" width="65.4" height="7.77" fill="none"/><text transform="translate(227.802 152.274)" fill="#231f20" font-family="Asap-Medium" font-size="8">Richer countries</text></g><g><path d="M44.1 117.39h.99" fill="none" stroke="#000" stroke-width=".25" stroke-miterlimit="10"/><path d="M66.13 92.06l2.48-2.67h1.16l-2.48 2.67h-1.16z" fill="#b19e32"/><path d="M66.13 92.06l2.48-2.67h1.16" fill="none" stroke="#dfc423" stroke-width=".25" stroke-miterlimit="10"/><path d="M68.62 89.39v-1h1.16v1h-1.16z" fill="#b19e32"/><path d="M68.62 89.39v-1" fill="none" stroke="#dfc423" stroke-width=".25" stroke-miterlimit="10"/><path d="M66.13 92.06v-1l2.48-2.67v1l-2.48 2.67zM67.29 92.06v-1l2.48-2.67v1l-2.48 2.67z" fill="#b19e32"/><path d="M67.29 92.06l2.48-2.67v-1l-2.48 2.67" fill="none" stroke="#dfc423" stroke-width=".25" stroke-miterlimit="10"/><path d="M66.13 91.06l2.48-2.67h1.16l-2.48 2.67h-1.16z" fill="#feea00"/><path d="M66.13 91.06l2.48-2.67h1.16" fill="none" stroke="#dfc423" stroke-width=".25" stroke-miterlimit="10"/><path d="M66.13 92.06v-1h1.16v1h-1.16z" fill="#dfc423" stroke="#dfc423" stroke-width=".25" stroke-miterlimit="10"/><path d="M63.65 94.73l2.48-2.67h1.16l-2.48 2.67h-1.16z" fill="#b19e32"/><path d="M63.65 94.73l2.48-2.67h1.16" fill="none" stroke="#dfc423" stroke-width=".25" stroke-miterlimit="10"/><path d="M66.13 92.06v-.33h1.16v.33h-1.16z" fill="#b19e32"/><path d="M66.13 92.06v-.33" fill="none" stroke="#dfc423" stroke-width=".25" stroke-miterlimit="10"/><path d="M63.65 94.73v-.33l2.48-2.67v.33l-2.48 2.67zM64.81 94.73v-.33l2.48-2.67v.33l-2.48 2.67z" fill="#b19e32"/><path d="M64.81 94.73l2.48-2.67v-.33l-2.48 2.67" fill="none" stroke="#dfc423" stroke-width=".25" stroke-miterlimit="10"/><path d="M63.65 94.39l2.48-2.67h1.16l-2.48 2.67h-1.16z" fill="#feea00"/><path d="M63.65 94.39l2.48-2.67h1.16" fill="none" stroke="#dfc423" stroke-width=".25" stroke-miterlimit="10"/><path d="M63.65 94.73v-.33h1.16v.33h-1.16z" fill="#dfc423" stroke="#dfc423" stroke-width=".25" stroke-miterlimit="10"/><path d="M61.16 97.73l2.48-2.67h1.16l-2.48 2.67h-1.16z" fill="#b19e32"/><path d="M61.16 97.73l2.48-2.67h1.16" fill="none" stroke="#dfc423" stroke-width=".25" stroke-miterlimit="10"/><path d="M63.65 95.06v-.33h1.16v.33h-1.16z" fill="#b19e32"/><path d="M63.65 95.06v-.33" fill="none" stroke="#dfc423" stroke-width=".25" stroke-miterlimit="10"/><path d="M61.16 97.73v-.33l2.48-2.67v.33l-2.48 2.67zM62.32 97.73v-.33l2.48-2.67v.33l-2.48 2.67z" fill="#b19e32"/><path d="M62.32 97.73l2.48-2.67v-.33l-2.48 2.67" fill="none" stroke="#dfc423" stroke-width=".25" stroke-miterlimit="10"/><path d="M61.16 97.39l2.48-2.67h1.16l-2.48 2.67h-1.16z" fill="#feea00"/><path d="M61.16 97.39l2.48-2.67h1.16" fill="none" stroke="#dfc423" stroke-width=".25" stroke-miterlimit="10"/><path d="M61.16 97.73v-.33h1.16v.33h-1.16z" fill="#dfc423" stroke="#dfc423" stroke-width=".25" stroke-miterlimit="10"/><path d="M58.84 100.39l2.48-2.67h1.16L60 100.39h-1.16z" fill="#b19e32"/><path d="M58.84 100.39l2.48-2.67h1.16" fill="none" stroke="#dfc423" stroke-width=".25" stroke-miterlimit="10"/><path d="M61.33 97.73v-.33h1.16v.33h-1.16z" fill="#b19e32"/><path d="M61.33 97.73v-.33" fill="none" stroke="#dfc423" stroke-width=".25" stroke-miterlimit="10"/><path d="M58.84 100.39v-.33l2.48-2.67v.33l-2.48 2.67zM60 100.39v-.33l2.48-2.67v.33L60 100.39z" fill="#b19e32"/><path d="M60 100.39l2.48-2.67v-.33L60 100.06" fill="none" stroke="#dfc423" stroke-width=".25" stroke-miterlimit="10"/><path d="M58.84 100.06l2.48-2.67h1.16L60 100.06h-1.16z" fill="#feea00"/><path d="M58.84 100.06l2.48-2.67h1.16" fill="none" stroke="#dfc423" stroke-width=".25" stroke-miterlimit="10"/><path d="M58.84 100.81v-.75H60v.75" fill="#dfc423" stroke="#dfc423" stroke-width=".25" stroke-miterlimit="10"/><path d="M56.36 103.39l2.48-2.67H60l-2.48 2.67h-1.16z" fill="#feea00"/><path d="M56.36 103.39l2.48-2.67H60" fill="none" stroke="#dfc423" stroke-width=".25" stroke-miterlimit="10"/><path d="M56.36 103.39l2.48-2.67-2.48 2.67zM57.52 103.39l2.48-2.67-2.48 2.67zM56.36 103.39l2.48-2.67H60l-2.48 2.67h-1.16z" fill="#b19e32"/><path d="M56.36 103.39l2.48-2.67H60M57.52 103.39l2.48-2.67h0l-2.48 2.67M56.36 103.39h1.16" fill="none" stroke="#dfc423" stroke-width=".25" stroke-miterlimit="10"/><path d="M53.87 106.06l2.48-2.67h1.16l-2.48 2.67h-1.16z" fill="#feea00"/><path d="M53.87 106.06l2.48-2.67h1.16" fill="none" stroke="#dfc423" stroke-width=".25" stroke-miterlimit="10"/><path d="M53.87 106.06l2.48-2.67-2.48 2.67zM55.03 106.06l2.48-2.67-2.48 2.67zM53.87 106.06l2.48-2.67h1.16l-2.48 2.67h-1.16z" fill="#b19e32"/><path d="M53.87 106.06l2.48-2.67h1.16M55.03 106.06l2.48-2.67h0l-2.48 2.67M53.87 106.06h1.16" fill="none" stroke="#dfc423" stroke-width=".25" stroke-miterlimit="10"/><path d="M51.56 109.06l2.48-2.67h1.16l-2.48 2.67h-1.16z" fill="#feea00"/><path d="M51.56 109.06l2.48-2.67h1.16" fill="none" stroke="#dfc423" stroke-width=".25" stroke-miterlimit="10"/><path d="M51.56 109.06l2.48-2.67-2.48 2.67zM52.71 109.06l2.48-2.67-2.48 2.67zM51.56 109.06l2.48-2.67h1.16l-2.48 2.67h-1.16z" fill="#b19e32"/><path d="M51.56 109.06l2.48-2.67h1.16" fill="none" stroke="#dfc423" stroke-width=".25" stroke-miterlimit="10"/><path d="M52.71 109.06l2.48-2.67h0l-2.48 2.67" fill="none" stroke="#dfc423" stroke-width=".25" stroke-linecap="round" stroke-miterlimit="10"/><path d="M51.56 109.06h1.16" fill="none" stroke="#dfc423" stroke-width=".25" stroke-miterlimit="10"/><path d="M49.07 111.72l2.48-2.67h1.16l-2.48 2.67h-1.16z" fill="#feea00"/><path d="M49.07 111.72l2.48-2.67h1.16" fill="none" stroke="#dfc423" stroke-width=".25" stroke-miterlimit="10"/><path d="M49.07 111.72l2.48-2.67-2.48 2.67zM50.23 111.72l2.48-2.67-2.48 2.67zM49.07 111.72l2.48-2.67h1.16l-2.48 2.67h-1.16z" fill="#b19e32"/><path d="M49.07 111.72l2.48-2.67h1.16M50.23 111.72l2.48-2.67h0l-2.48 2.67M49.02 111.91h1.29" fill="none" stroke="#dfc423" stroke-width=".25" stroke-miterlimit="10"/><path d="M46.59 114.72l2.48-2.67h1.16l-2.48 2.67h-1.16z" fill="#feea00"/><path d="M46.59 114.72l2.48-2.67h1.16" fill="none" stroke="#dfc423" stroke-width=".25" stroke-miterlimit="10"/><path d="M46.59 114.72l2.48-2.67-2.48 2.67zM47.75 114.72l2.48-2.67-2.48 2.67zM46.59 114.72l2.48-2.67h1.16l-2.48 2.67h-1.16z" fill="#b19e32"/><path d="M46.59 114.72l2.48-2.67h1.16" fill="none" stroke="#dfc423" stroke-width=".25" stroke-linecap="round" stroke-miterlimit="10"/><path d="M47.75 114.72l2.48-2.67h0l-2.48 2.67M46.59 114.72h1.16" fill="none" stroke="#dfc423" stroke-width=".25" stroke-miterlimit="10"/><path d="M44.1 117.39l2.48-2.67h1.16l-2.48 2.67H44.1z" fill="#feea00"/><path d="M44.1 117.39l2.48-2.67h1.16" fill="none" stroke="#dfc423" stroke-width=".25" stroke-miterlimit="10"/><path d="M44.1 117.39l2.48-2.67-2.48 2.67zM45.26 117.39l2.48-2.67-2.48 2.67zM44.1 117.39l2.48-2.67h1.16l-2.48 2.67H44.1z" fill="#b19e32"/><path d="M44.1 117.39l2.48-2.67h1.16M45.26 117.39l2.48-2.67h0l-2.48 2.67" fill="none" stroke="#dfc423" stroke-width=".25" stroke-miterlimit="10"/><path d="M44.1 117.39h1.16" fill="none" stroke="#dfc423" stroke-width=".25" stroke-linecap="round" stroke-miterlimit="10"/><path d="M47.75 114.72l2.48-2.67M45.26 117.39l2.48-2.67-2.48 2.67z" fill="none"/><rect x="69.53" y="87.95" width=".57" height=".33" fill="#fff"/><path d="M53.92 106.48v-.38h1.19v.38" fill="#dfc423" stroke="#dfc423" stroke-width=".25" stroke-miterlimit="10"/><line x1="44.11" y1="117.39" x2="45.26" y2="117.39" fill="none" stroke="#dfc423" stroke-width=".25" stroke-linecap="round" stroke-miterlimit="10"/><g><line x1="44.89" y1="120.33" x2="44.89" y2="118.2" fill="none" stroke="#6d6e71" stroke-width=".5" stroke-miterlimit="10"/><rect x="35.65" y="123.54" width="19.21" height="4.92" fill="none"/><text transform="translate(35.654 128.054)" fill="#231f20" font-family="Asap-Regular" font-size="6">Liberia</text></g></g><g><path d="M307.33 92.06V19.07l2.48-2.67v72.99l-2.48 2.67z" fill="#176734"/><path d="M306.17 19.07l2.48-2.67h1.16l-2.48 2.67h-1.16z" fill="#139a48"/><path d="M306.17 92.06V19.07h1.16v72.99h-1.16z" fill="#0f8140" stroke="#0f8140" stroke-width=".25" stroke-miterlimit="10"/><path d="M304.85 94.73v-42l2.48-2.67v41.99l-2.48 2.68z" fill="#176734"/><path d="M303.69 52.73l2.48-2.67h1.16l-2.48 2.67h-1.16z" fill="#139a48"/><path d="M303.69 94.73v-42h1.16v41.99h-1.16z" fill="#0f8140" stroke="#0f8140" stroke-width=".25" stroke-miterlimit="10"/><path d="M302.36 97.73V65.07l2.48-2.67v32.66l-2.48 2.67z" fill="#176734"/><path d="M301.2 65.07l2.48-2.67h1.16l-2.48 2.67h-1.16z" fill="#139a48"/><path d="M301.2 97.73V65.07h1.16v32.66h-1.16z" fill="#0f8140" stroke="#0f8140" stroke-width=".25" stroke-miterlimit="10"/><path d="M300.05 100.39V73.73l2.48-2.67v26.66l-2.48 2.67z" fill="#176734"/><path d="M298.89 73.73l2.48-2.67h1.16l-2.48 2.67h-1.16z" fill="#139a48"/><path d="M298.89 100.39V73.73h1.16v26.66h-1.16z" fill="#0f8140" stroke="#0f8140" stroke-width=".25" stroke-miterlimit="10"/><path d="M297.56 103.39V81.06l2.48-2.67v22.33l-2.48 2.67z" fill="#176734"/><path d="M296.4 81.06l2.48-2.67h1.16l-2.48 2.67h-1.16z" fill="#139a48"/><path d="M296.4 103.39V81.06h1.16v22.33h-1.16z" fill="#0f8140" stroke="#0f8140" stroke-width=".25" stroke-miterlimit="10"/><path d="M295.08 106.06V87.39l2.48-2.67v18.66l-2.48 2.68z" fill="#176734"/><path d="M293.92 87.39l2.48-2.67h1.16l-2.48 2.67h-1.16z" fill="#139a48"/><path d="M293.92 106.06V87.39h1.16v18.66h-1.16z" fill="#0f8140" stroke="#0f8140" stroke-width=".25" stroke-miterlimit="10"/><path d="M292.76 109.06V93.73l2.48-2.67v15.33l-2.48 2.67z" fill="#176734"/><path d="M291.6 93.73l2.48-2.67h1.16l-2.48 2.67h-1.16z" fill="#139a48"/><path d="M291.6 109.06V93.73h1.16v15.33h-1.16z" fill="#0f8140" stroke="#0f8140" stroke-width=".25" stroke-miterlimit="10"/><path d="M290.27 111.72v-11.66l2.48-2.67v11.66l-2.48 2.67z" fill="#176734"/><path d="M289.11 100.06l2.48-2.67h1.16l-2.48 2.67h-1.16z" fill="#139a48"/><path d="M289.11 111.72v-11.66h1.16v11.66h-1.16z" fill="#0f8140" stroke="#0f8140" stroke-width=".25" stroke-miterlimit="10"/><path d="M287.79 114.72v-8.33l2.48-2.67v8.33l-2.48 2.67z" fill="#176734"/><path d="M286.63 106.39l2.48-2.67h1.16l-2.48 2.67h-1.16z" fill="#139a48"/><path d="M286.63 114.72v-8.33h1.16v8.33h-1.16z" fill="#0f8140" stroke="#0f8140" stroke-width=".25" stroke-miterlimit="10"/><path d="M285.3 117.39v-4l2.48-2.67v4l-2.48 2.67z" fill="#176734"/><path d="M284.14 113.39l2.48-2.67h1.16l-2.48 2.67h-1.16z" fill="#139a48"/><path d="M284.14 117.39v-4h1.16v4h-1.16z" fill="#0f8140" stroke="#0f8140" stroke-width=".25" stroke-miterlimit="10"/><g><line x1="285.1" y1="119.58" x2="285.1" y2="117.45" fill="none" stroke="#6d6e71" stroke-width=".5" stroke-miterlimit="10"/><rect x="273.13" y="123.54" width="28.49" height="4.92" fill="none"/><text transform="translate(273.132 128.054)" fill="#231f20" font-family="Asap-Regular" font-size="6">Singapore</text></g></g></svg>