<?xml version="1.0" encoding="utf-8"?>
<!-- Generator: Adobe Illustrator 25.2.3, SVG Export Plug-In . SVG Version: 6.00 Build 0)  -->
<svg version="1.1" xmlns="http://www.w3.org/2000/svg" xmlns:xlink="http://www.w3.org/1999/xlink" x="0px" y="0px"
	 viewBox="0 0 311.81 154.02" style="enable-background:new 0 0 311.81 154.02;" xml:space="preserve">
<g id="Base">
	<path style="fill:none;stroke:#6D6E71;stroke-width:0.5;stroke-miterlimit:10;" d="M44.1,117.39l24.35-28.33"/>
	<line style="fill:none;stroke:#6D6E71;stroke-width:0.5;stroke-miterlimit:10;" x1="68.45" y1="89.06" x2="309.82" y2="89.06"/>
</g>
<g id="Grid">
	<path style="fill:none;stroke:#6D6E71;stroke-width:0.5;stroke-miterlimit:10;" d="M44.1,117.42h242.36"/>
	<path style="fill:none;stroke:#6D6E71;stroke-width:0.5;stroke-miterlimit:10;" d="M41.97,95.82h2.13"/>
	<path style="fill:none;stroke:#6D6E71;stroke-width:0.5;stroke-miterlimit:10;" d="M41.97,117.4h2.13"/>
	<path style="fill:none;stroke:#BCBEC0;stroke-width:0.5;stroke-miterlimit:10;" d="M44.1,95.82l24.35-28.35h241.37"/>
	<path style="fill:none;stroke:#6D6E71;stroke-width:0.5;stroke-miterlimit:10;" d="M41.97,74.14h2.13"/>
	<path style="fill:none;stroke:#BCBEC0;stroke-width:0.5;stroke-miterlimit:10;" d="M44.1,74.14l24.35-28.35h241.37"/>
	<path style="fill:none;stroke:#6D6E71;stroke-width:0.5;stroke-miterlimit:10;" d="M41.97,52.46h2.13"/>
	<path style="fill:none;stroke:#BCBEC0;stroke-width:0.5;stroke-miterlimit:10;" d="M44.1,52.46l24.35-28.35h241.37"/>
	<path style="fill:none;stroke:#6D6E71;stroke-width:0.5;stroke-miterlimit:10;" d="M41.97,30.78h2.13"/>
	<path style="fill:none;stroke:#6D6E71;stroke-width:0.5;stroke-miterlimit:10;" d="M44.1,30.78v86.72"/>
	
		<line style="fill:none;stroke:#6D6E71;stroke-width:0.5;stroke-linecap:round;stroke-miterlimit:10;" x1="285.47" y1="117.5" x2="309.82" y2="89.48"/>
	<path style="fill:none;stroke:#6D6E71;stroke-width:0.5;stroke-linecap:round;stroke-miterlimit:10;" d="M309.82,89.29
		c0,0.11,0,0.19,0,0.19S309.82,89.39,309.82,89.29s0-0.19,0-0.19S309.82,89.18,309.82,89.29z"/>
	<path style="fill:none;stroke:#6D6E71;stroke-width:0.5;stroke-miterlimit:10;" d="M68.45,2.43v86.63h241.37
		c0,0,0.21-86.63,0-86.63"/>
	<path style="fill:none;stroke:#BCBEC0;stroke-width:0.5;stroke-miterlimit:10;" d="M68.45,2.43L44.1,30.78"/>
	<path style="fill:none;stroke:#BCBEC0;stroke-width:0.5;stroke-miterlimit:10;" d="M309.82,2.43H68.45"/>
</g>
<g id="Grid_text">
	<rect x="15.02" y="114.8" style="fill:none;" width="25.94" height="5.39"/>
	<text transform="matrix(1 0 0 1 37.2138 120.064)" style="fill:#231F20; font-family:'Asap-Regular'; font-size:7px;">0</text>
	<rect x="14.2" y="93.03" style="fill:none;" width="26.76" height="5.57"/>
	<text transform="matrix(1 0 0 1 20.848 98.2974)" style="fill:#231F20; font-family:'Asap-Regular'; font-size:7px;">20,000</text>
	<rect x="15.02" y="71.33" style="fill:none;" width="25.94" height="5.6"/>
	<text transform="matrix(1 0 0 1 20.848 76.5984)" style="fill:#231F20; font-family:'Asap-Regular'; font-size:7px;">40,000</text>
	<rect x="15.02" y="49.75" style="fill:none;" width="25.94" height="5.42"/>
	<text transform="matrix(1 0 0 1 20.848 55.0097)" style="fill:#231F20; font-family:'Asap-Regular'; font-size:7px;">60,000</text>
	<rect x="15.02" y="28.04" style="fill:none;" width="25.94" height="5.44"/>
	<text transform="matrix(1 0 0 1 20.848 33.3058)" style="fill:#231F20; font-family:'Asap-Regular'; font-size:7px;">80,000</text>
</g>
<g id="_x31_980_labels">
</g>
<g id="_x31_980_country_labels">
</g>
<g id="_x31_980">
</g>
<g id="_x31_990_country_labels">
</g>
<g id="_x31_990_labels">
</g>
<g id="_x31_990">
</g>
<g id="_x32_014_labels">
	<rect x="102.08" y="146.25" style="fill:none;" width="125.98" height="7.77"/>
	<text transform="matrix(1 0 0 1 156.5136 152.2743)" style="fill:#231F20; font-family:'Asap-Medium'; font-size:8px;">2014</text>
	<rect x="43.86" y="146.25" style="fill:none;" width="66.5" height="7.77"/>
	<text transform="matrix(1 0 0 1 43.8622 152.2743)" style="fill:#231F20; font-family:'Asap-Medium'; font-size:8px;">Poorer countries</text>
	<rect x="2.28" y="9.1" style="fill:none;" width="7.77" height="108.4"/>
	<text transform="matrix(0 -1 1 0 8.2991 112.485)" style="fill:#231F20; font-family:'Asap-Medium'; font-size:8px;">Annual income (2005 $ PPP)</text>
	<rect x="219.7" y="146.25" style="fill:none;" width="65.4" height="7.77"/>
	<text transform="matrix(1 0 0 1 227.8017 152.2743)" style="fill:#231F20; font-family:'Asap-Medium'; font-size:8px;">Richer countries</text>
</g>
<g id="_x32_014_country_labels">
</g>
<g id="_x32_014">
</g>
<g id="_x32_014_poorest">
</g>
<g id="_x32_014_richest_in_all">
</g>
<g id="_x32_014_richest">
</g>
<g id="_x32_014_Liberia">
	<g transform="translate(0.5 0.5)">
		<path style="fill:none;stroke:#000000;stroke-width:0.25;stroke-miterlimit:10;" d="M43.6,116.89h0.99"/>
		<path style="fill:#B19E32;" d="M65.63,91.56l2.48-2.67h1.16l-2.48,2.67H65.63z"/>
		<path style="fill:none;stroke:#DFC423;stroke-width:0.25;stroke-miterlimit:10;" d="M65.63,91.56l2.48-2.67h1.16"/>
		<path style="fill:#B19E32;" d="M68.12,88.89v-1h1.16v1H68.12z"/>
		<path style="fill:none;stroke:#DFC423;stroke-width:0.25;stroke-miterlimit:10;" d="M68.12,88.89v-1"/>
		<path style="fill:#B19E32;" d="M65.63,91.56v-1l2.48-2.67v1L65.63,91.56z"/>
		<path style="fill:#B19E32;" d="M66.79,91.56v-1l2.48-2.67v1L66.79,91.56z"/>
		<path style="fill:none;stroke:#DFC423;stroke-width:0.25;stroke-miterlimit:10;" d="M66.79,91.56l2.48-2.67v-1l-2.48,2.67"/>
		<path style="fill:#FEEA00;" d="M65.63,90.56l2.48-2.67h1.16l-2.48,2.67H65.63z"/>
		<path style="fill:none;stroke:#DFC423;stroke-width:0.25;stroke-miterlimit:10;" d="M65.63,90.56l2.48-2.67h1.16"/>
		<path style="fill:#DFC423;stroke:#DFC423;stroke-width:0.25;stroke-miterlimit:10;" d="M65.63,91.56v-1h1.16v1H65.63z"/>
		<path style="fill:#B19E32;" d="M63.15,94.23l2.48-2.67h1.16l-2.48,2.67H63.15z"/>
		<path style="fill:none;stroke:#DFC423;stroke-width:0.25;stroke-miterlimit:10;" d="M63.15,94.23l2.48-2.67h1.16"/>
		<path style="fill:#B19E32;" d="M65.63,91.56v-0.33h1.16v0.33H65.63z"/>
		<path style="fill:none;stroke:#DFC423;stroke-width:0.25;stroke-miterlimit:10;" d="M65.63,91.56v-0.33"/>
		<path style="fill:#B19E32;" d="M63.15,94.23v-0.33l2.48-2.67v0.33L63.15,94.23z"/>
		<path style="fill:#B19E32;" d="M64.31,94.23v-0.33l2.48-2.67v0.33L64.31,94.23z"/>
		<path style="fill:none;stroke:#DFC423;stroke-width:0.25;stroke-miterlimit:10;" d="M64.31,94.23l2.48-2.67v-0.33l-2.48,2.67"/>
		<path style="fill:#FEEA00;" d="M63.15,93.89l2.48-2.67h1.16l-2.48,2.67H63.15z"/>
		<path style="fill:none;stroke:#DFC423;stroke-width:0.25;stroke-miterlimit:10;" d="M63.15,93.89l2.48-2.67h1.16"/>
		<path style="fill:#DFC423;stroke:#DFC423;stroke-width:0.25;stroke-miterlimit:10;" d="M63.15,94.23v-0.33h1.16v0.33H63.15z"/>
		<path style="fill:#B19E32;" d="M60.66,97.23l2.48-2.67h1.16l-2.48,2.67H60.66z"/>
		<path style="fill:none;stroke:#DFC423;stroke-width:0.25;stroke-miterlimit:10;" d="M60.66,97.23l2.48-2.67h1.16"/>
		<path style="fill:#B19E32;" d="M63.15,94.56v-0.33h1.16v0.33H63.15z"/>
		<path style="fill:none;stroke:#DFC423;stroke-width:0.25;stroke-miterlimit:10;" d="M63.15,94.56v-0.33"/>
		<path style="fill:#B19E32;" d="M60.66,97.23v-0.33l2.48-2.67v0.33L60.66,97.23z"/>
		<path style="fill:#B19E32;" d="M61.82,97.23v-0.33l2.48-2.67v0.33L61.82,97.23z"/>
		<path style="fill:none;stroke:#DFC423;stroke-width:0.25;stroke-miterlimit:10;" d="M61.82,97.23l2.48-2.67v-0.33l-2.48,2.67"/>
		<path style="fill:#FEEA00;" d="M60.66,96.89l2.48-2.67h1.16l-2.48,2.67H60.66z"/>
		<path style="fill:none;stroke:#DFC423;stroke-width:0.25;stroke-miterlimit:10;" d="M60.66,96.89l2.48-2.67h1.16"/>
		<path style="fill:#DFC423;stroke:#DFC423;stroke-width:0.25;stroke-miterlimit:10;" d="M60.66,97.23v-0.33h1.16v0.33H60.66z"/>
		<path style="fill:#B19E32;" d="M58.34,99.89l2.48-2.67h1.16l-2.48,2.67H58.34z"/>
		<path style="fill:none;stroke:#DFC423;stroke-width:0.25;stroke-miterlimit:10;" d="M58.34,99.89l2.48-2.67h1.16"/>
		<path style="fill:#B19E32;" d="M60.83,97.23v-0.33h1.16v0.33H60.83z"/>
		<path style="fill:none;stroke:#DFC423;stroke-width:0.25;stroke-miterlimit:10;" d="M60.83,97.23v-0.33"/>
		<path style="fill:#B19E32;" d="M58.34,99.89v-0.33l2.48-2.67v0.33L58.34,99.89z"/>
		<path style="fill:#B19E32;" d="M59.5,99.89v-0.33l2.48-2.67v0.33L59.5,99.89z"/>
		<path style="fill:none;stroke:#DFC423;stroke-width:0.25;stroke-miterlimit:10;" d="M59.5,99.89l2.48-2.67v-0.33l-2.48,2.67"/>
		<path style="fill:#FEEA00;" d="M58.34,99.56l2.48-2.67h1.16l-2.48,2.67H58.34z"/>
		<path style="fill:none;stroke:#DFC423;stroke-width:0.25;stroke-miterlimit:10;" d="M58.34,99.56l2.48-2.67h1.16"/>
		<path style="fill:#DFC423;stroke:#DFC423;stroke-width:0.25;stroke-miterlimit:10;" d="M58.34,100.31v-0.75h1.16v0.75"/>
		<path style="fill:#FEEA00;" d="M55.86,102.89l2.48-2.67h1.16l-2.48,2.67H55.86z"/>
		<path style="fill:none;stroke:#DFC423;stroke-width:0.25;stroke-miterlimit:10;" d="M55.86,102.89l2.48-2.67h1.16"/>
		<path style="fill:#B19E32;" d="M55.86,102.89L55.86,102.89l2.48-2.67l0,0L55.86,102.89z"/>
		<path style="fill:#B19E32;" d="M57.02,102.89L57.02,102.89l2.48-2.67l0,0L57.02,102.89z"/>
		<path style="fill:#B19E32;" d="M55.86,102.89l2.48-2.67h1.16l-2.48,2.67H55.86z"/>
		<path style="fill:none;stroke:#DFC423;stroke-width:0.25;stroke-miterlimit:10;" d="M55.86,102.89l2.48-2.67h1.16"/>
		<path style="fill:none;stroke:#DFC423;stroke-width:0.25;stroke-miterlimit:10;" d="M57.02,102.89l2.48-2.67l0,0L57.02,102.89"/>
		<path style="fill:none;stroke:#DFC423;stroke-width:0.25;stroke-miterlimit:10;" d="M55.86,102.89h1.16"/>
		<path style="fill:#FEEA00;" d="M53.37,105.56l2.48-2.67h1.16l-2.48,2.67H53.37z"/>
		<path style="fill:none;stroke:#DFC423;stroke-width:0.25;stroke-miterlimit:10;" d="M53.37,105.56l2.48-2.67h1.16"/>
		<path style="fill:#B19E32;" d="M53.37,105.56L53.37,105.56l2.48-2.67l0,0L53.37,105.56z"/>
		<path style="fill:#B19E32;" d="M54.53,105.56L54.53,105.56l2.48-2.67l0,0L54.53,105.56z"/>
		<path style="fill:#B19E32;" d="M53.37,105.56l2.48-2.67h1.16l-2.48,2.67H53.37z"/>
		<path style="fill:none;stroke:#DFC423;stroke-width:0.25;stroke-miterlimit:10;" d="M53.37,105.56l2.48-2.67h1.16"/>
		<path style="fill:none;stroke:#DFC423;stroke-width:0.25;stroke-miterlimit:10;" d="M54.53,105.56l2.48-2.67l0,0L54.53,105.56"/>
		<path style="fill:none;stroke:#DFC423;stroke-width:0.25;stroke-miterlimit:10;" d="M53.37,105.56h1.16"/>
		<path style="fill:#FEEA00;" d="M51.06,108.56l2.48-2.67h1.16l-2.48,2.67H51.06z"/>
		<path style="fill:none;stroke:#DFC423;stroke-width:0.25;stroke-miterlimit:10;" d="M51.06,108.56l2.48-2.67h1.16"/>
		<path style="fill:#B19E32;" d="M51.06,108.56L51.06,108.56l2.48-2.67l0,0L51.06,108.56z"/>
		<path style="fill:#B19E32;" d="M52.21,108.56L52.21,108.56l2.48-2.67l0,0L52.21,108.56z"/>
		<path style="fill:#B19E32;" d="M51.06,108.56l2.48-2.67h1.16l-2.48,2.67H51.06z"/>
		<path style="fill:none;stroke:#DFC423;stroke-width:0.25;stroke-miterlimit:10;" d="M51.06,108.56l2.48-2.67h1.16"/>
		<path style="fill:none;stroke:#DFC423;stroke-width:0.25;stroke-linecap:round;stroke-miterlimit:10;" d="M52.21,108.56l2.48-2.67
			l0,0L52.21,108.56"/>
		<path style="fill:none;stroke:#DFC423;stroke-width:0.25;stroke-miterlimit:10;" d="M51.06,108.56h1.16"/>
		<path style="fill:#FEEA00;" d="M48.57,111.22l2.48-2.67h1.16l-2.48,2.67H48.57z"/>
		<path style="fill:none;stroke:#DFC423;stroke-width:0.25;stroke-miterlimit:10;" d="M48.57,111.22l2.48-2.67h1.16"/>
		<path style="fill:#B19E32;" d="M48.57,111.22L48.57,111.22l2.48-2.67l0,0L48.57,111.22z"/>
		<path style="fill:#B19E32;" d="M49.73,111.22L49.73,111.22l2.48-2.67l0,0L49.73,111.22z"/>
		<path style="fill:#B19E32;" d="M48.57,111.22l2.48-2.67h1.16l-2.48,2.67H48.57z"/>
		<path style="fill:none;stroke:#DFC423;stroke-width:0.25;stroke-miterlimit:10;" d="M48.57,111.22l2.48-2.67h1.16"/>
		<path style="fill:none;stroke:#DFC423;stroke-width:0.25;stroke-miterlimit:10;" d="M49.73,111.22l2.48-2.67l0,0L49.73,111.22"/>
		<path style="fill:none;stroke:#DFC423;stroke-width:0.25;stroke-miterlimit:10;" d="M48.52,111.41h1.29"/>
		<path style="fill:#FEEA00;" d="M46.09,114.22l2.48-2.67h1.16l-2.48,2.67H46.09z"/>
		<path style="fill:none;stroke:#DFC423;stroke-width:0.25;stroke-miterlimit:10;" d="M46.09,114.22l2.48-2.67h1.16"/>
		<path style="fill:#B19E32;" d="M46.09,114.22L46.09,114.22l2.48-2.67l0,0L46.09,114.22z"/>
		<path style="fill:#B19E32;" d="M47.25,114.22L47.25,114.22l2.48-2.67l0,0L47.25,114.22z"/>
		<path style="fill:#B19E32;" d="M46.09,114.22l2.48-2.67h1.16l-2.48,2.67H46.09z"/>
		<path style="fill:none;stroke:#DFC423;stroke-width:0.25;stroke-linecap:round;stroke-miterlimit:10;" d="M46.09,114.22l2.48-2.67
			h1.16"/>
		<path style="fill:none;stroke:#DFC423;stroke-width:0.25;stroke-miterlimit:10;" d="M47.25,114.22l2.48-2.67l0,0L47.25,114.22"/>
		<path style="fill:none;stroke:#DFC423;stroke-width:0.25;stroke-miterlimit:10;" d="M46.09,114.22h1.16"/>
		<path style="fill:#FEEA00;" d="M43.6,116.89l2.48-2.67h1.16l-2.48,2.67H43.6z"/>
		<path style="fill:none;stroke:#DFC423;stroke-width:0.25;stroke-miterlimit:10;" d="M43.6,116.89l2.48-2.67h1.16"/>
		<path style="fill:#B19E32;" d="M43.6,116.89L43.6,116.89l2.48-2.67l0,0L43.6,116.89z"/>
		<path style="fill:#B19E32;" d="M44.76,116.89L44.76,116.89l2.48-2.67l0,0L44.76,116.89z"/>
		<path style="fill:#B19E32;" d="M43.6,116.89l2.48-2.67h1.16l-2.48,2.67H43.6z"/>
		<path style="fill:none;stroke:#DFC423;stroke-width:0.25;stroke-miterlimit:10;" d="M43.6,116.89l2.48-2.67h1.16"/>
		<path style="fill:none;stroke:#DFC423;stroke-width:0.25;stroke-miterlimit:10;" d="M44.76,116.89l2.48-2.67l0,0L44.76,116.89"/>
		<path style="fill:none;stroke:#DFC423;stroke-width:0.25;stroke-linecap:round;stroke-miterlimit:10;" d="M43.6,116.89h1.16"/>
		<path style="fill:none;" d="M47.25,114.22l2.48-2.67"/>
		<path style="fill:none;" d="M44.76,116.89L44.76,116.89l2.48-2.67l0,0L44.76,116.89z"/>
	</g>
	<rect x="69.53" y="87.95" style="fill:#FFFFFF;" width="0.57" height="0.33"/>
	<path style="fill:#DFC423;stroke:#DFC423;stroke-width:0.25;stroke-miterlimit:10;" d="M53.92,106.48v-0.38h1.19v0.38"/>
	
		<line style="fill:none;stroke:#DFC423;stroke-width:0.25;stroke-linecap:round;stroke-miterlimit:10;" x1="44.11" y1="117.39" x2="45.26" y2="117.39"/>
	<g id="_x32_014_Liberia_label">
		<line style="fill:none;stroke:#6D6E71;stroke-width:0.5;stroke-miterlimit:10;" x1="44.89" y1="120.33" x2="44.89" y2="118.2"/>
		<rect x="35.65" y="123.54" style="fill:none;" width="19.21" height="4.92"/>
		<text transform="matrix(1 0 0 1 35.654 128.0536)" style="fill:#231F20; font-family:'Asap-Regular'; font-size:6px;">Liberia</text>
	</g>
</g>
<g id="_x32_014_Singapore">
	<g transform="translate(0.5 0.5)">
		<path style="fill:#176734;" d="M306.83,91.56V18.57l2.48-2.67v72.99L306.83,91.56z"/>
		<path style="fill:#139A48;" d="M305.67,18.57l2.48-2.67h1.16l-2.48,2.67H305.67z"/>
		<path style="fill:#0F8140;stroke:#0F8140;stroke-width:0.25;stroke-miterlimit:10;" d="M305.67,91.56V18.57h1.16v72.99H305.67z"/>
		<path style="fill:#176734;" d="M304.35,94.23V52.23l2.48-2.67v41.99L304.35,94.23z"/>
		<path style="fill:#139A48;" d="M303.19,52.23l2.48-2.67h1.16l-2.48,2.67H303.19z"/>
		<path style="fill:#0F8140;stroke:#0F8140;stroke-width:0.25;stroke-miterlimit:10;" d="M303.19,94.23V52.23h1.16v41.99H303.19z"/>
		<path style="fill:#176734;" d="M301.86,97.23V64.57l2.48-2.67v32.66L301.86,97.23z"/>
		<path style="fill:#139A48;" d="M300.7,64.57l2.48-2.67h1.16l-2.48,2.67H300.7z"/>
		<path style="fill:#0F8140;stroke:#0F8140;stroke-width:0.25;stroke-miterlimit:10;" d="M300.7,97.23V64.57h1.16v32.66H300.7z"/>
		<path style="fill:#176734;" d="M299.55,99.89V73.23l2.48-2.67v26.66L299.55,99.89z"/>
		<path style="fill:#139A48;" d="M298.39,73.23l2.48-2.67h1.16l-2.48,2.67H298.39z"/>
		<path style="fill:#0F8140;stroke:#0F8140;stroke-width:0.25;stroke-miterlimit:10;" d="M298.39,99.89V73.23h1.16v26.66H298.39z"/>
		<path style="fill:#176734;" d="M297.06,102.89V80.56l2.48-2.67v22.33L297.06,102.89z"/>
		<path style="fill:#139A48;" d="M295.9,80.56l2.48-2.67h1.16l-2.48,2.67H295.9z"/>
		<path style="fill:#0F8140;stroke:#0F8140;stroke-width:0.25;stroke-miterlimit:10;" d="M295.9,102.89V80.56h1.16v22.33H295.9z"/>
		<path style="fill:#176734;" d="M294.58,105.56V86.89l2.48-2.67v18.66L294.58,105.56z"/>
		<path style="fill:#139A48;" d="M293.42,86.89l2.48-2.67h1.16l-2.48,2.67H293.42z"/>
		<path style="fill:#0F8140;stroke:#0F8140;stroke-width:0.25;stroke-miterlimit:10;" d="M293.42,105.56V86.89h1.16v18.66H293.42z"
			/>
		<path style="fill:#176734;" d="M292.26,108.56V93.23l2.48-2.67v15.33L292.26,108.56z"/>
		<path style="fill:#139A48;" d="M291.1,93.23l2.48-2.67h1.16l-2.48,2.67H291.1z"/>
		<path style="fill:#0F8140;stroke:#0F8140;stroke-width:0.25;stroke-miterlimit:10;" d="M291.1,108.56V93.23h1.16v15.33H291.1z"/>
		<path style="fill:#176734;" d="M289.77,111.22V99.56l2.48-2.67v11.66L289.77,111.22z"/>
		<path style="fill:#139A48;" d="M288.61,99.56l2.48-2.67h1.16l-2.48,2.67H288.61z"/>
		<path style="fill:#0F8140;stroke:#0F8140;stroke-width:0.25;stroke-miterlimit:10;" d="M288.61,111.22V99.56h1.16v11.66H288.61z"
			/>
		<path style="fill:#176734;" d="M287.29,114.22v-8.33l2.48-2.67v8.33L287.29,114.22z"/>
		<path style="fill:#139A48;" d="M286.13,105.89l2.48-2.67h1.16l-2.48,2.67H286.13z"/>
		<path style="fill:#0F8140;stroke:#0F8140;stroke-width:0.25;stroke-miterlimit:10;" d="M286.13,114.22v-8.33h1.16v8.33H286.13z"/>
		<path style="fill:#176734;" d="M284.8,116.89v-4l2.48-2.67v4L284.8,116.89z"/>
		<path style="fill:#139A48;" d="M283.64,112.89l2.48-2.67h1.16l-2.48,2.67H283.64z"/>
		<path style="fill:#0F8140;stroke:#0F8140;stroke-width:0.25;stroke-miterlimit:10;" d="M283.64,116.89v-4h1.16v4H283.64z"/>
	</g>
	<g id="_x32_014_Singapore_label">
		<line style="fill:none;stroke:#6D6E71;stroke-width:0.5;stroke-miterlimit:10;" x1="285.1" y1="119.58" x2="285.1" y2="117.45"/>
		<rect x="273.13" y="123.54" style="fill:none;" width="28.49" height="4.92"/>
		<text transform="matrix(1 0 0 1 273.1319 128.0544)" style="fill:#231F20; font-family:'Asap-Regular'; font-size:6px;">Singapore</text>
	</g>
</g>
</svg>
