<?xml version="1.0" encoding="utf-8"?>
<!-- Generator: Adobe Illustrator 28.3.0, SVG Export Plug-In . SVG Version: 6.00 Build 0)  -->
<svg version="1.1"
	 id="svg2" xmlns:dc="http://purl.org/dc/elements/1.1/" xmlns:rdf="http://www.w3.org/1999/02/22-rdf-syntax-ns#" xmlns:svg="http://www.w3.org/2000/svg" xmlns:cc="http://creativecommons.org/ns#"
	 xmlns="http://www.w3.org/2000/svg" xmlns:xlink="http://www.w3.org/1999/xlink" x="0px" y="0px" viewBox="0 0 3333.56 2584.56"
	 style="enable-background:new 0 0 3333.56 2584.56;" xml:space="preserve">
<g id="ACERRA" transform="matrix(16,0,0,16,-1000.9682,-3264.4682)">
	<path id="path7" style="fill:#F8C300;stroke:#000000;stroke-width:0.25;stroke-linejoin:round;stroke-miterlimit:64;" d="
		M205.48,230.46l0.51-3.96l0.03-0.11l0.49-0.91l0.19-0.34l0.1-0.07l2.86-0.59l1.27-0.24l0.35-0.01l0.48-0.03l0.3-0.11l0.87-0.78
		l1.92-2.16l0.9-1.04l0.39-0.54l-0.62-3.89l-1-0.06l-3.24-0.42l-0.23-0.07l-1.59,0.35l-0.11,0.28l-0.06,0.41l-0.19,0.25l-0.07,0.04
		l-0.12,0.07l-0.4,0.03l-0.48-0.06l-0.36-0.05l-0.44-0.06l-0.29-0.09l-0.27-0.12l-3.2-1.39l0.04-0.16l0.12-0.35l0.28-0.44l2.1-2.7
		l-1.82-1.51l-5.06,0.01l-0.45,0l-0.61,0.03l-0.94,0.05l-0.42,0.02l-0.44,0.03l-1.59,0.12l-0.44,0l-0.16,0l-0.76,0l-0.6,0
		l-0.68-0.05l-0.33-0.07l-0.48-0.11l-0.23-0.13l-5.25-0.02l0.03,0.18l0.04,0.21l0.1,0.23l1.4,2.44l2.03,3.58l0.78,1.41l-0.01,0.09
		l-1.08,3.28l-1.16,2.06l-1.22,0.7l-0.11,1.98l-0.02,0.43l1.18,1.28l0.28,0.3l0.3,0.2l0.22,0.15l0.86,0.53l0.42,0.23l0.13-0.01
		l0.15-0.01l0.02,0.04l0.64,1.06l0.49,1.25l0.15,0.06l1.09,2.12l0.03,0.13l-1.71,2.5l4.92,0.65l0.1,0l2.33-0.03l0.12-0.03l0.61-0.13
		l2.21-1.35l0.49-1.57l0.12-0.44l0.12-0.42l0.09-0.14l0.06-0.08l0.93,0.91L205.48,230.46L205.48,230.46z"/>
</g>
<g id="AFRAGOLA" transform="matrix(16,0,0,16,-1000.9682,-3264.4682)">
	<path id="path10" style="fill:#F8C300;stroke:#000000;stroke-width:0.25;stroke-linejoin:round;stroke-miterlimit:64;" d="
		M190.77,235.96l1.71-2.5l-0.03-0.13l-1.09-2.12l-0.15-0.06l-0.25,0.3l-0.1,0.07l-0.2,0.14l-0.22,0.14l-0.29,0.15l-0.28,0.1
		l-0.11-0.1l-0.09-0.19l-0.35-1.28l-0.02-0.14l-0.01-0.17l0-0.25l0.01-0.17l0.08-0.04l0.21,0.03l0.27,0.09l-0.07-0.24l-0.16-0.33
		l-0.12-0.16l-0.98-0.89l-0.14-0.07l-0.78-0.18l-1.06-0.04l-5.4,0.07l-0.74,1.02l-0.61,0.95l-0.05-0.01l-0.09-0.02l-0.72-0.2
		l-0.31-0.15l-0.96-1.04l0.05,0.07l0.09,0.14l0.05,0.08l0.08,0.23l0.4,1.43l-0.41,0.58l-0.86,1.22l-0.69,1.27l-0.04,0.54l0.06,1.29
		l2.22,5.11l1.88,1.95l1.05,0.71l0.65-0.36l0.38-0.25l0.53-0.21l0.1-0.01l0.08-0.01l0.08,0l0.08,0l0.05,0l0.03,0l0.01,0l0.02,0.01
		l0.46,0.68l0.25,0.4l0.08,0.26l0.26,0.9l0.93-0.7l0.5-2.37l-0.09-0.2l-0.12-0.25l-0.05-0.1l-0.05-0.96l0.58-1.14l0.44-0.58
		l1.42-1.63l0.05-0.03l0.62-0.23l0.97-0.33l0.15-0.04l0.01,0l0.37-0.06l0.29-0.04L190.77,235.96L190.77,235.96L190.77,235.96z"/>
</g>
<g id="AGEROLA" transform="matrix(16,0,0,16,-1000.9682,-3264.4682)">
	<path id="path13" style="fill:#F8C300;stroke:#000000;stroke-width:0.25;stroke-linejoin:round;stroke-miterlimit:64;" d="
		M243.85,326.13l-0.12-0.2l-1.28-2.2l-0.42-0.73l-0.29-0.54l-0.01-0.94l-1.48,0.41l-0.28,0.11l-2.81,1.62l-5.29,3.42l-0.84,0.69
		l-0.32,0.35l-0.21,0.27l-0.41,0.58l0.3,0.09l0.08,0.12l0.01,0.02l0.37,1.71l-0.14,0.39l-0.16,0.25l-0.15,0.18l-0.23,0.54
		l-0.06,0.18l0.14,1.36l0.02,0.17l0.01,0.09l0.16,0.45l1.72,2.37l0.06,0.05l1.64,0.37l0.1-0.04l0.55-0.32l0.63-0.59l2.09-0.19
		l0.98,0.64l0.51,0.24l0.27,0.06l1.96-0.71l0.45-0.54l0.65-1.13l1.03,0.95l0.84,0.58l0.38,0.15l0.54,0.06l0.24,0l0.44-0.09
		l1.58-1.26l0.37-0.75l0.15-0.33l0.45-1.01l0.08-0.88l0.01-0.21l-0.39-0.12l-0.35-0.01l-0.53-0.18l-0.72-0.52l-0.26-0.27l-0.33-0.62
		l-0.03-0.29l0.02-0.29l0.04-0.49l0.06-0.12l0.11-0.14l0.25-0.27l0.04-0.09l0.03-0.1l0.03-0.15l0.01-0.07l-0.01-0.18l-0.5-0.63
		l-0.11-0.08l-0.72-0.49l-0.18,0.01l-0.18,0.02L243.85,326.13L243.85,326.13z"/>
	<path id="path15" style="fill:#F8C300;stroke:#000000;stroke-width:0.25;stroke-linejoin:round;stroke-miterlimit:64;" d="
		M238.57,321.49l1.21-0.42l0.46-0.2l0.2-0.09l0.18-0.09l-0.15-0.11l-0.68-0.3l-0.41-0.03l-1.98-0.15l-0.18,0.11l0.03,0.18l0.09,0.17
		l0.62,0.73l0.14,0.13l0.19,0.07L238.57,321.49L238.57,321.49z"/>
</g>
<g id="ANACAPRI" transform="matrix(16,0,0,16,-1000.9682,-3264.4682)">
	<path id="path56" style="fill:#F8C300;stroke:#000000;stroke-width:0.25;stroke-linejoin:round;stroke-miterlimit:64;" d="
		M159.29,363.85l0.34-2.89l-0.11-0.22l-1-2l-0.63-0.41l-0.33-0.21l-1.75-0.73l-0.26-0.09l-0.63-0.22l-0.22-0.05l-0.35,0.02
		l-2.83,0.26l-0.07,0.01l-0.13,0.05l-0.06,0.06l-0.09,0.1l-0.17,0.23l-0.07,0.15l-0.35,3.33l0.29,4.23l1.18-0.2l1.35-0.32l5.68-1.14
		L159.29,363.85L159.29,363.85z"/>
</g>
<g id="ARZANO" transform="matrix(16,0,0,16,-1000.9682,-3264.4682)">
	<path id="path89" style="fill:#F8C300;stroke:#000000;stroke-width:0.25;stroke-linejoin:round;stroke-miterlimit:64;" d="
		M171.88,241.95l0.51-3.89l-0.16-0.02l-0.01,0l-0.02-0.01l-0.09-0.03l-0.07-0.04l-0.01-0.01l-0.03-0.03l-0.01-0.01l-0.35-0.34
		l-0.19-0.36l-0.14-0.72l-0.01-0.24l-0.01-0.13l-0.74-0.65l-0.66-0.18l-1.62,0.39l-2.34,0.97l-1.54,2.01l-0.55,1.22l-0.02,0.13
		l-0.01,0.1l0.5,0.77l3.38,2.32l0.3,0.03l1.02-0.31L171.88,241.95L171.88,241.95z"/>
</g>
<g id="BACOLI" transform="matrix(16,0,0,16,-1000.9682,-3264.4682)">
	<path id="path116" style="fill:#F8C300;stroke:#000000;stroke-width:0.25;stroke-linejoin:round;stroke-miterlimit:64;" d="
		M111.82,273.49l0.48,0.13l1.03,0.58l0.19,0.14l1.32,1.03l0.2,0.2l0.16,0.19l1.94,2.52l0.29,0.58l0.1,0.22l0.01,0.09l0.01,0.1
		l0,0.24l0,0.16l-0.55,1.36l0.17,0.01l1.01,0.05l1.97,0.36l0.14,0.04l0.72,0.29l0.39,0.17l0.18,0.1l0.11,0.08l0.14,0.13l0.08,0.1
		l0.02,0.07l-0.1,0.1l-0.05,0.05l-0.04,0.07l-0.06,0.13l-0.02,0.07l-0.05,0.22l0.02,0.1l0.87,1l0.52,0.41l0.24,0.13l0.04-0.04
		l0.03-0.05l0.1-0.25l0.02-0.25l0.04-1.3l-0.06-0.28l-0.04-0.13l-0.03-0.05l-0.04-0.06l-0.42-0.45l-0.7-0.38l-0.15-1.99l0.37-0.71
		l-0.24-0.09l-0.07-0.03l-0.84-1.38l-0.04-0.15l-0.03-0.12l-0.01-0.09l0-0.48l0.13-1.07l0.02-2.05l-0.09-0.15l-0.4-0.16l-1.02-0.48
		l-0.99-0.82l-0.02-0.02l-0.04-0.1l-0.04-0.25l-0.01-0.29l0-0.1l0.05-0.17l0.02-0.06l0.12-0.26l0.36-0.52l0.94-1.18l-1.18-1.74
		l-1.11-0.72l-0.1-0.07l-0.01-0.33l0-0.35l0.2-1.32l-0.2-2l-0.09-0.04l-0.17-0.08l-0.1-0.04l-0.27-0.11l-0.06-0.02l-0.25-0.08
		l-0.14,0.02l-0.09,0.01l-2.64,0.32l-1.43-0.04l0.04,0.13l0.01,0.14l0.06,2.5l0.01,0.61l-0.01,0.91l-0.04,1.56l-0.01,0.25
		l-0.04,0.74l-0.32,3.13l-0.03,0.21l-0.04,0.2L111.82,273.49L111.82,273.49z"/>
</g>
<g id="BARANO_D-ISCHIA" transform="matrix(16,0,0,16,-1000.9682,-3264.4682)">
	<path id="path130" style="fill:#F8C300;stroke:#000000;stroke-width:0.25;stroke-linejoin:round;stroke-miterlimit:64;" d="
		M74.25,310.76l0.06-0.06l0.41-0.31l0.4-0.1l0.45-0.07l0.25-0.03l0.24-0.02l0.33,0l0.87,0.11l0.37,0.09l1.32,0.46l0.12,0.05
		l4.15-1.37l0.2-0.17l0.16-0.12l0.73-0.43l0.15-0.07l0.7-0.16l0.15-0.01l0.17,0.04l1.96,0.49l1,1.12l0.19,0.32l0.19,0.05l0.05-0.05
		l0.29-0.37l0.07-0.11l0.09-0.81l-0.04-0.15l-0.12-0.27l-0.07-0.13l-0.25-0.34l-0.46-0.03l-1.66-0.15l-1.69-2.07l-0.96-3.38
		l-0.66-3.61l-1.4-1.61l-0.71,0.76l-3.22,2.61l-0.18,0.13l-1.35-0.25l-0.14,1.51l-0.02,3.97l0.09,2l-1.61,1.44l-0.61,0.95
		L74.25,310.76L74.25,310.76z"/>
</g>
<g id="BOSCOREALE" transform="matrix(16,0,0,16,-1000.9682,-3264.4682)">
	<path id="path163" style="fill:#F8C300;stroke:#000000;stroke-width:0.25;stroke-linejoin:round;stroke-miterlimit:64;" d="
		M218.37,289.6l2.51,2.16l0.32-0.25l0.72-0.62l0.36-0.31l0.35-0.5l0.21-0.43l0.04-0.05l0.25-0.34l0.35-0.29l0.66-0.42l0.41-0.25
		l0.71-0.35l0.18-0.09l0.15-0.07l0.05-0.02l0.28-0.13l0.01,0l0.12-0.05l0.01-0.01l0.03-0.01l0.13-0.05l0.16-0.06l0.09-0.02
		l0.55-0.05l1.21-0.07l0.1,0l1.2,0.24l-0.11-0.5l0.04-0.75l3.83-1.62l3.28-0.23l2.51,0.11l0.35-0.87l0.5-1.24l0.67-1.68l-0.94-0.32
		l-2.61,0.42l-2.29-0.21l-0.14-0.07l0.03-0.29l0.06-0.29l0.06-0.19l0.05-0.15l-0.02-0.29l-0.2-0.26l-0.2-0.21l-0.97-0.91l-0.07-0.05
		l-0.43-0.33l-2.17,1.49l-0.29,0.26l-0.67,0.61l-0.97,1.27l-0.21,0.57l-0.28,0.82l0,0.01l-0.13,0.46l-0.07,0.28l-0.04,0.15
		l-0.09,0.26l-0.56,1.2l-0.33,0.11l-1.11,0.23l-0.13,0.03l-0.18,0.04l-1.07,0.19l-0.31,0.04l-0.04,0l-0.03-0.01l-0.11-0.03l-0.6-0.4
		l-0.02-0.02l-2.54-2.49l-0.14-0.26l-0.53-0.68l-0.23-0.1l-0.04-0.02l-0.92-0.31l0.83,2.05l-0.11,4.24L218.37,289.6L218.37,289.6z"
		/>
</g>
<g id="BOSCOTRECASE" transform="matrix(16,0,0,16,-1000.9682,-3264.4682)">
	<path id="path166" style="fill:#F8C300;stroke:#000000;stroke-width:0.25;stroke-linejoin:round;stroke-miterlimit:64;" d="
		M218.37,289.6l1.5-2l0.11-4.24l-0.83-2.05l-1.78-1.51l-1.5-1.27l-0.17-0.15l-3.01-2.7l-0.72-0.86l-0.52-0.9l-2.48-3.85l0.32,0.95
		l0.85,2.44l0.7,2l2.42,6.07l0.16,0.33l0.51,0.74l0.23,0.32l0.12,0.16l0.24,0.06l0.74,0.76l0.04,0.15l0.09,0.87l0.14,2.08l0,0.03
		l0,0.27l-0.31,2.52l-0.04,0.12l-0.01,0.03l-0.21,0.32L218.37,289.6L218.37,289.6z"/>
</g>
<g id="BRUSCIANO" transform="matrix(16,0,0,16,-1000.9682,-3264.4682)">
	<path id="path172" style="fill:#F8C300;stroke:#000000;stroke-width:0.25;stroke-linejoin:round;stroke-miterlimit:64;" d="
		M208.1,242.65l1.66-2.31l0.12-0.1l0.12-0.15l0.65-1.8l0.1-0.46l0.28-1.74l-1.95-3.69l-1.31-1.44l0.23-1.11l1.44-1.43l-1.62-0.34
		l-0.21-0.34l0.02-0.36l0-0.58l-1.2-0.28l-0.13-0.02l-0.3-0.01l-0.51,3.96l0.05,2.38l1,1.45l0.01,0.21l0.01,0.3l-0.07,0.39
		l-0.02,0.08l-0.34,1.51l-0.06,3.6l0.74,1.11L208.1,242.65L208.1,242.65z"/>
</g>
<g id="CAIVANO" transform="matrix(16,0,0,16,-1000.9682,-3264.4682)">
	<path id="path199" style="fill:#F8C300;stroke:#000000;stroke-width:0.25;stroke-linejoin:round;stroke-miterlimit:64;" d="
		M177.68,228.57l0.96,1.04l0.31,0.15l0.72,0.2l0.09,0.02l0.05,0.01l0.61-0.95l0.74-1.02l5.4-0.07l1.06,0.04l0.78,0.18l0.14,0.07
		l0.98,0.89l0.12,0.16l0.16,0.33l0.07,0.24l-0.27-0.09l-0.21-0.03l-0.08,0.04l-0.01,0.17l0,0.25l0.01,0.17l0.02,0.14l0.35,1.28
		l0.09,0.19l0.11,0.1l0.28-0.1l0.29-0.15l0.22-0.14l0.2-0.14l0.1-0.07l0.25-0.3l-0.49-1.25l-0.64-1.06l-0.02-0.04l-0.15,0.01
		l-0.13,0.01l-0.42-0.23l-0.86-0.53l-0.22-0.15l-0.3-0.2l-0.28-0.3l-1.18-1.28l0.02-0.43l0.11-1.98l1.22-0.7l1.16-2.06l1.08-3.28
		l0.01-0.09l-0.78-1.41l-2.03-3.58l-1.4-2.44l-0.1-0.23l-0.04-0.21l-0.03-0.18l-1.23,0.39l-0.36,0.1l-0.24,0.04l-0.31,0.03
		l-0.48-0.07l-2.65-0.43l-4.25-1.04l-0.85,0.86l-0.15,0.17l-0.91,3.52l-0.21,1.58l0.24,0.29l0.43,0.45l0.36,0.55l0.01,0.02
		l0.23,0.67l-0.02,0.3l-0.02,0.4l-0.28,2.94l0.23,0.1l0.09,0.04l0.09,0.06l0.04,0.23l0,0.43l-0.21,1.5l0.14,2.27l0.4,1.89
		L177.68,228.57L177.68,228.57z"/>
</g>
<g id="CALVIZZANO" transform="matrix(16,0,0,16,-1000.9682,-3264.4682)">
	<path id="path217" style="fill:#F8C300;stroke:#000000;stroke-width:0.25;stroke-linejoin:round;stroke-miterlimit:64;" d="
		M151.64,243.09l-0.74-0.44l-0.57-0.74l-0.56-1.74l0.01-0.99l0.08-0.72l-2.82,0l-4.15,1.5l-0.14,0.03l-2.07-0.26l-0.21-0.03
		l-0.05-0.01l-0.2-0.08l-0.14-0.17l-0.32-0.74l-0.03-0.13l0.06-0.09l-1.01,0.61l0.88,0.96l0.09,0.17l0.05,0.08l0.9,1.25l0.4,0.36
		l4.02,0.86l0.14,0.01l0.12,0.01l5.64,0.3l0.5,0.03L151.64,243.09L151.64,243.09z"/>
</g>
<g id="CAMPOSANO" transform="matrix(16,0,0,16,-1000.9682,-3264.4682)">
	<path id="path238" style="fill:#F8C300;stroke:#000000;stroke-width:0.25;stroke-linejoin:round;stroke-miterlimit:64;" d="
		M237.27,229.16l0.34-4.12l-2.3-1.01l-4.52-1.06l-0.45-0.07l-1.09-0.04l-0.41-0.02l1.44,2.36l0.55,0.77l1.6,1.03l3.72,2.26
		l0.48-0.04l0.57-0.05L237.27,229.16L237.27,229.16z"/>
</g>
<g id="CAPRI" transform="matrix(16,0,0,16,-1000.9682,-3264.4682)">
	<path id="path259" style="fill:#F8C300;stroke:#000000;stroke-width:0.25;stroke-linejoin:round;stroke-miterlimit:64;" d="
		M155.81,357.4l1.75,0.73l0.33,0.21l0.63,0.41l1,2l0.11,0.22l-0.34,2.89l0.17-0.58l0.7-0.49l1.93-0.49l0.54-0.1l0.05-0.01l0.04,0.01
		l0.67,0.21l0.03,0.02l0.32,0.28l0.01,0.02l0,0.04l0.98,1.07l0.11,0.05l0.14-0.1l1.53-1.66l1.31-2.26l0.39-0.73l0.04-0.08l0.02-0.09
		l-0.01-0.11l-0.03-0.06l-0.7-1.2l-0.16-0.17l-0.04-0.04l-0.03-0.01l-0.59-0.15l-0.06,0.02l-0.09,0.04l-0.11,0.07l-0.17,0.11
		l-0.31,0.19l-0.11,0.09l-0.38,0.32l-0.39,0.36l-0.08,0.07l-0.08,0.08l-0.04,0.19l-0.11,0.08l-0.07,0.02l-2.16,0.25l-0.59,0.02
		l-0.2,0l-0.07,0l-0.13-0.06l-0.82-0.39l-0.13-0.1l-0.05-0.03l-0.22-0.23l-0.28-0.21l-0.62-0.26l-2.26-0.45l-0.05-0.01L155.81,357.4
		L155.81,357.4z"/>
</g>
<g id="CARBONARA_DI_NOLA" transform="matrix(16,0,0,16,-1000.9682,-3264.4682)">
	<path id="path271" style="fill:#F8C300;stroke:#000000;stroke-width:0.25;stroke-linejoin:round;stroke-miterlimit:64;" d="
		M252.19,258.18l-0.03-0.18l-1.04-2.25l-0.16-0.33l-1.19-1.84l-2.45-3.38l-0.01,0l-0.14-0.05l-1.75-0.8l-1.85-1.12l-0.74-0.5
		l-0.52-0.4l-0.38,2.01l-0.2,1.26l0.07,0.06l3.96,2.25l1.12,3.15l0.1,0.18l0.22,0.14l3.06,1.85l0.16,0.09l0.22-0.02L252.19,258.18
		L252.19,258.18z"/>
</g>
<g id="CARDITO" transform="matrix(16,0,0,16,-1000.9682,-3264.4682)">
	<path id="path274" style="fill:#F8C300;stroke:#000000;stroke-width:0.25;stroke-linejoin:round;stroke-miterlimit:64;" d="
		M174.16,234.89l2.21-0.77l0.04-0.54l0.69-1.27l0.86-1.22l0.41-0.58l-0.4-1.43l-0.08-0.23l-0.05-0.08l-0.09-0.14l-0.05-0.07
		l-1.86-1.72l-2.87,2.16l-0.04,0.04l-0.01,0.01l-0.08,0.12l-0.06,0.1l-0.01,0.01l-0.05,0.44l0,0.29l0.07,1.66l0.06,0.26l0.19,0.62
		l0.18,0.61l0.33,0.67l0.28,0.47L174.16,234.89L174.16,234.89z"/>
</g>
<g id="CASALNUOVO_DI_NAPOLI" transform="matrix(16,0,0,16,-1000.9682,-3264.4682)">
	<path id="path311" style="fill:#F8C300;stroke:#000000;stroke-width:0.25;stroke-linejoin:round;stroke-miterlimit:64;" d="
		M193.46,248.4l-0.13-2.32l-0.38,0.08l-0.37,0.07l-1.07-1.68l-0.11-1.1l0.01-0.04l0.01-0.04l0.02-0.14l0.13-0.43l1.45-1.83
		l0.55,0.01l1.04-2.13l1.08-2.25l-4.92-0.65l-0.01,0l-0.08,0l-0.29,0.04l-0.37,0.06l-0.01,0l-0.15,0.04l-0.97,0.33l-0.62,0.23
		l-0.05,0.03l-1.42,1.63l-0.44,0.58l-0.58,1.14l0.05,0.96l0.05,0.1l0.12,0.25l0.09,0.2l-0.5,2.37l-0.93,0.7l-0.02,1.2l1.89,0.2
		l0.25,0l0.28-0.07l0.9-0.67l0.03-0.02l0.01,0l0.12-0.25l0.24-0.42l0.08,0.01l2.32,0.41l0.23,0.2l0.12,0.2l0.37,0.71l0.08,0.22
		l0.02,0.13l0.01,0.06l0.04,1.8L193.46,248.4L193.46,248.4z"/>
</g>
<g id="CASAMARCIANO" transform="matrix(16,0,0,16,-1000.9682,-3264.4682)">
	<path id="path317" style="fill:#F8C300;stroke:#000000;stroke-width:0.25;stroke-linejoin:round;stroke-miterlimit:64;" d="
		M250.05,232.43l-0.67-0.13l-0.16-0.05l-0.08-0.03l-2.53-1.47l-0.32-0.21l-0.17-0.25l-0.42-0.92l0.07-0.26l0.01-0.03l0.04-0.23
		l0.05-0.58l0-0.06l0-0.14l-0.04-0.12l-0.02-0.03l-0.01-0.01l-0.11-0.21l-2.1,0.43l-0.55,0.24l-1.31,0.08l-0.47,0.04l-0.34,0.08
		l-0.26,0.08l-0.82,0.71l0.1,0.98l-2.72,0.07l-0.55-0.04l0.1,0.93l0.08,0.57l0.11,0.22l1.52,2.72l4.51,1.11l0.24-0.01l0.32-0.03
		l2.39-0.65L250.05,232.43L250.05,232.43z"/>
</g>
<g id="CASAMICCIOLA_TERME" transform="matrix(16,0,0,16,-1000.9682,-3264.4682)">
	<path id="path320" style="fill:#F8C300;stroke:#000000;stroke-width:0.25;stroke-linejoin:round;stroke-miterlimit:64;" d="
		M76.56,300.73l1.35,0.25l0.18-0.13l3.22-2.61l0.71-0.76l1.04-2.23l-1.84-1.23l-4.91,0.08l-1.86-0.51l0.01,1l-0.03,0.17l-0.22,0.31
		l-0.11,0.07l-0.59-0.01l-0.74,1.38l-0.01,0.12l0,0.05l-0.03,0.75l0.33,0.9l0.45,2.36L76.56,300.73z"/>
</g>
<g id="CASANDRINO" transform="matrix(16,0,0,16,-1000.9682,-3264.4682)">
	<path id="path323" style="fill:#F8C300;stroke:#000000;stroke-width:0.25;stroke-linejoin:round;stroke-miterlimit:64;" d="
		M162.27,239.25l2.11-0.58l1.54-2.01l-1.82-6.56l-0.15-0.06l-0.99,0.1l-1.25,1.3l-0.68,1.16l-0.01,0.1l-0.12,1.37l0,0.01l0,0.03
		L162.27,239.25L162.27,239.25z"/>
</g>
<g id="CASAVATORE" transform="matrix(16,0,0,16,-1000.9682,-3264.4682)">
	<path id="path332" style="fill:#F8C300;stroke:#000000;stroke-width:0.25;stroke-linejoin:round;stroke-miterlimit:64;" d="
		M169,242.93l-0.05,1.76l0.05,0.64l0.36,1.2l1.06,0.27l0.15,0.02l0.75,0.07l0.09-0.21l0.04-0.08l0.01-0.03l0.01-0.05l0.04-0.14
		l0.01-0.02l0.05-0.19l0.09-0.22l0.03-0.07l0.14-0.29l0.17-0.32l0.34-0.48l0.01-0.01l0.02-0.03l0.01-0.01l0.1-0.13l0.02-0.02
		l0.13-0.16l0.04-0.04l0.04-0.04l0.1-0.08l-0.93-2.29L169,242.93L169,242.93z"/>
</g>
<g id="CASOLA_DI_NAPOLI" transform="matrix(16,0,0,16,-1000.9682,-3264.4682)">
	<path id="path347" style="fill:#F8C300;stroke:#000000;stroke-width:0.25;stroke-linejoin:round;stroke-miterlimit:64;" d="
		M243.34,314.18l-0.97-0.8l-4.33-2.6l-3.33-1.84l-2.56-0.14l-0.01,0.11l-0.01,0.07l0,0.04l0.02,0.14l0.06,0.15l0.09,0.15l0.75,1.17
		l0.14,0.21l2.04,2.73l0.78,0.22l0.38,0.1l0.42,0.09l1.03,0.2l0.34,0.03l0.28,0.01l3.77,0L243.34,314.18L243.34,314.18z"/>
</g>
<g id="CASORIA" transform="matrix(16,0,0,16,-1000.9682,-3264.4682)">
	<path id="path350" style="fill:#F8C300;stroke:#000000;stroke-width:0.25;stroke-linejoin:round;stroke-miterlimit:64;" d="
		M184.65,244.62l-0.26-0.9l-0.08-0.26l-0.25-0.4l-0.46-0.68l-0.02-0.01l-0.01,0l-0.03,0l-0.05,0l-0.08,0l-0.08,0l-0.08,0.01
		l-0.1,0.01l-0.53,0.21l-0.38,0.25l-0.65,0.36l-1.05-0.71l-1.88-1.95l-2.22-5.11l-0.06-1.29l-2.21,0.77l-1.77,3.17l-0.51,3.89
		l0.93,2.29l2.2,1.39l0.98,0.68l1.25,1.17l1.41,1.38l0.85,0.91l0.01,0.02l0.07,0.09l0.02,0.06l0.01,0.02l0.02,0.07l-0.03,0.01
		l-0.14,0.05l-0.17,0.06l-0.31,0.13l-0.28,0.27l-0.16,0.37l-0.04,0.18l-0.07,0.37l-0.05,0.35l0.08,0.12l0.01,0.01l0.34-0.07
		l3.99-1.04l0.16-0.15l0.39-0.45l0.72-0.59l0.2-0.19l0.22-0.27l0.07-0.11l0.05-0.07l0.15-0.39l0.09-0.44l0.02-0.38l-0.22-2.01
		L184.65,244.62L184.65,244.62z"/>
</g>
<g id="CASTELLAMMARE_DI_STABIA" transform="matrix(16,0,0,16,-1000.9682,-3264.4682)">
	<path id="path391" style="fill:#F8C300;stroke:#000000;stroke-width:0.25;stroke-linejoin:round;stroke-miterlimit:64;" d="
		M220.19,301.09l0.01,0.06l0,0.01l0.01,0.06l-0.45,0.04l0.07,0.05l0.14,0l0.14,0.07l0.08,0.09l0.12,0.26l0.01,0.09l0.01,0.18
		l0.22,0.11l0.08,0.1l0.04,0.1l0.16,0.28l0.07,0.18l0.06,0.3l0.04,0.08l0.06,0.08l0.05,0.08l0.09,0.12l0.08,0.28l0.07,0.24
		l0.07,0.11l0.02,0.11l0.03,0.08l0.06,0.1l0.01,0.09l0,0.05l-0.01,0.11l0.09,0.1l0.05,0.08l0.06,0.14l0.04,0.15l0.09,0.3l0.04,0.08
		l0.1,0.24l0.08,0.19l0.04,0.16l0.07,0.21l0.05,0.18l0.06,0.15l0.04,0.2l0.06,0.15l0.09,0.21l0.07,0.24l0.06,0.24l0.01,0.03
		l0.06,0.18l0.03,0.19l0.04,0.15l0.05,0.19l0.23,0.99l0.01,0.05l0.04,0.29l0.03,0l-0.08,0.32l0.01,0.04l0.02,0.06l0.01,0.05l0,0.05
		l-0.01,0.05l0,0.06l-0.01,0.11l0,0.08l-0.01,0.08l-0.07,0.17l-0.05,0.12l-0.03,0.07l-0.22,0.43l-0.14,0.24l-0.07,0.09l-0.04,0.03
		l-0.11,0.12l-0.16-0.08l-0.12,0l0,0.04l0.07,0l0.09,0.01l0.08,0.03l0.06,0.09l0.01,0.05l0.05,0.13l-0.02,0.01l-0.13,0.12
		l-0.08,0.07l-0.05-0.06l-0.06-0.06l0.08-0.08l-0.01-0.01l-0.24-0.24l-0.18,0.17l0.02,0.01l0.16-0.16l0.09,0.09l-0.15,0.17
		l0.01,0.01l0.16-0.16l0.06,0.06l-0.15,0.17l0.02,0.02l0.14-0.18l0.04,0.03l-0.14,0.14l0.02,0.01l0.05-0.05l0.09,0.12l-0.11,0.1
		l-0.07-0.07l-0.02,0l0.09,0.08l-0.06,0.05l-0.01,0.02l-0.12-0.09l0.06-0.1l-0.07-0.06l-0.08,0.08l-0.09-0.06l-0.05-0.05l0.04-0.06
		l0.1,0.09l0.02-0.02l-0.11-0.09l-0.15-0.14l-0.04,0.02l0.16,0.14l-0.04,0.05l-0.04-0.03l-0.02-0.02l-0.15-0.12l-0.03,0.05l0.24,0.2
		l-0.02,0.03l0.22,0.16l0.02-0.02l0.11,0.09l-0.16,0.28l-0.15,0.25l-0.03,0.03l-0.06,0.05l-0.18,0.16l-0.05-0.02l-0.08-0.07
		l0.04-0.03l-0.17-0.18l-0.04,0.03l-0.01,0.02l0.24,0.27l-0.02,0.02l-0.11-0.11l-0.03,0.01l0.12,0.12l-0.18,0.2l-0.05-0.25l-0.01,0
		l0.04,0.27l-0.08-0.01l-0.05-0.43l-0.02,0l0.02,0.12l-0.11,0.01l0,0.01l0.11-0.01l0.02,0.18l-0.15,0.02l0.01,0.02l0.15-0.02
		l0.02,0.11l-0.22-0.01l-0.01-0.31l-0.02,0l0,0.31l-0.1,0l-0.02-0.13l-0.01-0.17l-0.02,0l0.03,0.29l-0.17-0.01l-0.07,0l0.01-0.01
		l-0.01-0.04l0.18-0.21l-0.01-0.01l-0.18,0.19l-0.02-0.02l-0.01-0.01l-0.01-0.01l-0.02-0.04l-0.01-0.05l-0.03-0.05l0.17-0.1
		l-0.01-0.04l-0.1-0.02l-0.04-0.07l0.31-0.18l-0.03-0.06l-0.05,0.02l-0.2,0.12l-0.04-0.03l0.05-0.12l0.06,0.01l0.06-0.14l0.08-0.38
		l0.01-0.1l-0.03-0.05l-0.04,0l0.03-0.12l0.03,0l0.02-0.08l-0.03-0.02l0.07-0.15l0.1-0.18l0.1-0.19l0.2-0.33l0.06-0.02l0.01-0.05
		l0-0.02l-0.02-0.03l-0.05-0.02l-0.11,0.16l-0.12,0.23l-0.2,0.31l-0.09,0.15l-0.01,0.06l-0.09,0.16l-0.1,0.19l-0.01,0.05l-0.05,0.24
		l-0.06,0.19l-0.2,0.12l-0.08,0.05l-0.04,0.03l-0.48,0.29l0.02-0.05l0.04-0.03l0.04-0.03l0.04-0.03l0.01-0.05l-0.03-0.08l-0.01-0.06
		l-0.03-0.07l-0.03-0.03l-0.03,0l-0.04,0l-0.43,0.24l-0.27,0.16l-0.05,0.01l-0.05,0.06l0,0.07l-0.07,0.12l-0.07,0.11l-0.04,0.07
		l-0.06,0.08l-0.05,0.06l-0.12,0.01l-0.07,0.02l-0.09,0.01l-0.06,0.05l-0.04,0.01l-0.06-0.1l-0.14,0.01l-0.02,0.15l-0.08,0.02
		l-0.14-0.04l-0.12,0.01l-0.08,0l-0.08-0.05l-0.04-0.02l-0.04,0.04l-0.01,0.08l0,0.1l-0.04,0.05l-0.05,0.06l-0.04,0.07l-0.07,0.09
		l-0.07,0l-0.25,0.02l0.05,0.1l-0.22,0.08l-0.01,0l-0.15,0.07l-0.07,0.04l-0.04,0.02l-0.11,0.03l-0.08,0.03l-0.11,0.05l-0.12-0.04
		l-0.04-0.06l0.01-0.03l-0.07,0.01l-0.05,0.01l-0.05,0.01l-0.05-0.01l-0.05-0.01l-0.04-0.01l-0.03,0.04l-0.06,0.04L215,314.7
		l-0.07,0.04l-0.05,0.02l-0.07,0.03l-0.02-0.03l-0.06,0.03l-0.02,0.06l-0.07,0.04l-0.08,0.06l-0.1,0.04l-0.08,0.17l-0.06,0.05
		l-0.05,0.01l-0.06-0.01l-0.06,0.02l-0.06,0.03l-0.03,0.05l-0.04,0.09l-0.04,0.03l-0.03,0.02l-0.04,0l-0.05,0.05l-0.03,0.06
		l-0.08,0.07l-0.05,0.06l-0.03,0.01l-0.04,0.01l-0.04,0.06l-0.07,0l-0.06,0.04l-0.02,0.04l-0.03,0.05l-0.02,0.07l-0.06,0.08
		l-0.04,0.04l-0.04,0.03l-0.05,0.02l0.02,0.03l-0.03,0.04l-0.05,0.03l-0.05,0.04l-0.04,0.03l-0.05,0.04l-0.03,0.01l-0.04,0.02
		l4.39,3l5.85,2.16l2.05,1.16l0.93-2.08l0.7-1.95l1.27-3.01l0.22-0.48l-0.06,0.03l-0.1,0.05l-0.41,0.1l-0.33,0.05l-0.19,0.03
		l-0.02,0l0.07-1.17l0.01-0.1l0.01-0.08l0-0.03l0.28-1.4l0.29-1.23l0.09-0.33l0.04-0.16l0.03-0.14l0.06-0.62l0-0.16l-0.04-0.41
		l-0.03-0.29l-0.13-0.28l-0.4-0.8l-0.31-4.98l-0.81-1.59l-0.11-0.17l-0.09-0.12l-0.12-0.11l-0.79-0.19l-0.4-0.09l-0.3-0.07
		l-1.37-1.99l-0.07-0.13l-0.05-0.1l-0.67-1.94l0.17,1.55l-0.03,0.25l-0.78,1.88l-0.08,0.18l-0.16,0.24l-0.15,0.15l-0.65,0.09
		l-0.01,0l-0.34,0.01l-0.16,0L220.19,301.09L220.19,301.09z"/>
</g>
<g id="CASTELLO_DI_CISTERNA" transform="matrix(16,0,0,16,-1000.9682,-3264.4682)">
	<path id="path397" style="fill:#F8C300;stroke:#000000;stroke-width:0.25;stroke-linejoin:round;stroke-miterlimit:64;" d="
		M202.86,233.33l0.44,0.33l0.02,0.03l0.01,0.01l0.16,0.24l0.01,0.39l0,0.01l0,0.1l-0.05,1.43l0.55,5.12l0.35,1.6l1.37,1.54
		l0.33,0.13l0.49,0.6l0.09,0.06l0.1,0.07l0.33-0.61l0.04-1.07l1-0.68l-1.31-1.16l-0.74-1.11l0.06-3.6l0.34-1.51l0.02-0.08l0.07-0.39
		l-0.01-0.3l-0.01-0.21l-1-1.45l-0.05-2.38L202.86,233.33L202.86,233.33z"/>
</g>
<g id="CERCOLA" transform="matrix(16,0,0,16,-1000.9682,-3264.4682)">
	<path id="path447" style="fill:#F8C300;stroke:#000000;stroke-width:0.25;stroke-linejoin:round;stroke-miterlimit:64;" d="
		M193.14,260.43l1.24-1.42l-0.12-0.04l-0.26-0.09l-1.71-1.83l0-0.11l0-0.02l0-0.04l0.02-0.01l0.07-0.04l0.04-0.02l0.19-0.12
		l0.78-0.49l0.24-0.14l-0.2-3.52l-0.69-1.09l-4.04,3.39l0.33,0.37l0.2,0.26l0.08,0.12l0.14,0.21l0.01,0.01l0.18,0.34l0.03,0.06
		l0.04,0.07l0.76,1.68l-1.27,1.43l0.06,1.19l0.1,0.55L193.14,260.43L193.14,260.43z"/>
</g>
<g id="CICCIANO" transform="matrix(16,0,0,16,-1000.9682,-3264.4682)">
	<path id="path474" style="fill:#F8C300;stroke:#000000;stroke-width:0.25;stroke-linejoin:round;stroke-miterlimit:64;" d="
		M241.78,224.61l-1.2-1.88l0.05-0.37l0.02-0.17l0.01-0.09l0.03-0.28l-0.85-1.55l-0.11-0.08l-4.1-2.56l-0.21,0.01l-0.19,0.02
		l-0.74,0.09l-0.48,0.06l-1.33,0.18l-2.92,0.64l-0.45,0.13l0.1,0.73l-0.05,0.14l-0.16,0.02l-2.38,0.01l-0.4-0.09l-0.47-0.19
		l-0.57-0.13l-0.52-0.04l0.01,0.03l0.03,0.1l0.1,0.21l0.21,0.31l0.18,0.22l1.42,1.46l0.38,0.35l1.08,0.88l0.2,0.06l0.37,0.04
		l0.41,0.02l1.09,0.04l0.45,0.07l4.52,1.06l2.3,1.01L241.78,224.61L241.78,224.61z"/>
</g>
<g id="CIMITILE" transform="matrix(16,0,0,16,-1000.9682,-3264.4682)">
	<path id="path480" style="fill:#F8C300;stroke:#000000;stroke-width:0.25;stroke-linejoin:round;stroke-miterlimit:64;" d="
		M236.79,231.28l-0.1-0.93l0.58-1.2l-0.06,0.01l-0.57,0.05l-0.48,0.04l-3.72-2.26l-1.6-1.03l-0.55-0.77l-1.16,0.14l-0.04,1.38
		l0.8,2.35l3.6,2.71l1.02-0.37l0.63-0.54l0.94-0.46l0.12-0.03l0.04-0.01l0.08-0.02l0.01,0l0.04,0.07L236.79,231.28L236.79,231.28z"
		/>
</g>
<g id="COMIZIANO" transform="matrix(16,0,0,16,-1000.9682,-3264.4682)">
	<path id="path495" style="fill:#F8C300;stroke:#000000;stroke-width:0.25;stroke-linejoin:round;stroke-miterlimit:64;" d="
		M236.69,230.35l0.55,0.04l2.72-0.07l-0.1-0.98l0.82-0.71l0.26-0.08l0.34-0.08l0.47-0.04l1.31-0.08l-1.27-3.75l-4.17,0.42
		l-0.34,4.12L236.69,230.35L236.69,230.35z"/>
</g>
<g id="CRISPANO" transform="matrix(16,0,0,16,-1000.9682,-3264.4682)">
	<path id="path522" style="fill:#F8C300;stroke:#000000;stroke-width:0.25;stroke-linejoin:round;stroke-miterlimit:64;" d="
		M172.96,229.01l2.87-2.16l-0.4-1.89l-0.14-2.27l0.21-1.5l0-0.43l-0.04-0.23l-0.09-0.06l-0.09-0.04l-0.23-0.1l-2.17,3.15l0.13,0.03
		l0.06,0.02l0.06,0.85l-0.72,0.37l-0.56,0.25l-0.49,1.39l0.05,0.24l0.02,0.07L172.96,229.01L172.96,229.01z"/>
</g>
<g id="ERCOLANO" transform="matrix(16,0,0,16,-1000.9682,-3264.4682)">
	<path id="path549" style="fill:#F8C300;stroke:#000000;stroke-width:0.25;stroke-linejoin:round;stroke-miterlimit:64;" d="
		M208.96,270.05l2.55-3.84l-2.09-1l-2.86,0.78l-0.45,0.33l-0.26,0.15l-0.47,0.09l-1.26,0.25l-0.24,0.04l-0.92,0.07l-1.42,0.1
		l-0.43-0.06l-0.49-0.35l-0.81-0.34l-2.82-1.67l-5.06-0.24l-0.83,0.01l-1.11,2.79l0.3-0.07l0.38,0.32l0.34,0.43l1.07,3.49l0.05,0.33
		l0.02,0.16l-0.08,0.12l-0.07,0.06l-0.14,0.09l-0.15,0.08l-0.17,0.06l-1.12,0.25l-2.44,1.26l-1.16,1.04l-0.23,0.95l0.15-0.09
		l0.16-0.02l0.09,0.08l1.43,1.57l0.02,0.02l0.13,0.16l0.47,0.59l0.07,0.11l0.88,1.53l1.31,0.4l-0.01-0.05l-0.01-0.06l0-0.03
		l-0.03-0.26l0.04-0.32l0.16-1.01l0.08-0.2l0.1-0.1l0.95-0.04l4.41-2.42l2.98-2.57l0.7-0.5l0.3-0.13l0.87-0.38l1.65-0.46l1.09-0.29
		l1.12-0.3l0.61-0.16l2.28-0.65L208.96,270.05L208.96,270.05z"/>
</g>
<g id="FORIO" transform="matrix(16,0,0,16,-1000.9682,-3264.4682)">
	<path id="path585" style="fill:#F8C300;stroke:#000000;stroke-width:0.25;stroke-linejoin:round;stroke-miterlimit:64;" d="
		M73.49,300.7l-0.45-2.36l-0.64,0.16l-0.16,0.02l-0.75-0.13l-0.15-0.2l-1.11-2.04l0-0.01l-0.03-0.12l-0.01-0.39l0.04-0.14l0.13-0.14
		l0.01-0.01l0.11-0.11l0.15-0.03l0.15-0.03l0.18-0.21l0.04-0.13l0.01-0.08L71,294.65l-0.06-0.16l-1.36-2.35l-0.34-0.44l-1.01-1.34
		l-0.61-0.03l-1.08,0.36l-0.06,0.03l-0.2,0.12l-0.7,0.45l-0.16,0.16l-0.05,0.06l0.06,0.17l0.07,0.18l0.61,0.97l0.22,0.1l0.18,0.05
		l0.11,0.01l0.1,0.01l0.33,0.13l0.01,0.09l-0.01,0.12l-0.01,0.17l-0.75,2.51l-0.12,0.35l-0.15,0.38l-0.22,0.31l-0.49,0.62
		l-0.12,7.27l-0.05,0.21l-0.07,0.26l-0.08,0.2l-0.1,0.03l-0.08,0.01l-0.09-0.01l-0.14,0l-0.28,0.13l-0.59,0.28l-0.79,0.51
		l-0.08,0.08l-0.24,0.42l0.06,0.17l1.27,1.35l0.08,0.07l0.09,0.08l3.25,2.34l1.02,0.72l0.15-0.04l0.12-0.05l1.73-0.93l-0.15-0.74
		l-0.1-3.3l0.03-0.36l0.05-0.61l0.05-0.36l0.51-3.15l0.07-0.28l0.06-0.06l0.27,0.28l0.77-0.18l1.17-0.81l0.19-0.26L73.49,300.7
		L73.49,300.7z"/>
</g>
<g id="FRATTAMAGGIORE" transform="matrix(16,0,0,16,-1000.9682,-3264.4682)">
	<path id="path603" style="fill:#F8C300;stroke:#000000;stroke-width:0.25;stroke-linejoin:round;stroke-miterlimit:64;" d="
		M168.26,235.69l1.62-0.39l0.66,0.18l0.74,0.65l0.01,0.13l0.01,0.24l0.14,0.72l0.19,0.36l0.35,0.34l0.01,0.01l0.03,0.03l0.01,0.01
		l0.07,0.04l0.09,0.03l0.02,0.01l0.01,0l0.16,0.02l1.77-3.17l-0.35-0.57l-0.28-0.47l-0.33-0.67l-0.18-0.61l-0.19-0.62l-0.06-0.26
		l-0.07-1.66l0-0.29l0.05-0.44l0.01-0.01l0.06-0.1l0.08-0.12l0.01-0.01l0.04-0.04l-1.51-2.32l-1.55,0.79l-1.25-1.33l-0.6-0.33
		l-0.36,0.46l-0.97,0.57l-0.22,1.81l0.82,1.46l0.03,0.03l0.4,0.44l0.26,0.29l0.28,0.32l0.14,0.38l0.51,3.69l-0.41,0.26l-0.06,0.04
		L168.26,235.69L168.26,235.69z"/>
</g>
<g id="FRATTAMINORE" transform="matrix(16,0,0,16,-1000.9682,-3264.4682)">
	<path id="path606" style="fill:#F8C300;stroke:#000000;stroke-width:0.25;stroke-linejoin:round;stroke-miterlimit:64;" d="
		M172.87,223.47l-5.34-0.42l0.14,3.24l0.36-0.46l0.6,0.33l1.25,1.33l1.55-0.79l-0.02-0.07l-0.05-0.24l0.49-1.39l0.56-0.25l0.72-0.37
		l-0.06-0.85L173,223.5L172.87,223.47z"/>
</g>
<g id="GIUGLIANO_IN_CAMPANIA" transform="matrix(16,0,0,16,-1000.9682,-3264.4682)">
	<path id="path650" style="fill:#F8C300;stroke:#000000;stroke-width:0.25;stroke-linejoin:round;stroke-miterlimit:64;" d="
		M129.74,239.29l-0.04-0.99l-0.03-0.15l-0.06-0.28l-0.5-1.66l-0.17-0.43l-0.17-0.32l-0.27-0.28l-0.13-0.26l-0.32-1.37l-0.06-0.35
		l0-0.04l0-0.05l-0.01-0.31l0.01-0.29l0.02-0.21l0.02-0.2l0.04-0.17l0.09-0.07l0.29,0.07l1.22,0.6l0.27,0.15l0.27,0.19l0.2,0.16
		l0.05,0.03l0.26,0.12l0.37,0.06l0.13,0.02l0.43,0.05l3.27,0.32l0.21,0.01l0.15,0.01l1.88,0.1l0.1,0l1.88,0.11l2.54,0.33l-0.05,0.07
		l-0.21,0.3l-0.14,0.2l-0.03,0.04l-0.11,0.16l-0.54,0.91l-0.07,0.12l0.52,0.09l1.18,0.17l0.06,0.02l0.02,0.01l0.2,0.08l0.29-0.02
		l1.3-0.14l0.41-0.06l0.39-0.06l0.37-0.07l5.48,0.15l2.3,0.14l3.59,1.3l-1.16-1.29l1.55-3.32l0.22-0.21l-2.25-5.61l-0.87-0.39
		l-0.63-0.1l-1.12-0.06l-0.18-0.07l-0.05-0.02l-1.53-0.9l-6.34-0.02l0.45,0.78l-0.02,0.28l-0.04,0.23l0,0.03l-1.55,1.8l-0.1,0.09
		l-0.19-0.03l-0.07-0.2l0.01-0.18l0.05-1l0.08-1.59l0-0.15l0-0.07l-0.12-0.13l-0.26,0.01l-2.17,0.96l-1.61,1.23l-1,0.9l-0.82,0.33
		l-0.98-0.12l-0.3-0.04l-0.21-0.1l-0.93-0.66l-0.72-0.61l-0.2-0.19l-0.12-0.18l2.34-2.05l1.28-0.39l0.34,0.05l0.3-0.04l0.2-0.21
		l0.06-0.18l-0.04-0.26l-0.52-2.08l-0.29-0.64l-0.99-4.02l-2.95-0.01l-4.18,0.07l-1.05,1.63l-2.24,3.93l-1.68,0.81l-0.4,0.08
		l-1.87,0.11l-0.38-0.01l-1.23-0.12l-2-0.09l-0.5-0.02l-1.73,0.02l-1.37,0.09l-1.57,0.16l-0.47,0.05l-0.39,0.13l-0.45,0.2
		l-0.26,0.18l0.07,0.09l0.14,0.19l0.19,0.17l0.24,0.23l0.26,0.32l0.04,0.2l-0.07,0.07l-2.4,1.43l-0.6,0.25l-1.23,0.15l-0.56,0.06
		l-0.58-0.5l-0.55-0.48l-0.48,0.37l-0.38,0.3l-0.48,0.42l-0.06,0.19l0.12,1.16l0.04,0.27l0.18,0.54l0.14,0.34l0.69,1.49l1.01,2.25
		l0.47,1.07l0.11,0.27l0.02,0.08l0.03,0.09l0.72,5.41l1.03,2.96l-0.02,0.01l-0.78,0.3l2.12,7.06l0.69,0.12l0.19,0.03l1.1,0.2
		l1.84,0.34l0.69,0.13l1.18,0.64l1.71-0.01l1.26-0.76l0.17-0.24l0.19-0.26l0.22-0.13l0.15-0.06l0.2-0.07l0.18-0.06l0.13-0.05
		l0.29-0.1l0.24-0.04l3.28-0.05l0.34,0.02l0.32,0.03l0.34,0.03l0.3,0.06l-0.57-1.6l-0.01-0.05l-0.01-0.03l-0.03-0.13l0.02-0.19
		l0.03-0.21l0.08-0.25l0.08-0.21l0-0.01l0.24-0.66l0.11-0.23l0.47-0.97l0.78-1.24l1.91-2.18L129.74,239.29L129.74,239.29z"/>
</g>
<g id="GRAGNANO" transform="matrix(16,0,0,16,-1000.9682,-3264.4682)">
	<path id="path656" style="fill:#F8C300;stroke:#000000;stroke-width:0.25;stroke-linejoin:round;stroke-miterlimit:64;" d="
		M237.34,320.56l-0.09-0.17l-0.03-0.18l0.18-0.11l1.98,0.15l0.41,0.03l0.68,0.3l0.15,0.11l1.11,0.82l1.57-0.48l0.99,0.15l0.2,0.02
		l1.03-0.22l0.43-0.12l0.14-0.07l0.83-1.19l-0.17-0.2l-0.21-0.21l-0.06-0.2l0.19-0.62l0.83-0.55l0.69-2.22l-0.18,0.14l-0.21,0.1
		l-0.24,0.02l-0.4-0.08l-0.14-0.03l-3.33-0.82l-0.47-0.15l-0.02-0.23l0.17-0.38l-1.11,0.02l-3.77,0l-0.28-0.01l-0.34-0.03l-1.03-0.2
		l-0.42-0.09l-0.38-0.1l-0.78-0.22l-2.04-2.73l-0.14-0.21l-0.75-1.17l-0.09-0.15l-0.06-0.15l-0.02-0.14l0-0.04l0.01-0.07l0.01-0.11
		l0.14-0.5l-0.11-1.11l-4.68,1.02l0.4,0.8l0.13,0.28l0.03,0.29l0.04,0.41l0,0.16l-0.06,0.62l-0.03,0.14l-0.04,0.16l-0.09,0.33
		l-0.29,1.23l-0.28,1.4l0,0.03l-0.01,0.08l-0.01,0.1l-0.07,1.17l0.02,0l0.19-0.03l0.33-0.05l0.41-0.1l0.1-0.05l0.06-0.03l1.37,0.55
		l2.81,1.59l2.16,2.2l0.12,0.43l0.14,0.17l0.26,0.21l0.37,0.2l0.37,0.11l0.38,0.1l0.29,0.06l0.2-0.04l0.48-0.12L237.34,320.56
		L237.34,320.56z"/>
</g>
<g id="GRUMO_NEVANO" transform="matrix(16,0,0,16,-1000.9682,-3264.4682)">
	<path id="path674" style="fill:#F8C300;stroke:#000000;stroke-width:0.25;stroke-linejoin:round;stroke-miterlimit:64;" d="
		M168.26,235.69l0.2-0.11l0.06-0.04l0.41-0.26l-0.51-3.69l-0.14-0.38l-0.28-0.32l-0.26-0.29l-0.4-0.44l-0.03-0.03l-0.82-1.46
		l0.22-1.81l-2.03,1.38l-0.57,1.87l1.82,6.56L168.26,235.69L168.26,235.69z"/>
</g>
<g id="ISCHIA" transform="matrix(16,0,0,16,-1000.9682,-3264.4682)">
	<path id="path683" style="fill:#F8C300;stroke:#000000;stroke-width:0.25;stroke-linejoin:round;stroke-miterlimit:64;" d="
		M88.85,308.32l-0.03-0.15l-0.01-0.2l0.08-0.15l0.05-0.08l0.98-0.67l0.72,0.19l0.08,0.06l0.1,0.05l0.08-0.02l0.22-0.13l0.36-0.44
		l0.15-0.21l0.04-0.06l-0.02-1.47l-0.04-0.28l-0.18-0.59l-0.59-0.85l-0.75-2.24l-1.01-3.87l-0.05-0.13l-0.07-0.18l-0.04-0.06
		l-0.12-0.14l-0.12-0.08l-0.27-0.13l-1.67-0.61l-0.85-0.28l-2.19-0.34l-0.66,0.02l-1.04,2.23l1.4,1.61l0.66,3.61l0.96,3.38
		l1.69,2.07l1.66,0.15L88.85,308.32z"/>
</g>
<g id="LACCO_AMENO" transform="matrix(16,0,0,16,-1000.9682,-3264.4682)">
	<path id="path689" style="fill:#F8C300;stroke:#000000;stroke-width:0.25;stroke-linejoin:round;stroke-miterlimit:64;" d="
		M69.24,291.69l0.34,0.44l1.36,2.35l0.06,0.16l0.02,0.11L71,294.84l-0.04,0.13l-0.18,0.21l-0.15,0.03l-0.15,0.03l-0.11,0.11
		l-0.01,0.01l-0.13,0.14l-0.04,0.14l0.01,0.39l0.03,0.12l0,0.01l1.11,2.04l0.15,0.2l0.75,0.13l0.16-0.02l0.64-0.16l-0.33-0.9
		l0.03-0.75l0-0.05l0.01-0.12l0.74-1.38l0.59,0.01l0.11-0.07l0.22-0.31l0.03-0.17l-0.01-1l-1.89-0.46l-0.73-0.34l-0.25-0.14
		l-0.05-0.04l-0.04-0.06l-0.1-0.16l-0.21-0.67l-0.03-0.12l0.04-0.07l0.06-0.07l0.06-0.06l0.11-0.12l0.02-0.22l-0.01-0.08l-0.04-0.13
		l-0.06-0.03l-1.14-0.05l-0.29,0.01l-0.29,0.07l-0.11,0.04l-0.08,0.08L69.24,291.69L69.24,291.69z"/>
</g>
<g id="LETTERE" transform="matrix(16,0,0,16,-1000.9682,-3264.4682)">
	<path id="path716" style="fill:#F8C300;stroke:#000000;stroke-width:0.25;stroke-linejoin:round;stroke-miterlimit:64;" d="
		M232.15,308.8l2.56,0.14l3.33,1.84l4.33,2.6l0.97,0.8l-0.17,0.38l0.02,0.23l0.47,0.15l3.33,0.82l0.14,0.03l0.4,0.08l0.24-0.02
		l0.21-0.1l0.18-0.14l2.48-1.59l0.09-1.24l-0.6-0.19l-0.11-0.04l-1.81-1.4l-0.6-0.49l-0.34-0.37l-0.03-0.23l0.04-0.69l0.03-0.17
		l0.04-0.2l0.66-1.45l-1.4-0.17l-0.7-0.15l-0.14-0.49l-0.17-0.9l0.04-0.45l0.09-0.39l-0.1-0.29l-0.71-1.47l-0.2,0.01l-0.23,0.01
		l-0.23,0.01l-2.89,1.49l-4.78,2.48l-1.42,0.74l-1.65-0.26l-1.23,0.59L232.15,308.8L232.15,308.8z"/>
</g>
<g id="LIVERI" transform="matrix(16,0,0,16,-1000.9682,-3264.4682)">
	<path id="path728" style="fill:#F8C300;stroke:#000000;stroke-width:0.25;stroke-linejoin:round;stroke-miterlimit:64;" d="
		M242.3,247.32l0.52,0.4l2.09-1.41l1.23-1.5l0.61-1.3l0.4-1.4l-0.24-1.21l-0.33-0.26l-0.2-0.09l-2.11,0.29l-2.69,2.84l-0.15,2.64
		L242.3,247.32L242.3,247.32z"/>
</g>
<g id="MARANO_DI_NAPOLI" transform="matrix(16,0,0,16,-1000.9682,-3264.4682)">
	<path id="path755" style="fill:#F8C300;stroke:#000000;stroke-width:0.25;stroke-linejoin:round;stroke-miterlimit:64;" d="
		M140.11,254.54l0.04-0.02l0.33-0.2l2.06-1.14l0.17-0.08l2.7-0.86l6.52-3.59l0.11-0.12l0.48-1.51l-0.46-1.38l0-0.07l0-0.04l0-0.05
		l0-0.05l0.06-0.27l0.03-0.05l0.02-0.04l0.31-0.55l-0.85-1.43l-0.11,0.04l-0.5-0.03l-5.64-0.3l-0.12-0.01l-0.14-0.01l-4.02-0.86
		l-0.4-0.36l-0.9-1.25l-0.05-0.08l-0.09-0.17l-1.79,1.56l-0.87,0.44l-0.33,0.11l-0.33,0.07l-0.25,0.03l-4.35,0.28l-0.85-0.03
		l0.08,0.65l0.04,0.15l0.97,1.4l2.31,0.46l1.34,0.1l2.04-0.9l2.08,0.83l0.01,0.03l0.01,0.04l1.07,4.21l0,0.12l-0.02,0.21l-0.05,0.3
		l-0.05,0.19l-0.07,0.26l-0.07,0.22l-0.14,0.19l-0.44,3.02L140.11,254.54L140.11,254.54z"/>
</g>
<g id="MARIGLIANELLA" transform="matrix(16,0,0,16,-1000.9682,-3264.4682)">
	<path id="path761" style="fill:#F8C300;stroke:#000000;stroke-width:0.25;stroke-linejoin:round;stroke-miterlimit:64;" d="
		M209.44,228.43l-1.44,1.43l-0.23,1.11l1.31,1.44l1.95,3.69l-0.28,1.74l-0.1,0.46l-0.65,1.8l-0.12,0.15l-0.12,0.1l-0.01,0.1
		l0.39,0.07l0.25-0.02l0.76-0.8l1.68-3.11l0.01-0.03l0.01-0.02l0.29-1.03l0.07-0.24l0.02-0.08l0.04-2.19l-0.08-1.02l-1.1-1.82
		l-0.2-0.22l-1.88-1.65L209.44,228.43L209.44,228.43z"/>
</g>
<g id="MARIGLIANO" transform="matrix(16,0,0,16,-1000.9682,-3264.4682)">
	<path id="path764" style="fill:#F8C300;stroke:#000000;stroke-width:0.25;stroke-linejoin:round;stroke-miterlimit:64;" d="
		M209.44,228.43l0.57-0.15l1.88,1.65l0.2,0.22l1.1,1.82l0.08,1.02l-0.04,2.19l-0.02,0.08l-0.07,0.24l-0.29,1.03l-0.01,0.02
		l-0.01,0.03l-1.68,3.11l-0.76,0.8l-0.25,0.02l-0.39-0.07l4.21,2.48l1.37,0.52l0.09,0.03l0.06,0.02l1.64,0.18l0.13-0.51l0.27-0.01
		l0.45,0.09l0.73,0.47l0.02,0.01l0.2,0.13l-0.15-3.45l1.79-1.53l0.33-1.47l0.14-1.28l0.08-1.07l0.3-1.02l1.31-1.58l-0.04-0.98
		l-0.41-2.25l-0.51,0.11l-0.7,0.49l-0.41,0.24l-0.41-4.99l-0.02-0.52l0.04-0.61l0.47-0.02l-0.51-1.04l-1.15-2.24l-2.57-1.16
		l-0.25,0.03l-0.09,0.07l-0.39,0.54l-0.9,1.04l-1.92,2.16l-0.87,0.78l-0.3,0.11l-0.48,0.03l-0.35,0.01l-1.27,0.24l-2.86,0.59
		l-0.1,0.07l-0.19,0.34l-0.49,0.91l-0.03,0.11l0.3,0.01l0.13,0.02l1.2,0.28l0,0.58l-0.02,0.36l0.21,0.34L209.44,228.43
		L209.44,228.43z"/>
</g>
<g id="MASSA_DI_SOMMA" transform="matrix(16,0,0,16,-1000.9682,-3264.4682)">
	<path id="path773" style="fill:#F8C300;stroke:#000000;stroke-width:0.25;stroke-linejoin:round;stroke-miterlimit:64;" d="
		M200.62,266.61l0.49,0.35l0.43,0.06l1.42-0.1l0.92-0.07l0.24-0.04l1.26-0.25l0.47-0.09l0.26-0.15l-1.18-0.79l-1.18,0.2l-0.13-0.01
		l-0.59-0.48l-2.13-2.07l-0.84-0.84l-2.21-0.84l-0.33-0.07l-0.62-0.24l-0.03-0.01l-0.12-0.05l-0.33-0.21l-0.07-0.05l-1.53-1.37
		l-0.45-0.48l-1.24,1.42l0.8,0.49l0.89,0.55l3.2,2.32l1.81,1.34l0.33,0.41L200.62,266.61L200.62,266.61z"/>
</g>
<g id="MASSA_LUBRENSE" transform="matrix(16,0,0,16,-1000.9682,-3264.4682)">
	<path id="path776" style="fill:#F8C300;stroke:#000000;stroke-width:0.25;stroke-linejoin:round;stroke-miterlimit:64;" d="
		M200.39,346.03l0.22-1.58l0.01-0.07l0.02-0.2l-0.33-1.04l-0.08-0.26l-0.2-0.39l-3.66-2.7l-1.65,0.05l-2.01,0l-0.29-0.14l-0.19-0.1
		l-0.18-0.11l-0.07-0.04l-1.11-0.98l-0.06-0.16l0.08-0.15l0.05-0.18l-0.04-0.38l-0.1-0.28l-0.19-0.22l-0.77-0.87l-0.34-0.32
		l-0.8-0.66l-1.7-0.37l-0.18-0.04l-0.22,0.69l0.31,1.33l0.04,0.14l0.12,0.24l0.12,0.17l0.15,0.14l0.1,0.1l0.04,0.3l-0.04,0.14
		l-0.25,0.6l-3.97,8.69l-0.09,0.06l-0.26,0.1l-0.12,0.04l-0.14,0.01l-0.11,0.12l-0.46,0.59l-0.03,0.09l0.71,5.62l0.04,0.26
		l0.03,0.11l0.07,0.1l0.2,0.21l0.11-0.03l5.54-3.33l0.68-0.45l0.66-0.52l0.07-0.05l0.59-0.25l0.24-0.1l3.36-1.4l3.59-1.49
		L200.39,346.03L200.39,346.03z"/>
</g>
<g id="MELITO_DI_NAPOLI" transform="matrix(16,0,0,16,-1000.9682,-3264.4682)">
	<path id="path779" style="fill:#F8C300;stroke:#000000;stroke-width:0.25;stroke-linejoin:round;stroke-miterlimit:64;" d="
		M157.98,240.58l1.11,0.01l2.04-1.3l0.82-0.04l0.32,0.01l-1.36-5.15l-3.62-1.34l-0.22,0.21l-1.55,3.32l1.16,1.29L157.98,240.58
		L157.98,240.58z"/>
</g>
<g id="META" transform="matrix(16,0,0,16,-1000.9682,-3264.4682)">
	<path id="path794" style="fill:#F8C300;stroke:#000000;stroke-width:0.25;stroke-linejoin:round;stroke-miterlimit:64;" d="
		M203.68,329.68l0.03,0.09l0.12,0.19l0.78,0.87l4.86,3.72l0.36,0.16l0.44,0.1l0.11,0l0-0.2l-0.13-1.94l-1.65-3.5l-0.76-1.23l-3.35-1
		l-0.15,0.01l-0.07,0.04L203.68,329.68L203.68,329.68z"/>
</g>
<g id="MONTE_DI_PROCIDA" transform="matrix(16,0,0,16,-1000.9682,-3264.4682)">
	<path id="path824" style="fill:#F8C300;stroke:#000000;stroke-width:0.25;stroke-linejoin:round;stroke-miterlimit:64;" d="
		M116.99,281.01l0.55-1.36l0-0.16l0-0.24l-0.01-0.1l-0.01-0.09l-0.1-0.22l-0.29-0.58l-1.94-2.52l-0.16-0.19l-0.2-0.2l-1.32-1.03
		l-0.19-0.14l-1.03-0.58l-0.48-0.13l-0.39,2.73l-0.32,3.98l1.57,0.55l1.12,0.24l1.95,0.39l0.06,0.01l0.14-0.04L116.99,281.01
		L116.99,281.01z"/>
</g>
<g id="MUGNANO_DI_NAPOLI" transform="matrix(16,0,0,16,-1000.9682,-3264.4682)">
	<path id="path899" style="fill:#F8C300;stroke:#000000;stroke-width:0.25;stroke-linejoin:round;stroke-miterlimit:64;" d="
		M151.64,243.09l0.85,1.43l4.81-0.5l0.09-0.18l0.09-0.25l0.06-0.19l0.23-0.81l0.05-0.25l0.15-1.15l0.02-0.45l0-0.05l0-0.09l-1.31-3
		l-3.59-1.3l-3.22,2.17l-0.08,0.72l-0.01,0.99l0.56,1.74l0.57,0.74L151.64,243.09L151.64,243.09z"/>
</g>
<g id="NAPOLI" transform="matrix(16,0,0,16,-1000.9682,-3264.4682)">
	<path id="path902" style="fill:#DA271D;stroke:#000000;stroke-width:0.25;stroke-linejoin:round;stroke-miterlimit:64;" d="
		M148.06,279.95l0-0.04l-0.06-0.03l0.02-0.04l-0.01,0l-0.02,0.04l0,0.02l0.01,0.01l-0.01,0.02l-0.02,0.02l-0.01,0.04l0,0.04l0,0.03
		l-0.02,0.02l0,0.01l0.04-0.03l0-0.01l0.01,0l0.02-0.03l0.01-0.01l0.02-0.01l0.01-0.02l0.02,0.01l-0.02,0.03l-0.03,0.08l0,0.04
		l0,0.01l0.03-0.01l0-0.02l0.04,0l0.01-0.03l0.01-0.02l0.01-0.02l0.01-0.02l0.02-0.01l0.02-0.05l0.02-0.03l0-0.01l0.01-0.01
		l0.01-0.02l0.01-0.03l-0.01,0l-0.02,0.04l-0.03,0l-0.04,0l-0.01,0.03L148.06,279.95L148.06,279.95z"/>
	<path id="path904" style="fill:#DA271D;stroke:#000000;stroke-width:0.25;stroke-linejoin:round;stroke-miterlimit:64;" d="
		M167.68,243.2l-3.38-2.32l-0.5-0.77l0.01-0.1l0.02-0.13l0.55-1.22l-2.11,0.58l-0.32-0.01l-0.82,0.04l-2.04,1.3l-1.11-0.01l0,0.09
		l0,0.05l-0.02,0.45l-0.15,1.15l-0.05,0.25l-0.23,0.81l-0.06,0.19l-0.09,0.25l-0.09,0.18l-4.81,0.5l-0.31,0.55l-0.02,0.04
		l-0.03,0.05l-0.06,0.27l0,0.05l0,0.05l0,0.04l0,0.07l0.46,1.38l-0.48,1.51l-0.11,0.12l-6.52,3.59l-2.7,0.86l-0.17,0.08l-2.06,1.14
		l-0.33,0.2l-0.04,0.02l-0.08,0.04l-0.4,0.21l-0.26,0.08l-0.2-0.06l-0.28-0.13l-0.34-0.18l-0.5-0.3l-0.17,0l-0.03,0l-0.72,0.18
		l-0.84,0.38l0.11,0.35l-0.04,0.14l-1.08,3.28l1.55,1.58l0.3-0.12l0.46-0.19l0.52-0.07l1.68,0.07l1.57,1.94l0.11,0.23l0.06,0.2
		l-0.03,0.19l-0.01,0.03l-0.05,0.16l-0.44,0.93l-0.06,0.11l-0.03,0.06l-0.35,3.74l0.02,0.08l0.39,2.86l0.06,0.68l-0.04,0.52l-0.01,0
		l0.42,0.27l0.04,0.03l0.09,0.06l0.2,0.17l0.02,0.02l0.01,0.01l2.54,3.03l0.02,0.04l0.04,0.08l0,0.02l0.21,1.17l-0.01,0.06
		l-0.01,0.06l-0.09,0.48l-0.08,0.27l-0.03,0.09l-0.01,0.02l-0.01,0.02l-0.01,0.03l-0.01,0.02l-0.01,0.02l-0.43,0.34l-0.04,0.03
		l-0.03,0.02l-0.59,0.28l-0.78-0.25l-0.2-0.09l-0.11-0.05l-0.73,0.09l-0.16,0.09l-0.09,0.05l-0.06,0.04l-0.03,0.12l-0.07,0.57
		l-0.01,0.06l0,0.02l0,0.03l0,0.04l0.03,0.1l0.01,0.03l0.01,0.04l0.02,0.08l0.05,0.08l0.02,0.02l0.03,0.02l0.02,0l0.03-0.01
		l0.52-0.32l2.93-1.35l0.65,0.56l0.72,0.49l1.82,1.2l0.37,0.05l2.25-1.33l0.55-0.4l0.02-0.01l0.01-0.02l0.06-0.16l0.06,0.13l0.13,0
		l0.2-0.04l1.54-0.9l0.09-0.11l0.04-0.05l0.04-0.08l0.01-0.03l0-0.29l-0.01-0.18l-0.04-0.19l0.89-4.02l0.36-0.92l2.19-3.25
		l0.03-0.04l0.05-0.06l0.54-0.47l0.26-0.2l0.15-0.11l0.25-0.18l0.11-0.06l0.02-0.01l0.15-0.07l0.27-0.11l0.24-0.08l0.69-0.13
		l0.05-0.01l0.04-0.01l0.16-0.01l0.04,0l0.07,0l0.15,0.01l0.05,0l0.08,0l0.05,0l0.12,0.01l0.05,0.01l0.02,0l0.04,0.01l0.69,0.07
		l0.55,0.06l0.02,0l0.18,0.03l0.01,0.01l2.12,1.67l0.04,0.03l0.05,0.04l0.03,0.02l0.03,0l0.03-0.01l0.01-0.03l0.52-2.23l0.08-0.57
		l0.41-0.04l0.57,0.04l0.03,0l1.47,0.17l0.1,0.02l1.6,0.31l0.12,0.03l0.25,0.06l0.1,0.03l0,0.04l0.01,0.02l0.01,0.01l0.06,0.05
		l0.04,0.02l0.03,0.02l0.01,0.01l0.33,0.18l0.16,0.08l0.46,0.23l-0.02-0.08l-0.76-0.67l-2.68-0.55l-0.87-0.31l-0.56-0.09l-0.21-0.11
		l0,0l0.98-1.72l0.4-0.38l0.08-0.07l0.4-0.34l0.56-0.29l0.04-0.01l0.04,0l1,0.01l0.89,0.51l-0.01,0.65l-0.03,0.06l-0.1,0.16
		l-0.11,0.12l-0.24,0.24l-0.09,0.09l0.42,0.02l0.56-0.44l-0.07-0.09l-0.05-0.1l-0.02-0.04l-0.03-0.48l0-0.09l-0.01-0.36l0-0.19
		l0.17-0.05l0.05-0.01l0.04,0.02l0.15,0.06l3.15,1.54l1.34,0.72l0.03,0.02l1.87,1.26l1.68,0.89l2.56,2.07l0.44,0.46l0.36,0.63
		l0.05,0.15l0.87-0.58l-1.54-1.01l-0.31-0.4l-0.09-0.13l0.06-0.06l0.13-0.02l0.03,0l0.04-0.01l0.88,0.07l1.5-0.36l0.94-2.73
		l2.94-1.46l1.48-2l0.6-0.27l-0.1-0.55l-0.06-1.19l1.27-1.43l-0.76-1.68l-0.04-0.07l-0.03-0.06l-0.18-0.34l-0.01-0.01l-0.14-0.21
		l-0.08-0.12l-0.2-0.26l-0.33-0.37l-1.09-1.43l-1.24-0.84l-2.65-1.98l-0.37-0.28l-0.02-0.02l-0.39,0.45l-0.16,0.15l-3.99,1.04
		l-0.34,0.07l-0.01-0.01l-0.08-0.12l0.05-0.35l0.07-0.37l0.04-0.18l0.16-0.37l0.28-0.27l0.31-0.13l0.17-0.06l0.14-0.05l0.03-0.01
		l-0.02-0.07l-0.01-0.02l-0.02-0.06l-0.07-0.09l-0.01-0.02l-0.85-0.91l-1.41-1.38l-1.25-1.17l-0.98-0.68l-2.2-1.39l-0.1,0.08
		l-0.04,0.04l-0.04,0.04l-0.13,0.16l-0.02,0.02l-0.1,0.13l-0.01,0.01l-0.02,0.03l-0.01,0.01l-0.34,0.48l-0.17,0.32l-0.14,0.29
		l-0.03,0.07l-0.09,0.22l-0.05,0.19l-0.01,0.02l-0.04,0.14l-0.01,0.05l-0.01,0.03l-0.04,0.08l-0.09,0.21l-0.75-0.07l-0.15-0.02
		l-1.06-0.27l-0.36-1.2l-0.05-0.64l0.05-1.76l-1.02,0.31L167.68,243.2L167.68,243.2z"/>
</g>
<g id="NOLA" transform="matrix(16,0,0,16,-1000.9682,-3264.4682)">
	<path id="path913" style="fill:#F8C300;stroke:#000000;stroke-width:0.25;stroke-linejoin:round;stroke-miterlimit:64;" d="
		M223.62,248.12l-2.81,0.47l0.1,0.7l0.03,0.09l0.05,0.15l0.15,0.32l0.14,0.15l0.01,0.01l0.22,0.13l0.15,0.07l1.68,0.83l0.62,0.3
		l0.71,0.32L223.62,248.12L223.62,248.12z"/>
	<path id="path915" style="fill:#F8C300;stroke:#000000;stroke-width:0.25;stroke-linejoin:round;stroke-miterlimit:64;" d="
		M215.53,215.68l0.62,3.89l0.09-0.07l0.25-0.03l2.57,1.16l1.15,2.24l0.51,1.04l0.14,0.86l0.41,1.4l0.94,2.34l2.73,2.32l0.46,0.22
		l1.45,2.96l1.07,0.2l0.23,0.13l0.32,0.12l0.21,0.07l0.24,0.01l0.3,0l0.04,0l0.59-0.01l0.03,0l0.12,0.01l0.22,0.02l0.11,0.05l0,0.15
		l-0.02,0.1l-0.03,0.22l0.02,0.55l0.13-0.01l0.18-0.08l0.24-0.11l0.3-0.09l0.1,0.03l0.09,0.03l0.04,0.33l0,0.14l0,0.27l0.02,1.87
		l-0.02,0.22l0.34-0.13l0.27-0.16l0.06-0.04l0.26,0.9l0.02,0.21l0.15,0.07l0.43-0.04l0.33-0.04l0.25-0.03l0.06,0.53l0,0.02
		l-0.01,0.2l-0.01,0.07l-0.02,0.17l-0.04,3.4l0.08,0.23l0.16,0.41l0.07,0.14l0.01,0.02l0.03,0.05l0.01,0.01l-0.15,0.89l-0.01,0.03
		l-0.05,0.23l-0.06,0.22l-0.03,0.05l-0.07,0.15l-0.16,0.3l-0.34,0.46l-0.61,0.52l-0.09,0.07l-0.03,0.03l-0.18,0.15l-0.33,0.26
		l-0.23,0.16l-0.1,0.06l-0.02,0.01l-0.09,0.06l-0.29,0.3l-0.23,0.23l-0.53,0.57l-0.18,0.2l-0.18,0.21l-0.4,0.48l-0.15,0.21
		l-0.13,0.19l-0.16,0.25l-0.04,0.14l-0.01,0.12l-0.01,0.1l0.01,0.18l-0.06,0.17l-0.21,0.43l-0.13,0.21l-0.13,0.18l-0.06,0.08
		l-0.01,0.01l-0.05,0.07l-0.21,0.02l-0.21-0.01l-0.34-0.09l-0.28-0.11l-0.24-0.07l-0.26-0.06l-0.35-0.02l-0.27,0.04l-0.3,0.07
		l-0.25,0.08l-0.15,0.04l-0.09,0.03l-0.15,0.01l-0.18,0l-0.17-0.02l-0.29-0.1l-0.12-0.07l-1.36,0.62l-0.22,0.11l-0.26,0.18
		l-0.12,0.23l-1.12,2.48l0.21,0.25l1.57-0.91l0.03-0.01l0.21-0.05l1.78-0.05l0.75,0.42l1.66,1.27l1.46,0.94l0.27,0.13l0.03,0.01
		l0.94,0.39l0.04-0.01l0.14-0.04l0.14-0.05l0.13-0.05l0.09-0.04l-0.06-0.06l-0.21-0.23l-0.2-0.26l-0.13-0.26l-0.12-0.3l-0.08-0.32
		l-0.27-1.58l0.07-0.18l1.27-2.37l0.12-0.12l0.06-0.06l0.02-0.01l0.14-0.08l0.12-0.04l0.72-0.08l0.02,0l0.37-0.06l0.25-0.05
		l0.07-0.02l0.3-0.1l0.53-0.2l0.24-0.11l0.5-0.23l0.15-0.08l0.51-0.32l0.28-0.18l2.69-1.94l1.5-1.25l0.52-0.36l1.17-0.63l0.15-2.64
		l-0.19-0.51l-0.86-0.94l-1.58-1.22l-0.22,0l-1.22-1.43l-0.1-2.4l0.1-0.15l0.3,0.03l0.06,0.01l0.33,0.06l4.54,0.94l0.97,1.02
		l0.56,1.75l2.11-0.29l-0.54-0.27l-0.07-0.3l-0.89-3.84l-0.01-0.16l1.08-0.76l-2.39,0.65l-0.32,0.03L243,235.9l-4.51-1.11
		l-1.52-2.72l-0.11-0.22l-0.08-0.57l-0.42-0.89l-0.04-0.07l-0.01,0l-0.08,0.02l-0.04,0.01l-0.12,0.03l-0.94,0.46l-0.63,0.54
		l-1.02,0.37l-3.6-2.71l-0.8-2.35l0.04-1.38l1.16-0.14l-1.44-2.36l-0.37-0.04l-0.2-0.06l-1.08-0.88l-0.38-0.35l-1.42-1.46
		l-0.18-0.22l-0.21-0.31l-0.1-0.21l-0.03-0.1l-0.01-0.03l0.52,0.04l0.57,0.13l0.47,0.19l0.4,0.09l2.38-0.01l0.16-0.02l0.05-0.14
		l-0.1-0.73l-2.45-1.41l-0.38-0.21l-0.45-0.14l-1.42-0.42l-0.6-0.14l-0.48-0.05l-1.66,0L215.53,215.68L215.53,215.68z"/>
</g>
<g id="OTTAVIANO" transform="matrix(16,0,0,16,-1000.9682,-3264.4682)">
	<path id="path948" style="fill:#F8C300;stroke:#000000;stroke-width:0.25;stroke-linejoin:round;stroke-miterlimit:64;" d="
		M227.23,255.26l0.03-0.09l-0.26-0.09l-0.15-0.05l-0.19,0.67l0.38,0.05L227.23,255.26z"/>
	<path id="path950" style="fill:#F8C300;stroke:#000000;stroke-width:0.25;stroke-linejoin:round;stroke-miterlimit:64;" d="
		M229.39,257.59l-0.03-0.01l-0.27-0.13l-1.46-0.94l-1.66-1.27l-0.75-0.42l-1.78,0.05l-0.21,0.05l-0.03,0.01l-1.57,0.91l-0.69,0.99
		l-0.32,0.44l-4.01,4.08l-0.17,0.15l-1.97,1.38l-2.39,2.64l-0.26,0.31l-0.32,0.39l-2.55,3.84l0.01,0.02l2.48,3.85l0.36-0.16
		l0.33-0.21l0.3-0.23l0.28-0.26l1.64-1.66l0.09-0.19l0.2-1.11l-0.04-0.38l-0.08-0.73l-0.77-1.3l-0.08-0.16l0.04-0.01l0.2-0.07
		l0.76-0.17l0.85-0.08l0.97,0.02l0.79,0.02l0.95,0.02l0.46-0.02l0.39-0.08l0.33-0.07l3.25-0.82l1.57-1.96l-0.03-0.24l0.36-1.85
		l5.05,1.29l3.33,0.93l0.27,0.05l1.72,0.24l0.47,0l-0.05-1.52l-0.03-0.24l-0.04-0.25l-0.09-0.38l-0.68-1.05l-0.14-0.18l-2.7-2.58
		l-0.81-0.74l-0.09,0.04l-0.13,0.05l-0.14,0.05l-0.14,0.04l-0.04,0.01L229.39,257.59L229.39,257.59z"/>
	<path id="path952" style="fill:#F8C300;stroke:#000000;stroke-width:0.25;stroke-linejoin:round;stroke-miterlimit:64;" d="
		M226.96,252.23l-0.3-0.1l-0.09,0.26l-0.09,0.22l0.28,0.11L226.96,252.23L226.96,252.23z"/>
</g>
<g id="PALMA_CAMPANIA" transform="matrix(16,0,0,16,-1000.9682,-3264.4682)">
	<path id="path970" style="fill:#F8C300;stroke:#000000;stroke-width:0.25;stroke-linejoin:round;stroke-miterlimit:64;" d="
		M235.81,266.6l3.66,1.08l0.18-0.5l0.1-0.24l0.07-0.16l0.83-0.42l0.18-0.06l1.4,0.02l0.17,0.02l-0.12,0.43l0.41,0.02l0.44-0.01
		l0.63-0.09l0.37-1.25l1.58-3.9l0.07-0.13l0.58-0.2l1.91-0.28l0.31-0.01l3.11-0.04l2.84,0.38l-2.35-3.08l-1.57,0.13l-0.22,0.02
		l-0.16-0.09l-3.06-1.85l-0.22-0.14l-0.1-0.18l-1.12-3.15l-3.96-2.25l-0.07-0.06l0.2-1.26l0.38-2.01l-0.86-1.01l-1.17,0.63
		l-0.52,0.36l-1.5,1.25l-2.69,1.94l-0.28,0.18l-0.51,0.32l-0.15,0.08l-0.5,0.23l-0.24,0.11l-0.53,0.2l-0.3,0.1l-0.07,0.02
		l-0.25,0.05l-0.37,0.06l-0.02,0l1.02,0.19l2.14,0.46l0.14,0.04l0.67,0.71l1.07,1.28l0.63,0.76l0.01,0.01l0.34,0.45l0.08,0.1
		l0.04,0.63l-0.62,3.52l-0.63,2.1l-0.42,1.11l-0.58,1.67l-0.39,1.67L235.81,266.6L235.81,266.6z"/>
</g>
<g id="PIANO_DI_SORRENTO" transform="matrix(16,0,0,16,-1000.9682,-3264.4682)">
	<path id="path1026" style="fill:#F8C300;stroke:#000000;stroke-width:0.25;stroke-linejoin:round;stroke-miterlimit:64;" d="
		M214.62,338.32l0.08-1.49l-0.25-0.56l-0.19-0.21l-1.22-1.29l-0.33-0.12l-0.65-0.08l-1.67,0.24l-0.11,0l-0.44-0.1l-0.36-0.16
		l-4.86-3.72l-0.78-0.87l-0.12-0.19l-0.03-0.09l-1.5,1.88l0.42,0.36l1.22,1.08l0.21,0.31l0.11,0.22l0.08,0.23l-0.35,0.12l-0.08,0.03
		l1.92,5.67l0.05,0.14l0.05,0.08l0.86,0.77l0.17,0.13l0.23,0.15l0.87-0.08l2.82-0.51l1.02-0.21l0.07-0.02l0.06-0.02l0.36-0.16
		l0.01-0.06l0.01-0.14l-0.02-0.07l-0.03-0.06l0.03-0.1l0.04-0.08l0.44-0.38l0.14-0.08l1.56-0.59L214.62,338.32L214.62,338.32z"/>
</g>
<g id="PIMONTE" transform="matrix(16,0,0,16,-1000.9682,-3264.4682)">
	<path id="path1055" style="fill:#F8C300;stroke:#000000;stroke-width:0.25;stroke-linejoin:round;stroke-miterlimit:64;" d="
		M225.19,322.7l0.89,0.86l0.91,1.26l0.18,0.34l-0.04,0.28l-0.06,0.26l-0.06,0.25l0.66,1.74l0.17,0.21l0.18,0.15l0.16,0.09l1.91,0.84
		l0.41-0.58l0.21-0.27l0.32-0.35l0.84-0.69l5.29-3.42l2.81-1.62l0.28-0.11l1.48-0.41l0-0.01l-1.11-0.82l-0.18,0.09l-0.2,0.09
		l-0.46,0.2l-1.21,0.42l-0.28,0l-0.19-0.07l-0.14-0.13l-0.62-0.73l-0.07,0.1l-0.48,0.12l-0.2,0.04l-0.29-0.06l-0.38-0.1l-0.37-0.11
		l-0.37-0.2l-0.26-0.21l-0.14-0.17l-0.12-0.43l-2.16-2.2l-2.81-1.59l-1.37-0.55l-0.22,0.48l-1.27,3.01l-0.7,1.95L225.19,322.7
		L225.19,322.7z"/>
</g>
<g id="POGGIOMARINO" transform="matrix(16,0,0,16,-1000.9682,-3264.4682)">
	<path id="path1061" style="fill:#F8C300;stroke:#000000;stroke-width:0.25;stroke-linejoin:round;stroke-miterlimit:64;" d="
		M232.95,277.61l0.43,0.33l0.07,0.05l0.97,0.91l0.2,0.21l0.2,0.26l0.02,0.29l-0.05,0.15l-0.06,0.19l-0.06,0.29l-0.03,0.29l0.14,0.07
		l2.29,0.21l2.61-0.42l0.94,0.32l0.49-1.08l2.88,1.09l0.26,0.09l0.56,0.19l2.21,0.58l-0.43-4.49l-1.09-0.72l-0.49-0.26l-0.46-0.11
		l-0.41,0.36l-0.21,0.2l-0.21,0.2l-0.11,0.01l-0.29-0.21l-0.52-0.42l-0.62-2.35l0.43-2.39l0.58-1.84l0.05-0.23l0-0.02l0.06-0.31
		l-3.84-1.37l-3.66-1.08l-0.02,1.54l0.02,6.13l-0.02,0.11l-0.03,0.1l-0.02,0.06l0,0.01l-0.13,0.38l-0.01,0.04l-0.13,0.29l-0.12,0.21
		l-0.06,0.02l-0.13,0.05l-0.01,0l-0.09,0.04l-0.12-0.01l-0.26-0.01l-0.71-0.14l-0.07-0.05L232.95,277.61L232.95,277.61z"/>
</g>
<g id="POLLENA_TROCCHIA" transform="matrix(16,0,0,16,-1000.9682,-3264.4682)">
	<path id="path1067" style="fill:#F8C300;stroke:#000000;stroke-width:0.25;stroke-linejoin:round;stroke-miterlimit:64;" d="
		M206.56,265.99l0.03-0.17l-0.05-0.61l-0.11-0.34l-0.09-0.14l-1.58-1.98l-0.05-0.06l-0.12-0.14l-0.18-0.11l-0.16-0.09l-0.16-0.07
		l-0.61-0.27l-0.85-0.42l-0.21-0.13l-0.6-0.4l-0.23-0.19l-0.07-0.12l-0.08-0.17l-0.24-0.69l-0.49-2.45l-1.94-1.45l-4.86-6.78
		l-0.46-0.8l-1.84-0.09l1.13,3.11l0.69,1.09l0.2,3.52l-0.24,0.14l-0.78,0.49l-0.19,0.12l-0.04,0.02l-0.07,0.04l-0.02,0.01l0,0.04
		l0,0.02l0,0.11l1.71,1.83l0.26,0.09l0.12,0.04l0.45,0.48l1.53,1.37l0.07,0.05l0.33,0.21l0.12,0.05l0.03,0.01l0.62,0.24l0.33,0.07
		l2.21,0.84l0.84,0.84l2.13,2.07l0.59,0.48l0.13,0.01l1.18-0.2l1.18,0.79L206.56,265.99L206.56,265.99z"/>
</g>
<g id="POMIGLIANO_D-ARCO" transform="matrix(16,0,0,16,-1000.9682,-3264.4682)">
	<path id="path1073" style="fill:#F8C300;stroke:#000000;stroke-width:0.25;stroke-linejoin:round;stroke-miterlimit:64;" d="
		M199.8,248.04l0.12,0l0.52-0.07l0.52-0.09l0-0.17l-0.04-0.23l-0.22-0.77l-0.04-0.14l-0.11-0.12l-0.17-0.17l-0.03-0.04l-0.98,1.07
		l-0.04,0.12l0.12,0.32l0.16,0.29L199.8,248.04L199.8,248.04z"/>
	<path id="path1075" style="fill:#F8C300;stroke:#000000;stroke-width:0.25;stroke-linejoin:round;stroke-miterlimit:64;" d="
		M206.05,244.29l-0.33-0.13l-1.37-1.54l-0.35-1.6l-0.55-5.12l0.05-1.43l0-0.1l0-0.01l-0.01-0.39l-0.16-0.24l-0.01-0.01l-0.02-0.03
		l-0.44-0.33l-0.93-0.91l-0.06,0.08l-0.09,0.14l-0.12,0.42l-0.12,0.44l-0.49,1.57l-2.21,1.35l-0.61,0.13l-0.12,0.03l-2.33,0.03
		l-0.1,0l-1.08,2.25l-1.04,2.13l-0.55-0.01l-1.45,1.83l-0.13,0.43l-0.02,0.14l-0.01,0.04l-0.01,0.04l0.11,1.1l1.07,1.68l0.37-0.07
		l0.38-0.08l2.73-2.02l1.01,0.13l2.03,1.05l4.23-0.35l1.09,0.3l1.27,0.68L206.05,244.29L206.05,244.29z"/>
</g>
<g id="POMPEI" transform="matrix(16,0,0,16,-1000.9682,-3264.4682)">
	<path id="path1078" style="fill:#F8C300;stroke:#000000;stroke-width:0.25;stroke-linejoin:round;stroke-miterlimit:64;" d="
		M232.9,299.1l-0.11-0.5l-0.1-0.27l-0.51-0.31l-0.7-0.06l-0.16,0l0.02-2.75l-0.85-3.67l-0.33-1.08l0.24-1.16l0.1-0.09l-0.06-0.31
		l-0.26-0.93l-0.09-0.25l-0.07-0.07l-0.02-0.02l-0.45-0.11l-0.01,0l-1.2-0.24l-0.1,0l-1.21,0.07l-0.55,0.05l-0.09,0.02l-0.16,0.06
		l-0.13,0.05l-0.03,0.01l-0.01,0.01l-0.12,0.05l-0.01,0l-0.28,0.13l-0.05,0.02l-0.15,0.07l-0.18,0.09l-0.71,0.35l-0.41,0.25
		l-0.66,0.42l-0.35,0.29l-0.25,0.34l-0.04,0.05l-0.21,0.43l-0.35,0.5l-0.36,0.31l-0.72,0.62l-0.32,0.25l1.53,4.99l0.67,1.94
		l0.05,0.1l0.07,0.13l1.37,1.99l0.3,0.07l0.4,0.09l0.79,0.19l0.12,0.11l0.09,0.12l0.11,0.17l0.81,1.59l0.46-0.45l0.41-0.38
		l2.58-2.31l0.03-0.02l0.49-0.28l0.13-0.07l0.24-0.13L232.9,299.1L232.9,299.1z"/>
</g>
<g id="PORTICI" transform="matrix(16,0,0,16,-1000.9682,-3264.4682)">
	<path id="path1095" style="fill:#F8C300;stroke:#000000;stroke-width:0.25;stroke-linejoin:round;stroke-miterlimit:64;" d="
		M186.59,275.74l0.23-0.95l1.16-1.04l2.44-1.26l1.12-0.25l0.17-0.06l0.15-0.08l0.14-0.09l0.07-0.06l0.08-0.12l-0.02-0.16l-0.05-0.33
		l-1.07-3.49l-0.34-0.43l-0.38-0.32l-0.3,0.07l-0.79,0.82l-2.51,0.46l-1.81,0.12l-2.18,0.92l-0.87,0.58l3.66,3.2L186.59,275.74
		L186.59,275.74z"/>
</g>
<g id="POZZUOLI" transform="matrix(16,0,0,16,-1000.9682,-3264.4682)">
	<path id="path1107" style="fill:#F8C300;stroke:#000000;stroke-width:0.25;stroke-linejoin:round;stroke-miterlimit:64;" d="
		M120.23,268.68l0.01-0.05l0.09-0.08l0.11-0.09l0.18-0.13l1.17-0.77l0.46-0.3l0.28-0.14l0.08-0.03l0.11-0.04l0.35-0.1l0.33-0.06
		l2.05-0.19l0.51-0.05l0.04,0.01l0,0.03l1.17-0.1l0.49,0l0.24,0.03l1.39,0.61l0.5,0.26l0.06,0.03l0.04,0.03l0.49,0.36l0.11,0.19
		l0.23,0.39l0.11,0.2l0.03,0.08l0.02,0.07l0.03,0.11l0.04,0.18l-0.5,0.59l0,0.15l1.41,0.37l3.39,0.78l1.32,0.05l1.67-0.05l1.9,0.1
		l0.07,0.02l0.24,0.11l0.17,0.08l0.35,0.19l0.02,0.01l0.01,0l0.04-0.52l-0.06-0.68l-0.39-2.86l-0.02-0.08l0.35-3.74l0.03-0.06
		l0.06-0.11l0.44-0.93l0.05-0.16l0.01-0.03l0.03-0.19l-0.06-0.2l-0.11-0.23l-1.57-1.94l-1.68-0.07l-0.52,0.07l-0.46,0.19l-0.3,0.12
		l-1.55-1.58l1.08-3.28l0.04-0.14l-0.11-0.35l-0.19-0.11l-0.03-0.01l-0.04-0.01l-0.16-0.04l-0.14-0.03l-0.08-0.02l-0.37-0.05
		l-0.32,0l-0.49,0.09l-0.48,0.16l-0.52,0.15l-0.07,0.02l-0.14,0.03l-0.07,0.01l-0.29-0.09l-4.92-3.07l-2.06-0.9l-0.3-0.06
		l-0.34-0.03l-0.32-0.03l-0.34-0.02l-3.28,0.05l-0.24,0.04l-0.29,0.1l-0.13,0.05l-0.18,0.06l-0.2,0.07l-0.15,0.06l-0.22,0.13
		l-0.19,0.26l-0.17,0.24l-1.26,0.76l-1.71,0.01l-1.18-0.64l-0.69-0.13l-1.84-0.34l-1.1-0.2l-0.19-0.03l-0.69-0.12l0.28,1.15
		l0.18,0.79l0.48,2.19l0.05,0.26l0.17,1.1l0.03,0.24l0.47,4.4l0,0.19l0,0.67l1.43,0.04l2.64-0.32l0.09-0.01l0.14-0.02l0.25,0.08
		l0.06,0.02l0.27,0.11l0.1,0.04l0.17,0.08l0.09,0.04l0.2,2l-0.2,1.32l0,0.35l0.01,0.33l0.1,0.07l1.11,0.72L120.23,268.68
		L120.23,268.68z"/>
</g>
<g id="PROCIDA" transform="matrix(16,0,0,16,-1000.9682,-3264.4682)">
	<path id="path1131" style="fill:#F8C300;stroke:#000000;stroke-width:0.25;stroke-linejoin:round;stroke-miterlimit:64;" d="
		M100.35,294.7l0.43,0.34l0.97-0.17l0.47-0.02l0.74,1.56l0.04,0.07l0.11,0.16l0.49,0.49l0.24,0.14l0.08,0.04l0.19,0.07l0.63,0.21
		l0.15,0.01l0.03-0.02l0.05-0.05l-0.06-0.19l-0.23-0.4l-0.08-0.14l-0.1-0.11l-0.18-0.16l-0.07-0.08l-0.07-0.09l-0.09-0.18l-0.1-0.24
		l-0.06-0.15l-0.16-1.33l0.54-0.39l0.31-0.17l1.01-0.43l0.37,0.24l0.37,0.24l0.11,0.06l0.06,0.02l0.06,0.02l0.08,0l0.03,0l0.08-0.04
		l0.04-0.02l0.09-0.1l0.09-0.11l-0.01-0.06l-0.07-0.14l-0.17-0.22l-0.54-0.64l-0.02-0.02l-0.06-0.04l-0.05-0.02l-0.3-0.05l-0.1,0.02
		l-0.06,0.01l-0.02-0.02l-0.02-0.07l-0.01-0.07l0-0.13l0-0.1l0.04-0.26l0.03-0.08l0.04-0.11l0.13-0.2l0.31-0.37l0.07-0.08l0.1-0.11
		l0.4-0.29l0.66-0.42l0.32-0.13l0.06-0.02l0.42-0.07l0.12-0.01l0.16,0l0.05,0l1,0.23l0.13-0.17l0.11-0.23l0.03-0.71l-0.27-0.31
		l-0.37-0.34l-0.08-0.04l0.01,0.15l0,0.02l-0.35,0.1l-0.16,0.04l-0.09,0l-0.09,0l-2.16-0.26l-0.09-0.01l-0.1-0.03l-0.12-0.04
		l-0.12-0.05l-0.26-0.18l-0.1-0.08l-0.04-0.06l-0.11-0.22l-0.01-0.03l-0.02-0.08l-0.08-0.2l-0.26-0.46l-0.21,0.04l-1.59,0.59
		l-0.01,1.43l-0.07,1.59l-0.2,0.57l-0.08,0.22l-0.55,1.17l-0.4,0.77l-0.47,0.91l-0.2,0.35l-0.02,0.03l-0.04,0.06l-0.03,0.01
		l-0.13-0.01l-0.45-0.16l-0.88-0.33l-0.27-0.07l-0.07-0.01l-0.03,0.01l-0.05,0.03l-0.14,0.1l-0.24,0.28l-0.25,0.31l-0.03,0.05
		l-0.08,0.16l-0.03,0.09l-0.02,0.06l-0.31,0.99l0.06,0.08l0.35,0.36l0.2,0.2l0.07,0.06l0.04,0.03l0.03,0.02l0.74,0.2l0.13,0.02
		l0.13,0.02l0.09,0.01l0.07-0.01l-0.1-1.01l-0.13-0.04l-0.03,0l-0.28-0.21l-0.09-0.16l-0.03-0.07l-0.03-0.06l-0.04-0.2l0.02-0.19
		l0.04-0.14l0.02-0.07l0.07-0.12l0.08-0.11l0.05-0.06l0.06-0.05l0.1-0.09l0.27-0.08l0.06-0.02l0.12,0.02L100.35,294.7L100.35,294.7z
		"/>
</g>
<g id="QUALIANO" transform="matrix(16,0,0,16,-1000.9682,-3264.4682)">
	<path id="path1140" style="fill:#F8C300;stroke:#000000;stroke-width:0.25;stroke-linejoin:round;stroke-miterlimit:64;" d="
		M138.78,239.1l1.01-0.61l1.3-0.19l0.47-1.67l0.7-0.38l-1.18-0.17l-0.52-0.09l0.07-0.12l0.54-0.91l0.11-0.16l0.03-0.04l0.14-0.2
		l0.21-0.3l0.05-0.07l-2.54-0.33l-1.88-0.11l-0.1,0l-1.88-0.1l-0.15-0.01l-0.21-0.01l-3.27-0.32l-0.43-0.05l-0.13-0.02l-0.37-0.06
		l-0.26-0.12l-0.05-0.03l-0.2-0.16l-0.27-0.19l-0.27-0.15l-1.22-0.6l-0.29-0.07l-0.09,0.07l-0.04,0.17l-0.02,0.2l-0.02,0.21
		l-0.01,0.29l0.01,0.31l0,0.05l0,0.04l0.06,0.35l0.32,1.37l0.13,0.26l0.27,0.28l0.17,0.32l0.17,0.43l0.5,1.66l0.06,0.28l0.03,0.15
		l0.04,0.99L138.78,239.1L138.78,239.1z"/>
</g>
<g id="QUARTO" transform="matrix(16,0,0,16,-1000.9682,-3264.4682)">
	<path id="path1143" style="fill:#F8C300;stroke:#000000;stroke-width:0.25;stroke-linejoin:round;stroke-miterlimit:64;" d="
		M140.11,254.54l-0.1-0.53l0.44-3.02l0.14-0.19l0.07-0.22l0.07-0.26l0.05-0.19l0.05-0.3l0.02-0.21l0-0.12l-1.07-4.21l-0.01-0.04
		l-0.01-0.03l-2.08-0.83l-2.04,0.9l-1.34-0.1l-2.31-0.46l-0.97-1.4l-0.04-0.15l-0.08-0.65l-1.89,0.38l-1.91,2.18l-0.78,1.24
		l-0.47,0.97l-0.11,0.23l-0.24,0.66l0,0.01l-0.08,0.21l-0.08,0.25l-0.03,0.21l-0.02,0.19l0.03,0.13l0.01,0.03l0.01,0.05l0.57,1.6
		l2.06,0.9l4.92,3.07l0.29,0.09l0.07-0.01l0.14-0.03l0.07-0.02l0.52-0.15l0.48-0.16l0.49-0.09l0.32,0l0.37,0.05l0.08,0.02l0.14,0.03
		l0.16,0.04l0.04,0.01l0.03,0.01l0.19,0.11l0.84-0.38l0.72-0.18l0.03,0l0.17,0l0.5,0.3l0.34,0.18l0.28,0.13l0.2,0.06l0.26-0.08
		l0.4-0.21L140.11,254.54L140.11,254.54z"/>
</g>
<g id="ROCCARAINOLA" transform="matrix(16,0,0,16,-1000.9682,-3264.4682)">
	<path id="path1196" style="fill:#F8C300;stroke:#000000;stroke-width:0.25;stroke-linejoin:round;stroke-miterlimit:64;" d="
		M221.85,216.37l1.66,0l0.48,0.05l0.6,0.14l1.42,0.42l0.45,0.14l0.38,0.21l2.45,1.41l0.45-0.13l2.92-0.64l1.33-0.18l0.48-0.06
		l0.74-0.09l0.19-0.02l0.21-0.01l4.1,2.56l0.11,0.08l0.85,1.55l-0.03,0.28l-0.01,0.09l-0.02,0.17l-0.05,0.37l1.25-0.5l0.28-0.1
		l0.26-0.07l0.18-0.04l0.15-0.03l0.03-0.01l0.15-0.02l0.08-0.01l3.14,0.24l1.1,0.35l0.24-1.13l0.58-2.99l0.45-2.96l-0.02-0.38
		l-0.14-2.95l-0.01-0.19l-0.46-0.67l-0.5-0.52l-0.03-0.03l-0.1-0.05l-0.14-0.14l-0.28-0.29l-0.09-0.17l-0.25-0.56l-0.02-0.11
		l0.01-0.16l0.03-0.17l0.07-0.38l-0.55-1.73l-1.54-1.87l-5.5-1l-3.33,1.58l0.38,3.13l0.07,0.21l0.38,1.91l-0.07,0.31l-0.23,0.27
		l-3.16,2.96l-0.23,0.02l-0.64-0.62l-0.31-0.14l-1.1-0.44l-2.54-0.82l-0.2-0.06l-1.25-0.25l-1.05-0.07l-2.19,0.61l-1.05,2.25
		l-0.07,0.16l-0.09,0.21l-0.35,0.79L221.85,216.37L221.85,216.37z"/>
</g>
<g id="SAN_GENNARO_VESUVIANO" transform="matrix(16,0,0,16,-1000.9682,-3264.4682)">
	<path id="path1253" style="fill:#F8C300;stroke:#000000;stroke-width:0.25;stroke-linejoin:round;stroke-miterlimit:64;" d="
		M235.83,266.53l0.39-1.67l0.58-1.67l0.42-1.11l0.63-2.1l0.62-3.52l-0.04-0.63l-0.08-0.1l-0.34-0.45l-0.01-0.01l-0.63-0.76
		l-1.07-1.28l-0.67-0.71l-0.14-0.04l-2.14-0.46l-1.02-0.19l-0.72,0.08l-0.12,0.04l-0.14,0.08l-0.02,0.01l-0.06,0.06l-0.12,0.12
		l-1.27,2.37l-0.07,0.18l0.27,1.58l0.08,0.32l0.12,0.3l0.13,0.26l0.2,0.26l0.21,0.23l0.06,0.06l0.81,0.74l2.7,2.58l0.14,0.18
		l0.68,1.05l0.09,0.38l0.04,0.25l0.03,0.24l0.05,1.52L235.83,266.53L235.83,266.53z"/>
</g>
<g id="SAN_GIORGIO_A_CREMANO" transform="matrix(16,0,0,16,-1000.9682,-3264.4682)">
	<path id="path1256" style="fill:#F8C300;stroke:#000000;stroke-width:0.25;stroke-linejoin:round;stroke-miterlimit:64;" d="
		M182.71,269.47l2.18-0.92l1.81-0.12l2.51-0.46l0.79-0.82l1.11-2.79l-2.32-3l-1.48,2l-2.94,1.46l-0.94,2.73l-1.5,0.36l-0.88-0.07
		l-0.04,0.01l-0.03,0l-0.13,0.02l-0.06,0.06l0.09,0.13l0.31,0.4L182.71,269.47L182.71,269.47z"/>
</g>
<g id="SAN_GIUSEPPE_VESUVIANO" transform="matrix(16,0,0,16,-1000.9682,-3264.4682)">
	<path id="path1268" style="fill:#F8C300;stroke:#000000;stroke-width:0.25;stroke-linejoin:round;stroke-miterlimit:64;" d="
		M233.9,275.38l0.07,0.05l0.71,0.14l0.26,0.01l0.12,0.01l0.09-0.04l0.01,0l0.13-0.05l0.06-0.02l0.12-0.21l0.13-0.29l0.01-0.04
		l0.13-0.38l0-0.01l0.02-0.06l0.03-0.1l0.02-0.11l-0.02-6.13l0.02-1.54l0.03-0.07l-0.43-1.79l-0.47,0l-1.72-0.24l-0.27-0.05
		l-3.33-0.93l-5.05-1.29l-0.36,1.85l0.03,0.24l-1.57,1.96l-3.25,0.82l-0.33,0.07l-0.39,0.08l-0.46,0.02l-0.95-0.02l-0.79-0.02
		l-0.97-0.02l-0.85,0.08l-0.76,0.17l-0.2,0.07l-0.04,0.01l0.08,0.16l0.77,1.3l2.36,0.04l3.98,0.01l0.7-0.15l6.93,2.5l0.61,0.58
		l0.37,0.37l0.15,0.22l1.61,1.25L233.9,275.38L233.9,275.38z"/>
</g>
<g id="SAN_PAOLO_BEL_SITO" transform="matrix(16,0,0,16,-1000.9682,-3264.4682)">
	<path id="path1338" style="fill:#F8C300;stroke:#000000;stroke-width:0.25;stroke-linejoin:round;stroke-miterlimit:64;" d="
		M244.28,240.83l-0.56-1.75l-0.97-1.02l-4.54-0.94l-0.33-0.06l-0.06-0.01l-0.3-0.03l-0.1,0.15l0.1,2.4l1.22,1.43l0.22,0l1.58,1.22
		l0.86,0.94l0.19,0.51L244.28,240.83L244.28,240.83z"/>
</g>
<g id="SAN_SEBASTIANO_AL_VESUVIO" transform="matrix(16,0,0,16,-1000.9682,-3264.4682)">
	<path id="path1378" style="fill:#F8C300;stroke:#000000;stroke-width:0.25;stroke-linejoin:round;stroke-miterlimit:64;" d="
		M200.62,266.61l-0.44-1.07l-0.33-0.41l-1.81-1.34l-3.2-2.32l-0.89-0.55l-0.8-0.49l-3.76,0.67l-0.6,0.27l2.32,3l0.83-0.01l5.06,0.24
		l2.82,1.67L200.62,266.61z"/>
</g>
<g id="SAN_VITALIANO" transform="matrix(16,0,0,16,-1000.9682,-3264.4682)">
	<path id="path1390" style="fill:#F8C300;stroke:#000000;stroke-width:0.25;stroke-linejoin:round;stroke-miterlimit:64;" d="
		M220.72,223.93l-0.47,0.02l-0.04,0.61l0.02,0.52l0.41,4.99l0.41-0.24l0.7-0.49l0.51-0.11l0.41,2.25l0.04,0.98l-1.31,1.58l-0.3,1.02
		l-0.08,1.07l-0.14,1.28l-0.33,1.47l-1.79,1.53l0.19,0.03l1.08-0.07l0.81-0.99l1.06-1.41l2.83-0.9l0.26,0.09l1.16-0.1l1.05-0.41
		l0.7-2.39l-1.07-0.2l-1.45-2.96l-0.46-0.22l-2.73-2.32l-0.94-2.34l-0.41-1.4L220.72,223.93L220.72,223.93z"/>
</g>
<g id="SANT-AGNELLO" transform="matrix(16,0,0,16,-1000.9682,-3264.4682)">
	<path id="path1396" style="fill:#F8C300;stroke:#000000;stroke-width:0.25;stroke-linejoin:round;stroke-miterlimit:64;" d="
		M207.06,340.85l-0.23-0.15l-0.17-0.13l-0.86-0.77l-0.05-0.08l-0.05-0.14l-1.92-5.67l0.08-0.03l0.35-0.12l-0.08-0.23l-0.11-0.22
		l-0.21-0.31l-1.22-1.08l-0.42-0.36l-3.07,1.57l0.99,1l0.39,0.61l0.22,0.41l1.48,3.21l0.18,0.47l0.86,2.82l0.77,2.9L207.06,340.85
		L207.06,340.85z"/>
</g>
<g id="SANT-ANASTASIA" transform="matrix(16,0,0,16,-1000.9682,-3264.4682)">
	<path id="path1399" style="fill:#F8C300;stroke:#000000;stroke-width:0.25;stroke-linejoin:round;stroke-miterlimit:64;" d="
		M209.42,265.21l-0.39-1.04l-0.78-2.17l-0.62-2.58l-0.7-3.04l-0.72-3.46l0-0.17l0.51-0.84l-0.7-3.25l-0.35-2.35l-0.02-0.28
		l0.03-0.18l-1.27-0.68l-1.09-0.3l-4.23,0.35l-2.03-1.05l-1.01-0.13l-2.73,2.02l0.13,2.32l0.46,0.8l4.86,6.78l1.94,1.45l0.49,2.45
		l0.24,0.69l0.08,0.17l0.07,0.12l0.23,0.19l0.6,0.4l0.21,0.13l0.85,0.42l0.61,0.27l0.16,0.07l0.16,0.09l0.18,0.11l0.12,0.14
		l0.05,0.06l1.58,1.98l0.09,0.14l0.11,0.34l0.05,0.61l-0.03,0.17L209.42,265.21L209.42,265.21z"/>
</g>
<g id="SANT-ANTIMO" transform="matrix(16,0,0,16,-1000.9682,-3264.4682)">
	<path id="path1427" style="fill:#F8C300;stroke:#000000;stroke-width:0.25;stroke-linejoin:round;stroke-miterlimit:64;" d="
		M157.28,232.77l3.62,1.34l0-0.03l0-0.01l0.12-1.37l0.01-0.1l0.68-1.16l1.25-1.3l0.99-0.1l0.15,0.06l0.57-1.87l-2.79-2.92
		l-0.66-0.47l-1.51-0.95l-0.03,0.06l-0.02,0.06l-0.01,0.08l-0.07,0.5l-0.05,0.56l-0.01,0.14l-0.01,0.17l-0.65,0.64l-0.87,0.44
		l-0.21,0.08l-1.17,0.13l-0.12-0.1l-0.02-0.06l-1.45,0.57L157.28,232.77L157.28,232.77z"/>
</g>
<g id="SANT-ANTONIO_ABATE" transform="matrix(16,0,0,16,-1000.9682,-3264.4682)">
	<path id="path1430" style="fill:#F8C300;stroke:#000000;stroke-width:0.25;stroke-linejoin:round;stroke-miterlimit:64;" d="
		M232.29,308.3l1.23-0.59l1.65,0.26l1.42-0.74l4.78-2.48l2.89-1.49l-0.04-0.31l-0.34-0.95l-0.74-1.87l-3.69-2.42l-0.64-0.35
		l-0.15-0.04l-0.11-0.01l-1.24,1.15l-0.4,0.11l-0.04,0.01l-0.01,0l-0.18,0.05l-1.44,0.34l-0.29,0.05l-0.21,0.04l-0.42,0.07
		l-1.41-0.02l0.09,1.79l0.37,3.07l-0.39,3.32l-0.81-0.09L232.29,308.3L232.29,308.3z"/>
</g>
<g id="SANTA_MARIA_LA_CARITA-" transform="matrix(16,0,0,16,-1000.9682,-3264.4682)">
	<path id="path1473" style="fill:#F8C300;stroke:#000000;stroke-width:0.25;stroke-linejoin:round;stroke-miterlimit:64;" d="
		M232.17,307.18l0.81,0.09l0.39-3.32l-0.37-3.07l-0.09-1.79l-0.01,0l-1.37,0.49l-0.24,0.13l-0.13,0.07l-0.49,0.28l-0.03,0.02
		l-2.58,2.31l-0.41,0.38l-0.46,0.45l0.31,4.98L232.17,307.18L232.17,307.18z"/>
</g>
<g id="SAVIANO" transform="matrix(16,0,0,16,-1000.9682,-3264.4682)">
	<path id="path1506" style="fill:#F8C300;stroke:#000000;stroke-width:0.25;stroke-linejoin:round;stroke-miterlimit:64;" d="
		M224.52,251.98l0.12,0.07l0.29,0.1l0.17,0.02l0.18,0l0.15-0.01l0.09-0.03l0.15-0.04l0.25-0.08l0.3-0.07l0.27-0.04l0.35,0.02
		l0.26,0.06l0.24,0.07l0.28,0.11l0.34,0.09l0.21,0.01l0.21-0.02l0.05-0.07l0.01-0.01l0.06-0.08l0.13-0.18l0.13-0.21l0.21-0.43
		l0.06-0.17L229,250.9l0.01-0.1l0.01-0.12l0.04-0.14l0.16-0.25l0.13-0.19l0.15-0.21l0.4-0.48l0.18-0.21l0.18-0.2l0.53-0.57
		l0.23-0.23l0.29-0.3l0.09-0.06l0.02-0.01l0.1-0.06l0.23-0.16l0.33-0.26l0.18-0.15l0.03-0.03l0.09-0.07l0.61-0.52l0.34-0.46
		l0.16-0.3l0.07-0.15l0.03-0.05l0.06-0.22l0.05-0.23l0.01-0.03l0.15-0.89l-0.01-0.01l-0.03-0.05l-0.01-0.02l-0.07-0.14l-0.16-0.41
		l-0.08-0.23l0.04-3.4l0.02-0.17l0.01-0.07l0.01-0.2l0-0.02l-0.06-0.53l-0.25,0.03l-0.33,0.04l-0.43,0.04l-0.15-0.07l-0.02-0.21
		l-0.26-0.9l-0.06,0.04l-0.27,0.16l-0.34,0.13l0.02-0.22l-0.02-1.87l0-0.27l0-0.14l-0.04-0.33l-0.09-0.03l-0.1-0.03l-0.3,0.09
		l-0.24,0.11l-0.18,0.08l-0.13,0.01l-0.02-0.55l0.03-0.22l0.02-0.1l0-0.15l-0.11-0.05l-0.22-0.02l-0.12-0.01l-0.03,0l-0.59,0.01
		l-0.04,0l-0.3,0l-0.24-0.01l-0.21-0.07l-0.32-0.12l-0.23-0.13l-0.7,2.39l0.03,0.73l-1.1,2.99l-0.73,0.89l-0.22,0.22l-0.29,0.21
		l-0.41,0.26l-0.6,0.39l-0.28,0.21l-0.86,1.07l-0.51,1.31l-0.26,1.12l0.56,0.52l0.08,0.07l0.56,0.53l0.12,0.11l0.1,0.09l0.29,0.27
		l0,0.31l-0.09,0.18l1.06,3.54L224.52,251.98L224.52,251.98z"/>
</g>
<g id="SCISCIANO" transform="matrix(16,0,0,16,-1000.9682,-3264.4682)">
	<path id="path1521" style="fill:#F8C300;stroke:#000000;stroke-width:0.25;stroke-linejoin:round;stroke-miterlimit:64;" d="
		M220.81,248.59l2.81-0.47l0.09-0.18l0-0.31l-0.29-0.27l-0.1-0.09l-0.12-0.11l-0.56-0.53l-0.08-0.07l-0.56-0.52l0.26-1.12l0.51-1.31
		l0.86-1.07l0.28-0.21l0.6-0.39l0.41-0.26l0.29-0.21l0.22-0.22l0.73-0.89l1.1-2.99l-0.03-0.73l-1.05,0.41l-1.16,0.1l-0.26-0.09
		l-2.83,0.9l-1.06,1.41l-0.81,0.99l-1.08,0.07l-0.19-0.03l0.15,3.45L220.81,248.59L220.81,248.59z"/>
</g>
<g id="SERRARA_FONTANA" transform="matrix(16,0,0,16,-1000.9682,-3264.4682)">
	<path id="path1543" style="fill:#F8C300;stroke:#000000;stroke-width:0.25;stroke-linejoin:round;stroke-miterlimit:64;" d="
		M73.49,300.7l-0.19,0.26l-0.19,0.26l-1.17,0.81l-0.77,0.18l-0.27-0.28l-0.06,0.06l-0.07,0.28l-0.51,3.15l-0.05,0.36l-0.05,0.61
		l-0.03,0.36l0.1,3.3l0.15,0.74l1.09-0.13l0.4-0.05l0.09,0.02l0.87,0.42l0.85-0.03l0.58-0.25l0.02-0.16l0.61-0.95l1.61-1.44l-0.09-2
		l0.02-3.97l0.14-1.51L73.49,300.7L73.49,300.7z"/>
</g>
<g id="SOMMA_VESUVIANA" transform="matrix(16,0,0,16,-1000.9682,-3264.4682)">
	<path id="path1570" style="fill:#F8C300;stroke:#000000;stroke-width:0.25;stroke-linejoin:round;stroke-miterlimit:64;" d="
		M221.64,255.85l-0.21-0.25l1.12-2.48l0.12-0.23l0.26-0.18l0.22-0.11l1.36-0.62l0.16-0.32l-0.71-0.32l-0.62-0.3l-1.68-0.83
		l-0.15-0.07L221.3,250l-0.01-0.01l-0.14-0.15l-0.15-0.32l-0.05-0.15l-0.03-0.09l-0.1-0.7l-1.88-4.74l-0.2-0.13l-0.02-0.01
		l-0.73-0.47l-0.45-0.09l-0.27,0.01l-0.13,0.51l-1.64-0.18l-0.06-0.02l-0.09-0.03l-1.37-0.52l-4.21-2.48l0.01-0.1l-1.66,2.31
		l-1,0.68l-0.04,1.07l-0.33,0.61l-0.1-0.07l-0.09-0.06l-0.49-0.6l-0.37,1.59l-0.03,0.18l0.02,0.28l0.35,2.35l0.7,3.25l-0.51,0.84
		l0,0.17l0.72,3.46l0.7,3.04l0.62,2.58l0.78,2.17l0.39,1.04l2.09,1l0.32-0.39l0.26-0.31l2.39-2.64l1.97-1.38l0.17-0.15l4.01-4.08
		l0.32-0.44L221.64,255.85L221.64,255.85z"/>
</g>
<g id="SORRENTO" transform="matrix(16,0,0,16,-1000.9682,-3264.4682)">
	<path id="path1576" style="fill:#F8C300;stroke:#000000;stroke-width:0.25;stroke-linejoin:round;stroke-miterlimit:64;" d="
		M204.01,344.54l-0.77-2.9l-0.86-2.82l-0.18-0.47l-1.48-3.21l-0.22-0.41l-0.39-0.61l-0.99-1l-0.32,0.25l-1.28,0.75l-0.49,0.27
		l-0.36,0.15l-0.11,0.04l-1.67,0.37l-0.15,0.03l-1.36,0.03l-0.14-0.02l-0.4-0.28l-1.58-1.1l-1.27-0.89l-0.13-0.01l-0.49,0.27
		l-0.1,0.07l-0.37,1.34l-0.09,0.37l-0.1,0.47l0.8,0.66l0.34,0.32l0.77,0.87l0.19,0.22l0.1,0.28l0.04,0.38l-0.05,0.18l-0.08,0.15
		l0.06,0.16l1.11,0.98l0.07,0.04l0.18,0.11l0.19,0.1l0.29,0.14l2.01,0l1.65-0.05l3.66,2.7l0.2,0.39l0.08,0.26l0.33,1.04l-0.02,0.2
		l-0.01,0.07l-0.22,1.58L204.01,344.54L204.01,344.54z"/>
</g>
<g id="STRIANO" transform="matrix(16,0,0,16,-1000.9682,-3264.4682)">
	<path id="path1593" style="fill:#F8C300;stroke:#000000;stroke-width:0.25;stroke-linejoin:round;stroke-miterlimit:64;" d="
		M246.57,277.14l3.53-1.79l0.19-0.33l0.09-0.22l0.07-0.24l0.02-0.15l0.02-0.14l0.01-0.08l0-0.04l0.01-0.2l0.02-0.32l0-0.05
		l0.01-0.14l0.01-0.12l0.03-0.66l0.08-1.52l0-0.01l-0.08-0.16l-0.09-0.14l-0.24-0.37l-0.36-0.39l-0.18-0.16l-0.5-0.35l-1.95-1.27
		l-0.56-0.4l-1.36-0.97l-0.98-0.7l-0.22-0.8l-0.37,1.25l-0.63,0.09l-0.44,0.01l-0.41-0.02l0.12-0.43l-0.17-0.02l-1.4-0.02
		l-0.18,0.06l-0.83,0.42l-0.07,0.16l-0.1,0.24l-0.18,0.5l3.84,1.37l-0.06,0.31l0,0.02l-0.05,0.23l-0.58,1.84l-0.43,2.39l0.62,2.35
		l0.52,0.42l0.29,0.21l0.11-0.01l0.21-0.2l0.21-0.2l0.41-0.36l0.46,0.11l0.49,0.26L246.57,277.14L246.57,277.14z"/>
</g>
<g id="TERZIGNO" transform="matrix(16,0,0,16,-1000.9682,-3264.4682)">
	<path id="path1635" style="fill:#F8C300;stroke:#000000;stroke-width:0.25;stroke-linejoin:round;stroke-miterlimit:64;" d="
		M219.15,281.3l0.92,0.31l0.04,0.02l0.23,0.1l0.53,0.68l0.14,0.26l2.54,2.49l0.02,0.02l0.6,0.4l0.11,0.03l0.03,0.01l0.04,0
		l0.31-0.04l1.07-0.19l0.18-0.04l0.13-0.03l1.11-0.23l0.33-0.11l0.56-1.2l0.09-0.26l0.04-0.15l0.07-0.28l0.13-0.46l0-0.01l0.28-0.82
		l0.21-0.57l0.97-1.27l0.67-0.61l0.29-0.26l2.17-1.49l0.94-2.22l-2.67-1.57l-1.61-1.25l-0.15-0.22l-0.37-0.37l-0.61-0.58l-6.93-2.5
		l-0.7,0.15l-3.98-0.01l-2.36-0.04l0.08,0.73l0.04,0.38l-0.2,1.11l-0.09,0.19l-1.64,1.66l-0.28,0.26l-0.3,0.23l-0.33,0.21
		l-0.36,0.16l0.52,0.9l0.72,0.86l3.01,2.7l0.17,0.15l1.5,1.27L219.15,281.3L219.15,281.3z"/>
</g>
<g id="TORRE_ANNUNZIATA" transform="matrix(16,0,0,16,-1000.9682,-3264.4682)">
	<path id="path1656" style="fill:#F8C300;stroke:#000000;stroke-width:0.25;stroke-linejoin:round;stroke-miterlimit:64;" d="
		M218.38,300.97l0.16-0.08l0.01-0.02l0-0.02l-0.05-0.18l-0.01-0.01l-0.02,0l-0.07,0.04l-0.01,0.02l0.01,0.01l0.03,0.02l-0.23,0.13
		l-0.01,0.01l0,0.02l0.02,0.02l0.11,0.05L218.38,300.97L218.38,300.97z"/>
	<path id="path1658" style="fill:#F8C300;stroke:#000000;stroke-width:0.25;stroke-linejoin:round;stroke-miterlimit:64;" d="
		M213.26,290.58l-1.98-0.74l0.03-0.17l0.11-0.19l0.15-0.28l0.13-0.15l-1.12-0.77l-1.14-0.02l0.61,0.36l-0.06,1.66l-1.23,3.25
		l2.6-1.21l0.05-0.02l2.67,0.05l0.1,0.03l0.01,0.01l0.07,0.05l2.22,2.26l0.24,0.29l0.03,0.03l0.03,0.04l0.46,0.66l0.15,0.22
		l0.03,0.05l2.78,5.11l0.02,0l0.16,0l0.34-0.01l0.01,0l0.65-0.09l0.15-0.15l0.16-0.24l0.08-0.18l0.78-1.88l0.03-0.25l-0.17-1.55
		l-1.53-4.99l-2.51-2.16l-3.41,0.69l-1.08,0.38L213.26,290.58L213.26,290.58z"/>
</g>
<g id="TORRE_DEL_GRECO" transform="matrix(16,0,0,16,-1000.9682,-3264.4682)">
	<path id="path1661" style="fill:#F8C300;stroke:#000000;stroke-width:0.25;stroke-linejoin:round;stroke-miterlimit:64;" d="
		M195.17,284.15l0.96,1.06l3.91,4.28l0.79,1.04l0.27,0.3l0.02,0.02l0.67,0.38l0.08,0.04l0.09,0.05l0.09,0.05l0.05,0.02l0.06,0.02
		l0.08,0.02l0.09,0.02l1.19,0.21l0,0.03l0,0.02l0,0.01l0.01,0.01l0.04,0.04l0.03,0.03l0.58,0.51l0.05,0.04l0.3,0.23l0.33,0.23
		l0.03,0.02l0.8,0.39l0.54,0.1l1.93,0.16l0.6,0.04l1.23-3.25l0.06-1.66l-0.61-0.36l-0.02-0.67l0.08-3.05l0.05-0.47l0.4-1.44
		l0.05-0.13l0.38-0.66l0.13-0.16l0.17-0.06l0.1-0.12l0.04-0.3l-0.07-1.82l-0.11-0.91l-1.09-5.7l-0.56-2.71l-0.01-0.02l-0.35,0.1
		l-2.28,0.65l-0.61,0.16l-1.12,0.3l-1.09,0.29l-1.65,0.46l-0.87,0.38l-0.3,0.13l-0.7,0.5l-2.98,2.57l-4.41,2.42l-0.95,0.04l-0.1,0.1
		l-0.08,0.2l-0.16,1.01l-0.04,0.32l0.03,0.26l0,0.03l0.01,0.06l0.01,0.05L195.17,284.15L195.17,284.15z"/>
</g>
<g id="TRECASE" transform="matrix(16,0,0,16,-1000.9682,-3264.4682)">
	<path id="path1682" style="fill:#F8C300;stroke:#000000;stroke-width:0.25;stroke-linejoin:round;stroke-miterlimit:64;" d="
		M209.43,288.25l1.14,0.02l1.12,0.77l-0.13,0.15l-0.15,0.28l-0.11,0.19l-0.03,0.17l1.98,0.74l0.62,0.08l1.08-0.38l0.21-0.32
		l0.01-0.03l0.04-0.12l0.31-2.52l0-0.27l0-0.03l-0.14-2.08l-0.09-0.87l-0.04-0.15l-0.74-0.76l-0.24-0.06l-0.12-0.16l-0.23-0.32
		l-0.51-0.74l-0.16-0.33l-2.42-6.07l-0.7-2l-0.85-2.44l-0.32-0.95l0.56,2.71l1.09,5.7l0.11,0.91l0.07,1.82l-0.04,0.3l-0.1,0.12
		l-0.17,0.06l-0.13,0.16l-0.38,0.66l-0.05,0.13l-0.4,1.44l-0.05,0.47l-0.08,3.05L209.43,288.25L209.43,288.25z"/>
</g>
<g id="TUFINO" transform="matrix(16,0,0,16,-1000.9682,-3264.4682)">
	<path id="path1694" style="fill:#F8C300;stroke:#000000;stroke-width:0.25;stroke-linejoin:round;stroke-miterlimit:64;" d="
		M249.39,232.3l-0.12-0.58l-0.33-2.53l-0.11-2.03l-0.38-3.12l-0.13-1.08l-0.7-0.55l-0.29-0.01l-0.12,0.14l-1.1-0.35l-3.14-0.24
		l-0.08,0.01l-0.15,0.02l-0.03,0.01l-0.15,0.03l-0.18,0.04l-0.26,0.07l-0.28,0.1l-1.25,0.5l1.2,1.88l1.27,3.75l0.55-0.24l2.1-0.43
		l0.11,0.21l0.01,0.01l0.02,0.03l0.04,0.12l0,0.14l0,0.06l-0.05,0.58l-0.04,0.23l-0.01,0.03l-0.07,0.26l0.42,0.92l0.17,0.25
		l0.32,0.21l2.53,1.47l0.08,0.03L249.39,232.3L249.39,232.3z"/>
</g>
<g id="VICO_EQUENSE" transform="matrix(16,0,0,16,-1000.9682,-3264.4682)">
	<path id="path1730" style="fill:#F8C300;stroke:#000000;stroke-width:0.25;stroke-linejoin:round;stroke-miterlimit:64;" d="
		M228.19,328.13l-0.16-0.09l-0.18-0.15l-0.17-0.21l-0.66-1.74l0.06-0.25l0.06-0.26l0.04-0.28l-0.18-0.34l-0.91-1.26l-0.89-0.86
		l-2.05-1.16l-5.85-2.16l-4.39-3l-0.04-0.04l-0.1,0.03l-0.05,0.02l-0.2,0.14l-0.13,0.13l-0.21,0.21l-0.08,0.12l-0.02,0.04
		l-0.26,0.46l-0.03,0.06l-0.01,0.03l-0.02,0.03l-0.08,0.17l-0.3,0.86l-0.08,0.62l-0.02,0.43l-0.03,0.28l-0.01,0.05l-0.01,0.05
		l-1.09,1.89l-0.04,0.05l-0.2,0.2l-0.1,0.09l-2.93,1.95l-0.08,0.05l-0.21,0.05l-0.86-0.09l-0.27-0.03l-1.08,0.23l-1.17,0.98
		l-0.03,0.09l0.15,0.36l0.21,0.36l0.27,0.46l0.22,0.2l0.29,0.11l0.07-0.04l0.15-0.01l3.35,1l0.76,1.23l1.65,3.5l0.13,1.94l0,0.2
		l1.67-0.24l0.65,0.08l0.33,0.12l1.22,1.29l0.19,0.21l0.25,0.56l-0.08,1.49l0.47-0.36l0.05-0.02l0.17-0.07l0.1-0.04l1.31-0.14
		l0.5,0.17l0.17,0.07l0.59,0.29l1.75-0.68l-0.5-0.27l-0.18-0.2l-0.52-0.79l-0.4-0.7l-0.03-0.28l-0.01-0.33l0.61-1.65l0.3-0.55
		l0.11-0.05l1.11-0.27l1.1-0.16l1.3-2.37l-0.02-0.16l0-0.04l0.07-0.3l0.2-0.57l0.09-0.22l0.07-0.17l0.14-0.1l1.31-0.03l1.94,0.25
		L228.19,328.13L228.19,328.13z"/>
</g>
<g id="VILLARICCA" transform="matrix(16,0,0,16,-1000.9682,-3264.4682)">
	<path id="path1748" style="fill:#F8C300;stroke:#000000;stroke-width:0.25;stroke-linejoin:round;stroke-miterlimit:64;" d="
		M130.89,242.53l0.85,0.03l4.35-0.28l0.25-0.03l0.33-0.07l0.33-0.11l0.87-0.44l1.79-1.56l-0.88-0.96l-9.04,0.2l-0.74,3.62
		L130.89,242.53L130.89,242.53z"/>
	<path id="path1750" style="fill:#F8C300;stroke:#000000;stroke-width:0.25;stroke-linejoin:round;stroke-miterlimit:64;" d="
		M153.08,236.29l-2.3-0.14L145.3,236l-0.37,0.07l-0.39,0.06l-0.41,0.06l-1.3,0.14l-0.29,0.02l-0.2-0.08l-0.02-0.01l-0.06-0.02
		l-0.7,0.38l-0.47,1.67l-1.3,0.19l-0.06,0.09l0.03,0.13l0.32,0.74l0.14,0.17l0.2,0.08l0.05,0.01l0.21,0.03l2.07,0.26l0.14-0.03
		l4.15-1.5l2.82,0L153.08,236.29L153.08,236.29z"/>
</g>
<g id="VISCIANO" transform="matrix(16,0,0,16,-1000.9682,-3264.4682)">
	<path id="path1753" style="fill:#F8C300;stroke:#000000;stroke-width:0.25;stroke-linejoin:round;stroke-miterlimit:64;" d="
		M245.96,235.2l-1.08,0.76l0.01,0.16l0.89,3.84l0.07,0.3l0.54,0.27l0.2,0.09l0.05-0.04l0.22-0.15l0.47-0.28l1.59-0.61l0.18-0.07
		l0.16-0.06l2.05-0.63l0.15,0.01l0.93,0.1l0.13,0.46l-0.04,0.33l-0.25,0.43l1.06-0.67l0.05-0.03l0.05-0.02l0.15,0.06l0.91,0.47
		l2.24,0.35l0.61-0.23l4.01-0.52l3.49,1.24l-0.13,0.52l0,0.58l1.46,0.5l3.56,0.21l1.17-0.56l-1.31-3.44l-0.29,0.09l-0.08,0.12
		l-0.11,0.16l-0.15,0.12l-0.12,0.06l-0.32,0.14l-0.48,0.14l-0.24,0.06l-0.39,0.03l-0.12,0.01l-0.08-0.13l-0.11-0.11l-0.23-0.1
		l-0.41-0.06l-3.64-0.25l-1.89,0.2l-1.41,0.49l-1.06,0.17l-0.64-1.89l0.35-0.7l0.03-0.23l-0.06-0.28l-0.68-1.87l-0.25-0.32
		l-0.3-0.32l-0.31-0.14l-0.28-0.1l-0.4-0.08l-0.07,0l-5.6-1.42l-0.14,0.02L245.96,235.2L245.96,235.2z"/>
</g>
<g id="VOLLA" transform="matrix(16,0,0,16,-1000.9682,-3264.4682)">
	<path id="path1762" style="fill:#F8C300;stroke:#000000;stroke-width:0.25;stroke-linejoin:round;stroke-miterlimit:64;" d="
		M188.71,254.81l4.04-3.39l-1.13-3.11l-0.04-1.8l-0.01-0.06l-0.02-0.13l-0.08-0.22l-0.37-0.71l-0.12-0.2l-0.23-0.2l-2.32-0.41
		l-0.08-0.01l-0.24,0.42l-0.12,0.25l-0.01,0l-0.03,0.02l-0.9,0.67l-0.28,0.07l-0.25,0l-1.89-0.2l0.22,2.01l-0.02,0.38l-0.09,0.44
		l-0.15,0.39l-0.05,0.07l-0.07,0.11l-0.22,0.27l-0.2,0.19l-0.72,0.59l0.02,0.02l0.37,0.28l2.65,1.98l1.24,0.84L188.71,254.81
		L188.71,254.81z"/>
</g>
<text transform="matrix(1 0 0 1 1511 835.707)" style="font-family:'SourceSansPro-Regular'; font-size:72px;">Naples</text>
</svg>
