<svg xmlns="http://www.w3.org/2000/svg" class="svglite" viewBox="0 0 810 545"><rect width="100%" height="100%" fill="#fff"/><defs><clipPath id="figure-01-03svg-a"><rect x="0" y="0" width="810" height="545" fill="none" stroke="#000" stroke-linecap="round" stroke-linejoin="round" stroke-miterlimit="10"/></clipPath></defs><g clip-path="url(#figure-01-03svg-a)"><rect x="0" y="0" width="810" height="545" stroke-width="1.07" stroke="#fff" fill="#fff" stroke-linecap="round" stroke-linejoin="round" stroke-miterlimit="10"/><rect x="148.64" y="42.52" width="618.84" height="376.67" fill="#fff"/><polyline points="148.64 419.19 767.48 419.19" stroke-width="1.07" stroke="#c6c4c4" stroke-linecap="butt" fill="none" stroke-linejoin="round" stroke-miterlimit="10"/><polyline points="148.64 356.41 767.48 356.41" stroke-width="1.07" stroke="#c6c4c4" stroke-linecap="butt" fill="none" stroke-linejoin="round" stroke-miterlimit="10"/><polyline points="148.64 293.63 767.48 293.63" stroke-width="1.07" stroke="#c6c4c4" stroke-linecap="butt" fill="none" stroke-linejoin="round" stroke-miterlimit="10"/><polyline points="148.64 230.85 767.48 230.85" stroke-width="1.07" stroke="#c6c4c4" stroke-linecap="butt" fill="none" stroke-linejoin="round" stroke-miterlimit="10"/><polyline points="148.64 168.08 767.48 168.08" stroke-width="1.07" stroke="#c6c4c4" stroke-linecap="butt" fill="none" stroke-linejoin="round" stroke-miterlimit="10"/><polyline points="148.64 105.3 767.48 105.3" stroke-width="1.07" stroke="#c6c4c4" stroke-linecap="butt" fill="none" stroke-linejoin="round" stroke-miterlimit="10"/><polyline points="148.64 42.52 767.48 42.52" stroke-width="1.07" stroke="#c6c4c4" stroke-linecap="butt" fill="none" stroke-linejoin="round" stroke-miterlimit="10"/><polyline points="148.64 404.34 519.95 400.29 756.65 394.88 766.24 339.46 766.52 336.96 766.58 323.31 766.71 263.07 766.83 225.77 766.99 173.05 767.11 151.78 767.42 91.6 767.43 47.26" stroke-width="1.2" stroke="#3a53a4" stroke-linecap="butt" fill="none" stroke-linejoin="round" stroke-miterlimit="10"/><circle cx="148.64" cy="404.34" r="2.2" stroke-width="1.2" stroke="#3a53a4" fill="#3a53a4" stroke-linecap="round" stroke-linejoin="round" stroke-miterlimit="10"/><circle cx="519.95" cy="400.29" r="2.2" stroke-width="1.2" stroke="#3a53a4" fill="#3a53a4" stroke-linecap="round" stroke-linejoin="round" stroke-miterlimit="10"/><circle cx="756.65" cy="394.88" r="2.2" stroke-width="1.2" stroke="#3a53a4" fill="#3a53a4" stroke-linecap="round" stroke-linejoin="round" stroke-miterlimit="10"/><circle cx="766.24" cy="339.46" r="2.2" stroke-width="1.2" stroke="#3a53a4" fill="#3a53a4" stroke-linecap="round" stroke-linejoin="round" stroke-miterlimit="10"/><circle cx="766.52" cy="336.96" r="2.2" stroke-width="1.2" stroke="#3a53a4" fill="#3a53a4" stroke-linecap="round" stroke-linejoin="round" stroke-miterlimit="10"/><circle cx="766.58" cy="323.31" r="2.2" stroke-width="1.2" stroke="#3a53a4" fill="#3a53a4" stroke-linecap="round" stroke-linejoin="round" stroke-miterlimit="10"/><circle cx="766.71" cy="263.07" r="2.2" stroke-width="1.2" stroke="#3a53a4" fill="#3a53a4" stroke-linecap="round" stroke-linejoin="round" stroke-miterlimit="10"/><circle cx="766.83" cy="225.77" r="2.2" stroke-width="1.2" stroke="#3a53a4" fill="#3a53a4" stroke-linecap="round" stroke-linejoin="round" stroke-miterlimit="10"/><circle cx="766.99" cy="173.05" r="2.2" stroke-width="1.2" stroke="#3a53a4" fill="#3a53a4" stroke-linecap="round" stroke-linejoin="round" stroke-miterlimit="10"/><circle cx="767.11" cy="151.78" r="2.2" stroke-width="1.2" stroke="#3a53a4" fill="#3a53a4" stroke-linecap="round" stroke-linejoin="round" stroke-miterlimit="10"/><circle cx="767.42" cy="91.6" r="2.2" stroke-width="1.2" stroke="#3a53a4" fill="#3a53a4" stroke-linecap="round" stroke-linejoin="round" stroke-miterlimit="10"/><circle cx="767.43" cy="47.26" r="2.2" stroke-width="1.2" stroke="#3a53a4" fill="#3a53a4" stroke-linecap="round" stroke-linejoin="round" stroke-miterlimit="10"/><circle cx="766.24" cy="339.46" r="2.2" stroke-width="1.2" fill="#000" stroke="#000" stroke-linecap="round" stroke-linejoin="round" stroke-miterlimit="10"/><circle cx="767.43" cy="47.26" r="2.2" stroke-width="1.2" fill="#000" stroke="#000" stroke-linecap="round" stroke-linejoin="round" stroke-miterlimit="10"/><text x="772.43" y="342.88" textLength="29.95" lengthAdjust="spacingAndGlyphs" font-size="14" font-family="Asap">1800</text><text x="773.62" y="50.69" textLength="29.95" lengthAdjust="spacingAndGlyphs" font-size="14" font-family="Asap">2000</text><line x1="433.31" y1="378.18" x2="766.24" y2="339.46" stroke-width="1.2" stroke="#4d4d4d" stroke-dasharray="3.2 3.2" stroke-linecap="butt" fill="none" stroke-linejoin="round" stroke-miterlimit="10"/><line x1="433.31" y1="21.02" x2="767.43" y2="47.26" stroke-width="1.2" stroke="#4d4d4d" stroke-dasharray="3.2 3.2" stroke-linecap="butt" fill="none" stroke-linejoin="round" stroke-miterlimit="10"/></g><defs><clipPath id="figure-01-03svg-b"><rect x="238.7" y="4.85" width="389.22" height="389.22" fill="none" stroke="#000" stroke-linecap="round" stroke-linejoin="round" stroke-miterlimit="10"/></clipPath></defs><g clip-path="url(#figure-01-03svg-b)"><rect x="238.7" y="4.85" width="389.22" height="389.22" fill="none"/></g><defs><clipPath id="figure-01-03svg-c"><rect x="241.44" y="4.85" width="386.48" height="386.48" fill="none" stroke="#000" stroke-linecap="round" stroke-linejoin="round" stroke-miterlimit="10"/></clipPath></defs><g clip-path="url(#figure-01-03svg-c)"><rect x="241.44" y="4.85" width="386.48" height="386.48" fill="none"/><polygon points="434.68 22.42 437.74 22.45 440.81 22.53 443.87 22.66 446.93 22.85 449.99 23.09 453.04 23.38 456.09 23.73 459.13 24.13 462.16 24.58 465.18 25.09 468.2 25.65 471.2 26.26 474.2 26.92 477.18 27.64 480.15 28.41 483.1 29.23 486.04 30.1 488.96 31.02 491.87 31.99 494.76 33.01 497.63 34.09 500.49 35.21 503.32 36.39 506.13 37.61 508.92 38.88 511.69 40.2 514.43 41.57 517.15 42.98 519.85 44.45 522.52 45.96 525.16 47.51 527.77 49.11 530.36 50.76 532.91 52.45 535.44 54.19 537.94 55.97 540.4 57.79 542.83 59.66 545.23 61.57 547.6 63.52 549.93 65.51 552.23 67.54 554.49 69.61 556.71 71.73 558.9 73.87 561.05 76.06 563.16 78.29 565.23 80.55 567.26 82.84 569.25 85.17 571.2 87.54 573.11 89.94 574.98 92.37 576.8 94.84 578.58 97.33 580.32 99.86 582.01 102.42 583.66 105 585.26 107.62 586.82 110.26 588.33 112.93 589.79 115.62 591.21 118.34 592.57 121.08 593.89 123.85 595.16 126.64 596.39 129.45 597.56 132.29 598.68 135.14 599.76 138.01 600.78 140.9 601.75 143.81 602.68 146.73 603.55 149.67 604.37 152.63 605.13 155.6 605.85 158.58 606.51 161.57 607.13 164.57 607.68 167.59 608.19 170.61 608.64 173.65 609.04 176.69 609.39 179.73 609.68 182.78 609.92 185.84 610.11 188.9 610.25 191.96 610.33 195.03 610.35 198.09 610.33 201.16 610.25 204.23 610.11 207.29 609.92 210.35 609.68 213.41 609.39 216.46 609.04 219.5 608.64 222.54 608.19 225.58 607.68 228.6 607.13 231.61 606.51 234.62 605.85 237.61 605.13 240.59 604.37 243.56 603.55 246.52 602.68 249.46 601.75 252.38 600.78 255.29 599.76 258.18 598.68 261.05 597.56 263.9 596.39 266.74 595.16 269.55 593.89 272.34 592.57 275.11 591.21 277.85 589.79 280.57 588.33 283.26 586.82 285.93 585.26 288.57 583.66 291.19 582.01 293.77 580.32 296.33 578.58 298.86 576.8 301.35 574.98 303.82 573.11 306.25 571.2 308.65 569.25 311.02 567.26 313.35 565.23 315.64 563.16 317.9 561.05 320.13 558.9 322.32 556.71 324.46 554.49 326.57 552.23 328.65 549.93 330.68 547.6 332.67 545.23 334.62 542.83 336.53 540.4 338.39 537.94 340.22 535.44 342 532.91 343.74 530.36 345.43 527.77 347.07 525.16 348.68 522.52 350.23 519.85 351.74 517.15 353.21 514.43 354.62 511.69 355.99 508.92 357.31 506.13 358.58 503.32 359.8 500.49 360.98 497.63 362.1 494.76 363.17 491.87 364.2 488.96 365.17 486.04 366.09 483.1 366.96 480.15 367.78 477.18 368.55 474.2 369.27 471.2 369.93 468.2 370.54 465.18 371.1 462.16 371.61 459.13 372.06 456.09 372.46 453.04 372.81 449.99 373.1 446.93 373.34 443.87 373.53 440.81 373.66 437.74 373.74 434.68 373.77 431.61 373.74 428.55 373.66 425.48 373.53 422.42 373.34 419.37 373.1 416.32 372.81 413.27 372.46 410.23 372.06 407.2 371.61 404.17 371.1 401.16 370.54 398.15 369.93 395.16 369.27 392.18 368.55 389.21 367.78 386.26 366.96 383.32 366.09 380.39 365.17 377.48 364.2 374.59 363.17 371.72 362.1 368.87 360.98 366.04 359.8 363.23 358.58 360.44 357.31 357.67 355.99 354.92 354.62 352.2 353.21 349.51 351.74 346.84 350.23 344.2 348.68 341.59 347.07 339 345.43 336.44 343.74 333.92 342 331.42 340.22 328.96 338.39 326.52 336.53 324.12 334.62 321.76 332.67 319.43 330.68 317.13 328.65 314.87 326.57 312.65 324.46 310.46 322.32 308.31 320.13 306.2 317.9 304.13 315.64 302.1 313.35 300.1 311.02 298.15 308.65 296.25 306.25 294.38 303.82 292.56 301.35 290.77 298.86 289.04 296.33 287.35 293.77 285.7 291.19 284.1 288.57 282.54 285.93 281.03 283.26 279.57 280.57 278.15 277.85 276.78 275.11 275.46 272.34 274.19 269.55 272.97 266.74 271.8 263.9 270.67 261.05 269.6 258.18 268.58 255.29 267.6 252.38 266.68 249.46 265.81 246.52 264.99 243.56 264.22 240.59 263.51 237.61 262.84 234.62 262.23 231.61 261.67 228.6 261.17 225.58 260.71 222.54 260.31 219.5 259.97 216.46 259.67 213.41 259.43 210.35 259.25 207.29 259.11 204.23 259.03 201.16 259 198.09 259.03 195.03 259.11 191.96 259.25 188.9 259.43 185.84 259.67 182.78 259.97 179.73 260.31 176.69 260.71 173.65 261.17 170.61 261.67 167.59 262.23 164.57 262.84 161.57 263.51 158.58 264.22 155.6 264.99 152.63 265.81 149.67 266.68 146.73 267.6 143.81 268.58 140.9 269.6 138.01 270.67 135.14 271.8 132.29 272.97 129.45 274.19 126.64 275.46 123.85 276.78 121.08 278.15 118.34 279.57 115.62 281.03 112.93 282.54 110.26 284.1 107.62 285.7 105 287.35 102.42 289.04 99.86 290.77 97.33 292.56 94.84 294.38 92.37 296.25 89.94 298.15 87.54 300.1 85.17 302.1 82.84 304.13 80.55 306.2 78.29 308.31 76.06 310.46 73.87 312.65 71.73 314.87 69.61 317.13 67.54 319.43 65.51 321.76 63.52 324.12 61.57 326.52 59.66 328.96 57.79 331.42 55.97 333.92 54.19 336.44 52.45 339 50.76 341.59 49.11 344.2 47.51 346.84 45.96 349.51 44.45 352.2 42.98 354.92 41.57 357.67 40.2 360.44 38.88 363.23 37.61 366.04 36.39 368.87 35.21 371.72 34.09 374.59 33.01 377.48 31.99 380.39 31.02 383.32 30.1 386.26 29.23 389.21 28.41 392.18 27.64 395.16 26.92 398.15 26.26 401.16 25.65 404.17 25.09 407.2 24.58 410.23 24.13 413.27 23.73 416.32 23.38 419.37 23.09 422.42 22.85 425.48 22.66 428.55 22.53 431.61 22.45 434.68 22.42" stroke-width="12.8" stroke="#eeeced" fill="#fff" stroke-linecap="round" stroke-linejoin="round" stroke-miterlimit="10"/></g><g clip-path="url(#figure-01-03svg-b)"><rect x="238.7" y="4.85" width="389.22" height="389.22" fill="none"/></g><g clip-path="url(#figure-01-03svg-c)" fill="none"><rect x="241.44" y="4.85" width="386.48" height="386.48"/><polygon points="434.68 22.42 437.74 22.45 440.81 22.53 443.87 22.66 446.93 22.85 449.99 23.09 453.04 23.38 456.09 23.73 459.13 24.13 462.16 24.58 465.18 25.09 468.2 25.65 471.2 26.26 474.2 26.92 477.18 27.64 480.15 28.41 483.1 29.23 486.04 30.1 488.96 31.02 491.87 31.99 494.76 33.01 497.63 34.09 500.49 35.21 503.32 36.39 506.13 37.61 508.92 38.88 511.69 40.2 514.43 41.57 517.15 42.98 519.85 44.45 522.52 45.96 525.16 47.51 527.77 49.11 530.36 50.76 532.91 52.45 535.44 54.19 537.94 55.97 540.4 57.79 542.83 59.66 545.23 61.57 547.6 63.52 549.93 65.51 552.23 67.54 554.49 69.61 556.71 71.73 558.9 73.87 561.05 76.06 563.16 78.29 565.23 80.55 567.26 82.84 569.25 85.17 571.2 87.54 573.11 89.94 574.98 92.37 576.8 94.84 578.58 97.33 580.32 99.86 582.01 102.42 583.66 105 585.26 107.62 586.82 110.26 588.33 112.93 589.79 115.62 591.21 118.34 592.57 121.08 593.89 123.85 595.16 126.64 596.39 129.45 597.56 132.29 598.68 135.14 599.76 138.01 600.78 140.9 601.75 143.81 602.68 146.73 603.55 149.67 604.37 152.63 605.13 155.6 605.85 158.58 606.51 161.57 607.13 164.57 607.68 167.59 608.19 170.61 608.64 173.65 609.04 176.69 609.39 179.73 609.68 182.78 609.92 185.84 610.11 188.9 610.25 191.96 610.33 195.03 610.35 198.09 610.33 201.16 610.25 204.23 610.11 207.29 609.92 210.35 609.68 213.41 609.39 216.46 609.04 219.5 608.64 222.54 608.19 225.58 607.68 228.6 607.13 231.61 606.51 234.62 605.85 237.61 605.13 240.59 604.37 243.56 603.55 246.52 602.68 249.46 601.75 252.38 600.78 255.29 599.76 258.18 598.68 261.05 597.56 263.9 596.39 266.74 595.16 269.55 593.89 272.34 592.57 275.11 591.21 277.85 589.79 280.57 588.33 283.26 586.82 285.93 585.26 288.57 583.66 291.19 582.01 293.77 580.32 296.33 578.58 298.86 576.8 301.35 574.98 303.82 573.11 306.25 571.2 308.65 569.25 311.02 567.26 313.35 565.23 315.64 563.16 317.9 561.05 320.13 558.9 322.32 556.71 324.46 554.49 326.57 552.23 328.65 549.93 330.68 547.6 332.67 545.23 334.62 542.83 336.53 540.4 338.39 537.94 340.22 535.44 342 532.91 343.74 530.36 345.43 527.77 347.07 525.16 348.68 522.52 350.23 519.85 351.74 517.15 353.21 514.43 354.62 511.69 355.99 508.92 357.31 506.13 358.58 503.32 359.8 500.49 360.98 497.63 362.1 494.76 363.17 491.87 364.2 488.96 365.17 486.04 366.09 483.1 366.96 480.15 367.78 477.18 368.55 474.2 369.27 471.2 369.93 468.2 370.54 465.18 371.1 462.16 371.61 459.13 372.06 456.09 372.46 453.04 372.81 449.99 373.1 446.93 373.34 443.87 373.53 440.81 373.66 437.74 373.74 434.68 373.77 431.61 373.74 428.55 373.66 425.48 373.53 422.42 373.34 419.37 373.1 416.32 372.81 413.27 372.46 410.23 372.06 407.2 371.61 404.17 371.1 401.16 370.54 398.15 369.93 395.16 369.27 392.18 368.55 389.21 367.78 386.26 366.96 383.32 366.09 380.39 365.17 377.48 364.2 374.59 363.17 371.72 362.1 368.87 360.98 366.04 359.8 363.23 358.58 360.44 357.31 357.67 355.99 354.92 354.62 352.2 353.21 349.51 351.74 346.84 350.23 344.2 348.68 341.59 347.07 339 345.43 336.44 343.74 333.92 342 331.42 340.22 328.96 338.39 326.52 336.53 324.12 334.62 321.76 332.67 319.43 330.68 317.13 328.65 314.87 326.57 312.65 324.46 310.46 322.32 308.31 320.13 306.2 317.9 304.13 315.64 302.1 313.35 300.1 311.02 298.15 308.65 296.25 306.25 294.38 303.82 292.56 301.35 290.77 298.86 289.04 296.33 287.35 293.77 285.7 291.19 284.1 288.57 282.54 285.93 281.03 283.26 279.57 280.57 278.15 277.85 276.78 275.11 275.46 272.34 274.19 269.55 272.97 266.74 271.8 263.9 270.67 261.05 269.6 258.18 268.58 255.29 267.6 252.38 266.68 249.46 265.81 246.52 264.99 243.56 264.22 240.59 263.51 237.61 262.84 234.62 262.23 231.61 261.67 228.6 261.17 225.58 260.71 222.54 260.31 219.5 259.97 216.46 259.67 213.41 259.43 210.35 259.25 207.29 259.11 204.23 259.03 201.16 259 198.09 259.03 195.03 259.11 191.96 259.25 188.9 259.43 185.84 259.67 182.78 259.97 179.73 260.31 176.69 260.71 173.65 261.17 170.61 261.67 167.59 262.23 164.57 262.84 161.57 263.51 158.58 264.22 155.6 264.99 152.63 265.81 149.67 266.68 146.73 267.6 143.81 268.58 140.9 269.6 138.01 270.67 135.14 271.8 132.29 272.97 129.45 274.19 126.64 275.46 123.85 276.78 121.08 278.15 118.34 279.57 115.62 281.03 112.93 282.54 110.26 284.1 107.62 285.7 105 287.35 102.42 289.04 99.86 290.77 97.33 292.56 94.84 294.38 92.37 296.25 89.94 298.15 87.54 300.1 85.17 302.1 82.84 304.13 80.55 306.2 78.29 308.31 76.06 310.46 73.87 312.65 71.73 314.87 69.61 317.13 67.54 319.43 65.51 321.76 63.52 324.12 61.57 326.52 59.66 328.96 57.79 331.42 55.97 333.92 54.19 336.44 52.45 339 50.76 341.59 49.11 344.2 47.51 346.84 45.96 349.51 44.45 352.2 42.98 354.92 41.57 357.67 40.2 360.44 38.88 363.23 37.61 366.04 36.39 368.87 35.21 371.72 34.09 374.59 33.01 377.48 31.99 380.39 31.02 383.32 30.1 386.26 29.23 389.21 28.41 392.18 27.64 395.16 26.92 398.15 26.26 401.16 25.65 404.17 25.09 407.2 24.58 410.23 24.13 413.27 23.73 416.32 23.38 419.37 23.09 422.42 22.85 425.48 22.66 428.55 22.53 431.61 22.45 434.68 22.42" stroke-width="1.07" stroke="#4d4d4d" stroke-dasharray="2.85 2.85" stroke-linecap="round" stroke-linejoin="round" stroke-miterlimit="10"/></g><defs><clipPath id="figure-01-03svg-d"><rect x="297.16" y="105.3" width="272.29" height="188.33" fill="none" stroke="#000" stroke-linecap="round" stroke-linejoin="round" stroke-miterlimit="10"/></clipPath></defs><g clip-path="url(#figure-01-03svg-d)"><rect x="297.16" y="105.3" width="272.29" height="188.33" fill="none"/></g><g clip-path="url(#figure-01-03svg-a)"><rect x="376" y="109.55" width="179.28" height="141.24" fill="#fff"/><polyline points="376 250.79 555.28 250.79" stroke-width="1.07" stroke="#c6c4c4" stroke-linecap="butt" fill="none" stroke-linejoin="round" stroke-miterlimit="10"/><polyline points="376 222.54 555.28 222.54" stroke-width="1.07" stroke="#c6c4c4" stroke-linecap="butt" fill="none" stroke-linejoin="round" stroke-miterlimit="10"/><polyline points="376 194.3 555.28 194.3" stroke-width="1.07" stroke="#c6c4c4" stroke-linecap="butt" fill="none" stroke-linejoin="round" stroke-miterlimit="10"/><polyline points="376 166.05 555.28 166.05" stroke-width="1.07" stroke="#c6c4c4" stroke-linecap="butt" fill="none" stroke-linejoin="round" stroke-miterlimit="10"/><polyline points="376 137.8 555.28 137.8" stroke-width="1.07" stroke="#c6c4c4" stroke-linecap="butt" fill="none" stroke-linejoin="round" stroke-miterlimit="10"/><polyline points="376 109.55 555.28 109.55" stroke-width="1.07" stroke="#c6c4c4" stroke-linecap="butt" fill="none" stroke-linejoin="round" stroke-miterlimit="10"/><polyline points="376 243.16 416.34 242.04 425.3 235.9 443.23 208.79 461.16 192.01 483.57 168.28 501.5 158.71 546.32 131.63 548.11 111.68" stroke-width="1.2" stroke="#3a53a4" stroke-linecap="butt" fill="none" stroke-linejoin="round" stroke-miterlimit="10"/><circle cx="376" cy="243.16" r="2.2" stroke-width="1.2" stroke="#3a53a4" fill="#3a53a4" stroke-linecap="round" stroke-linejoin="round" stroke-miterlimit="10"/><circle cx="416.34" cy="242.04" r="2.2" stroke-width="1.2" stroke="#3a53a4" fill="#3a53a4" stroke-linecap="round" stroke-linejoin="round" stroke-miterlimit="10"/><circle cx="425.3" cy="235.9" r="2.2" stroke-width="1.2" stroke="#3a53a4" fill="#3a53a4" stroke-linecap="round" stroke-linejoin="round" stroke-miterlimit="10"/><circle cx="443.23" cy="208.79" r="2.2" stroke-width="1.2" stroke="#3a53a4" fill="#3a53a4" stroke-linecap="round" stroke-linejoin="round" stroke-miterlimit="10"/><circle cx="461.16" cy="192.01" r="2.2" stroke-width="1.2" stroke="#3a53a4" fill="#3a53a4" stroke-linecap="round" stroke-linejoin="round" stroke-miterlimit="10"/><circle cx="483.57" cy="168.28" r="2.2" stroke-width="1.2" stroke="#3a53a4" fill="#3a53a4" stroke-linecap="round" stroke-linejoin="round" stroke-miterlimit="10"/><circle cx="501.5" cy="158.71" r="2.2" stroke-width="1.2" stroke="#3a53a4" fill="#3a53a4" stroke-linecap="round" stroke-linejoin="round" stroke-miterlimit="10"/><circle cx="546.32" cy="131.63" r="2.2" stroke-width="1.2" stroke="#3a53a4" fill="#3a53a4" stroke-linecap="round" stroke-linejoin="round" stroke-miterlimit="10"/><circle cx="548.11" cy="111.68" r="2.2" stroke-width="1.2" stroke="#3a53a4" fill="#3a53a4" stroke-linecap="round" stroke-linejoin="round" stroke-miterlimit="10"/><polyline points="376 250.79 376 109.55" stroke-width="1.07" stroke="#464646" stroke-linecap="butt" fill="none" stroke-linejoin="round" stroke-miterlimit="10"/><text x="341.44" y="254.17" textLength="22.46" lengthAdjust="spacingAndGlyphs" font-size="14" font-family="Asap">100</text><text x="330.94" y="225.92" textLength="32.72" lengthAdjust="spacingAndGlyphs" font-size="14" font-family="Asap">1,000</text><text x="323.44" y="197.67" textLength="40.21" lengthAdjust="spacingAndGlyphs" font-size="14" font-family="Asap">10,000</text><text x="315.94" y="169.42" textLength="47.7" lengthAdjust="spacingAndGlyphs" font-size="14" font-family="Asap">100,000</text><text x="305.44" y="141.17" textLength="57.96" lengthAdjust="spacingAndGlyphs" font-size="14" font-family="Asap">1,000,000</text><text x="297.94" y="112.92" textLength="65.45" lengthAdjust="spacingAndGlyphs" font-size="14" font-family="Asap">10,000,000</text><polyline points="368.92 250.79 376 250.79" stroke-width="1.07" stroke="#464646" stroke-linecap="butt" fill="none" stroke-linejoin="round" stroke-miterlimit="10"/><polyline points="368.92 222.54 376 222.54" stroke-width="1.07" stroke="#464646" stroke-linecap="butt" fill="none" stroke-linejoin="round" stroke-miterlimit="10"/><polyline points="368.92 194.3 376 194.3" stroke-width="1.07" stroke="#464646" stroke-linecap="butt" fill="none" stroke-linejoin="round" stroke-miterlimit="10"/><polyline points="368.92 166.05 376 166.05" stroke-width="1.07" stroke="#464646" stroke-linecap="butt" fill="none" stroke-linejoin="round" stroke-miterlimit="10"/><polyline points="368.92 137.8 376 137.8" stroke-width="1.07" stroke="#464646" stroke-linecap="butt" fill="none" stroke-linejoin="round" stroke-miterlimit="10"/><polyline points="368.92 109.55 376 109.55" stroke-width="1.07" stroke="#464646" stroke-linecap="butt" fill="none" stroke-linejoin="round" stroke-miterlimit="10"/><polyline points="376 250.79 555.28 250.79" stroke-width="1.07" stroke="#464646" stroke-linecap="butt" fill="none" stroke-linejoin="round" stroke-miterlimit="10"/><polyline points="376 257.88 376 250.79" stroke-width="1.07" stroke="#464646" stroke-linecap="butt" fill="none" stroke-linejoin="round" stroke-miterlimit="10"/><polyline points="393.93 257.88 393.93 250.79" stroke-width="1.07" stroke="#464646" stroke-linecap="butt" fill="none" stroke-linejoin="round" stroke-miterlimit="10"/><polyline points="411.86 257.88 411.86 250.79" stroke-width="1.07" stroke="#464646" stroke-linecap="butt" fill="none" stroke-linejoin="round" stroke-miterlimit="10"/><polyline points="429.79 257.88 429.79 250.79" stroke-width="1.07" stroke="#464646" stroke-linecap="butt" fill="none" stroke-linejoin="round" stroke-miterlimit="10"/><polyline points="447.71 257.88 447.71 250.79" stroke-width="1.07" stroke="#464646" stroke-linecap="butt" fill="none" stroke-linejoin="round" stroke-miterlimit="10"/><polyline points="465.64 257.88 465.64 250.79" stroke-width="1.07" stroke="#464646" stroke-linecap="butt" fill="none" stroke-linejoin="round" stroke-miterlimit="10"/><polyline points="483.57 257.88 483.57 250.79" stroke-width="1.07" stroke="#464646" stroke-linecap="butt" fill="none" stroke-linejoin="round" stroke-miterlimit="10"/><polyline points="501.5 257.88 501.5 250.79" stroke-width="1.07" stroke="#464646" stroke-linecap="butt" fill="none" stroke-linejoin="round" stroke-miterlimit="10"/><polyline points="519.42 257.88 519.42 250.79" stroke-width="1.07" stroke="#464646" stroke-linecap="butt" fill="none" stroke-linejoin="round" stroke-miterlimit="10"/><polyline points="537.35 257.88 537.35 250.79" stroke-width="1.07" stroke="#464646" stroke-linecap="butt" fill="none" stroke-linejoin="round" stroke-miterlimit="10"/><polyline points="555.28 257.88 555.28 250.79" stroke-width="1.07" stroke="#464646" stroke-linecap="butt" fill="none" stroke-linejoin="round" stroke-miterlimit="10"/><text transform="rotate(-90 336.12 -43.26)" textLength="29.95" lengthAdjust="spacingAndGlyphs" font-size="14" font-family="Asap">1800</text><text transform="rotate(-90 345.085 -52.225)" textLength="29.95" lengthAdjust="spacingAndGlyphs" font-size="14" font-family="Asap">1820</text><text transform="rotate(-90 354.045 -61.185)" textLength="29.95" lengthAdjust="spacingAndGlyphs" font-size="14" font-family="Asap">1840</text><text transform="rotate(-90 363.01 -70.15)" textLength="29.95" lengthAdjust="spacingAndGlyphs" font-size="14" font-family="Asap">1860</text><text transform="rotate(-90 371.975 -79.115)" textLength="29.95" lengthAdjust="spacingAndGlyphs" font-size="14" font-family="Asap">1880</text><text transform="rotate(-90 380.94 -88.08)" textLength="29.95" lengthAdjust="spacingAndGlyphs" font-size="14" font-family="Asap">1900</text><text transform="rotate(-90 389.9 -97.04)" textLength="29.95" lengthAdjust="spacingAndGlyphs" font-size="14" font-family="Asap">1920</text><text transform="rotate(-90 398.865 -106.005)" textLength="29.95" lengthAdjust="spacingAndGlyphs" font-size="14" font-family="Asap">1940</text><text transform="rotate(-90 407.83 -114.97)" textLength="29.95" lengthAdjust="spacingAndGlyphs" font-size="14" font-family="Asap">1960</text><text transform="rotate(-90 416.795 -123.935)" textLength="29.95" lengthAdjust="spacingAndGlyphs" font-size="14" font-family="Asap">1980</text><text transform="rotate(-90 425.755 -132.895)" textLength="29.95" lengthAdjust="spacingAndGlyphs" font-size="14" font-family="Asap">2000</text><polyline points="148.64 419.19 148.64 42.52" stroke-width="1.07" stroke="#464646" stroke-linecap="butt" fill="none" stroke-linejoin="round" stroke-miterlimit="10"/><text x="112.33" y="423.6" textLength="19.27" lengthAdjust="spacingAndGlyphs" font-size="18" font-family="Asap">10</text><text x="102.69" y="360.82" textLength="28.9" lengthAdjust="spacingAndGlyphs" font-size="18" font-family="Asap">100</text><text x="89.5" y="298.04" textLength="42.1" lengthAdjust="spacingAndGlyphs" font-size="18" font-family="Asap">1,000</text><text x="79.86" y="235.26" textLength="51.73" lengthAdjust="spacingAndGlyphs" font-size="18" font-family="Asap">10,000</text><text x="70.23" y="172.49" textLength="61.37" lengthAdjust="spacingAndGlyphs" font-size="18" font-family="Asap">100,000</text><text x="57.03" y="109.71" textLength="74.56" lengthAdjust="spacingAndGlyphs" font-size="18" font-family="Asap">1,000,000</text><text x="47.4" y="46.93" textLength="84.2" lengthAdjust="spacingAndGlyphs" font-size="18" font-family="Asap">10,000,000</text><polyline points="141.56 419.19 148.64 419.19" stroke-width="1.07" stroke="#464646" stroke-linecap="butt" fill="none" stroke-linejoin="round" stroke-miterlimit="10"/><polyline points="141.56 356.41 148.64 356.41" stroke-width="1.07" stroke="#464646" stroke-linecap="butt" fill="none" stroke-linejoin="round" stroke-miterlimit="10"/><polyline points="141.56 293.63 148.64 293.63" stroke-width="1.07" stroke="#464646" stroke-linecap="butt" fill="none" stroke-linejoin="round" stroke-miterlimit="10"/><polyline points="141.56 230.85 148.64 230.85" stroke-width="1.07" stroke="#464646" stroke-linecap="butt" fill="none" stroke-linejoin="round" stroke-miterlimit="10"/><polyline points="141.56 168.08 148.64 168.08" stroke-width="1.07" stroke="#464646" stroke-linecap="butt" fill="none" stroke-linejoin="round" stroke-miterlimit="10"/><polyline points="141.56 105.3 148.64 105.3" stroke-width="1.07" stroke="#464646" stroke-linecap="butt" fill="none" stroke-linejoin="round" stroke-miterlimit="10"/><polyline points="141.56 42.52 148.64 42.52" stroke-width="1.07" stroke="#464646" stroke-linecap="butt" fill="none" stroke-linejoin="round" stroke-miterlimit="10"/><polyline points="148.64 419.19 767.48 419.19" stroke-width="1.07" stroke="#464646" stroke-linecap="butt" fill="none" stroke-linejoin="round" stroke-miterlimit="10"/><polyline points="643.71 426.27 643.71 419.19" stroke-width="1.07" stroke="#464646" stroke-linecap="butt" fill="none" stroke-linejoin="round" stroke-miterlimit="10"/><polyline points="519.95 426.27 519.95 419.19" stroke-width="1.07" stroke="#464646" stroke-linecap="butt" fill="none" stroke-linejoin="round" stroke-miterlimit="10"/><polyline points="396.18 426.27 396.18 419.19" stroke-width="1.07" stroke="#464646" stroke-linecap="butt" fill="none" stroke-linejoin="round" stroke-miterlimit="10"/><polyline points="272.41 426.27 272.41 419.19" stroke-width="1.07" stroke="#464646" stroke-linecap="butt" fill="none" stroke-linejoin="round" stroke-miterlimit="10"/><polyline points="148.64 426.27 148.64 419.19" stroke-width="1.07" stroke="#464646" stroke-linecap="butt" fill="none" stroke-linejoin="round" stroke-miterlimit="10"/><text transform="rotate(-90 568.045 -80.075)" textLength="51.73" lengthAdjust="spacingAndGlyphs" font-size="18" font-family="Asap">20,000</text><text transform="rotate(-90 506.165 -18.195)" textLength="51.73" lengthAdjust="spacingAndGlyphs" font-size="18" font-family="Asap">40,000</text><text transform="rotate(-90 444.28 43.69)" textLength="51.73" lengthAdjust="spacingAndGlyphs" font-size="18" font-family="Asap">60,000</text><text transform="rotate(-90 382.395 105.575)" textLength="51.73" lengthAdjust="spacingAndGlyphs" font-size="18" font-family="Asap">80,000</text><text transform="rotate(-90 325.325 172.275)" textLength="61.37" lengthAdjust="spacingAndGlyphs" font-size="18" font-family="Asap">100,000</text><text x="414.84" y="526.59" textLength="48.44" lengthAdjust="spacingAndGlyphs" font-size="20" font-weight="500" font-family="Asap Medium">Years</text><text x="468.08" y="526.59" textLength="33.21" lengthAdjust="spacingAndGlyphs" font-size="20" font-weight="500" font-family="Asap Medium">ago</text><text transform="rotate(-90 227.115 198.905)" textLength="115.5" lengthAdjust="spacingAndGlyphs" font-size="20" font-weight="500" font-family="Asap Medium">Lumen-hours</text><text transform="rotate(-90 166.965 138.755)" textLength="29.56" lengthAdjust="spacingAndGlyphs" font-size="20" font-weight="500" font-family="Asap Medium">per</text><text transform="rotate(-90 149.78 121.57)" textLength="41.14" lengthAdjust="spacingAndGlyphs" font-size="20" font-weight="500" font-family="Asap Medium">hour</text><text transform="rotate(-90 126.81 98.6)" textLength="17.88" lengthAdjust="spacingAndGlyphs" font-size="20" font-weight="500" font-family="Asap Medium">of</text><text transform="rotate(-90 115.465 87.255)" textLength="58.07" lengthAdjust="spacingAndGlyphs" font-size="20" font-weight="500" font-family="Asap Medium">labour</text><text transform="rotate(-90 84.03 55.82)" textLength="47.76" lengthAdjust="spacingAndGlyphs" font-size="20" font-weight="500" font-family="Asap Medium">(ratio</text><text transform="rotate(-90 57.75 29.54)" textLength="51.6" lengthAdjust="spacingAndGlyphs" font-size="20" font-weight="500" font-family="Asap Medium">scale)</text></g></svg>